<svg xmlns="http://www.w3.org/2000/svg" width="1870.377" height="879.483" viewBox="0 0 1870.377 879.483"><defs><style>.a{fill:#ffc100;}.b{fill:#062a4f;}.c{fill:#0059a7;}.d,.e{fill:none;}.e{stroke:#d8d7e1;stroke-linecap:round;stroke-width:5px;}.f,.g,.h,.i{stroke:none;}.g{fill:#ffcd05;}.h{fill:#00a0d1;}.i{fill:#266ab4;}</style></defs><g transform="translate(-50 -200.412)"><g transform="translate(150 -1159.318)"><g transform="translate(0 1842.821)"><path class="a" d="M1770.2,1852.1l.176,387.118H0c41.465-20.34,90.351-30.324,136.461-31.666,70.4-2.06,144.114,2.707,207.511-31.008,57.823-30.753,105.448-92.559,169.642-94.785,79.165-2.707,147.564,88.672,224.792,69.35,57-14.254,94.324-85.432,152.653-89.9,62.428-4.795,112.786,70.229,175.193,64.768,57.318-5.021,94.262-75.228,150.676-87.423,56.877-12.263,109.927,38.042,167.792,41.444,55.909,3.286,106-37.579,144.179-82.656,38.184-45.1,71.132-97.418,118.842-129.676C1683.929,1843.209,1732.8,1834.486,1770.2,1852.1Z" transform="translate(0 -1842.821)"/></g><g transform="translate(394.897 1972.546)"><path class="b" d="M2589.479,2241.623v266.668H1214c2.513-60.774,41.383-93.7,81.935-101.081,41.27-7.515,83.352,4.914,123.184,18.025,39.857,13.112,80.993,27.221,122.734,23.148,80.409-7.856,149.6-81.742,229.2-68,32.608,5.624,60.615,25.487,89.542,41.567,28.9,16.055,62.975,28.929,94.592,19.179,38.847-12.008,61.868-54.363,100.225-67.843,57.093-20.047,120.962,31.451,178.255,12.008,27.087-9.2,46.634-32.608,62.636-56.255,16-23.674,30.476-49.266,52.917-66.949s55.947-25.434,79.556-9.327c26.347,17.92,37.1,61.3,68.968,61.747,22.307.341,37.164-21.835,49.395-40.49C2557.162,2258.728,2572.669,2242.7,2589.479,2241.623Z" transform="translate(-1213.998 -2241.623)"/></g><g transform="translate(1110.126 2048.174)"><path class="c" d="M4073.017,2474.122v191.039H3412.766c37.366-66.631,116.234-108.32,192.428-100.123,29.476,3.171,57.847,12.965,87.132,17.567s61.323,3.312,85.679-13.575c22.734-15.76,36.92-43.779,63.015-53.009,31.143-11.039,63.647,9.253,95.824,16.816C3988.394,2544.957,4045.491,2518.723,4073.017,2474.122Z" transform="translate(-3412.766 -2474.122)"/></g></g><g class="d" transform="translate(1803 236.475) rotate(-45)"><path class="f" d="M21.174,7.464a5,5,0,0,1,8.652,0L46.649,36.493A5,5,0,0,1,42.323,44H8.677a5,5,0,0,1-4.326-7.507Z"/><path class="g" d="M 25.50000190734863 9.971607208251953 C 25.50000190734863 9.971607208251953 25.5 9.971611022949219 25.5 9.971611022949219 L 8.676723480224609 38.9999885559082 C 8.676719665527344 38.99999237060547 8.676719665527344 38.99999618530273 8.676715850830078 39 C 8.676719665527344 39 8.676719665527344 39 8.676723480224609 39 L 42.32326507568359 39 C 42.32326889038086 39 42.32327270507812 39 42.32327651977539 39 L 25.5000114440918 9.971622467041016 C 25.50000762939453 9.97161865234375 25.5000057220459 9.971611022949219 25.50000190734863 9.971607208251953 M 25.5 4.971607208251953 C 27.18142509460449 4.971607208251953 28.86285018920898 5.802566528320312 29.82601165771484 7.464488983154297 L 46.64928817749023 36.49287796020508 C 48.58110046386719 39.82621002197266 46.17593383789062 44 42.32326507568359 44 L 8.676723480224609 44 C 4.824066162109375 44 2.418899536132812 39.82621002197266 4.350711822509766 36.49287796020508 L 21.17398834228516 7.464488983154297 C 22.13714981079102 5.802566528320312 23.81857490539551 4.971607208251953 25.5 4.971607208251953 Z"/></g><g class="d" transform="translate(1664.163 1000.362) rotate(45)"><path class="f" d="M17.177,7.44a5,5,0,0,1,8.646,0L38.635,29.488A5,5,0,0,1,34.312,37H8.688a5,5,0,0,1-4.323-7.512Z"/><path class="g" d="M 21.5 9.95189094543457 L 8.688259124755859 31.99999046325684 C 8.688259124755859 31.99999237060547 8.688255310058594 31.99999809265137 8.688255310058594 32 C 8.688255310058594 32 8.688259124755859 32 8.688259124755859 32 L 34.31174087524414 32 L 21.5 9.95189094543457 M 21.4999942779541 4.951885223388672 C 23.17966461181641 4.951885223388672 24.85933494567871 5.78118896484375 25.8231201171875 7.439800262451172 L 38.63486862182617 29.48791122436523 C 40.5717887878418 32.82123184204102 38.16695022583008 37 34.31174087524414 37 L 8.688259124755859 37 C 4.833049774169922 37 2.428211212158203 32.82123184204102 4.365131378173828 29.48791122436523 L 17.17687034606934 7.439800262451172 C 18.14065551757812 5.78118896484375 19.82032585144043 4.951885223388672 21.4999942779541 4.951885223388672 Z"/></g><g class="d" transform="translate(1156.962 804.916) rotate(60)"><path class="f" d="M16.681,7.4a5,5,0,0,1,8.638,0L37.614,28.481A5,5,0,0,1,33.295,36H8.705a5,5,0,0,1-4.319-7.519Z"/><path class="h" d="M 20.99999618530273 9.92317008972168 L 21 9.923164367675781 L 8.705181121826172 30.99999618530273 L 33.2948112487793 30.99999618530273 C 33.2948112487793 30.99999618530273 33.29481506347656 30.99999618530273 33.29481887817383 31.0000057220459 L 21 9.923175811767578 C 20.99999809265137 9.923173904418945 20.99999809265137 9.923171997070312 20.99999618530273 9.92317008972168 M 20.99999809265137 4.923168182373047 C 22.67709732055664 4.923168182373047 24.35419464111328 5.750049591064453 25.31888961791992 7.403816223144531 L 37.61370849609375 28.48064422607422 C 39.55812072753906 31.81392669677734 37.15377044677734 35.99999618530273 33.2948112487793 35.99999618530273 L 8.705181121826172 35.99999618530273 C 4.846229553222656 35.99999618530273 2.441871643066406 31.81392669677734 4.38629150390625 28.48064422607422 L 16.68110084533691 7.403816223144531 C 17.64579963684082 5.750049591064453 19.32290077209473 4.923168182373047 20.99999809265137 4.923168182373047 Z"/></g><g class="d" transform="translate(678.269 1031.366) rotate(-37)"><path class="f" d="M12.192,7.31a5,5,0,0,1,8.615,0l7.75,13.152A5,5,0,0,1,24.25,28H8.75a5,5,0,0,1-4.308-7.538Z"/><path class="h" d="M 16.49999618530273 9.848491668701172 L 16.5 9.848485946655273 L 8.75 22.99999618530273 L 24.25 22.99999618530273 L 16.5 9.84849739074707 C 16.49999809265137 9.848495483398438 16.49999809265137 9.848493576049805 16.49999618530273 9.848491668701172 M 16.49999618530273 4.848489761352539 C 18.17032623291016 4.848489761352539 19.84065628051758 5.669002532958984 20.80768966674805 7.310026168823242 L 28.55768966674805 20.4615364074707 C 30.52186012268066 23.794677734375 28.11882019042969 27.99999618530273 24.25 27.99999618530273 L 8.75 27.99999618530273 C 4.881179809570312 27.99999618530273 2.478139877319336 23.794677734375 4.442310333251953 20.4615364074707 L 12.19231033325195 7.310026168823242 C 13.15933990478516 5.669002532958984 14.82966804504395 4.848489761352539 16.49999618530273 4.848489761352539 Z"/></g><g class="d" transform="translate(68 758.014) rotate(30)"><path class="f" d="M16.681,7.4a5,5,0,0,1,8.638,0L37.614,28.481A5,5,0,0,1,33.295,36H8.705a5,5,0,0,1-4.319-7.519Z"/><path class="i" d="M 20.99999618530273 9.92317008972168 L 21 9.923164367675781 L 8.705181121826172 30.99999618530273 L 33.2948112487793 30.99999618530273 C 33.2948112487793 30.99999618530273 33.29481506347656 30.99999618530273 33.29481887817383 31.0000057220459 L 21 9.923175811767578 C 20.99999809265137 9.923173904418945 20.99999809265137 9.923171997070312 20.99999618530273 9.92317008972168 M 20.99999809265137 4.923168182373047 C 22.67709732055664 4.923168182373047 24.35419464111328 5.750049591064453 25.31888961791992 7.403816223144531 L 37.61370849609375 28.48064422607422 C 39.55812072753906 31.81392669677734 37.15377044677734 35.99999618530273 33.2948112487793 35.99999618530273 L 8.705181121826172 35.99999618530273 C 4.846229553222656 35.99999618530273 2.441871643066406 31.81392669677734 4.38629150390625 28.48064422607422 L 16.68110084533691 7.403816223144531 C 17.64579963684082 5.750049591064453 19.32290077209473 4.923168182373047 20.99999809265137 4.923168182373047 Z"/></g><g transform="translate(530.261 -289.32) rotate(60)"><line class="e" x2="40" transform="translate(494.5 242.5)"/><line class="e" x2="40" transform="translate(514.5 222.5) rotate(90)"/></g></g></svg>