<svg xmlns="http://www.w3.org/2000/svg" width="1920" height="741" viewBox="0 0 1920 741"><defs><style>.a{fill:#fafafa;}.b,.c{fill:none;}.c{stroke:#d8d7e1;stroke-linecap:round;stroke-width:5px;}.d,.e,.f,.g{stroke:none;}.e{fill:#ffcd05;}.f{fill:#00a0d1;}.g{fill:#266ab4;}</style></defs><g transform="translate(0 -1080)"><rect class="a" width="1920" height="741" transform="translate(0 1080)"/><g class="b" transform="translate(190.163 1150.362) rotate(45)"><path class="d" d="M17.177,7.44a5,5,0,0,1,8.646,0L38.635,29.488A5,5,0,0,1,34.312,37H8.688a5,5,0,0,1-4.323-7.512Z"/><path class="e" d="M 21.5 9.95189094543457 L 8.688259124755859 31.99999046325684 C 8.688259124755859 31.99999237060547 8.688255310058594 31.99999809265137 8.688255310058594 32 C 8.688255310058594 32 8.688259124755859 32 8.688259124755859 32 L 34.31174087524414 32 L 21.5 9.95189094543457 M 21.4999942779541 4.951885223388672 C 23.17966461181641 4.951885223388672 24.85933494567871 5.78118896484375 25.8231201171875 7.439800262451172 L 38.63486862182617 29.48791122436523 C 40.5717887878418 32.82123184204102 38.16695022583008 37 34.31174087524414 37 L 8.688259124755859 37 C 4.833049774169922 37 2.428211212158203 32.82123184204102 4.365131378173828 29.48791122436523 L 17.17687034606934 7.439800262451172 C 18.14065551757812 5.78118896484375 19.82032585144043 4.951885223388672 21.4999942779541 4.951885223388672 Z"/></g><g class="b" transform="translate(1642.962 1669.916) rotate(60)"><path class="d" d="M16.681,7.4a5,5,0,0,1,8.638,0L37.614,28.481A5,5,0,0,1,33.295,36H8.705a5,5,0,0,1-4.319-7.519Z"/><path class="f" d="M 20.99999618530273 9.92317008972168 L 21 9.923164367675781 L 8.705181121826172 30.99999618530273 L 33.2948112487793 30.99999618530273 C 33.2948112487793 30.99999618530273 33.29481506347656 30.99999618530273 33.29481887817383 31.0000057220459 L 21 9.923175811767578 C 20.99999809265137 9.923173904418945 20.99999809265137 9.923171997070312 20.99999618530273 9.92317008972168 M 20.99999809265137 4.923168182373047 C 22.67709732055664 4.923168182373047 24.35419464111328 5.750049591064453 25.31888961791992 7.403816223144531 L 37.61370849609375 28.48064422607422 C 39.55812072753906 31.81392669677734 37.15377044677734 35.99999618530273 33.2948112487793 35.99999618530273 L 8.705181121826172 35.99999618530273 C 4.846229553222656 35.99999618530273 2.441871643066406 31.81392669677734 4.38629150390625 28.48064422607422 L 16.68110084533691 7.403816223144531 C 17.64579963684082 5.750049591064453 19.32290077209473 4.923168182373047 20.99999809265137 4.923168182373047 Z"/></g><g class="b" transform="translate(1335 1207.014) rotate(30)"><path class="d" d="M16.681,7.4a5,5,0,0,1,8.638,0L37.614,28.481A5,5,0,0,1,33.295,36H8.705a5,5,0,0,1-4.319-7.519Z"/><path class="g" d="M 20.99999618530273 9.92317008972168 L 21 9.923164367675781 L 8.705181121826172 30.99999618530273 L 33.2948112487793 30.99999618530273 C 33.2948112487793 30.99999618530273 33.29481506347656 30.99999618530273 33.29481887817383 31.0000057220459 L 21 9.923175811767578 C 20.99999809265137 9.923173904418945 20.99999809265137 9.923171997070312 20.99999618530273 9.92317008972168 M 20.99999809265137 4.923168182373047 C 22.67709732055664 4.923168182373047 24.35419464111328 5.750049591064453 25.31888961791992 7.403816223144531 L 37.61370849609375 28.48064422607422 C 39.55812072753906 31.81392669677734 37.15377044677734 35.99999618530273 33.2948112487793 35.99999618530273 L 8.705181121826172 35.99999618530273 C 4.846229553222656 35.99999618530273 2.441871643066406 31.81392669677734 4.38629150390625 28.48064422607422 L 16.68110084533691 7.403816223144531 C 17.64579963684082 5.750049591064453 19.32290077209473 4.923168182373047 20.99999809265137 4.923168182373047 Z"/></g><g transform="translate(988.261 992.68) rotate(60)"><line class="c" x2="40" transform="translate(494.5 242.5)"/><line class="c" x2="40" transform="translate(514.5 222.5) rotate(90)"/></g></g></svg>