<svg xmlns="http://www.w3.org/2000/svg" width="465.413" height="411.684" viewBox="0 0 465.413 411.684"><defs><style>.a{fill:#fafafa;}.b{fill:#e0e0e0;}.c{fill:#ebebeb;}.d{fill:#f5f5f5;}.e{fill:#00a0d1;}.f{fill:#263238;}.g{fill:#455a64;}.h{fill:#266ab4;}.i{fill:#ffbe9d;}.j{fill:#eb996e;}.k{opacity:0.3;}.l{fill:#fff;}</style></defs><g transform="translate(-16.63 -31.187)"><rect class="a" width="173.59" height="155.304" transform="translate(41.151 88.84)"/><path class="b" d="M214.741,244.145s-.029-1-.044-2.883c-.01-1.906-.025-4.692-.045-8.321-.024-7.292-.058-17.95-.1-31.525-.049-27.136-.119-65.91-.2-112.575l.394.393L41.166,89.3h-.015l.463-.463c-.02,56.5-.039,109.669-.055,155.3l-.408-.408,125.553.206,35.412.108,9.374.048,2.418.023c.544.008.833.024.833.024s-.257.015-.787.023l-2.373.023-9.295.048-35.32.108-125.815.206h-.409v-.41c-.016-45.634-.035-98.8-.056-155.3v-.465h.48l173.575.071h.394v.394c-.084,46.769-.154,85.628-.2,112.824-.044,13.537-.078,24.166-.1,31.436-.02,3.6-.035,6.358-.045,8.246C214.77,243.207,214.741,244.145,214.741,244.145Z"/><path class="b" d="M107.711,116.435c0,.256-9.137.464-20.4.464s-20.408-.208-20.408-.464,9.135-.464,20.408-.464S107.711,116.179,107.711,116.435Z"/><path class="b" d="M181.264,128.1c0,.256-25.1.463-56.059.463s-56.064-.207-56.064-.463,25.1-.464,56.064-.464S181.264,127.84,181.264,128.1Z"/><rect class="b" width="7.314" height="7.313" transform="translate(67.197 147.848)"/><rect class="b" width="7.313" height="7.313" transform="translate(85.199 147.848)"/><rect class="b" width="7.313" height="7.313" transform="translate(103.534 147.516)"/><rect class="b" width="7.313" height="7.313" transform="translate(121.204 147.848)"/><rect class="b" width="7.313" height="7.313" transform="translate(139.206 147.848)"/><rect class="b" width="7.313" height="7.313" transform="translate(157.208 147.848)"/><rect class="c" width="7.313" height="7.313" transform="translate(175.21 147.848)"/><rect class="c" width="7.314" height="7.313" transform="translate(67.197 163.396)"/><rect class="b" width="7.313" height="7.313" transform="translate(85.199 163.396)"/><rect class="c" width="7.314" height="7.313" transform="translate(103.201 163.396)"/><rect class="b" width="7.313" height="7.313" transform="translate(121.204 163.396)"/><rect class="b" width="7.313" height="7.313" transform="translate(139.206 163.396)"/><rect class="b" width="7.313" height="7.313" transform="translate(157.54 163.064)"/><rect class="b" width="7.313" height="7.313" transform="translate(175.21 163.396)"/><rect class="b" width="7.314" height="7.313" transform="translate(67.197 178.944)"/><rect class="b" width="7.313" height="7.313" transform="translate(85.531 178.611)"/><rect class="b" width="7.314" height="7.313" transform="translate(103.201 178.944)"/><rect class="c" width="7.313" height="7.313" transform="translate(121.204 178.944)"/><rect class="b" width="7.313" height="7.313" transform="translate(139.206 178.944)"/><rect class="b" width="7.313" height="7.313" transform="translate(157.208 178.944)"/><rect class="b" width="7.313" height="7.313" transform="translate(175.21 178.944)"/><rect class="b" width="7.314" height="7.314" transform="translate(67.197 194.491)"/><rect class="b" width="7.313" height="7.314" transform="translate(85.199 194.491)"/><rect class="b" width="7.314" height="7.314" transform="translate(103.201 194.491)"/><rect class="b" width="7.313" height="7.313" transform="translate(121.536 194.159)"/><rect class="b" width="7.313" height="7.314" transform="translate(139.206 194.491)"/><rect class="c" width="7.313" height="7.314" transform="translate(157.208 194.491)"/><rect class="b" width="7.313" height="7.314" transform="translate(175.21 194.491)"/><rect class="b" width="7.314" height="7.313" transform="translate(67.197 210.039)"/><rect class="c" width="7.313" height="7.313" transform="translate(85.199 210.039)"/><rect class="b" width="7.314" height="7.313" transform="translate(103.201 210.039)"/><rect class="b" width="7.313" height="7.313" transform="translate(121.204 210.039)"/><rect class="b" width="7.313" height="7.313" transform="translate(139.206 210.039)"/><rect class="b" width="7.313" height="7.313" transform="translate(157.54 209.707)"/><rect class="b" width="7.313" height="7.313" transform="translate(175.21 210.039)"/><rect class="b" width="11.156" height="55.509" transform="translate(399.606 51.946) rotate(-0.307)"/><rect class="c" width="28.889" height="30.645" transform="translate(302.963 52.185) rotate(-0.306)"/><rect class="d" width="28.889" height="30.645" transform="matrix(1, -0.005, 0.005, 1, 331.715, 52.031)"/><path class="b" d="M303.008,60.649c19.2.158,38.444.046,57.64-.266a.307.307,0,0,0,0-.613c-19.2-.106-38.445-.012-57.639.352a.264.264,0,0,0,0,.527Z"/><rect class="c" width="52.486" height="24.973" transform="translate(284.952 82.445) rotate(-0.307)"/><rect class="d" width="52.486" height="24.973" transform="translate(337.189 82.165) rotate(-0.307)"/><path class="b" d="M284.989,89.391c34.867.394,69.857.041,104.722-.517a.307.307,0,0,0,0-.614c-34.869-.185-69.861-.164-104.722.6a.263.263,0,0,0,0,.526Z"/><rect class="b" width="203.346" height="8.947" transform="translate(265.361 107.418)"/><rect class="b" width="8.255" height="30.528" transform="translate(298.653 111.72)"/><rect class="b" width="8.255" height="30.528" transform="translate(421.88 111.72)"/><rect class="c" width="11.156" height="76.345" transform="translate(410.492 31.246) rotate(-0.307)"/><rect class="d" width="17.334" height="61.869" transform="translate(421.744 45.491) rotate(-0.308)"/><path class="b" d="M438.961,57.317c0,.166-3.88.3-8.666.3s-8.668-.135-8.668-.3,3.88-.3,8.668-.3S438.961,57.152,438.961,57.317Z"/><path class="b" d="M438.961,54.718c0,.166-3.88.3-8.666.3s-8.668-.135-8.668-.3,3.88-.3,8.668-.3S438.961,54.552,438.961,54.718Z"/><path class="b" d="M438.961,97.958c0,.166-3.88.3-8.666.3s-8.668-.134-8.668-.3,3.88-.3,8.668-.3S438.961,97.792,438.961,97.958Z"/><path class="b" d="M438.961,95.359c0,.166-3.88.3-8.666.3s-8.668-.134-8.668-.3,3.88-.3,8.668-.3S438.961,95.193,438.961,95.359Z"/><path class="b" d="M430.573,89.688c-.166,0-.3-6.242-.3-13.94s.134-13.941.3-13.941.3,6.24.3,13.941S430.739,89.688,430.573,89.688Z"/><rect class="c" width="18.868" height="46.698" transform="translate(439.149 60.591)"/><path class="b" d="M419.112,44.221a3.206,3.206,0,1,1-3.206-3.206A3.206,3.206,0,0,1,419.112,44.221Z"/><rect class="b" width="1.982" height="45.416" transform="translate(414.915 53.039)"/><path class="e" d="M74.262,342.833c5.234-2.7,11.4-3.051,17.206-2.091,3.121.516,6.375,1.45,8.5,3.795s2.527,6.47.088,8.485c-1.452,1.2-3.476,1.381-5.359,1.359-4.548-.053-9.6-.853-13.228,1.883-2.074,1.562-3.453,4.157-5.932,4.925-2.425.751-5.161-.68-6.447-2.869a10.009,10.009,0,0,1-.729-7.39A11.284,11.284,0,0,1,74.262,342.833Z"/><path class="e" d="M62.273,319.688c3.2,4.57,9.419,3.057,12.3.267s4.1-6.833,5.212-10.689c2.535-8.809,5.091-18.051,3.206-27.022a15.011,15.011,0,0,0-3.451-7.347,7.842,7.842,0,0,0-7.433-2.473c-3.135.828-5.084,3.9-6.493,6.821a64.425,64.425,0,0,0-6.366,27.644c-.015,4.453.51,9.123,3.022,12.8"/><path class="e" d="M53.485,326.246c3.475-4.124,4.134-10.138,2.588-15.3s-5.039-9.561-9.064-13.149a48.814,48.814,0,0,0-16.232-9.577,17.315,17.315,0,0,0-7.3-1.24,7.663,7.663,0,0,0-6.126,3.706c-1.708,3.258-.07,7.21,1.7,10.434A123.68,123.68,0,0,0,29.713,317.35c3.2,4.12,6.856,8.184,11.726,10.046s9.929,1.642,12.51-1.735"/><path class="f" d="M62.056,388.632a9.97,9.97,0,0,0,.29-2.076c.147-1.512.331-3.41.551-5.668a82.025,82.025,0,0,1,1.275-8.314,64.176,64.176,0,0,1,3.022-9.812,36.2,36.2,0,0,1,5.01-8.878,18.716,18.716,0,0,1,6.335-5.266,17.715,17.715,0,0,1,5.334-1.661,10.077,10.077,0,0,0,2.068-.3,9.656,9.656,0,0,0-2.1-.033,16.162,16.162,0,0,0-5.563,1.448,18.673,18.673,0,0,0-6.682,5.312,35.32,35.32,0,0,0-5.193,9.056,60.062,60.062,0,0,0-3,9.973,70.4,70.4,0,0,0-1.1,8.418c-.18,2.407-.248,4.356-.281,5.7A9.751,9.751,0,0,0,62.056,388.632Z"/><path class="f" d="M62.447,384.271a4.112,4.112,0,0,0,.055-.964c0-.724,0-1.636-.007-2.756-.007-2.391,0-5.852.123-10.125.211-8.547.947-17.746,2.369-30.715,1.346-12.2,3.153-26.387,5.059-35.614.409-2.1.821-3.987,1.208-5.64.37-1.657.686-3.086.99-4.243.262-1.088.475-1.975.644-2.678a4.165,4.165,0,0,0,.169-.951,4.033,4.033,0,0,0-.335.9l-.8,2.64c-.355,1.146-.719,2.565-1.134,4.216-.433,1.647-.887,3.531-1.335,5.626a313.081,313.081,0,0,0-5.319,33.046c-1.424,13-2.065,24.829-2.122,33.4-.051,4.285.04,7.753.149,10.146.069,1.119.124,2.03.169,2.754A4.034,4.034,0,0,0,62.447,384.271Z"/><path class="f" d="M62.5,361.449a18.443,18.443,0,0,0-.02-2.879c-.106-1.85-.361-4.524-.882-7.8a102.883,102.883,0,0,0-2.536-11.363,93.288,93.288,0,0,0-4.752-13.446A71.633,71.633,0,0,0,40.36,304.234a35.419,35.419,0,0,0-3.283-3.051c-.5-.426-.949-.851-1.4-1.187l-1.274-.878a18.276,18.276,0,0,0-2.423-1.552c-.138.187,3.433,2.289,7.943,7.087A75.462,75.462,0,0,1,53.527,326.3a106.2,106.2,0,0,1,4.779,13.322,115.541,115.541,0,0,1,2.7,11.25c.594,3.242.939,5.889,1.146,7.722A18.526,18.526,0,0,0,62.5,361.449Z"/><path class="f" d="M40.445,401.708l2.287,31.33h40.25l2.287-31.33Z"/><rect class="f" width="53.513" height="12.349" transform="translate(36.557 389.358)"/><path class="g" d="M36.557,431.839v3.423H89.186v-3.423Z"/><path class="g" d="M41.536,441.287l-2.465-6.024h48.2l-2.875,6.024Z"/><path class="b" d="M84.52,411.947a1.218,1.218,0,0,1-.187.288l-.6.8-2.344,3-.105.134-.1-.14-5.761-7.967h.332l-5.672,8.031-.178.251-.2-.237-6.726-8,.388-.005-.37.465-6.014,7.54-.2.251-.185-.262c-2.041-2.889-3.949-5.588-5.674-8.028l.33.016-6.988,7.961-.124.142-.1-.159c-.921-1.548-1.655-2.782-2.188-3.676l-.561-.979a1.614,1.614,0,0,1-.172-.349,1.5,1.5,0,0,1,.235.31l.621.942,2.3,3.609-.219-.018,6.876-8.058.174-.2.157.219,5.724,7.992-.385-.01,6-7.551.37-.465.191-.24.2.235L70.07,415.8l-.377.015,5.728-7.99.168-.234.164.234c2.269,3.241,4.2,5.993,5.638,8.054l-.2-.007,2.439-2.924.653-.756A1.325,1.325,0,0,1,84.52,411.947Z"/><path class="g" d="M85.828,401.5c0,.138-10.085.25-22.523.25s-22.525-.112-22.525-.25,10.083-.251,22.525-.251S85.828,401.363,85.828,401.5Z"/><path class="f" d="M87.861,435.6c0,.138-10.96.25-24.478.25s-24.48-.112-24.48-.25,10.958-.251,24.48-.251S87.861,435.462,87.861,435.6Z"/><path class="g" d="M15.126,0h93.526a15.126,15.126,0,0,1,15.126,15.126V132.744a0,0,0,0,1,0,0H0a0,0,0,0,1,0,0V15.126A15.126,15.126,0,0,1,15.126,0Z" transform="translate(347.972 309.111)"/><path class="f" d="M461.343,309.788c.144,0,.26,29.552.26,66s-.116,66-.26,66-.26-29.545-.26-66S461.2,309.788,461.343,309.788Z"/><path class="f" d="M400.364,165a104.977,104.977,0,0,1,18.814,55.336c.582,13.3-1.209,27.475,5.1,39.2,9.055,16.816,28.649,16.245,34.648,34.378,2.609,7.885-2.2,25.242-3.5,33.446-1.474,9.326,4.23,17.157,2.757,26.483-1.351,8.548-7.748,14.65-15.433,18.63-6.836,3.541-13.157,3.635-20.27.691-13.553-5.611-24.833-11.533-34.49-22.575-13.556-15.5-17.651-36.964-19.968-57.426A504.013,504.013,0,0,1,371.1,157.408"/><path class="g" d="M429.348,375.068s.147-.046.437-.109.726-.136,1.281-.3a21.229,21.229,0,0,0,4.683-1.872,20.776,20.776,0,0,0,6.185-4.96,13,13,0,0,0,2.418-4.288,23.456,23.456,0,0,0,.845-5.495A53.9,53.9,0,0,0,443.9,345.3c-.872-4.537-2.055-9.381-2.34-14.623a30.14,30.14,0,0,1,.566-8.018,52.321,52.321,0,0,1,2.542-7.979c1.018-2.647,2.089-5.321,2.865-8.124a20.836,20.836,0,0,0,.693-8.7,19.675,19.675,0,0,0-3.245-8.083,37.56,37.56,0,0,0-5.67-6.425c-4.132-3.856-8.6-7.04-12.423-10.616a70.327,70.327,0,0,1-16.179-22.337,68.413,68.413,0,0,1-3.725-9.973c-.48-1.494-.754-2.931-1.1-4.229-.257-1.315-.493-2.519-.705-3.6-.318-2.184-.55-3.88-.613-5.041-.044-.56-.077-1-.1-1.316-.02-.3-.017-.449-.017-.449s.032.15.07.445c.037.318.088.753.153,1.31.1,1.156.361,2.845.709,5.017q.338,1.619.747,3.583c.356,1.29.642,2.718,1.134,4.2a69.5,69.5,0,0,0,3.78,9.9,70.5,70.5,0,0,0,16.169,22.138c3.8,3.541,8.278,6.718,12.446,10.6a37.946,37.946,0,0,1,5.753,6.509,20.161,20.161,0,0,1,3.33,8.3,21.327,21.327,0,0,1-.708,8.911c-.789,2.842-1.87,5.532-2.888,8.171a52.033,52.033,0,0,0-2.533,7.9,29.725,29.725,0,0,0-.573,7.891c.267,5.182,1.428,10.014,2.285,14.566a53.869,53.869,0,0,1,1.239,12.842,23.633,23.633,0,0,1-.9,5.58,13.268,13.268,0,0,1-2.509,4.371,20.743,20.743,0,0,1-6.315,4.953,20.131,20.131,0,0,1-4.752,1.794A11.938,11.938,0,0,1,429.348,375.068Z"/><path class="h" d="M243.164,410.8l47.988-22.792s18.689-90.745,22.223-97.56,18.306-12.7,18.306-12.7l-2.475,122.88-4.383,28.345-67.679,6.412Z"/><path class="i" d="M202.205,432.3c-.264-.01-1.6.826-.481,2.932s9.243,9.076,11.635,6.649-1.261-5.389-1.261-5.389Z"/><path class="i" d="M212.443,436.584s9.812,1.238,13.592,2.674c4.1,1.559,9.1.5,12.463-1.783a35.483,35.483,0,0,0,5.324-4.338l12.519-.2a15.026,15.026,0,0,0,2.442-15.512,16.754,16.754,0,0,0-2.868-4.886c-1.487-1.608-3.835-2.912-7.893-3.613l-14.873,3.212s-23.043-1.647-27.138.29c0,0-5.148,3.053-6.742,4.334-.6.482-2.425,6.346,1.323,9.394,0,0-3.263,2.6-1.5,4.922l.847,1.033s-2.194,2.84-1.068,4.076,10.986,7.014,14.512,5.637.609-4.645-.944-5.243"/><path class="j" d="M203.058,421.093a8.988,8.988,0,0,1,1.22.435c.777.3,1.9.716,3.319,1.166.707.225,1.487.455,2.331.677s1.758.41,2.711.72a5.809,5.809,0,0,1,2.7,1.629,3.335,3.335,0,0,1,.722,3.291,2.6,2.6,0,0,1-1.217,1.308,4.575,4.575,0,0,1-1.639.457,13.59,13.59,0,0,1-3.127-.166,27.626,27.626,0,0,1-5.085-1.325c-1.409-.5-2.52-.969-3.286-1.3a7.48,7.48,0,0,1-1.171-.555,8.37,8.37,0,0,1,1.23.407c.783.281,1.909.71,3.321,1.17a29.431,29.431,0,0,0,5.045,1.226,13.558,13.558,0,0,0,3.03.14,4.2,4.2,0,0,0,1.491-.418,2.193,2.193,0,0,0,1.029-1.1,2.955,2.955,0,0,0-.65-2.878,5.505,5.505,0,0,0-2.514-1.529c-.918-.31-1.837-.5-2.682-.75s-1.626-.486-2.332-.73c-1.412-.488-2.528-.952-3.289-1.294A6.879,6.879,0,0,1,203.058,421.093Z"/><path class="j" d="M203.941,414a8.9,8.9,0,0,1,1.212.44c.773.3,1.892.727,3.3,1.2s3.09.976,4.991,1.431a6.839,6.839,0,0,1,2.91,1.178,2.479,2.479,0,0,1,.854,1.505,3.138,3.138,0,0,1-.254,1.75,4.214,4.214,0,0,1-2.568,2.186,6.794,6.794,0,0,1-3.128.248,30.131,30.131,0,0,1-5.03-1.456l-3.316-1.161a7.737,7.737,0,0,1-1.2-.479,7.838,7.838,0,0,1,1.248.328l3.357,1.037a32.523,32.523,0,0,0,4.987,1.357,6.475,6.475,0,0,0,2.95-.253,3.836,3.836,0,0,0,2.323-1.972,2.317,2.317,0,0,0-.489-2.788,6.614,6.614,0,0,0-2.736-1.113,51.478,51.478,0,0,1-5-1.525c-1.4-.505-2.506-.977-3.263-1.321A6.962,6.962,0,0,1,203.941,414Z"/><path class="j" d="M208.67,416.025a72.32,72.32,0,0,0-.945-3.931,4.887,4.887,0,0,1,.945,3.931Z"/><path class="i" d="M243.3,416.319l-8.748-3.371s-24.291-11.336-24.7-10.723-1.728.547-1.44,3.509,14.444,8.932,14.892,9.959-.3,6.213,4.929,9.929,9,3.8,9,3.8"/><path class="j" d="M237.23,429.418a.656.656,0,0,1-.207.007,5.911,5.911,0,0,1-.6-.06,13.54,13.54,0,0,1-2.272-.545,21.968,21.968,0,0,1-7.418-4.269,10.524,10.524,0,0,1-2.982-5.113,23.749,23.749,0,0,1-.517-3.267,1.833,1.833,0,0,0-.086-.375.706.706,0,0,0-.229-.234,7.947,7.947,0,0,0-.71-.46c-.5-.293-1.015-.573-1.541-.855-2.107-1.122-4.349-2.257-6.611-3.557-1.131-.65-2.268-1.34-3.373-2.127a12.832,12.832,0,0,1-1.583-1.321,4.363,4.363,0,0,1-.667-.844,1.849,1.849,0,0,1-.2-.545,4.358,4.358,0,0,1-.052-.538,3.857,3.857,0,0,1,.375-2.114,2.507,2.507,0,0,1,.772-.773,1.507,1.507,0,0,0,.335-.29.433.433,0,0,1,.084-.084.27.27,0,0,1,.172-.054.807.807,0,0,1,.171.013c.093.018.181.039.265.063,1.316.4,2.52.935,3.729,1.431,2.4,1.012,4.694,2.035,6.876,3.015,4.361,1.964,8.268,3.778,11.543,5.313.82.376,1.6.769,2.336,1.083l2.14.841,3.424,1.357,2.159.873.557.237a.792.792,0,0,1,.185.093.781.781,0,0,1-.2-.054l-.572-.2-2.188-.8-3.453-1.293-2.154-.813c-.761-.313-1.529-.691-2.356-1.06L220.8,406.866c-2.185-.97-4.48-1.984-6.878-2.989-1.2-.49-2.426-1.024-3.68-1.408-.078-.023-.154-.04-.226-.054a.587.587,0,0,0-.079-.008c0-.014,0,.03-.013-.032s.005-.065-.016-.1a.071.071,0,0,0-.028-.029c.275.186.069.06.128.106l-.025.031a1.825,1.825,0,0,1-.422.376,2.094,2.094,0,0,0-.659.652,3.477,3.477,0,0,0-.318,1.884,1.808,1.808,0,0,0,.2.9,3.953,3.953,0,0,0,.6.758,12.5,12.5,0,0,0,1.529,1.277c1.083.774,2.211,1.461,3.334,2.109,2.248,1.3,4.482,2.438,6.59,3.573.526.285,1.046.569,1.551.87a8.6,8.6,0,0,1,.743.487,1.01,1.01,0,0,1,.343.388,2.128,2.128,0,0,1,.106.454,23.822,23.822,0,0,0,.49,3.24,10.268,10.268,0,0,0,2.854,4.989,20.149,20.149,0,0,0,3.937,2.8,20.866,20.866,0,0,0,3.331,1.525,15.661,15.661,0,0,0,2.234.615c.26.051.461.079.6.1A.973.973,0,0,1,237.23,429.418Z"/><path class="j" d="M210.441,430.56a3.021,3.021,0,0,1,.929.271,9.176,9.176,0,0,1,2.291,1.323,8.3,8.3,0,0,1,1.323,1.285,2.782,2.782,0,0,1,.706,2.045,2.268,2.268,0,0,1-1.619,1.75,4.367,4.367,0,0,1-2.545-.081,46.715,46.715,0,0,1-8.054-3.233,25.974,25.974,0,0,1-2.264-1.339,3.952,3.952,0,0,1-.772-.582,4.8,4.8,0,0,1,.855.445c.538.3,1.322.733,2.313,1.218a55.928,55.928,0,0,0,8.031,3.1,4.031,4.031,0,0,0,2.31.1,1.893,1.893,0,0,0,1.372-1.423,2.47,2.47,0,0,0-.6-1.784,8.381,8.381,0,0,0-1.237-1.267A13.8,13.8,0,0,0,210.441,430.56Z"/><g class="k"><path d="M324.478,429c-7.86-26.509-14.792-60.655-22.652-87.163-2.873,24.475.723,56.783,5.229,81.011.528,2.839.769,5.622,2.972,7.49L324.478,429"/></g><path class="f" d="M311.606,410.8c-.106.025-.437-1.73-1.5-4.377a30.7,30.7,0,0,0-2.255-4.459,30.869,30.869,0,0,0-8.276-8.914,30.644,30.644,0,0,0-4.28-2.579c-2.561-1.259-4.286-1.72-4.254-1.823a5.677,5.677,0,0,1,1.218.288,11.33,11.33,0,0,1,1.394.461,18.83,18.83,0,0,1,1.8.741,28,28,0,0,1,4.4,2.521,29.428,29.428,0,0,1,8.408,9.056,28,28,0,0,1,2.187,4.575,18.761,18.761,0,0,1,.606,1.85,11.353,11.353,0,0,1,.357,1.425A5.718,5.718,0,0,1,311.606,410.8Z"/><path class="h" d="M326.6,276.509s-25.139,56.15-25.139,66.459S320.291,424.9,320.291,424.9c-.178,2.842-.911,17.119-.911,17.119l105.589.361h0l1.608-22.7-8.242-21.63,8.235-61.145s5.541-35.5,6.034-45.43c.617-12.424-41.465-26.824-40.318-28.543l-7.267-9.727-41.634,33.8-8.225-23.759-9.856,9.316Z"/><path class="h" d="M395.741,291.445c-11.427,19.337-32.344,54.577-32.344,54.577l-37.48,42.734s-2.452,21.717,2.452,28.372,13.31,11.209,13.31,11.209,9.9,0,22.462-10.508,47.244-53.943,47.244-53.943l11.909-14.362s14.2-34.883,11.546-52.636c-1.022-6.845-3.935-9.693-7.825-12.831C417.245,276.172,402.127,280.637,395.741,291.445Z"/><path class="f" d="M427.7,337.4a2.706,2.706,0,0,1-.173.4c-.136.278-.32.656-.555,1.139-.5,1-1.26,2.452-2.3,4.293-2.068,3.69-5.282,8.9-9.489,15.189-2.105,3.141-4.46,6.548-7.042,10.168-2.558,3.641-5.534,7.35-7.955,11.71-2.485,4.32-4.62,9.121-7.274,13.886a87.012,87.012,0,0,1-9.524,13.909,55.719,55.719,0,0,1-12.626,11.161,39.716,39.716,0,0,1-14.617,5.66,32.873,32.873,0,0,1-14.164-.6,26.988,26.988,0,0,1-5.989-2.429,27.375,27.375,0,0,1-4.934-3.34,23.021,23.021,0,0,1-6.184-8.093,26.162,26.162,0,0,1-2.015-7.443,33.354,33.354,0,0,1-.17-4.871c.031-.537.055-.956.073-1.265a2.608,2.608,0,0,1,.042-.429,2.583,2.583,0,0,1,.011.432c-.005.309-.012.728-.021,1.265a36.767,36.767,0,0,0,.267,4.843,26.336,26.336,0,0,0,2.078,7.347,22.854,22.854,0,0,0,6.155,7.932,27.131,27.131,0,0,0,4.889,3.269,26.708,26.708,0,0,0,5.912,2.366,32.536,32.536,0,0,0,13.97.543,39.354,39.354,0,0,0,14.425-5.619,55.417,55.417,0,0,0,12.5-11.066,87.153,87.153,0,0,0,9.476-13.82c2.646-4.735,4.791-9.535,7.3-13.877,2.453-4.387,5.459-8.107,8.021-11.723,2.6-3.605,4.965-7,7.088-10.122,4.242-6.252,7.5-11.43,9.618-15.084,1.068-1.823,1.858-3.261,2.385-4.241.255-.472.454-.842.6-1.114A2.63,2.63,0,0,1,427.7,337.4Z"/><path class="f" d="M324.041,386.827c.044.075-.533.4-1.222,1.168a6.057,6.057,0,0,0-.681,7.367c.537.88,1.045,1.307.987,1.373-.03.046-.639-.286-1.293-1.168a5.915,5.915,0,0,1,.724-7.829A2.981,2.981,0,0,1,324.041,386.827Z"/><path class="f" d="M330.934,398.172a2.687,2.687,0,0,1,.587.135c.189.049.419.128.7.191l.97.178a13.864,13.864,0,0,0,6.181-.575,22.787,22.787,0,0,0,7.957-4.677,60.492,60.492,0,0,0,7.458-8.655,52.247,52.247,0,0,1,7.684-8.589c1.359-1.142,2.7-2.153,3.805-3.241a10.735,10.735,0,0,0,2.5-3.445,6.271,6.271,0,0,0-.576-5.9,4.535,4.535,0,0,0-1.807-1.35,2.355,2.355,0,0,1,.582.167,3.893,3.893,0,0,1,1.383,1.057,6.42,6.42,0,0,1,.762,6.16,11,11,0,0,1-2.541,3.62c-1.124,1.126-2.462,2.158-3.8,3.3a53.619,53.619,0,0,0-7.582,8.54,58.6,58.6,0,0,1-7.555,8.7,22.688,22.688,0,0,1-8.165,4.669,13.517,13.517,0,0,1-6.323.422l-.975-.227c-.277-.081-.5-.177-.691-.242A2.536,2.536,0,0,1,330.934,398.172Z"/><path class="f" d="M400.826,285.507a4,4,0,0,1-.42.6l-1.28,1.665c-1.14,1.423-2.711,3.544-4.623,6.182a202.586,202.586,0,0,0-13.336,21.67c-4.714,8.763-8.62,16.891-11.606,22.694-1.485,2.9-2.706,5.247-3.586,6.846l-1.018,1.839a3.817,3.817,0,0,1-.386.624,3.828,3.828,0,0,1,.293-.673c.236-.476.545-1.1.931-1.883l3.437-6.918c2.9-5.842,6.753-14,11.476-22.776a183.325,183.325,0,0,1,13.5-21.639c1.955-2.616,3.572-4.707,4.763-6.093l1.357-1.6A3.84,3.84,0,0,1,400.826,285.507Z"/><g class="k"><path d="M322.8,396.442c4.876,2.643,10.227,2.362,15.669,1.293a24.315,24.315,0,0,0,13.995-8.373,24.36,24.36,0,0,1-6.447,12.779c-3.466,3.384-8.484,5.353-13.249,4.481s-9.574-5.352-9.968-10.18"/></g><g class="k"><path d="M368.9,367.585a21.5,21.5,0,0,1,2.969,16.118c4.13-6.322,5.1-14.326,3.988-21.8s-4.145-14.513-7.525-21.265c0,0-3.729,6.294-3.763,6.99-.181,3.634,1.158,10.479,1.86,14.049a7.833,7.833,0,0,1,2.273,7.059"/></g><g class="k"><path d="M339.323,422.6c9.937,7.746,24.684,8.111,35.558,1.746,10.472-6.13,16.918-17.166,22.9-27.722,9.264-16.34,20.568-36.547,27.186-54.126,0,0-18.552,25.312-24.143,36.222a180.459,180.459,0,0,1-12.652,21.308,54.585,54.585,0,0,1-47.887,23.326"/></g><path class="f" d="M319.38,442.024a1.146,1.146,0,0,1-.017-.314c.005-.244.01-.544.017-.911.031-.85.073-2.011.126-3.466.139-3.042.335-7.307.57-12.438l.009.071c-1.8-6-3.9-13.274-6.07-21.134-2.882-10.419-5.314-19.9-6.95-26.791-.816-3.446-1.453-6.24-1.852-8.181q-.285-1.4-.455-2.234a4.43,4.43,0,0,1-.124-.787,4.6,4.6,0,0,1,.226.764q.207.83.55,2.212l2.012,8.139c1.727,6.865,4.214,16.325,7.1,26.739,2.171,7.857,4.24,15.14,5.981,21.151l.011.037,0,.034c-.311,5.128-.57,9.391-.754,12.432-.1,1.452-.184,2.611-.243,3.459-.033.366-.059.665-.081.908A1.139,1.139,0,0,1,319.38,442.024Z"/><path class="f" d="M425.015,283.456c-.031.08-1.08-.292-2.815-.722a32.393,32.393,0,0,0-13.83-.414c-1.757.325-2.827.634-2.853.552a2.342,2.342,0,0,1,.722-.317,18.366,18.366,0,0,1,2.056-.6,27.442,27.442,0,0,1,14,.419,18.487,18.487,0,0,1,2.017.718C424.778,283.3,425.028,283.422,425.015,283.456Z"/><path class="f" d="M391.568,265.019a2.409,2.409,0,0,1-.266.519c-.224.377-.506.851-.851,1.433-.752,1.238-1.865,3.013-3.275,5.184-2.829,4.336-6.876,10.241-11.663,16.529-3.851,5.068-7.582,9.614-10.638,13.177l-.214.25-.136-.3c-1.451-3.185-2.654-5.822-3.526-7.734l-.944-2.149a4.16,4.16,0,0,1-.294-.774,4.177,4.177,0,0,1,.407.721q.4.807,1.047,2.1c.913,1.893,2.171,4.5,3.69,7.657l-.35-.047c3-3.6,6.7-8.162,10.544-13.221,4.779-6.277,8.866-12.139,11.77-16.418l3.411-5.088.933-1.381A2.5,2.5,0,0,1,391.568,265.019Z"/><path class="f" d="M415.875,426.265c-.143-.016.316-5.206,1.024-11.592s1.4-11.552,1.541-11.536-.315,5.206-1.024,11.593S416.018,426.281,415.875,426.265Z"/><path class="f" d="M343.5,424.9a148.7,148.7,0,0,1,1.865,17.48,74.314,74.314,0,0,1-1.192-8.713A74.308,74.308,0,0,1,343.5,424.9Z"/><path class="l" d="M396.909,310.69a1.277,1.277,0,0,0-1.939-.77l-.067.055a1.213,1.213,0,1,0,2.006.715Z"/><path class="l" d="M386.482,285.275a1.278,1.278,0,0,0-1.939-.77l-.067.056a1.213,1.213,0,1,0,2.006.714Z"/><path class="l" d="M362.553,305.739a1.278,1.278,0,0,0-1.939-.77l-.067.056a1.213,1.213,0,1,0,2.006.714Z"/><path class="l" d="M336.685,295.463a1.278,1.278,0,0,0-1.939-.77l-.067.055a1.213,1.213,0,1,0,2.006.715Z"/><path class="l" d="M332.108,285.333a1.276,1.276,0,0,0-1.938-.77l-.068.056a1.213,1.213,0,1,0,2.006.714Z"/><path class="l" d="M334.1,273.628a1.276,1.276,0,0,0-1.938-.77l-.068.055a1.213,1.213,0,1,0,2.006.715Z"/><path class="l" d="M319.77,289.728a1.277,1.277,0,0,0-1.939-.77l-.067.055a1.213,1.213,0,1,0,2.006.715Z"/><path class="l" d="M352.954,294.371a1.276,1.276,0,0,0-1.938-.77l-.067.055a1.213,1.213,0,1,0,2.005.715Z"/><path class="l" d="M324.859,315.237a1.278,1.278,0,0,0-1.939-.771l-.067.056a1.213,1.213,0,1,0,2.006.715Z"/><path class="l" d="M299.141,375.257a1.278,1.278,0,0,0-1.939-.77l-.067.056a1.213,1.213,0,1,0,2.006.714Z"/><path class="l" d="M308.317,340.642a1.277,1.277,0,0,0-1.939-.77l-.067.055a1.213,1.213,0,1,0,2.006.715Z"/><path class="l" d="M375.955,279.856a1.277,1.277,0,0,0-1.938-.77l-.068.056a1.213,1.213,0,1,0,2.006.714Z"/><path class="l" d="M408.236,348.785a1.277,1.277,0,0,0-1.939-.77l-.067.055a1.213,1.213,0,1,0,2.006.715Z"/><path class="l" d="M420.814,289.467a1.278,1.278,0,0,0-1.939-.77l-.067.056a1.213,1.213,0,1,0,2.006.714Z"/><path class="l" d="M415.875,328.313a1.276,1.276,0,0,0-1.938-.77l-.068.056a1.213,1.213,0,1,0,2.006.714Z"/><path class="l" d="M387.669,356.362a1.277,1.277,0,0,0-1.939-.77l-.067.056a1.213,1.213,0,1,0,2.006.714Z"/><path class="l" d="M388.856,333.013a1.277,1.277,0,0,0-1.939-.77l-.067.056a1.213,1.213,0,1,0,2.006.714Z"/><path class="l" d="M405.874,289.67a1.277,1.277,0,0,0-1.939-.77l-.067.055a1.213,1.213,0,1,0,2.006.715Z"/><path class="l" d="M382.965,267.047a1.277,1.277,0,0,0-1.939-.77l-.067.056a1.213,1.213,0,1,0,2.006.714Z"/><path class="l" d="M382.134,303.515a1.278,1.278,0,0,0-1.939-.77l-.067.056a1.213,1.213,0,1,0,2.006.714Z"/><path class="l" d="M352.887,414.765a1.277,1.277,0,0,0-1.938-.77l-.068.056a1.213,1.213,0,1,0,2.006.714Z"/><path class="l" d="M319.339,396.471a1.277,1.277,0,0,0-1.938-.77l-.067.056a1.213,1.213,0,1,0,2,.714Z"/><path class="l" d="M292.213,405.438a1.278,1.278,0,0,0-1.939-.771l-.067.056a1.213,1.213,0,1,0,2.006.715Z"/><path class="l" d="M289.31,420.887a1.278,1.278,0,0,0-1.939-.77l-.067.056a1.213,1.213,0,1,0,2.006.714Z"/><path class="l" d="M314.743,426.063a1.277,1.277,0,0,0-1.939-.77l-.067.056a1.213,1.213,0,1,0,2.006.714Z"/><path class="l" d="M306.238,391.464a1.277,1.277,0,0,0-1.938-.77l-.068.056a1.213,1.213,0,1,0,2.006.714Z"/><path class="l" d="M337.442,400.256a1.277,1.277,0,0,0-1.939-.77l-.067.055a1.213,1.213,0,1,0,2.006.715Z"/><path class="l" d="M411.615,391.406a1.278,1.278,0,0,0-1.939-.77l-.067.056a1.213,1.213,0,1,0,2.006.714Z"/><path class="l" d="M365.721,435.383a1.277,1.277,0,0,0-1.939-.77l-.067.055a1.213,1.213,0,1,0,2.006.715Z"/><path class="l" d="M385.3,410.9a1.278,1.278,0,0,0-1.939-.77l-.067.056a1.213,1.213,0,1,0,2.006.714Z"/><path class="l" d="M396.921,430.812a1.278,1.278,0,0,0-1.939-.77l-.067.056a1.213,1.213,0,1,0,2.006.714Z"/><path class="l" d="M364.571,326.55a1.278,1.278,0,0,0-1.939-.77l-.067.056a1.213,1.213,0,1,0,2.006.714Z"/><path class="l" d="M390.895,377.376a1.278,1.278,0,0,0-1.939-.77l-.067.056a1.213,1.213,0,1,0,2.006.714Z"/><path class="l" d="M382.358,396.629a1.276,1.276,0,0,0-1.938-.77l-.067.055a1.213,1.213,0,1,0,2.005.715Z"/><path class="l" d="M410.428,412.091a1.278,1.278,0,0,0-1.939-.77l-.067.056a1.213,1.213,0,1,0,2.006.714Z"/><path class="l" d="M333.62,434.415a1.278,1.278,0,0,0-1.939-.77l-.067.056a1.213,1.213,0,1,0,2.006.714Z"/><path class="l" d="M269.617,428.575a1.277,1.277,0,0,0-1.939-.77l-.067.056a1.213,1.213,0,1,0,2.006.714Z"/><path class="l" d="M325.979,418.063a1.277,1.277,0,0,0-1.938-.77l-.067.056a1.213,1.213,0,1,0,2.005.714Z"/><path class="l" d="M271.991,406.626a1.277,1.277,0,0,0-1.939-.77l-.067.055a1.213,1.213,0,1,0,2.006.715Z"/><path class="l" d="M362.2,370.329a1.278,1.278,0,0,0-1.939-.77l-.067.056a1.213,1.213,0,1,0,2.006.714Z"/><path class="l" d="M343.319,315.237a1.278,1.278,0,0,0-1.939-.771l-.067.056a1.213,1.213,0,1,0,2.006.715Z"/><path class="l" d="M338.6,363.013a1.277,1.277,0,0,0-1.938-.77l-.068.056a1.213,1.213,0,1,0,2.006.714Z"/><path class="l" d="M330.921,347.429a1.277,1.277,0,0,0-1.938-.77l-.068.056a1.213,1.213,0,1,0,2.006.714Z"/><path class="l" d="M364.888,396.413a1.278,1.278,0,0,0-1.939-.77l-.067.056a1.213,1.213,0,1,0,2.006.714Z"/><path class="l" d="M340.945,386.8a1.278,1.278,0,0,0-1.939-.77l-.067.056a1.213,1.213,0,1,0,2.006.714Z"/><path class="l" d="M351.194,334.047a1.278,1.278,0,0,0-1.939-.771l-.067.056a1.213,1.213,0,1,0,2.006.715Z"/><path class="l" d="M314.743,371.4a1.278,1.278,0,0,0-1.939-.77l-.067.056a1.213,1.213,0,1,0,2.006.714Z"/><path class="l" d="M371.005,354.256a1.277,1.277,0,0,0-1.938-.77l-.067.056a1.213,1.213,0,1,0,2.005.714Z"/><path class="l" d="M423.188,309.5a1.278,1.278,0,0,0-1.939-.771l-.067.056a1.213,1.213,0,1,0,2.006.715Z"/><path class="l" d="M402,275.612a1.277,1.277,0,0,0-1.938-.77l-.068.056a1.213,1.213,0,1,0,2.006.714Z"/><path class="l" d="M360.936,279.856a1.278,1.278,0,0,0-1.939-.77l-.067.056a1.213,1.213,0,1,0,2.006.714Z"/><path class="f" d="M319.052,158.209c-7.877,5.013-11.02,15.514-9.518,21.721.757,3.128,2.177,6.276,1.557,9.434-.536,2.729-2.5,4.912-3.966,7.274A21.919,21.919,0,0,0,334.517,228.3"/><path class="f" d="M314.391,199.2c-19.16-42.14,26.414-63.31,51.283-56.287,23.371,6.6,33.339,18.232,37.184,33.863s3.663,32.574-2.465,47.468c-3.022,7.343-8.464,14.8-16.352,15.722"/><path class="i" d="M336.839,302.108c-.331-20.133-.565-47.79-.572-47.676,0,0-17.307-2.873-20.892-25.453-1.784-11.229-1.219-29.641-.271-44.691.854-13.547,9.829-30.167,23.326-28.739L380.578,166.2a7.941,7.941,0,0,1,7.105,8.055h0l-2.746,87.178"/><path class="f" d="M322.64,198.077a2.877,2.877,0,0,0,2.741,2.936,2.753,2.753,0,0,0,3-2.56,2.881,2.881,0,0,0-2.739-2.938A2.754,2.754,0,0,0,322.64,198.077Z"/><path class="f" d="M352.56,198.077a2.878,2.878,0,0,0,2.741,2.936,2.753,2.753,0,0,0,3-2.56,2.88,2.88,0,0,0-2.738-2.938A2.755,2.755,0,0,0,352.56,198.077Z"/><path class="f" d="M319.523,192.816c.346.39,2.593-1.16,5.707-1.048,3.112.067,5.345,1.745,5.7,1.375.171-.163-.172-.857-1.143-1.615a7.951,7.951,0,0,0-4.544-1.567,7.635,7.635,0,0,0-4.558,1.305C319.7,191.97,319.351,192.641,319.523,192.816Z"/><path class="f" d="M349.1,193.561c.362.376,2.551-1.258,5.665-1.263,3.112-.051,5.407,1.542,5.743,1.159.165-.17-.2-.849-1.2-1.57a7.946,7.946,0,0,0-4.6-1.4,7.642,7.642,0,0,0-4.506,1.477C349.243,192.708,348.92,193.392,349.1,193.561Z"/><path class="f" d="M338.42,217.557c.014-.177-1.923-.512-5.062-.913-.8-.082-1.549-.24-1.683-.783a4.054,4.054,0,0,1,.532-2.359q1.122-2.888,2.353-6.059c3.268-8.627,5.633-15.721,5.285-15.849s-3.281,6.76-6.548,15.386c-.787,2.128-1.539,4.155-2.255,6.1a4.6,4.6,0,0,0-.412,3.123,2,2,0,0,0,1.308,1.163,5.4,5.4,0,0,0,1.352.188C336.448,217.72,338.408,217.734,338.42,217.557Z"/><path class="j" d="M336.267,254.432a57.438,57.438,0,0,0,30.24-8.066s-7.641,15.709-30.24,13.6Z"/><path class="f" d="M348.327,189.129c.307.847,3.419.446,7.074.887,3.666.367,6.614,1.437,7.1.677.217-.364-.3-1.16-1.489-1.981a12.394,12.394,0,0,0-10.8-1.192C348.871,188.062,348.2,188.727,348.327,189.129Z"/><path class="f" d="M320.243,184.985c.549.707,2.7-.027,5.277-.061,2.58-.125,4.767.475,5.271-.265.22-.36-.124-1.068-1.08-1.738a7.64,7.64,0,0,0-8.5.262C320.3,183.911,320,184.64,320.243,184.985Z"/><path class="i" d="M383.811,203.983c.331-.16,12.086-5.359,12.224,8.159s-13.463,10.869-13.49,10.482S383.811,203.983,383.811,203.983Z"/><path class="j" d="M386.622,217.46c.059-.044.238.162.637.341a2.359,2.359,0,0,0,1.761.018c1.423-.539,2.6-2.819,2.643-5.256a7.77,7.77,0,0,0-.694-3.365,2.715,2.715,0,0,0-1.79-1.789,1.2,1.2,0,0,0-1.383.659c-.177.38-.088.649-.16.673-.037.034-.292-.223-.189-.783a1.5,1.5,0,0,1,.523-.853,1.78,1.78,0,0,1,1.3-.357,3.308,3.308,0,0,1,2.481,2.071,7.985,7.985,0,0,1,.855,3.76c-.059,2.725-1.427,5.288-3.376,5.873a2.52,2.52,0,0,1-2.157-.337C386.65,217.786,386.576,217.485,386.622,217.46Z"/><path class="f" d="M333.929,148.881c-7.521,3.886-10.617,19.274-7.5,27.147s11.5,11.718,19.768,13.53,16.378,2.026,24.534-.242c.567,5.484,3.855,11.115,9.176,12.562,7.045,1.916,14.146-4.536,15.714-11.667s-.781-14.474-3.1-21.4"/><path class="f" d="M393.577,197.934c.032.043-.338.394-1.042.986a36.867,36.867,0,0,1-3.119,2.352,19.066,19.066,0,0,1-5.256,2.543,11.375,11.375,0,0,1-7.174-.1,11.122,11.122,0,0,1-5.429-4.694,15.047,15.047,0,0,1-1.946-5.519,19.963,19.963,0,0,1-.213-3.915,4.423,4.423,0,0,1,.177-1.426c.148,0-.013,2.055.579,5.244a15.4,15.4,0,0,0,2.013,5.236,10.677,10.677,0,0,0,5.1,4.344,10.934,10.934,0,0,0,6.7.142,20.01,20.01,0,0,0,5.152-2.316C391.88,199.079,393.5,197.823,393.577,197.934Z"/><path class="j" d="M339.341,226.239a12.946,12.946,0,0,0,1.679,3.292,4.371,4.371,0,0,0,3.109,1.8,3.923,3.923,0,0,0,3.319-1.81,6.269,6.269,0,0,0,.925-3.774c-.053-1.19-.6-2.61-1.781-2.751a2.974,2.974,0,0,0-1.436.319l-6.217,2.521"/><path class="f" d="M341.824,231.354c.031-.2,1.4.36,3.315-.41a4.74,4.74,0,0,0,2.507-2.277,4.991,4.991,0,0,0,.081-4.067,4.444,4.444,0,0,0-.542-.929c-.246-.258-.2-.247-.469-.207-.253.068-.662.26-1,.391l-1.021.415c-1.331.539-2.535,1.009-3.553,1.39-2.036.76-3.325,1.16-3.385,1.019s1.12-.8,3.077-1.741c.978-.473,2.15-1.018,3.459-1.608l1.007-.45a11.067,11.067,0,0,1,1.135-.468,1.452,1.452,0,0,1,.922.027,1.706,1.706,0,0,1,.686.542,5.336,5.336,0,0,1,.7,1.179,5.825,5.825,0,0,1-.19,4.973,5.319,5.319,0,0,1-3.155,2.552,5.023,5.023,0,0,1-2.694.1C342.089,231.626,341.8,231.416,341.824,231.354Z"/><path class="g" d="M398.971,194.729c-1.386-.1-12.55,1.348-11.671,22.1.822,19.385,14.421,15.117,18.761,7.819C410.172,217.736,412.547,195.682,398.971,194.729Z"/><path class="g" d="M405.874,197.181a2.636,2.636,0,0,1-.052-.546c-.017-.4-.039-.928-.066-1.58-.04-1.433-.1-3.43-.165-5.912-.1-5.1-.245-12.178-.409-20.356l.251.247-5.756.008.258-.265c.042,1.545.086,3.175.131,4.829.193,7.789.373,15.042.524,21.113l0,.179-.172.04a10.476,10.476,0,0,0-5.93,3.817,13.991,13.991,0,0,0-2.368,5.007,20.908,20.908,0,0,0-.61,3.545c-.037.414-.057.733-.067.947a1.446,1.446,0,0,1-.032.326,1.059,1.059,0,0,1-.036-.326c-.012-.216-.013-.537,0-.955a18.355,18.355,0,0,1,.5-3.6,13.96,13.96,0,0,1,2.329-5.159,10.79,10.79,0,0,1,6.112-4.028l-.168.218c-.174-6.071-.383-13.323-.606-21.111-.044-1.654-.087-3.284-.128-4.83l-.007-.265h.266l5.756.008h.248l0,.247c.09,8.178.168,15.26.224,20.358.008,2.483.014,4.48.019,5.914-.007.653-.013,1.177-.017,1.582A2.543,2.543,0,0,1,405.874,197.181Z"/><path class="g" d="M398.969,168.783s-5.838-13.665-19.753-20.409a82.661,82.661,0,0,0-16.668-6.18s8.117-1.927,21.253,3.917c5.969,2.655,11.982,6.114,15.958,11.3,2.526,3.292,5.679,9.726,5.674,11.375Z"/><path class="l" d="M362.949,334.249a2.339,2.339,0,0,1,.249-.273c.166-.178.431-.427.755-.778a37.523,37.523,0,0,0,2.7-3.2,52.452,52.452,0,0,0,3.647-5.6c1.3-2.27,2.658-4.945,4.132-7.934,2.95-5.977,6.363-13.223,9.894-21.525,1.769-4.149,3.57-8.561,5.362-13.2l1.345-3.525a20.38,20.38,0,0,1,1.607-3.544,7.311,7.311,0,0,1,2.9-2.76,4.054,4.054,0,0,1,2.034-.518,2.068,2.068,0,0,1,1.062.385,2.3,2.3,0,0,1,.674.9l.033.067-.017.079a3.524,3.524,0,0,1-.538,1.333,2.078,2.078,0,0,1-1.248.818,4.452,4.452,0,0,1-2.79-.512,4.391,4.391,0,0,1-2.47-4.846,3.91,3.91,0,0,1,1.624-2.441,4.552,4.552,0,0,1,2.842-.81,3.137,3.137,0,0,1,2.624,1.447,1.508,1.508,0,0,1-.1,1.629,2.9,2.9,0,0,1-1.267.927A4.175,4.175,0,0,1,393.209,269a3.537,3.537,0,0,1-.649-2.522,4.313,4.313,0,0,1,1.039-2.356,3.6,3.6,0,0,1,2.251-1.245,2.9,2.9,0,0,1,2.432.836,1.8,1.8,0,0,1,.479,1.277,1.731,1.731,0,0,1-.577,1.232,2.829,2.829,0,0,1-2.445.659,3.092,3.092,0,0,1-1.947-1.565,6.485,6.485,0,0,1-.732-2.307,8.21,8.21,0,0,1,.531-4.664,3.5,3.5,0,0,1,1.7-1.685,3.17,3.17,0,0,1,2.375.076,2.251,2.251,0,0,1,1.465,1.851,2.06,2.06,0,0,1-1.268,1.954,2.549,2.549,0,0,1-2.3-.034,3.133,3.133,0,0,1-1.421-1.755,4.36,4.36,0,0,1-.136-2.189,9.72,9.72,0,0,1,.462-2.075,3.793,3.793,0,0,1,1.213-1.767,4.848,4.848,0,0,1,1.883-.936,2.071,2.071,0,0,1,1.1-.012,2.364,2.364,0,0,1,.915.583,2.664,2.664,0,0,1,.589.886,1.464,1.464,0,0,1,.034,1.105,1.8,1.8,0,0,1-1.788.99,3.311,3.311,0,0,1-1.878-.63,5.1,5.1,0,0,1-2.008-3.148,5.322,5.322,0,0,1,.42-3.562,4.145,4.145,0,0,1,1.123-1.374,3.728,3.728,0,0,1,1.6-.689,2.608,2.608,0,0,1,1.7.239,1.785,1.785,0,0,1,.919,1.418,2.5,2.5,0,0,1-1.885,2.4,2.748,2.748,0,0,1-2.719-1.021,4.384,4.384,0,0,1-1.026-2.559c-.085-1.82.631-3.352.979-4.788q.611-2.155,1.115-3.936c.671-2.346,1.2-4.175,1.558-5.441.179-.6.318-1.073.418-1.412.1-.317.159-.475.159-.475s-.028.168-.108.49c-.088.342-.211.816-.368,1.426-.341,1.272-.833,3.11-1.464,5.467q-.483,1.78-1.07,3.946c-.342,1.45-1.029,2.992-.929,4.7a4.105,4.105,0,0,0,.971,2.376,2.439,2.439,0,0,0,2.4.906,2.175,2.175,0,0,0,1.621-2.054,1.43,1.43,0,0,0-.745-1.131,2.25,2.25,0,0,0-1.463-.189,3.363,3.363,0,0,0-1.432.626,3.749,3.749,0,0,0-1.008,1.251,4.932,4.932,0,0,0-.371,3.3,4.708,4.708,0,0,0,1.852,2.889,2.889,2.889,0,0,0,1.644.549,1.38,1.38,0,0,0,1.384-.723,1.55,1.55,0,0,0-.531-1.523,1.949,1.949,0,0,0-.738-.472,1.65,1.65,0,0,0-.867.025,3.777,3.777,0,0,0-2.767,2.425,9.349,9.349,0,0,0-.432,1.977,3.872,3.872,0,0,0,.119,1.976,2.656,2.656,0,0,0,1.2,1.493,2.07,2.07,0,0,0,1.869.017,1.579,1.579,0,0,0,.99-1.494,1.775,1.775,0,0,0-1.176-1.428,2.69,2.69,0,0,0-2-.067,3.022,3.022,0,0,0-1.444,1.452,7.737,7.737,0,0,0-.474,4.367,5.969,5.969,0,0,0,.672,2.125,2.6,2.6,0,0,0,1.611,1.32,2.33,2.33,0,0,0,1.988-.532,1.246,1.246,0,0,0,.068-1.794,2.4,2.4,0,0,0-1.992-.665,3.1,3.1,0,0,0-1.918,1.072,3.446,3.446,0,0,0-.361,4.229,3.666,3.666,0,0,0,4.178,1.185,2.416,2.416,0,0,0,1.04-.748.976.976,0,0,0,.066-1.083,2.636,2.636,0,0,0-2.195-1.171,3.749,3.749,0,0,0-3.927,2.836,3.873,3.873,0,0,0,2.187,4.28,3.971,3.971,0,0,0,2.452.476,1.965,1.965,0,0,0,1.4-1.747l.015.145a1.493,1.493,0,0,0-1.3-.978,3.584,3.584,0,0,0-1.771.461,6.811,6.811,0,0,0-2.711,2.574,19.933,19.933,0,0,0-1.572,3.457l-1.354,3.525c-1.8,4.645-3.62,9.057-5.4,13.2-3.563,8.3-7.015,15.535-10.006,21.5-1.495,2.981-2.873,5.65-4.2,7.916a50.5,50.5,0,0,1-3.728,5.577A26.688,26.688,0,0,1,362.949,334.249Z"/><path class="g" d="M411.088,185a12.98,12.98,0,0,0-.91-3.7,14.521,14.521,0,0,0-7.178-7.19,19.265,19.265,0,0,0-6.919-1.692,32.609,32.609,0,0,0-8.206.626c-5.733,1.054-11.752,3.529-18.492,4.545a37.549,37.549,0,0,1-9.9-.011,39.893,39.893,0,0,1-8.9-2.413,39.277,39.277,0,0,1-12.96-8.561,34.874,34.874,0,0,1-6.28-8.4,11.259,11.259,0,0,1-.736-1.474l-.486-1.107-.288-.683a.861.861,0,0,1-.081-.24.981.981,0,0,1,.13.219c.09.177.2.394.335.662l.529,1.081a11.746,11.746,0,0,0,.775,1.444,36.168,36.168,0,0,0,6.36,8.234,39.008,39.008,0,0,0,21.674,10.731,37.3,37.3,0,0,0,9.756,0c6.651-1,12.68-3.457,18.478-4.5a32.694,32.694,0,0,1,8.325-.586,19.49,19.49,0,0,1,7.049,1.791,14.558,14.558,0,0,1,7.206,7.445,10.822,10.822,0,0,1,.7,2.777l.033.744A.935.935,0,0,1,411.088,185Z"/><path class="g" d="M396,163.446a3.83,3.83,0,0,1-.717.127c-.472.064-1.167.167-2.057.322-1.783.3-4.335.865-7.476,1.646a79.111,79.111,0,0,1-11.182,2.166,56.21,56.21,0,0,1-13.946-.3,59.148,59.148,0,0,1-13.472-3.623,57.68,57.68,0,0,1-10.113-5.251c-1.342-.911-2.548-1.753-3.56-2.55-.993-.823-1.884-1.488-2.542-2.113-.63-.593-1.135-1.069-1.521-1.431a3.849,3.849,0,0,1-.505-.524,3.859,3.859,0,0,1,.577.447l1.582,1.354c.675.6,1.581,1.238,2.585,2.035,1.023.772,2.238,1.587,3.584,2.473a60.344,60.344,0,0,0,23.46,8.667,57.125,57.125,0,0,0,13.822.341,83.486,83.486,0,0,0,11.146-2.047c3.153-.736,5.731-1.252,7.53-1.488.9-.125,1.6-.2,2.076-.226A3.86,3.86,0,0,1,396,163.446Z"/><path class="f" d="M397.485,230.448a1.227,1.227,0,0,1-.392-.115,6.216,6.216,0,0,1-1.037-.536,9.1,9.1,0,0,1-2.926-3.122,15,15,0,0,1-1.8-6.086,44.361,44.361,0,0,1-.009-7.757,47.182,47.182,0,0,1,1.285-7.647,21.954,21.954,0,0,1,2.232-5.937,9.147,9.147,0,0,1,2.944-3.1,6.1,6.1,0,0,1,1.042-.526,1.136,1.136,0,0,1,.393-.109c.02.045-.511.232-1.323.8a9.547,9.547,0,0,0-2.738,3.122,22.714,22.714,0,0,0-2.085,5.867,50.036,50.036,0,0,0-1.231,7.575,46.717,46.717,0,0,0-.032,7.666,15.111,15.111,0,0,0,1.638,5.951,9.47,9.47,0,0,0,2.72,3.136C396.974,230.212,397.507,230.4,397.485,230.448Z"/><rect class="g" width="16.156" height="6.089" rx="2.852" transform="translate(339.459 229.907) rotate(-11.103)"/><path class="g" d="M354.471,228.885,401.917,214a2.238,2.238,0,0,1,2.8,1.452h0a2.236,2.236,0,0,1-1.547,2.843L354.653,231.4Z"/><path class="f" d="M389.54,222.342a10.178,10.178,0,0,1,1.572-.553l4.338-1.321c1.82-.563,4.055-1.155,6.419-1.93a4.32,4.32,0,0,0,1.554-.956,2.385,2.385,0,0,0,.668-1.651,1.435,1.435,0,0,0-.98-1.358,3.637,3.637,0,0,0-1.983.06L386.9,219.209l-4.333,1.339a10.052,10.052,0,0,1-1.611.423,10.3,10.3,0,0,1,1.547-.616l4.281-1.495c3.633-1.234,8.614-2.94,14.213-4.732a4.1,4.1,0,0,1,2.283-.044,1.954,1.954,0,0,1,1.318,1.835,2.867,2.867,0,0,1-.823,2.011,4.76,4.76,0,0,1-1.737,1.056c-2.452.777-4.639,1.313-6.49,1.836l-4.384,1.162A10.163,10.163,0,0,1,389.54,222.342Z"/><path class="f" d="M311.958,186c1.625,5.7-4.171,10.591-6.211,16.159-1.973,5.382-.293,11.414,2.135,16.607s5.626,10.12,6.87,15.716c3.066,13.8-9.411,28.666-7.034,42.6.865,5.075,2.909,10.372,4.681,15.206a20.106,20.106,0,0,1,0,14.134c-2.7,7.981-7.275,11.744-10.5,19.527-1.649,3.98-1.519,8.437-1.436,12.744s.052,8.8-1.865,12.656-6.3,6.841-10.464,5.723a15.34,15.34,0,0,0,18.324,3.488c5.471-2.917,8.531-8.842,11.15-14.462C330.291,318.887,337,316.59,336.651,286.57c-.023-1.932-.384-32-.384-32a29.677,29.677,0,0,1-7.486-3.155c-14.165-9.776-14.681-27.2-14.569-40.7"/><path class="i" d="M340.3,277.083v11.329s-8.715,44.445-11.33,69.137-3.056,31.207-3.056,31.207,6.252,9.753,19.324-6.805,15.4-19.173,20.625-19.463c0,0-6.391-69.428-6.1-72.043a10.506,10.506,0,0,1,2.324-4.938Z"/><path class="i" d="M357.442,251.519s-14.234,18.882-15.4,21.5-1.743,4.067-1.743,4.067l21.787,8.424,21.206-23.24,7.843-20.625-2.324-24.4s-4.648-.29-5.519,3.777a30.775,30.775,0,0,0-.581,7.843l-6.509-5.229-10.485-3.2s-2.469,4.067,1.6,6.1,5.229,2.033,5.229,2.033l3.659,6.391-1.6,7.16-7.415-6.953a4.25,4.25,0,0,0-5.406-.337l-4.791,3.483-4.492-2-8.714,7.658-3.486,3.2s2.324,4.357,6.971,2.324l4.648-2.034Z"/><path class="j" d="M340.3,280.906a5.77,5.77,0,0,1-.006-.605c.014-.4.048-.995.143-1.772a21.306,21.306,0,0,1,.545-2.848,12.726,12.726,0,0,1,1.529-3.658c3.255-5,8.387-11.964,14.782-20.613l.037.256-5.527-4.055.2.022-2.873,1.263a19.357,19.357,0,0,1-3.061,1.192,4.969,4.969,0,0,1-3.4-.386,6.279,6.279,0,0,1-2.556-2.437l-.085-.142.13-.122c3.747-3.516,7.912-7.075,12.192-10.871l.128-.114.149.088,3.869,2.285-.256.006,4.527-2.979c.783-.5,1.5-1.014,2.35-1.518a2.822,2.822,0,0,1,2.912.255l8.818,7.45-.415.139,1.525-6.837.028.185c-1.157-2.021-2.4-4.2-3.66-6.39l.225.13a7.836,7.836,0,0,1-1.8-.486c-.574-.211-1.142-.452-1.71-.7s-1.132-.525-1.7-.8c-.282-.14-.566-.323-.849-.485a5.176,5.176,0,0,1-.753-.659,3.7,3.7,0,0,1-1.008-2.67,5.892,5.892,0,0,1,.773-2.719l.1-.176.2.062,10.484,3.2.048.015.038.031,6.507,5.231-.413.218a30.886,30.886,0,0,1,.553-7.733,4.69,4.69,0,0,1,2.119-3.217,6.723,6.723,0,0,1,3.7-.934l.209,0,.02.218c.817,8.674,1.587,16.847,2.3,24.4l.005.051-.018.048c-2.907,7.6-5.543,14.5-7.881,20.61l-.012.033-.023.025-16.466,17.924-4.466,4.824-1.168,1.243c-.265.277-.41.411-.41.411s.12-.157.372-.446l1.131-1.276c1.015-1.13,2.493-2.773,4.4-4.889l16.346-18.033-.035.057c2.315-6.122,4.926-13.025,7.806-20.639l-.013.1c-.728-7.555-1.515-15.726-2.35-24.4l.229.221a6.253,6.253,0,0,0-3.4.864,4.178,4.178,0,0,0-1.894,2.9,30.483,30.483,0,0,0-.536,7.593l.03.575-.444-.356-6.511-5.227.087.046-10.486-3.194.3-.113a5.381,5.381,0,0,0-.7,2.457,3.173,3.173,0,0,0,.869,2.308,4.658,4.658,0,0,0,.666.584c.264.148.508.31.786.448.559.276,1.117.546,1.678.795a14.536,14.536,0,0,0,3.3,1.147l.166.025.06.1,3.657,6.392.05.087-.022.1c-.526,2.353-1.048,4.684-1.529,6.836l-.093.413-.323-.274-8.783-7.437a2.323,2.323,0,0,0-2.4-.213c-.745.442-1.539,1-2.3,1.484L356.5,238.8l-.126.083-.13-.077c-1.34-.795-2.667-1.583-3.864-2.292l.278-.026c-4.284,3.786-8.458,7.334-12.21,10.836l.045-.264a5.88,5.88,0,0,0,2.362,2.263,4.554,4.554,0,0,0,3.122.36,19.132,19.132,0,0,0,2.987-1.157l2.878-1.253.1-.045.091.067,5.511,4.078.147.11-.109.147c-6.429,8.615-11.61,15.548-14.9,20.5a12.683,12.683,0,0,0-1.551,3.592,22.163,22.163,0,0,0-.59,2.82c-.111.772-.162,1.364-.193,1.762S340.3,280.906,340.3,280.906Z"/><path class="j" d="M367.263,255.892c-.1-.016.281-1.541.441-4.016a9.067,9.067,0,0,0-.688-4.2,11.091,11.091,0,0,0-3.469-3.9,86.324,86.324,0,0,0-8.064-5.491l-2.554-1.5a4.613,4.613,0,0,1-.919-.59,4.238,4.238,0,0,1,1.014.411c.636.3,1.543.757,2.643,1.364a66.065,66.065,0,0,1,8.2,5.4,11.206,11.206,0,0,1,3.587,4.109,9.1,9.1,0,0,1,.617,4.419,19.746,19.746,0,0,1-.492,2.946A4.23,4.23,0,0,1,367.263,255.892Z"/><path class="j" d="M382.51,246.828a20.108,20.108,0,0,1,.369-2.613,39.9,39.9,0,0,0-.107-12.612,20.189,20.189,0,0,1-.414-2.606,9.984,9.984,0,0,1,.776,2.537,31.091,31.091,0,0,1,.108,12.744A10.055,10.055,0,0,1,382.51,246.828Z"/><path class="l" d="M285.4,172.734l-10.424-18.371a49.221,49.221,0,1,0-11.789,13.114l-.017.022Z"/><path class="f" d="M285.4,172.734l-22.259-5.108-.2-.045.122-.161.017-.022.182.182a50.31,50.31,0,0,1-10.105,6.087,49.286,49.286,0,0,1-13.472,3.843,44.151,44.151,0,0,1-7.778.391c-1.338-.076-2.7-.108-4.073-.224l-4.151-.628A49.567,49.567,0,0,1,193,157.34a48.971,48.971,0,0,1-8.3-18.975,50.077,50.077,0,0,1,.581-21.848,48.455,48.455,0,0,1,10.527-20.2l2.006-2.207c.659-.742,1.446-1.354,2.16-2.035.748-.644,1.423-1.373,2.227-1.942l2.357-1.763A20.72,20.72,0,0,1,207,86.758l2.492-1.513,2.608-1.267a22.959,22.959,0,0,1,2.634-1.17,50.1,50.1,0,0,1,22.015-3.384,48.451,48.451,0,0,1,20.208,5.97,49.841,49.841,0,0,1,23.319,28.687,53.091,53.091,0,0,1,2.138,15.977,48.848,48.848,0,0,1-2.4,13.8,49.86,49.86,0,0,1-4.923,10.575l0-.127L285.4,172.734c-.444-.773-3.778-6.569-10.532-18.309l-.037-.064.039-.063a49.886,49.886,0,0,0,4.844-10.539,48.74,48.74,0,0,0,2.334-13.711,52.852,52.852,0,0,0-2.167-15.848,49.466,49.466,0,0,0-23.161-28.388,48.031,48.031,0,0,0-20.013-5.889,49.672,49.672,0,0,0-21.787,3.363,22.476,22.476,0,0,0-2.6,1.16L209.736,85.7l-2.465,1.5a20.415,20.415,0,0,0-2.414,1.6l-2.332,1.744c-.8.563-1.463,1.285-2.2,1.922-.707.674-1.486,1.279-2.138,2.014L196.2,96.66a47.985,47.985,0,0,0-10.421,19.983,49.626,49.626,0,0,0-.589,21.624,48.539,48.539,0,0,0,8.2,18.794,49.185,49.185,0,0,0,30.38,19.585l4.115.633c1.362.118,2.713.154,4.041.233a44.032,44.032,0,0,0,7.72-.365,49.082,49.082,0,0,0,13.391-3.768,50.347,50.347,0,0,0,10.075-6l.786-.6-.6.782-.017.022-.073-.205Z"/><path class="f" d="M222.467,128.629a3.989,3.989,0,1,1-3.989-3.989A3.989,3.989,0,0,1,222.467,128.629Z"/><path class="f" d="M238.433,128.629a3.99,3.99,0,1,1-3.989-3.989A3.989,3.989,0,0,1,238.433,128.629Z"/><path class="f" d="M254.358,126.635a3.989,3.989,0,1,1-5.45-1.461A3.988,3.988,0,0,1,254.358,126.635Z"/><path class="f" d="M482.044,442.142c0,.144-101.659.26-227.033.26-125.418,0-227.055-.116-227.055-.26s101.637-.261,227.055-.261C380.385,441.881,482.044,442,482.044,442.142Z"/><path class="g" d="M353.555,442.385a26.833,26.833,0,0,1,21.388-12.078c14.606-.5,21.909,12.078,21.909,12.078Z"/><path class="f" d="M381.546,442.024a18.384,18.384,0,0,1-.428-2.181,14.029,14.029,0,0,0-5.789-8.521,18.42,18.42,0,0,1-1.869-1.2,5.082,5.082,0,0,1,2.108.819,12.4,12.4,0,0,1,5.993,8.822A5.084,5.084,0,0,1,381.546,442.024Z"/><path class="g" d="M344.513,441.855l0-.092a5.608,5.608,0,0,0-5.607-5.516H214.56a5.608,5.608,0,0,0-5.609,5.608H344.513Z"/><path class="f" d="M106.473,224.044c0,2.617,1.96,158.781,1.96,158.781l115.985,27.906h9.593l-6.1-218.018h-8.72Z"/><path class="f" d="M131,376.287,95.055,442.173h32.856c-5.876-.587,52.028,0,52.028,0l-52.028-13.8,16.268-36.952-1.388-15.138Z"/><path class="f" d="M131.8,388.448l-3.893-122.793,35.318-3.387,4.354,131.113-12.617.64Z"/><path class="g" d="M172.52,398.244s-.015-.193-.022-.571-.012-.952-.021-1.684c-.01-1.5-.023-3.687-.041-6.524-.017-5.707-.042-14-.073-24.424-.023-20.872-.055-50.244-.092-84.3l.249.249L130.846,281l.26-.26V286.4c-.015,33.214-.03,64.129-.042,89.884v.056l-.027.048L104.97,424.184c-3.143,5.733-5.61,10.231-7.3,13.311-.842,1.522-1.489,2.69-1.934,3.492s-.682,1.186-.682,1.186.2-.419.623-1.218l1.877-3.523,7.194-13.368,25.905-47.881-.026.1c-.012-25.755-.027-56.67-.043-89.884,0-1.941,0-3.874,0-5.666v-.261h.26l41.674.011h.249v.25c-.037,34.06-.07,63.432-.093,84.3-.03,10.421-.055,18.717-.072,24.424-.018,2.837-.032,5.027-.041,6.524-.009.732-.016,1.292-.021,1.684S172.52,398.244,172.52,398.244Z"/><path class="g" d="M144.179,391.425c.132.059-4.87,11.623-11.171,25.827s-11.517,25.676-11.648,25.618,4.869-11.62,11.172-25.829S144.048,391.367,144.179,391.425Z"/><path class="g" d="M224.418,410.731s-.018-.19-.029-.562c-.008-.391-.019-.939-.033-1.648-.017-1.47-.043-3.6-.076-6.337-.041-5.5-.165-13.467-.359-23.3-.374-19.678-1.262-46.852-2.352-76.863s-1.92-57.2-2.2-76.887c-.147-9.841-.215-17.8-.194-23.309.01-2.736.017-4.868.022-6.338q.012-1.062.019-1.648c.007-.371.024-.561.024-.561s.019.19.029.561q.012.587.033,1.648c.017,1.47.043,3.6.076,6.337.041,5.5.165,13.465.359,23.3C220.111,244.8,221,271.977,222.089,302s1.92,57.191,2.2,76.874c.147,9.841.215,17.806.194,23.31-.01,2.737-.017,4.869-.022,6.339-.008.709-.014,1.257-.019,1.648C224.435,410.541,224.418,410.731,224.418,410.731Z"/><path class="g" d="M166.193,279.829c.144,0,.261,26.117.261,58.327s-.117,58.333-.261,58.333-.26-26.112-.26-58.333S166.049,279.829,166.193,279.829Z"/><path class="g" d="M103.7,431.889a5.132,5.132,0,0,1-.5-.7l-.573-.867a9.573,9.573,0,0,1-.72-1.222,30.616,30.616,0,0,1-3.172-8.45,41.594,41.594,0,0,1-.619-13.368,53.22,53.22,0,0,1,4.334-15.8,32.753,32.753,0,0,1,4.534-7.213,18.862,18.862,0,0,1,1.325-1.561c.459-.5.9-1,1.363-1.475.963-.909,1.867-1.843,2.859-2.632a46.358,46.358,0,0,1,5.809-4.211c.986-.541,1.915-1.108,2.853-1.566.951-.43,1.828-.922,2.73-1.246a31.4,31.4,0,0,1,8.72-2.323,17.951,17.951,0,0,1,2.452-.149,5.217,5.217,0,0,1,.856.01,5.345,5.345,0,0,1-.852.1,22.5,22.5,0,0,0-2.43.245,32.875,32.875,0,0,0-8.6,2.462c-.889.33-1.753.829-2.69,1.264-.924.463-1.839,1.034-2.811,1.577a46.889,46.889,0,0,0-5.723,4.207c-.977.785-1.866,1.713-2.815,2.616-.455.47-.889.97-1.342,1.462a18.758,18.758,0,0,0-1.3,1.545,32.592,32.592,0,0,0-4.458,7.11,53.64,53.64,0,0,0-4.33,15.641,42.069,42.069,0,0,0,.5,13.237,32.03,32.03,0,0,0,2.991,8.431,10.13,10.13,0,0,0,.674,1.238l.528.89A5.255,5.255,0,0,1,103.7,431.889Z"/></g></svg>