<svg xmlns="http://www.w3.org/2000/svg" width="762.922" height="438.191" viewBox="0 0 762.922 438.191"><defs><style>.a{fill:#f0f0f0;}.b{fill:#e0e0e0;}.c{fill:#263238;}.d{fill:#fafafa;}.e{fill:#ffcd05;}.f{fill:#fff;}.f,.g,.m{opacity:0.3;}.h{fill:#266ab4;}.i{fill:#ffbe9d;}.j{fill:#eb996e;}.k{fill:#455a64;}.l{fill:none;stroke:#fff;stroke-miterlimit:10;stroke-width:0.02px;}.n{fill:#00a0d1;}.o{opacity:0.2;}.p{fill:#173761;}</style></defs><g transform="translate(-973 -3473)"><path class="a" d="M-274.123,95.7c-109.731-40.736-221.257-4.721-296.9,73.72S-805.4,115.283-889.588,193.6c-57.455,53.445-31.138,190.855,47.641,250.371,107.08,80.9,432.724,39.848,503.167,26.081,81.155-15.861,140.486-63.982,164.591-122.387C-116.106,206.934-225.631,113.707-274.123,95.7Z" transform="translate(1893.545 3394.218)"/><g transform="translate(1070.687 3499.522)"><g transform="translate(55.697 89.636)"><g transform="translate(0 0)"><path class="b" d="M74.458,195.621c-2.233-7.908-12.51-7.14-12.51-7.14l.283,5.5c5.94-1.025,9.632,5.937,9.632,5.937Z" transform="translate(-61.948 -188.46)"/></g></g><g transform="translate(0 410.89)"><path class="c" d="M570.394,454.221c0,.174-124.132.316-277.22.316-153.142,0-277.247-.142-277.247-.316s124.105-.315,277.247-.315C446.262,453.906,570.394,454.048,570.394,454.221Z" transform="translate(-15.927 -453.906)"/></g><g transform="translate(14.489 37.735)"><g transform="translate(0 1.996)"><rect class="d" width="295.122" height="231.031"/></g><g transform="translate(5.565 0)"><path class="c" d="M327.934,376.921c0-2.17-.1-91.656-.261-231.03l.261.26-295.1.054h-.025l.315-.315c-.011,83.311-.022,162.093-.031,231.03l-.283-.283,295.122.283L32.812,377.2h-.283v-.283c-.01-68.938-.021-147.72-.031-231.03v-.316h.34c109.394.021,211,.04,295.1.054h.261v.261C328.038,285.265,327.936,374.754,327.934,376.921Z" transform="translate(-32.497 -145.575)"/></g><g transform="translate(6.62 22.57)"><path class="c" d="M327.751,164.54c0,.173-65.9.315-147.184.315-81.308,0-147.2-.142-147.2-.315s65.89-.316,147.2-.316C261.846,164.224,327.751,164.366,327.751,164.54Z" transform="translate(-33.369 -164.224)"/></g><g transform="translate(14.611 9.57)"><circle class="c" cx="1.713" cy="1.713" r="1.713"/></g><g transform="translate(21.001 9.57)"><circle class="c" cx="1.713" cy="1.713" r="1.713"/></g><g transform="translate(27.295 9.569)"><path class="c" d="M53.877,155.2a1.712,1.712,0,1,1-1.712-1.714A1.712,1.712,0,0,1,53.877,155.2Z" transform="translate(-50.452 -153.482)"/></g><g transform="translate(54.639 82.644)"><g transform="translate(0 40.429)"><circle class="e" cx="20.054" cy="20.054" r="20.054" transform="translate(0 33.502) rotate(-56.646)"/><circle class="f" cx="20.054" cy="20.054" r="20.054" transform="translate(0 33.502) rotate(-56.646)"/><g transform="translate(19.636 22.721)"><path class="c" d="M90.493,266.046c.759-.063,1.449.776,1.539,1.872s-.453,2.037-1.213,2.1-1.45-.776-1.539-1.872S89.733,266.107,90.493,266.046Z" transform="translate(-89.271 -266.042)"/></g><g transform="translate(32.144 22.461)"><path class="c" d="M101.069,265.828c-.761-.031-1.415.834-1.461,1.934s.536,2.017,1.3,2.048,1.416-.835,1.461-1.935S101.832,265.858,101.069,265.828Z" transform="translate(-99.606 -265.827)"/></g><g transform="translate(19.098 31.321)"><path class="c" d="M105.523,273.575c0,.237-3.737.428-8.348.428s-8.348-.191-8.348-.428,3.737-.427,8.348-.427S105.523,273.339,105.523,273.575Z" transform="translate(-88.826 -273.148)"/></g><g transform="translate(18.123 19.932)"><path class="c" d="M92.288,264.226c-.048.238-1,.23-2.115.411s-2.021.466-2.141.254c-.122-.194.716-.9,2.009-1.1S92.347,264,92.288,264.226Z" transform="translate(-88.02 -263.737)"/></g><g transform="translate(32.997 19.78)"><path class="c" d="M104.541,265.224c-.151.191-1.018-.263-2.131-.6-1.109-.349-2.08-.459-2.1-.7-.03-.228,1.064-.514,2.35-.115S104.693,265.053,104.541,265.224Z" transform="translate(-100.311 -263.612)"/></g></g><g transform="translate(149.156 42.746)"><circle class="e" cx="20.786" cy="20.786" r="20.786" transform="translate(0 41.056) rotate(-80.951)"/><circle class="g" cx="20.786" cy="20.786" r="20.786" transform="translate(0 41.056) rotate(-80.951)"/><g transform="translate(15.359 18.557)"><path class="c" d="M210.248,264.519c.788-.065,1.5.8,1.6,1.941s-.468,2.111-1.256,2.176-1.5-.8-1.6-1.941S209.46,264.583,210.248,264.519Z" transform="translate(-208.981 -264.515)"/></g><g transform="translate(28.323 18.287)"><path class="c" d="M221.212,264.293c-.79-.033-1.468.865-1.515,2.005s.556,2.09,1.346,2.123,1.468-.867,1.515-2.007S222,264.325,221.212,264.293Z" transform="translate(-219.694 -264.292)"/></g><g transform="translate(14.797 24.266)"><path class="c" d="M225.828,272.881a15.145,15.145,0,0,1-2.435-1.262,13.477,13.477,0,0,0-6.188-1.53A15.428,15.428,0,0,0,211,271.7a13.413,13.413,0,0,1-2.481,1.181,6.8,6.8,0,0,1,2.2-1.715,13.486,13.486,0,0,1,6.474-1.932,12.15,12.15,0,0,1,6.5,1.855A6.452,6.452,0,0,1,225.828,272.881Z" transform="translate(-208.518 -269.233)"/></g><g transform="translate(13.796 16.13)"><path class="c" d="M212.109,262.552c.071.088-.065.347-.41.651a3.463,3.463,0,0,1-1.627.761,3.122,3.122,0,0,1-1.8-.2c-.424-.2-.618-.421-.571-.523.109-.226,1.087.1,2.226-.119S211.951,262.353,212.109,262.552Z" transform="translate(-207.69 -262.51)"/></g><g transform="translate(29.183 15.803)"><path class="c" d="M224.813,263.616c.035.105-.192.309-.652.454a3.08,3.08,0,0,1-1.867-.068,3.634,3.634,0,0,1-1.529-1.021c-.3-.353-.416-.629-.334-.71.18-.186,1.015.529,2.141.923S224.733,263.376,224.813,263.616Z" transform="translate(-220.404 -262.24)"/></g></g><g transform="translate(51.817 109.715)"><g transform="translate(78.579)"><path class="e" d="M183.513,319.042l4.816-2.387,4.7,2.614-.782-5.318,3.937-3.659-5.3-.9-2.263-4.875-2.493,4.762-5.336.646,3.758,3.842Z" transform="translate(-180.79 -304.518)"/></g><g transform="translate(58.934)"><path class="e" d="M167.281,319.042l4.816-2.387,4.7,2.614-.782-5.318,3.937-3.659-5.3-.9-2.263-4.875-2.493,4.762-5.336.646,3.758,3.842Z" transform="translate(-164.558 -304.518)"/></g><g transform="translate(39.289)"><path class="e" d="M151.049,319.042l4.816-2.387,4.7,2.614-.782-5.318,3.937-3.659-5.3-.9-2.263-4.875-2.493,4.762-5.336.646,3.758,3.842Z" transform="translate(-148.326 -304.518)"/></g><g transform="translate(19.645)"><path class="e" d="M134.817,319.042l4.816-2.387,4.7,2.614-.782-5.318,3.937-3.659-5.3-.9-2.263-4.875-2.493,4.762-5.336.646,3.758,3.842Z" transform="translate(-132.094 -304.518)"/></g><path class="e" d="M118.585,319.042l4.816-2.387,4.7,2.614-.782-5.318,3.937-3.659-5.3-.9-2.263-4.875-2.493,4.762-5.336.646,3.758,3.842Z" transform="translate(-115.862 -304.518)"/></g><g transform="translate(49.741 5.781)"><path class="c" d="M210.412,218.853c0,.119-21.552.214-48.131.214s-48.135-.1-48.135-.214,21.547-.214,48.135-.214S210.412,218.735,210.412,218.853Z" transform="translate(-114.146 -218.639)"/></g><g transform="translate(74.796)"><path class="c" d="M182.4,214.076c0,.117-10.644.213-23.773.213s-23.775-.1-23.775-.213,10.643-.214,23.775-.214S182.4,213.958,182.4,214.076Z" transform="translate(-134.848 -213.862)"/></g><g transform="translate(67.218 27.296)"><g transform="translate(0.306 0)"><g transform="translate(0)"><circle class="e" cx="27.382" cy="27.382" r="27.382" transform="matrix(0.307, -0.952, 0.952, 0.307, 0, 52.126)"/><g transform="translate(23.343 27.556)"><path class="c" d="M149.8,259.19c1.037-.086,1.979,1.059,2.1,2.557s-.617,2.781-1.656,2.867-1.979-1.06-2.1-2.557S148.759,259.275,149.8,259.19Z" transform="translate(-148.128 -259.185)"/></g><g transform="translate(40.423 27.201)"><path class="c" d="M164.238,258.893c-1.04-.044-1.933,1.139-1.994,2.641s.731,2.753,1.772,2.8,1.934-1.141,2-2.643S165.279,258.934,164.238,258.893Z" transform="translate(-162.24 -258.892)"/></g><g transform="translate(22.605 36.178)"><path class="c" d="M170.32,266.32c.041.041-.18.324-.622.8a15.573,15.573,0,0,1-2.053,1.848,14.606,14.606,0,0,1-3.621,1.984,12.8,12.8,0,0,1-5.02.787,14.806,14.806,0,0,1-4.938-1.138,21.365,21.365,0,0,1-3.637-1.9,11.856,11.856,0,0,1-2.909-2.379,26.3,26.3,0,0,1,3.224,1.863,25.8,25.8,0,0,0,3.607,1.687,15.256,15.256,0,0,0,4.695,1.018,12.906,12.906,0,0,0,4.715-.674,16.178,16.178,0,0,0,3.539-1.738c.933-.641,1.686-1.182,2.174-1.6C169.976,266.481,170.278,266.279,170.32,266.32Z" transform="translate(-147.518 -266.309)"/></g><g transform="translate(20.429 20.881)"><path class="c" d="M151.54,254.189c-.047.242-1.358.155-2.913.408-1.559.234-2.78.716-2.9.5-.123-.189,1.034-1.08,2.767-1.345S151.6,253.97,151.54,254.189Z" transform="translate(-145.72 -253.67)"/></g><g transform="translate(42.519 20.607)"><path class="c" d="M169.747,255.516c-.151.2-1.311-.5-2.863-.962-1.547-.485-2.895-.564-2.911-.81-.033-.224,1.438-.543,3.161-.008S169.9,255.35,169.747,255.516Z" transform="translate(-163.973 -253.443)"/></g></g><g transform="translate(20.336 34.218)"><path class="c" d="M148.361,264.691c.107-.019.281.264.309.782a3.226,3.226,0,0,1-2.186,3.078c-.5.144-.822.074-.84-.034-.04-.237,1.012-.589,1.733-1.647C148.139,265.84,148.124,264.731,148.361,264.691Z" transform="translate(-145.643 -264.69)"/></g><g transform="translate(44.576 34.512)"><path class="c" d="M168.817,267.156c.021.109-.2.274-.633.311a2.483,2.483,0,0,1-2.477-1.838c-.088-.421,0-.684.114-.7.24-.019.511.79,1.314,1.36C167.912,266.9,168.767,266.923,168.817,267.156Z" transform="translate(-165.672 -264.933)"/></g></g><g transform="translate(0 0.028)"><path class="e" d="M196.834,270.631s-.024-.186-.05-.551l-.1-1.614c-.021-.357-.045-.753-.07-1.19-.046-.436-.139-.908-.215-1.421s-.168-1.065-.263-1.656a18.048,18.048,0,0,0-.444-1.854,32.417,32.417,0,0,0-3.766-9.025,33.81,33.81,0,0,0-8.616-9.609l-1.464-1.09c-.514-.336-1.055-.646-1.591-.975-.547-.311-1.065-.69-1.652-.955l-1.757-.842-.893-.425-.939-.341-1.9-.693c-.646-.214-1.324-.352-1.993-.534a17.049,17.049,0,0,0-2.049-.464,31.329,31.329,0,0,0-4.278-.495c-.729-.025-1.464-.1-2.205-.085l-2.239.115c-.375.027-.754.024-1.13.074l-1.128.173c-.753.125-1.518.213-2.275.37a35.8,35.8,0,0,0-4.509,1.323,35.3,35.3,0,0,0-4.41,1.939c-.714.387-1.4.839-2.106,1.257-.346.221-.715.41-1.044.661l-1,.745a37.936,37.936,0,0,0-3.835,3.259q-.855.942-1.719,1.893l-.432.477-.388.513-.773,1.036-.778,1.041-.68,1.112-.68,1.119-.341.562-.288.591q-.572,1.187-1.149,2.384-.457,1.247-.917,2.5a33.517,33.517,0,0,0,0,21.334q.461,1.256.917,2.5.575,1.2,1.149,2.385l.288.592.341.562.68,1.12.68,1.113.778,1.041.773,1.036.389.514.432.476q.864.951,1.72,1.894a38.115,38.115,0,0,0,3.835,3.26l1,.746c.329.25.7.439,1.044.661.708.419,1.392.87,2.106,1.257a35.235,35.235,0,0,0,4.411,1.939,35.754,35.754,0,0,0,4.511,1.324c.756.156,1.522.244,2.275.369l1.128.174c.376.05.755.047,1.13.073l2.239.116c.741.011,1.476-.061,2.206-.085a31.706,31.706,0,0,0,4.278-.495,17.211,17.211,0,0,0,2.048-.465c.671-.182,1.347-.32,1.994-.534l1.9-.693.939-.342.893-.424,1.757-.844c.587-.265,1.1-.644,1.652-.955.535-.329,1.077-.638,1.591-.975l1.464-1.09a33.787,33.787,0,0,0,8.615-9.609,32.449,32.449,0,0,0,3.766-9.024,18.376,18.376,0,0,0,.443-1.855q.142-.884.263-1.654c.077-.514.169-.985.215-1.421.025-.437.05-.833.07-1.19l.1-1.613c.025-.364.05-.551.05-.551s.006.186-.006.551c-.013.38-.034.917-.061,1.619q-.022.536-.05,1.193c-.039.438-.126.913-.195,1.428s-.157,1.072-.244,1.665a18.08,18.08,0,0,1-.427,1.867,32.247,32.247,0,0,1-3.721,9.106,33.891,33.891,0,0,1-8.638,9.727q-.728.548-1.473,1.106c-.518.344-1.063.657-1.6.992-.551.316-1.073.7-1.664.969l-1.772.857-.9.431-.948.349-1.922.707c-.654.218-1.336.359-2.013.546a17.806,17.806,0,0,1-2.068.474,31.77,31.77,0,0,1-4.323.511c-.737.028-1.48.1-2.229.091l-2.263-.111c-.38-.025-.764-.023-1.144-.071l-1.14-.173c-.762-.125-1.537-.213-2.3-.369a36.242,36.242,0,0,1-4.565-1.331,35.53,35.53,0,0,1-4.466-1.955c-.724-.391-1.417-.846-2.134-1.27-.35-.224-.724-.415-1.058-.668l-1.009-.753a38.409,38.409,0,0,1-3.886-3.3l-1.742-1.913-.438-.482-.393-.52-.784-1.048-.788-1.053-.69-1.127-.69-1.133-.345-.569-.293-.6q-.581-1.2-1.164-2.414l-.929-2.535a33.876,33.876,0,0,1,0-21.6l.929-2.534,1.164-2.414.293-.6.345-.569.689-1.133.691-1.126.788-1.053.784-1.048.393-.519.438-.482,1.742-1.915a38.415,38.415,0,0,1,3.885-3.3l1.009-.753c.334-.252.708-.443,1.058-.667.716-.424,1.41-.879,2.132-1.27a35.521,35.521,0,0,1,4.466-1.955,35.965,35.965,0,0,1,4.565-1.33c.765-.157,1.539-.246,2.3-.369l1.141-.173c.379-.05.762-.046,1.142-.073l2.263-.111c.749-.01,1.492.063,2.229.091a31.561,31.561,0,0,1,4.322.512,17.275,17.275,0,0,1,2.068.473c.676.186,1.36.328,2.013.546l1.922.707.948.349.9.43,1.772.858c.592.27,1.113.654,1.664.969.54.335,1.086.649,1.6.991l1.474,1.106a33.909,33.909,0,0,1,8.637,9.727,32.277,32.277,0,0,1,3.723,9.106,18.409,18.409,0,0,1,.427,1.867q.131.891.243,1.665c.07.517.157.991.2,1.429q.027.657.05,1.193c.027.7.047,1.24.061,1.619S196.834,270.631,196.834,270.631Z" transform="translate(-128.587 -236.439)"/></g></g><g transform="translate(2.608 15.547)"><path class="b" d="M267.588,226.922c0,.119-43.071.214-96.189.214-53.137,0-96.2-.1-96.2-.214s43.062-.214,96.2-.214C224.517,226.708,267.588,226.8,267.588,226.922Z" transform="translate(-75.201 -226.708)"/></g><g transform="translate(2.608 20.316)"><path class="b" d="M267.588,230.862c0,.119-43.071.214-96.189.214-53.137,0-96.2-.1-96.2-.214s43.062-.213,96.2-.213C224.517,230.649,267.588,230.745,267.588,230.862Z" transform="translate(-75.201 -230.649)"/></g></g><g transform="translate(137.25 42.834)"><path class="h" d="M151.589,211h-8.9a1.4,1.4,0,0,1-1.378-1.4V192.144Z" transform="translate(-141.306 -178.618)"/><path class="h" d="M169.847,182.37v17.438l-10.276-18.84h8.9A1.4,1.4,0,0,1,169.847,182.37Z" transform="translate(-137.466 -180.968)"/><path class="h" d="M173.687,212.808h0a1.427,1.427,0,0,1-1.077.541H158.995L141.306,181.51a1.434,1.434,0,0,1,1.127-.542h13.573Z" transform="translate(-141.306 -180.968)"/><path class="h" d="M141.306,192.144,151.589,211h-8.9a1.4,1.4,0,0,1-1.378-1.4Z" transform="translate(-141.306 -178.618)"/><path class="h" d="M169.847,182.37v17.438l-10.276-18.84h8.9A1.4,1.4,0,0,1,169.847,182.37Z" transform="translate(-137.466 -180.968)"/></g></g><g transform="translate(105.448 0)"><g transform="translate(0 0)"><g transform="translate(395.707 168.642)"><path class="i" d="M438.367,278.362s14.688-8.936,18-6.31c4.778,3.789,6.371,10.188,6.371,10.188s7.758-29.59,15.161-28.467c4.246.644,2.163,3.951.259,8.106-1.767,3.857-4.782,18.013-4.782,18.013s14.038-16.654,18.163-16.354c3.191.234,3.65,3.04-.94,7.542s-12.216,18.684-12.216,18.684,9.833-9.168,13.895-9.217c3.24-.04,5.332,2.21,1.14,5.85s-10.538,6.371-13.923,12.956c-4.172,8.117-13.067,28.349-13.067,28.349L435.291,316.68s-5.067-20.653-5.269-25.67c0,0,.427-10.6.367-12.492s4.947-2.372,6.468,1.253.829,7.427,1.446,9.838,1.714,4.645,3.476,5.723,6.248,1.152,7.395-.182,2.534-5.211,2.837-7.6a34.47,34.47,0,0,0-.087-6.155S439,286.65,438.367,278.362Z" transform="translate(-430.022 -253.741)"/></g><g transform="translate(0 262.994)"><g transform="translate(0 0)"><path class="i" d="M157.3,358.337l-21.634-8.1s-22.024-12.9-26.1-8.316c0,0-4.357-2.076-6.292,2.569-1.122,2.693,2.579,6.6,2.579,6.6s-1.152,1.168.672,5.121,22.731,16.419,22.731,16.419,27.182,14.823,38.172,21.913l18.966-25.793-2.637-.985s-1.566-12.853-6.827-16.281c-5.726-3.729-12.632-13.82-14.153-17.774s-8.818-2.128-7.6,6.081,7.6,10.338,6.993,15.812S157.3,358.337,157.3,358.337Z" transform="translate(-103.057 -331.703)"/><g transform="translate(2.558 19.248)"><path class="j" d="M123.689,357.993c-.085.151-4.3-2.049-9.412-4.915s-9.189-5.312-9.1-5.464,4.3,2.049,9.413,4.915S123.775,357.841,123.689,357.993Z" transform="translate(-105.171 -347.607)"/></g><g transform="translate(6.502 10.21)"><path class="j" d="M133.562,353.481a28.186,28.186,0,0,1-3.882-1.545c-2.365-1.029-5.611-2.506-9.12-4.3a99.283,99.283,0,0,1-8.763-5.007c-1.077-.714-1.94-1.306-2.51-1.752s-.88-.7-.854-.732a39.433,39.433,0,0,1,3.6,2.106c2.211,1.313,5.319,3.035,8.815,4.825s6.7,3.325,9.019,4.455A26.773,26.773,0,0,1,133.562,353.481Z" transform="translate(-108.43 -340.139)"/></g><g transform="translate(17.097 19.077)"><path class="j" d="M136.273,363.858a13.775,13.775,0,0,1-1.917-1.041l-5.1-3.044-.057-.034-.033-.069a71.951,71.951,0,0,0-3.672-7.031A17.126,17.126,0,0,0,122.744,349a3.473,3.473,0,0,0-4.262-.321,2.13,2.13,0,0,0-.679.621.374.374,0,0,1,.05.144l.087.269c.054.178.123.359.189.54.263.723.548,1.433.827,2.132l1.656,4.04,2.926,6.978-.04-.063c1.778,2.083,3.248,3.806,4.35,5.1l1.162,1.416a2.246,2.246,0,0,1,.37.526c-.018.016-.182-.134-.476-.435l-1.259-1.33-4.508-4.958-.023-.025-.017-.038c-.9-2.019-1.929-4.363-3.03-6.942l-1.686-4.037c-.283-.7-.571-1.411-.841-2.148-.068-.184-.138-.367-.2-.563l-.093-.289a1.949,1.949,0,0,1-.063-.432,1.368,1.368,0,0,1,.441-.644,4.051,4.051,0,0,1,.517-.391,4.216,4.216,0,0,1,2.608-.67,4.171,4.171,0,0,1,2.4,1.051,17.209,17.209,0,0,1,2.85,3.8,64.828,64.828,0,0,1,3.593,7.151l-.09-.1,4.99,3.217A14.021,14.021,0,0,1,136.273,363.858Z" transform="translate(-117.184 -347.466)"/></g></g><g transform="translate(40.519 33.263)"><path class="j" d="M153.894,361.6a13.232,13.232,0,0,1-2.658-.651,26.373,26.373,0,0,0-6.4-1.129,11.706,11.706,0,0,0-6.166,1.51,24.419,24.419,0,0,0-2.134,1.637,4.89,4.89,0,0,1,1.893-2.013,11.041,11.041,0,0,1,6.42-1.766,21.452,21.452,0,0,1,6.516,1.335A10.753,10.753,0,0,1,153.894,361.6Z" transform="translate(-136.537 -359.187)"/></g><g transform="translate(54.219 29.954)"><path class="j" d="M149.888,356.463c.144.108-.395,1.043-.916,2.245s-.856,2.229-1.034,2.2-.108-1.172.456-2.448S149.757,356.356,149.888,356.463Z" transform="translate(-147.857 -356.453)"/></g></g><g transform="translate(180.623 37.551)"><path class="c" d="M252.619,297.981c1.492-10.2,13.365-24.816,23.872-24.832a27.13,27.13,0,0,1-.225-29.828c4.054-6.068,10.592-10.529,13.365-17.253,3.137-7.609.73-16.205,1.029-24.407.438-12.006,6.684-22.969,12.767-33.4,5.57-9.549,12.365-20.016,23.326-22.362,6.936-1.484,14.13.706,20.641,3.478,31.158,13.27,55.389,41.24,63.7,73.533,1.991,7.731,3.325,16.094,8.711,22.068,5.705,6.327,15.7,9.759,17.409,18.036,1.228,5.935-2.581,11.9-2.01,17.931.479,5.052,9.94,19.777,12.121,24.377,3.758,7.925,2.4,16.487-1.427,24.38s-13.563,15.583-22.2,17.732l-96.581-32.183c-9.086,5.173-18.138,25.183-28.569,26.414s-23.159,5.769-33.195-5.214C254.834,324.943,251.126,308.177,252.619,297.981Z" transform="translate(-252.302 -145.423)"/><g transform="translate(135.451 56.496)"><path class="c" d="M389.231,192.105c-1.081,8.082,1.135,21.444,5.553,28.35,2.965,4.634,7.913,7.649,12.793,10.3s9.992,5.194,13.693,9.289,5.685,10.234,3.211,15.138c8.7,3.243,12.6,14.327,9.411,22.9S421.948,292.42,412.8,294.132l-39.834-11.983-8.748-50.833,22.993-39.212" transform="translate(-364.223 -192.105)"/></g><g transform="translate(165.349 108.318)"><path class="k" d="M388.927,234.926a4.634,4.634,0,0,1,.778.339,22.257,22.257,0,0,1,2.176,1.13,28.876,28.876,0,0,1,6.982,5.82,32.1,32.1,0,0,1,3.72,5.167,32.569,32.569,0,0,1,2.9,6.777,29.308,29.308,0,0,1,.108,16.964l-.145-.364a29.493,29.493,0,0,1,6.481,4.924,30.189,30.189,0,0,1,8.687,17.736,29.1,29.1,0,0,1-2.851,15.939,30.059,30.059,0,0,1-6.541,8.8,24.4,24.4,0,0,1-2.319,1.887,6.476,6.476,0,0,1-.867.578,6.448,6.448,0,0,1,.789-.679c.541-.414,1.291-1.081,2.228-1.964a31.025,31.025,0,0,0,6.308-8.818,28.927,28.927,0,0,0,2.677-15.679,29.821,29.821,0,0,0-8.556-17.357,29.088,29.088,0,0,0-6.338-4.826l-.219-.122.073-.243a28.949,28.949,0,0,0-.04-16.621,31.351,31.351,0,0,0-6.4-11.83,30.178,30.178,0,0,0-6.788-5.9c-.876-.6-1.637-.923-2.111-1.218A4.843,4.843,0,0,1,388.927,234.926Z" transform="translate(-388.927 -234.924)"/></g></g><g transform="translate(61.363 181.017)"><g transform="translate(0 17.495)"><path class="h" d="M320.53,278.422s-17.8,5.413-24.039,14.489c-4.414,6.419-49.6,104.285-49.6,104.285l-68.6-20.626L153.76,408.965l76.326,42.308a46.5,46.5,0,0,0,45.443-.2h0a46.5,46.5,0,0,0,18.324-18.955l19.407-37.183Z" transform="translate(-153.76 -278.422)"/></g><g transform="translate(144.487)"><path class="h" d="M277.216,494.618l10.712-46.17-8.116-33.524c-5.221-17.263-9.7-45.382-4.023-68.029l18.972-65.127,20.86-9.592,47.734-8.21c1.836.611,49.914,14.19,49.914,14.19a74.587,74.587,0,0,1,9.326,2.607l5.513,35.651-16.575,58.761-7.219,58.548,15.859,60.895Z" transform="translate(-273.147 -263.966)"/><g transform="translate(0.523 87.013)"><path class="l" d="M273.579,335.863" transform="translate(-273.579 -335.863)"/></g><g transform="translate(112.366 91.319)"><path class="l" d="M365.993,339.421" transform="translate(-365.993 -339.421)"/></g></g><g transform="translate(175.702 6.99)"><path class="i" d="M299.38,275.937l13.843-6.2,62.387.869,14.755,8.565s-51.541,56.886-64.476,58.767C293.353,342.675,299.38,275.937,299.38,275.937Z" transform="translate(-298.939 -269.742)"/></g><g transform="translate(269.546 16.304)"><path class="h" d="M399.516,277.438s9.344,2.1,17.355,19.192,20.96,64.649,20.96,64.649l5.537-50.4,45.106,4.962L479.744,436.3s-15.963,23.148-42.663,21.012-60.6-86.538-60.6-86.538Z" transform="translate(-376.481 -277.438)"/></g><g transform="translate(323.846 49.743)"><path class="c" d="M421.359,417.015a1.1,1.1,0,0,1-.008-.293c.01-.23.021-.509.035-.853q.073-1.2.2-3.277c.172-2.848.512-6.96.983-12.037.94-10.156,2.661-24.142,4.768-39.553s3.9-29.381,4.95-39.519c.529-5.067.936-9.171,1.182-12.01q.2-2.066.315-3.268c.04-.341.071-.62.1-.848a1,1,0,0,1,.056-.288,1.034,1.034,0,0,1,.008.293l-.035.853q-.073,1.2-.2,3.277c-.172,2.847-.511,6.959-.983,12.036-.94,10.156-2.661,24.143-4.77,39.559s-3.9,29.375-4.949,39.513c-.529,5.067-.936,9.171-1.182,12.012q-.2,2.066-.315,3.268c-.04.341-.071.62-.1.848A1,1,0,0,1,421.359,417.015Z" transform="translate(-421.348 -305.068)"/></g><g transform="translate(90.205 136.774)"><path class="c" d="M232,402.468a3.269,3.269,0,0,1-.5-.9,26.424,26.424,0,0,1-1.048-2.6,38.926,38.926,0,0,1-1.768-18.26,25.808,25.808,0,0,1,.53-2.75,3.288,3.288,0,0,1,.316-.98c.1.022-.172,1.454-.4,3.783a46.134,46.134,0,0,0,1.751,18.069C231.548,401.075,232.092,402.428,232,402.468Z" transform="translate(-228.295 -376.98)"/></g><g transform="translate(91.596 135.125)"><path class="c" d="M239.341,403.871a4.424,4.424,0,0,1-.8-.9,32.387,32.387,0,0,1-1.882-2.671,46.444,46.444,0,0,1-7.036-20.223,32.078,32.078,0,0,1-.183-3.263,4.457,4.457,0,0,1,.064-1.2c.107,0,.184,1.7.56,4.408a53.873,53.873,0,0,0,6.975,20.044C238.432,402.427,239.427,403.808,239.341,403.871Z" transform="translate(-229.444 -375.617)"/></g><g transform="translate(142.547 55.758)"><path class="c" d="M283.891,310.038a5.946,5.946,0,0,1-.229.977l-.77,2.765c-.7,2.459-1.674,5.913-2.875,10.155-2.344,8.582-5.608,20.5-7.169,34a79.214,79.214,0,0,0,2.912,34.322c1.276,4.262,2.483,7.661,3.31,10.011q.6,1.7.953,2.706a5.881,5.881,0,0,1,.294.96,6.259,6.259,0,0,1-.413-.914q-.4-.995-1.064-2.667c-.9-2.326-2.171-5.705-3.506-9.966a81.71,81.71,0,0,1-3.328-15.324,82.949,82.949,0,0,1,.215-19.2c1.571-13.56,4.912-25.489,7.367-34.047,1.25-4.281,2.319-7.726,3.07-10.1q.555-1.714.884-2.731A5.867,5.867,0,0,1,283.891,310.038Z" transform="translate(-271.544 -310.038)"/></g><g transform="translate(262.633 19.459)"><path class="c" d="M389.164,395.71a1.324,1.324,0,0,1-.163-.3l-.424-.894-1.571-3.466c-.667-1.512-1.52-3.346-2.429-5.51-.875-2.188-1.866-4.67-2.96-7.409-1.065-2.757-2.09-5.831-3.264-9.1q-.772-2.492-1.594-5.148-.407-1.329-.825-2.7c-.26-.917-.487-1.857-.737-2.8a123.575,123.575,0,0,1-4.266-25.063,72.232,72.232,0,0,1,2.608-25.252,44.779,44.779,0,0,1,9.991-18.1,34.941,34.941,0,0,1,11.26-8.259,26.238,26.238,0,0,1,3.574-1.324l.955-.267a1.379,1.379,0,0,1,.33-.07,1.348,1.348,0,0,1-.313.132l-.933.327a31.117,31.117,0,0,0-3.51,1.426,35.684,35.684,0,0,0-11.034,8.336,44.8,44.8,0,0,0-9.763,17.97,72.462,72.462,0,0,0-2.535,25.051,125.368,125.368,0,0,0,4.2,24.95q.367,1.416.723,2.794l.81,2.692q.8,2.65,1.559,5.144c1.151,3.272,2.148,6.348,3.184,9.111,1.061,2.747,2.022,5.237,2.869,7.431.877,2.175,1.7,4.022,2.329,5.548.621,1.49,1.11,2.665,1.462,3.511l.366.92A1.353,1.353,0,0,1,389.164,395.71Z" transform="translate(-370.768 -280.044)"/></g><g class="m" transform="translate(259.808 80.565)"><path d="M372.463,330.535c-5.9,27.895-5.975,56.591,4.178,83.233.588,1.546,2.919,7.04,4.571,7.121,2.095.1,3.089-2.5,3.452-4.569.744-4.246,1.2-11.233,1.945-15.48.934-5.317,2.2-17.625,2.2-17.625s-4.877-11.162-7.021-17.148c-3.978-11.106-7.341-21.706-9.2-34.653" transform="translate(-368.434 -330.535)"/></g><g transform="translate(184.012 188.631)"><path class="c" d="M380.814,419.829a4.392,4.392,0,0,1-.468.729c-.368.513-.85,1.184-1.449,2.02q-.485.663-1.061,1.452c-.405.517-.89,1.043-1.387,1.628a48.539,48.539,0,0,1-3.529,3.836l-2.168,2.124c-.761.731-1.636,1.4-2.5,2.142a70.941,70.941,0,0,1-5.783,4.388,74.322,74.322,0,0,1-30.767,11.991,71.237,71.237,0,0,1-7.228.683c-1.136.035-2.232.134-3.287.111l-3.034-.1a48.174,48.174,0,0,1-5.194-.437c-.762-.093-1.474-.154-2.123-.259l-1.763-.352-2.433-.507a4.521,4.521,0,0,1-.839-.218,4.5,4.5,0,0,1,.865.094l2.448.39,1.765.3c.647.088,1.359.131,2.119.207a51.663,51.663,0,0,0,5.171.341l3.013.056c1.048.011,2.136-.1,3.264-.148,2.261-.05,4.648-.42,7.166-.735a75.739,75.739,0,0,0,30.532-11.9c2.066-1.472,4.075-2.815,5.773-4.308.862-.727,1.738-1.382,2.5-2.1l2.182-2.079a51.631,51.631,0,0,0,3.576-3.752c.508-.57,1-1.083,1.421-1.585l1.1-1.412,1.539-1.945A4.6,4.6,0,0,1,380.814,419.829Z" transform="translate(-305.806 -419.829)"/></g><g transform="translate(231.276 170.172)"><path class="c" d="M362.76,404.576a5.3,5.3,0,0,1-.161,1.323,30.417,30.417,0,0,1-.843,3.529A42.062,42.062,0,0,1,348.878,429.3,30.542,30.542,0,0,1,346,431.514a5.419,5.419,0,0,1-1.141.687c-.067-.093,1.48-1.184,3.72-3.234a46.5,46.5,0,0,0,12.747-19.674C362.285,406.411,362.648,404.554,362.76,404.576Z" transform="translate(-344.859 -404.576)"/></g></g><g transform="translate(211.67)"><g transform="translate(76.625)"><g transform="translate(0 30.316)"><path class="h" d="M341.545,139.445a49.03,49.03,0,0,1,42.631,72.65c-2.774,5.046-6.764,9.822-12.245,11.581a101.068,101.068,0,0,0-30.66-78.493" transform="translate(-341.27 -139.445)"/></g><g transform="translate(19.076 6.494)"><path class="h" d="M358,147.955c-2.508-5.214.177-11.737,4.649-15.409s10.3-5.156,15.924-6.5,11.457-2.739,16.029-6.286c-.66,9.065-2.912,18.392-8.779,25.333s-16.031,10.81-24.408,7.282" transform="translate(-357.032 -119.761)"/></g><g transform="translate(0.693 0.001)"><path class="h" d="M367,155.054c-3.851,1.621-8.443.608-11.889-1.754s-5.912-5.9-7.935-9.555a41.074,41.074,0,0,1-5.1-14.432,24.169,24.169,0,0,1,2.554-14.917c6.625,7.058,13.921,12.99,17.708,21.9,2.226,5.233,1.956,13.622-.431,18.784" transform="translate(-341.842 -114.396)"/></g><g transform="translate(34.776 70.007)"><path class="c" d="M379.844,172.241a8.842,8.842,0,0,1,.33,1.683c.092.545.188,1.214.248,2s.177,1.67.2,2.659a54.028,54.028,0,0,1-.122,6.941,55.947,55.947,0,0,1-3.926,16.5,54.114,54.114,0,0,1-3.017,6.252c-.462.875-.96,1.619-1.372,2.286s-.794,1.225-1.121,1.67a8.926,8.926,0,0,1-1.053,1.354,9,9,0,0,1,.847-1.49c.3-.464.65-1.034,1.025-1.717s.85-1.435,1.283-2.316a61.78,61.78,0,0,0,2.868-6.255,59.989,59.989,0,0,0,3.887-16.338,61.6,61.6,0,0,0,.255-6.875c.01-.982-.068-1.866-.1-2.646s-.087-1.449-.142-2A9.094,9.094,0,0,1,379.844,172.241Z" transform="translate(-370.005 -172.241)"/></g><g transform="translate(18.588 17.91)"><path class="c" d="M378.878,148.834a8.923,8.923,0,0,1-1.341,1.067,14.622,14.622,0,0,1-4.37,1.691c-3.895.887-9.519.7-15.455-.881l-.177-.046-.041-.18c-.08-.363-.167-.752-.254-1.144a27.054,27.054,0,0,1-.4-9,15.335,15.335,0,0,1,2.542-6.9,12.759,12.759,0,0,1,3.591-3.429,9.89,9.89,0,0,1,1.63-.808,9.891,9.891,0,0,1-1.493,1.012,13.64,13.64,0,0,0-3.358,3.475,15.325,15.325,0,0,0-2.336,6.73,27.459,27.459,0,0,0,.442,8.8c.086.384.171.765.249,1.119l-.217-.226c5.822,1.56,11.371,1.818,15.187,1.059a16.053,16.053,0,0,0,4.34-1.473A9.149,9.149,0,0,1,378.878,148.834Z" transform="translate(-356.629 -129.194)"/></g><g transform="translate(19.736 21.847)"><path class="c" d="M383.636,132.466c.018.115-1.771.366-4.544,1.187a39.337,39.337,0,0,0-4.755,1.762A38.614,38.614,0,0,0,364,142.192a39.441,39.441,0,0,0-3.512,3.659c-1.861,2.215-2.8,3.754-2.9,3.692a4.895,4.895,0,0,1,.587-1.127,25.652,25.652,0,0,1,1.969-2.848,34.209,34.209,0,0,1,3.464-3.8,35.744,35.744,0,0,1,10.5-6.883,34.058,34.058,0,0,1,4.868-1.658,25.509,25.509,0,0,1,3.4-.669A4.857,4.857,0,0,1,383.636,132.466Z" transform="translate(-357.577 -132.448)"/></g><g transform="translate(9.915 30.692)"><path class="c" d="M365.141,149.578c.021,0,0,.13-.047.363a5.218,5.218,0,0,1-.324,1,7.836,7.836,0,0,1-2.393,3.026,8.317,8.317,0,0,1-5.44,1.756,8.2,8.2,0,0,1-7.119-10.387,8.321,8.321,0,0,1,3.6-4.439,7.846,7.846,0,0,1,3.686-1.14,5.193,5.193,0,0,1,1.049.059c.237.036.359.067.357.087-.006.067-.506,0-1.387.1a8.233,8.233,0,0,0-3.469,1.273,8.035,8.035,0,0,0-3.285,4.237,7.71,7.71,0,0,0,6.6,9.632,8.029,8.029,0,0,0,5.137-1.533,8.252,8.252,0,0,0,2.44-2.775C364.961,150.05,365.076,149.56,365.141,149.578Z" transform="translate(-349.463 -139.756)"/></g><g transform="translate(10.754 37.846)"><path class="c" d="M350.322,148.638c-.058.061-.42-.658.154-1.6a2.736,2.736,0,0,1,1.437-1.122,5.32,5.32,0,0,1,2.162-.226c3.021.214,5.217,1.392,5.135,1.531-.067.174-2.295-.7-5.177-.9a3.484,3.484,0,0,0-3.19.975A3.191,3.191,0,0,0,350.322,148.638Z" transform="translate(-350.156 -145.667)"/></g><g transform="translate(0.767)"><path class="c" d="M344.619,114.4a14.967,14.967,0,0,0-1.848,5.177,35.828,35.828,0,0,0-.286,6.006,39.244,39.244,0,0,0,.644,7.327,36.335,36.335,0,0,0,5.169,12.253c.983,1.408,1.849,2.5,2.463,3.24s1,1.107.967,1.144c-.073.091-1.721-1.334-3.792-4.123a34.03,34.03,0,0,1-5.424-12.387,37.112,37.112,0,0,1-.608-7.45,32.573,32.573,0,0,1,.428-6.086,12.188,12.188,0,0,1,1.382-3.887A4.382,4.382,0,0,1,344.619,114.4Z" transform="translate(-341.904 -114.395)"/></g><g transform="translate(9.745 14.357)"><path class="c" d="M349.331,126.26a9.43,9.43,0,0,1,1.7,2.068,35.829,35.829,0,0,1,3.214,5.608,33.815,33.815,0,0,1,2.126,6.108,9.207,9.207,0,0,1,.415,2.647c-.2.046-1.019-3.959-3.114-8.492C351.6,129.66,349.16,126.379,349.331,126.26Z" transform="translate(-349.322 -126.258)"/></g><g transform="translate(7.698 21.895)"><path class="c" d="M347.638,132.491c.127-.108,2.165,1.953,4.835,4.348s4.793,4.4,4.67,4.543a31.287,31.287,0,0,1-5.094-4.077C349.362,134.9,347.5,132.607,347.638,132.491Z" transform="translate(-347.631 -132.487)"/></g><g transform="translate(17.133 50.292)"><path class="d" d="M377.672,155.951c0,.007-.054.065-.174.172-.171.144-.346.294-.533.453a24.4,24.4,0,0,1-2.066,1.536,31.1,31.1,0,0,1-15.961,5.24,23.635,23.635,0,0,1-2.573-.011l-.7-.05a.867.867,0,0,1-.242-.034.9.9,0,0,1,.244-.017l.7,0c.605.016,1.481,0,2.561-.069a32.957,32.957,0,0,0,15.871-5.213c.906-.587,1.624-1.092,2.1-1.463l.562-.415A.991.991,0,0,1,377.672,155.951Z" transform="translate(-355.427 -155.951)"/></g><g transform="translate(24.344 64.939)"><path class="d" d="M383.549,168.054a.983.983,0,0,1-.177.169l-.539.448c-.466.391-1.174.917-2.074,1.527a34.741,34.741,0,0,1-15.858,5.716c-1.083.105-1.964.153-2.573.149h-.7a.925.925,0,0,1-.245-.018.935.935,0,0,1,.243-.033l.7-.046c.606-.027,1.481-.1,2.557-.228a37.164,37.164,0,0,0,15.779-5.688c.909-.588,1.63-1.09,2.113-1.456l.566-.41A.84.84,0,0,1,383.549,168.054Z" transform="translate(-361.385 -168.053)"/></g><g transform="translate(29.163 86.302)"><path class="d" d="M380.732,185.706a3.078,3.078,0,0,1-.513.378c-.336.234-.845.541-1.489.893a23.972,23.972,0,0,1-11,2.876c-.733.008-1.326-.011-1.734-.05a3.094,3.094,0,0,1-.633-.079A3.177,3.177,0,0,1,366,189.7c.408.008,1,0,1.726-.03a26.595,26.595,0,0,0,10.919-2.856c.649-.329,1.168-.611,1.519-.818A3.079,3.079,0,0,1,380.732,185.706Z" transform="translate(-365.367 -185.705)"/></g><g transform="translate(45.317 83.011)"><path class="d" d="M382.032,183.009a5.714,5.714,0,0,1-1.635.443,5.79,5.79,0,0,1-1.682.2,11.414,11.414,0,0,1,3.317-.639Z" transform="translate(-378.715 -182.986)"/></g><g transform="translate(31.151 107.739)"><path class="d" d="M372.484,203.832a11.234,11.234,0,0,1-5.474-.4c.018-.073,1.222.182,2.73.289S372.477,203.758,372.484,203.832Z" transform="translate(-367.01 -203.418)"/></g><g transform="translate(10.308 44.86)"><path class="d" d="M353.137,151.469a14.575,14.575,0,0,1-3.349,1.847,14.578,14.578,0,0,1,3.349-1.847Z" transform="translate(-349.787 -151.462)"/></g><g transform="translate(1.092 32.158)"><path class="d" d="M348.727,140.972a16.333,16.333,0,0,0-6.552,4.656,4.111,4.111,0,0,1,.695-.983,11.9,11.9,0,0,1,4.7-3.34A4.14,4.14,0,0,1,348.727,140.972Z" transform="translate(-342.173 -140.967)"/></g><g transform="translate(17.614 39.032)"><path class="d" d="M356.76,153.848a12.613,12.613,0,0,0-.931-7.2,3.344,3.344,0,0,1,.54.952,9.4,9.4,0,0,1,.672,5.191A3.324,3.324,0,0,1,356.76,153.848Z" transform="translate(-355.824 -146.647)"/></g><g transform="translate(20.448 6.761)"><path class="d" d="M393.713,119.982a14.715,14.715,0,0,1-1.326,1.414,26.873,26.873,0,0,1-4.186,3.22,53.134,53.134,0,0,1-6.959,3.6c-2.7,1.2-5.715,2.374-8.774,3.843a34.272,34.272,0,0,0-8.026,5.119,20.215,20.215,0,0,0-4.714,6.136,14.717,14.717,0,0,0-1.438,5.021c-.108,1.238-.019,1.928-.061,1.929,0,0-.023-.171-.041-.5a10.623,10.623,0,0,1,0-1.438,14.313,14.313,0,0,1,1.375-5.09A20.133,20.133,0,0,1,364.285,137a33.969,33.969,0,0,1,8.072-5.175c3.072-1.474,6.1-2.647,8.79-3.828a55.012,55.012,0,0,0,6.959-3.536,28.656,28.656,0,0,0,4.214-3.142c.456-.422.8-.756,1.031-.995S393.713,119.982,393.713,119.982Z" transform="translate(-358.166 -119.982)"/></g><g transform="translate(28.453 21.125)"><path class="d" d="M389.05,131.851a1.48,1.48,0,0,1-.161.273l-.5.76c-.434.661-1.115,1.584-2,2.689a47.855,47.855,0,0,1-17.337,13.458c-1.29.585-2.353,1.015-3.1,1.272l-.86.3a1.464,1.464,0,0,1-.3.087,1.542,1.542,0,0,1,.288-.136l.842-.344c.736-.284,1.786-.738,3.062-1.341a50.517,50.517,0,0,0,17.274-13.409c.9-1.087,1.6-1.991,2.059-2.633l.542-.731A1.49,1.49,0,0,1,389.05,131.851Z" transform="translate(-364.78 -131.851)"/></g><g transform="translate(2.206 4.119)"><path class="d" d="M343.093,117.8a23.1,23.1,0,0,1,3.668,1.942,30.368,30.368,0,0,1,12.255,15.466,23.247,23.247,0,0,1,1.053,4.014,1.206,1.206,0,0,1-.092-.275c-.067-.248-.138-.509-.214-.8a28.924,28.924,0,0,0-.915-2.883,31.524,31.524,0,0,0-12.185-15.377,28.525,28.525,0,0,0-2.6-1.549l-.726-.391A1.322,1.322,0,0,1,343.093,117.8Z" transform="translate(-343.093 -117.799)"/></g></g><g transform="translate(0 19.175)"><g transform="translate(0 30.454)"><path class="c" d="M296.093,155.4c.473,6.415-3.763,12.145-8.031,16.957s-9.018,9.827-9.94,16.193c-1.635,11.281,9.41,21.755,7.132,32.925-1.221,5.986-6.123,10.8-7,16.842-.845,5.848,2.29,11.572,6.175,16.025s8.386,3.8,11.822,8.608a48.317,48.317,0,0,0,14.908,13.25c12.378,6.779,27.234-3.028,33.205-4.789" transform="translate(-277.956 -155.403)"/></g><g transform="translate(17.932)"><path class="c" d="M386.586,186.982c5.706-2.483,6.154-22.93-8.161-25.293-5.743-.946-10.525-3.749-15.353-7-4.275-2.877-5.543-10.179-9.161-13.848a35.823,35.823,0,0,0-60.249,16.436c-2.079,8.285-.66,18.08,5.871,23.586,7.58,6.389,18.818,4.97,28.529,2.982s20.7-3.948,28.813,1.756c4.891,3.439,7.694,9.034,10.683,14.212s6.741,10.465,12.394,12.411c0,0,4.3,10.115.79,17.156s4.132-4.967,4.132-4.967,13.938-24.785,1.712-37.434" transform="translate(-292.773 -130.239)"/></g><g transform="translate(12.323 28.177)"><path class="i" d="M315.049,325.6c-.079-13.35,0-50.836,0-50.768,0,0-21.2-3.569-25.538-31.256-2.155-13.769-1.414-36.336-.211-54.78,1.083-16.6,12.129-36.95,28.669-35.164L369.6,166.8a9.734,9.734,0,0,1,8.687,9.893h0l-3.143,128.229Z" transform="translate(-288.138 -153.521)"/><g transform="translate(5.975 43.308)"><g transform="translate(3.972 4.582)"><path class="c" d="M296.359,196.292a3.551,3.551,0,0,0,3.415,3.59,3.4,3.4,0,0,0,3.666-3.193,3.551,3.551,0,0,0-3.41-3.591A3.4,3.4,0,0,0,296.359,196.292Z" transform="translate(-296.357 -193.092)"/></g><path class="c" d="M293.131,193.021c.439.465,3.133-1.52,6.953-1.5,3.816-.035,6.614,1.935,7.03,1.469.2-.207-.243-1.043-1.462-1.935a9.742,9.742,0,0,0-5.626-1.748,9.355,9.355,0,0,0-5.534,1.773C293.315,191.978,292.915,192.815,293.131,193.021Z" transform="translate(-293.075 -189.306)"/></g><g transform="translate(43.52 49.395)"><path class="c" d="M324.153,198.052c.439.464,3.137-1.52,6.953-1.5,3.816-.036,6.615,1.935,7.03,1.468.2-.207-.238-1.043-1.462-1.934a9.729,9.729,0,0,0-5.625-1.749,9.368,9.368,0,0,0-5.536,1.773C324.34,197.007,323.938,197.844,324.153,198.052Z" transform="translate(-324.098 -194.335)"/></g><g transform="translate(19.924 44.294)"><path class="c" d="M314.326,221.943c.019-.218-2.355-.633-6.2-1.134-.974-.1-1.9-.3-2.061-.965a4.971,4.971,0,0,1,.658-2.89q1.383-3.536,2.9-7.42c4.029-10.565,6.947-19.254,6.521-19.412s-4.04,8.277-8.069,18.842q-1.454,3.908-2.78,7.465c-.37,1.107-1.008,2.364-.514,3.827a2.453,2.453,0,0,0,1.6,1.431,6.675,6.675,0,0,0,1.657.234C311.91,222.137,314.312,222.16,314.326,221.943Z" transform="translate(-304.601 -190.12)"/></g><g transform="translate(26.911 111.504)"><path class="j" d="M310.374,255.46a70.413,70.413,0,0,0,37.089-9.805c-.311.067-10.206,19.24-36.73,16.342Z" transform="translate(-310.374 -245.655)"/></g><g transform="translate(30.702 80.712)"><path class="j" d="M313.557,226.642c-.456-2.35,2.309-3.113,4.342-4.376s3.2-2.943,5.107-1.493a7.428,7.428,0,0,1,2.353,3.294,5.2,5.2,0,0,1,.381,2.7,5.268,5.268,0,0,1-1.7,2.827,8.056,8.056,0,0,1-4.146,2.169,5.773,5.773,0,0,1-4.49-1.055,4.528,4.528,0,0,1-1.711-4.189" transform="translate(-313.507 -220.212)"/></g><g transform="translate(28.689 78.782)"><path class="c" d="M324.04,218.618c-.621-.037-.639,4.109-4.195,7.044s-7.967,2.469-8,3.049c-.059.26.982.807,2.846.862a10.317,10.317,0,0,0,6.679-2.31,8.99,8.99,0,0,0,3.25-5.906C324.783,219.623,324.323,218.6,324.04,218.618Z" transform="translate(-311.843 -218.618)"/></g><g transform="translate(42.988 41.73)"><path class="c" d="M323.677,190.85c.375,1.038,4.19.555,8.669,1.1,4.492.461,8.1,1.78,8.7.85.266-.445-.362-1.423-1.82-2.431a15.183,15.183,0,0,0-13.232-1.49C324.347,189.541,323.518,190.356,323.677,190.85Z" transform="translate(-323.658 -188.002)"/></g><g transform="translate(6.466 29.871)"><path class="c" d="M293.578,182.145c.669.869,3.3-.025,6.466-.062,3.164-.145,5.843.6,6.461-.31.271-.441-.149-1.309-1.318-2.134a9.366,9.366,0,0,0-10.417.3C293.652,180.828,293.283,181.72,293.578,182.145Z" transform="translate(-293.48 -178.203)"/></g></g><g transform="translate(35.757 22.274)"><path class="c" d="M377.246,260.422c-7.611,1.535-8.29-2.339-13.977-7.626a25,25,0,0,1-7.65-21.087c.861-6.8,4.526-13.713,2.169-20.147-3.115-8.507-15.04-11.125-18.2-19.612-1.84-4.934-.189-10.7-2.273-15.54-1.961-4.547-6.743-7.166-11.4-8.848s-9.648-2.846-13.557-5.884-6.348-8.773-3.826-13.034a262.332,262.332,0,0,1,60.479,14.695c4.517,1.687,9.262,3.715,11.933,7.73,2.826,4.248,2.69,9.736,2.452,14.834q-1.739,37.279-3.478,74.556" transform="translate(-307.501 -148.644)"/></g><g transform="translate(36.172 12.93)"><path class="k" d="M394.811,252.757c.017.012.119-.1.3-.345a9.729,9.729,0,0,0,.764-1.106,14.717,14.717,0,0,0,1.824-4.84,17.019,17.019,0,0,0-.445-8.174,15.629,15.629,0,0,0-6.441-8.663c-3.283-2.315-7.559-3.928-10.276-7.612a8.306,8.306,0,0,1-1.5-6.5,37.1,37.1,0,0,1,2.408-7.182,20.654,20.654,0,0,0-.356-16.525,18.1,18.1,0,0,0-5.617-6.977,21.931,21.931,0,0,0-8.489-3.519c-3-.684-5.988-1.081-8.763-1.918a17.1,17.1,0,0,1-7.339-4.013,12.191,12.191,0,0,1-3.183-7.263,62.214,62.214,0,0,0-1.3-8.047,27.737,27.737,0,0,0-7.47-13.094,21.87,21.87,0,0,0-11.759-5.833,17.472,17.472,0,0,0-10.7,1.619,16.909,16.909,0,0,0-6.189,5.358,14.318,14.318,0,0,0-2.165,4.7,7.35,7.35,0,0,0-.269,1.78,17.592,17.592,0,0,1,2.817-6.2,16.679,16.679,0,0,1,16.37-6.4,21.092,21.092,0,0,1,11.194,5.71,26.857,26.857,0,0,1,7.085,12.649,62.285,62.285,0,0,1,1.239,7.938,13.335,13.335,0,0,0,3.482,7.925,18.2,18.2,0,0,0,7.84,4.338c2.908.877,5.907,1.272,8.842,1.945a20.81,20.81,0,0,1,8.042,3.309,16.941,16.941,0,0,1,5.252,6.505,19.548,19.548,0,0,1,.388,15.623,37.4,37.4,0,0,0-2.417,7.419,9.353,9.353,0,0,0,1.744,7.254c3.02,3.97,7.421,5.516,10.608,7.729a14.977,14.977,0,0,1,6.276,8.157,16.852,16.852,0,0,1,.627,7.887A18.563,18.563,0,0,1,394.811,252.757Z" transform="translate(-307.844 -140.923)"/></g></g><g transform="translate(71.344 116.436)"><g transform="translate(0.069)"><path class="c" d="M352.677,210.6a70.02,70.02,0,0,0-3.234,46.161c1.253,4.527,2.983,9.222,1.913,13.8-1.159,4.952-5.3,8.535-8.32,12.626a31.165,31.165,0,0,0,9.551,45.538c.8-4.552,5.035-7.655,9.211-9.634s8.79-3.447,11.975-6.8,4.086-9.487.384-12.253c10.654-2.784,16.693-15.439,14.45-26.221s-11.011-19.3-20.984-23.97" transform="translate(-336.963 -210.604)"/></g><g transform="translate(0 81.981)"><path class="c" d="M364.049,303.838c-1.9,1.046-3.753,1.979-3.989,4.139-.276,2.535,2.155,6.984,3.028,9.381a13.031,13.031,0,0,1-17.032,16.582c3.409.261,6.3-3.066,6.605-6.472s-1.348-6.693-3.38-9.444-4.494-5.194-6.217-8.149c-3.508-6.013-8.719-22.37-4.708-31.532" transform="translate(-336.906 -278.343)"/></g><g transform="translate(31.199 18.612)"><path class="k" d="M368.316,297.232a4.414,4.414,0,0,1,.655-.553c.444-.34,1.087-.856,1.9-1.537a42.307,42.307,0,0,0,6.222-6.435,32.331,32.331,0,0,0,5.9-11.76,26.5,26.5,0,0,0-.781-15.893,23.5,23.5,0,0,0-4.38-7.073c-1.78-2.049-3.721-3.834-5.542-5.568a57.183,57.183,0,0,1-4.967-5.17,22.2,22.2,0,0,1-3.255-5.354A14.142,14.142,0,0,1,363,229a9.426,9.426,0,0,1,.905-2.293,4.438,4.438,0,0,1,.468-.719,15.87,15.87,0,0,0-1.134,3.067,14.207,14.207,0,0,0,1.237,8.662,22.1,22.1,0,0,0,3.251,5.2,58.078,58.078,0,0,0,4.962,5.079c1.828,1.72,3.79,3.506,5.608,5.585a23.946,23.946,0,0,1,4.5,7.249,26.841,26.841,0,0,1,.756,16.266,32.219,32.219,0,0,1-6.108,11.892,39.3,39.3,0,0,1-6.417,6.349c-.841.656-1.512,1.142-1.98,1.45A4.407,4.407,0,0,1,368.316,297.232Z" transform="translate(-362.686 -225.983)"/></g></g></g></g></g><g transform="translate(35.985 308.555)"><g transform="translate(38.034)"><path class="n" d="M80.543,411.636c3.059,3.833,8.433,2.162,10.809-.445s3.222-6.221,3.983-9.665c1.738-7.869,3.47-16.118,1.32-23.885a13.2,13.2,0,0,0-3.433-6.255,6.892,6.892,0,0,0-6.658-1.76c-2.7.9-4.246,3.7-5.32,6.343a56.615,56.615,0,0,0-4.058,24.6c.231,3.908.95,7.975,3.357,11.063" transform="translate(-77.088 -369.349)"/></g><g class="o" transform="translate(38.034)"><path d="M80.543,411.636c3.059,3.833,8.433,2.162,10.809-.445s3.222-6.221,3.983-9.665c1.738-7.869,3.47-16.118,1.32-23.885a13.2,13.2,0,0,0-3.433-6.255,6.892,6.892,0,0,0-6.658-1.76c-2.7.9-4.246,3.7-5.32,6.343a56.615,56.615,0,0,0-4.058,24.6c.231,3.908.95,7.975,3.357,11.063" transform="translate(-77.088 -369.349)"/></g><g transform="translate(48.372 58.98)"><path class="n" d="M90.544,421.033c4.443-2.658,9.83-3.306,14.979-2.784,2.768.28,5.674.92,7.667,2.86s2.574,5.537.546,7.439a7.168,7.168,0,0,1-4.627,1.489c-3.994.2-8.466-.219-11.5,2.382-1.732,1.485-2.8,3.838-4.932,4.649a5.153,5.153,0,0,1-5.815-2.161,8.8,8.8,0,0,1-1.048-6.443A9.924,9.924,0,0,1,90.544,421.033Z" transform="translate(-85.63 -418.083)"/></g><g transform="translate(0 15.608)"><path class="n" d="M79.8,415.162c2.821-3.809,3.068-9.122,1.426-13.569s-4.949-8.11-8.679-11.035a42.894,42.894,0,0,0-14.769-7.506,15.223,15.223,0,0,0-6.472-.685,6.734,6.734,0,0,0-5.17,3.59c-1.319,2.953.336,6.33,2.068,9.06a108.67,108.67,0,0,0,10.25,13.655c3.03,3.437,6.466,6.8,10.841,8.164s8.8.893,10.88-2.212" transform="translate(-45.661 -382.246)"/></g><g transform="translate(44.876 64.617)"><path class="p" d="M82.971,460.91a8.838,8.838,0,0,0,.139-1.838c.046-1.334.1-3.009.171-5a72.23,72.23,0,0,1,.66-7.366,56.366,56.366,0,0,1,2.109-8.774,31.813,31.813,0,0,1,3.905-8.066,16.452,16.452,0,0,1,5.267-4.969,15.577,15.577,0,0,1,4.588-1.752,8.756,8.756,0,0,0,1.8-.376,8.563,8.563,0,0,0-1.848.087,14.228,14.228,0,0,0-4.8,1.577,16.425,16.425,0,0,0-5.568,5.03,31.063,31.063,0,0,0-4.057,8.233,52.722,52.722,0,0,0-2.082,8.915,61.937,61.937,0,0,0-.5,7.447c-.025,2.122.023,3.835.069,5.019A8.46,8.46,0,0,0,82.971,460.91Z" transform="translate(-82.741 -422.741)"/></g><g transform="translate(43.711 16.158)"><path class="p" d="M83.275,465.481a3.593,3.593,0,0,0,0-.85c-.041-.634-.093-1.435-.157-2.417-.138-2.1-.328-5.134-.453-8.89-.286-7.511-.292-17.9.24-29.358s1.56-21.8,2.615-29.244c.243-1.864.5-3.544.749-5.015.232-1.474.431-2.746.634-3.776.169-.969.307-1.76.418-2.387a3.618,3.618,0,0,0,.1-.844,3.506,3.506,0,0,0-.244.812c-.146.62-.33,1.4-.557,2.36-.247,1.025-.488,2.291-.761,3.761-.289,1.469-.583,3.147-.86,5.01a274.865,274.865,0,0,0-2.842,29.285c-.533,11.48-.442,21.9-.018,29.419.191,3.761.464,6.8.691,8.892.122.979.221,1.775.3,2.407A3.612,3.612,0,0,0,83.275,465.481Z" transform="translate(-81.779 -382.7)"/></g><g transform="translate(13.686 24.548)"><path class="p" d="M87.281,444a16.084,16.084,0,0,0-.177-2.525c-.195-1.618-.565-3.949-1.2-6.794a90.423,90.423,0,0,0-2.854-9.83,88.505,88.505,0,0,0-4.91-11.534,62.948,62.948,0,0,0-13.443-18.292,31.23,31.23,0,0,0-3.047-2.5c-.466-.346-.88-.693-1.3-.963l-1.167-.7a16.206,16.206,0,0,0-2.211-1.227c-.11.172,3.138,1.819,7.361,5.779a66.373,66.373,0,0,1,13.132,18.243,94.605,94.605,0,0,1,4.928,11.423,101.559,101.559,0,0,1,2.988,9.722c.7,2.811,1.149,5.114,1.433,6.711A16.393,16.393,0,0,0,87.281,444Z" transform="translate(-56.97 -389.632)"/></g></g></g></g></svg>