<svg xmlns="http://www.w3.org/2000/svg" width="796.609" height="479.39" viewBox="0 0 796.609 479.39"><defs><style>.a{fill:#f0f0f0;}.b{fill:#00a0d1;}.c{fill:#173761;}.d{fill:#263238;}.e{fill:#fafafa;}.f{fill:#d8d7e1;}.g{fill:#e0e0e0;}.h,.o{opacity:0.2;}.i{fill:#455a64;}.j{fill:#ffcd05;}.k{opacity:0.3;}.l,.m{fill:none;stroke-miterlimit:10;}.l{stroke:#e0e0e0;}.m{stroke:#ffcd05;}.n{fill:#e8505b;}.p{fill:#ffbe9d;}.q{fill:#266ab4;}.r,.t{fill:#fff;}.s,.t{opacity:0.6;}</style></defs><g transform="translate(-6457 661)"><path class="a" d="M-798.9,96.451c114.576-42.535,231.027-4.929,310.007,76.975s244.729-56.532,332.634,25.241c59.992,55.8,32.513,199.283-49.745,261.426-111.808,84.468-451.831,41.607-525.384,27.233-84.738-16.561-146.689-66.807-171.859-127.791C-963.895,212.593-849.534,115.249-798.9,96.451Z" transform="translate(7377.545 -715.782)"/><g transform="translate(5484 -991)"><g transform="translate(1121.609 607.675)"><g transform="translate(47.069 85.629)"><path class="b" d="M83.661,438.2c-1.074-4.261,1.74-8.518,4.885-11.587s6.9-5.814,8.55-9.886c2.673-6.6-.822-15.181,3.707-20.673,2.665-3.23,7.416-4.289,9.785-7.744,1.242-1.811,1.653-4.044,2.149-6.184a62.943,62.943,0,0,1,15.819-29.2,54.608,54.608,0,0,1-6.3,28.195c-1.841,3.459-4.1,6.828-4.723,10.7-1.016,6.282,2.455,12.778.876,18.941-1.806,7.05-9.763,11.73-10.181,19-.352,6.141,4.972,11.564,4.538,17.7a16.6,16.6,0,0,1-2.775,7.27c-4.8,7.87-11.8,13.27-22.382,13.033l-12.958.38Z" transform="translate(-74.652 -352.926)"/></g><g transform="translate(0 40.561)"><path class="c" d="M81.54,477.572a10.341,10.341,0,0,1-3.567-.1,21.712,21.712,0,0,1-4.2-1.084,17.83,17.83,0,0,1-5.184-2.878,7.249,7.249,0,0,1-2.122-2.861,13.384,13.384,0,0,1-.588-3.875,37.618,37.618,0,0,0-.278-4.192,11.557,11.557,0,0,0-1.56-4.175c-1.512-2.692-4.033-5.246-4.833-8.895-.866-3.589-.208-7.464.417-11.355s1.229-8.115-.233-12.172c-1.367-4.06-4.187-7.734-5.582-12.31-1.389-4.621-.7-9.579-.971-14.475a19.2,19.2,0,0,0-1.648-7.2c-1.035-2.3-2.477-4.471-3.6-6.891-2.272-4.894-2.646-10.428-3.245-15.852q-.436-4.1-.882-8.284a40.463,40.463,0,0,0-1.392-8.293,73.312,73.312,0,0,0-3.053-8.036,26.636,26.636,0,0,1-1.48-4.2,42.112,42.112,0,0,1-.392-4.458,52.465,52.465,0,0,1,.395-8.966c.37-2.988.926-5.948,1.265-8.942.02-.177.041-.355.06-.516l.071-.6.529.268a20.015,20.015,0,0,1,6.941,5.926,31.767,31.767,0,0,1,4.24,7.921c2.133,5.578,2.879,11.416,3.938,16.989,1.033,5.572,2.406,11.057,5.234,15.7,1.407,2.316,3.113,4.432,4.6,6.691a18.3,18.3,0,0,1,3.172,7.4c.736,5.484-2.311,10.281-1.71,15.138a16.788,16.788,0,0,0,2.325,6.737c1.164,2.077,2.537,4,3.838,5.942a38.077,38.077,0,0,1,3.444,6,18.95,18.95,0,0,1,1.554,6.5c.292,4.37-.352,8.511-.055,12.427a28.608,28.608,0,0,0,3.137,10.666c1.549,3.2,3.276,6.089,4.72,8.892a45.27,45.27,0,0,1,1.941,4.14,20.281,20.281,0,0,1,1.114,4.1,25.9,25.9,0,0,1,.054,7.4,18.63,18.63,0,0,1-3.761,9.409,8.888,8.888,0,0,1-1.054,1.129,5.136,5.136,0,0,1-.855.717c-.485.353-.744.515-.744.515a16.3,16.3,0,0,0,2.523-2.467,18.756,18.756,0,0,0,3.571-9.346,25.739,25.739,0,0,0-.124-7.289,20.053,20.053,0,0,0-1.123-4.006c-.544-1.34-1.221-2.7-1.953-4.085-1.456-2.779-3.2-5.66-4.784-8.876A29.069,29.069,0,0,1,76.4,430.649c-.318-4,.307-8.154,0-12.422a18.287,18.287,0,0,0-1.527-6.285,37.409,37.409,0,0,0-3.4-5.878c-1.3-1.924-2.688-3.858-3.887-5.978a17.526,17.526,0,0,1-2.433-7.014c-.594-5.172,2.43-10,1.679-15.1a17.577,17.577,0,0,0-3.066-7.08c-1.466-2.217-3.181-4.336-4.63-6.709-2.918-4.778-4.313-10.366-5.357-15.961-1.069-5.607-1.817-11.384-3.912-16.847a30.958,30.958,0,0,0-4.13-7.713,19.168,19.168,0,0,0-6.648-5.681l.6-.327-.061.521c-.343,3.031-.9,6-1.266,8.95a51.679,51.679,0,0,0-.394,8.83,42.089,42.089,0,0,0,.373,4.324,25.97,25.97,0,0,0,1.431,4.047,73.951,73.951,0,0,1,3.077,8.125,41.2,41.2,0,0,1,1.41,8.431q.442,4.185.872,8.289c.588,5.448.963,10.893,3.151,15.616,1.08,2.352,2.52,4.529,3.586,6.9a19.947,19.947,0,0,1,1.694,7.47c.253,5-.425,9.885.9,14.322,1.318,4.415,4.123,8.109,5.528,12.3,1.5,4.234.846,8.6.206,12.474-.648,3.9-1.3,7.69-.483,11.139.729,3.484,3.178,6.015,4.721,8.784a11.977,11.977,0,0,1,1.583,4.341,37.654,37.654,0,0,1,.248,4.242,13.17,13.17,0,0,0,.531,3.769,6.944,6.944,0,0,0,1.994,2.739,17.793,17.793,0,0,0,5.058,2.89A22.3,22.3,0,0,0,78,477.309a16.637,16.637,0,0,0,2.633.271C81.23,477.56,81.54,477.572,81.54,477.572Z" transform="translate(-37.097 -316.967)"/><g transform="translate(4.369 7.745)"><path class="d" d="M40.588,323.147a1.536,1.536,0,0,1,.123.392c.074.311.167.694.279,1.168.248,1.021.544,2.564,1.023,4.491.5,1.921,1.661,4.1,2.65,6.783,1.03,2.661,2.073,5.744,3.028,9.207s1.822,7.3,2.715,11.418c.921,4.107,1.839,8.514,4.076,12.676,1.05,2.111,2.233,4.247,3.17,6.582a30.623,30.623,0,0,1,1.824,7.445,150.344,150.344,0,0,0,2.7,15.69c2.538,10.632,4.954,20.757,7.155,29.978,2.256,9.189,4.288,17.47,6,24.451,1.667,6.917,3.02,12.537,3.976,16.5.44,1.9.787,3.4,1.04,4.5.1.475.183.862.249,1.174a1.483,1.483,0,0,1,.058.406,1.53,1.53,0,0,1-.139-.386c-.089-.307-.2-.687-.331-1.154-.29-1.083-.688-2.573-1.192-4.459l-4.231-16.436C73,446.6,70.909,438.335,68.588,429.162c-2.222-9.223-4.662-19.351-7.224-29.986a148.426,148.426,0,0,1-2.7-15.754,29.843,29.843,0,0,0-1.755-7.265c-.9-2.276-2.067-4.4-3.117-6.535-2.256-4.241-3.18-8.781-4.063-12.872-.864-4.126-1.681-7.956-2.608-11.409s-1.911-6.534-2.9-9.2c-.937-2.672-2.063-4.877-2.528-6.862-.439-1.975-.677-3.5-.874-4.542-.08-.48-.145-.869-.2-1.184A1.543,1.543,0,0,1,40.588,323.147Z" transform="translate(-40.583 -323.147)"/></g></g><g transform="translate(33.343)"><path class="b" d="M72.514,485.8c-8.434-5.078-10.776-20.36-7.194-29.529s9.808-17.531,10.817-27.324c.775-7.529-1.648-15.273.148-22.624C78.71,396.4,88.453,388.758,88.4,378.545c-.03-5.73-3.26-11.139-2.968-16.863.358-7.019,5.78-12.559,9.153-18.726,5.162-9.439,5.562-20.631,7.369-31.236s5.918-21.952,15.356-27.115c1.339,9.02,3.676,15.206,2.861,27.413-.293,4.383-5.434,12.749-6.181,22.354-.447,5.741-.767,11.492-1.151,17.238-.373,5.591-.768,11.285-2.8,16.506-1.559,4-4.048,7.631-5.213,11.765-2.191,7.777.582,16.229-1.2,24.11-1.506,6.678-6.166,12.405-7.15,19.18-1.382,9.518,4.726,19.45,1.519,28.518-1.592,4.5-5.32,8.1-6.4,12.747-.837,3.608.031,7.437-.728,11.062-1.224,5.839-12.4,10.316-18.354,9.921" transform="translate(-63.701 -284.604)"/><g transform="translate(8.809 8.934)"><path class="c" d="M113.146,291.732a2.388,2.388,0,0,1-.04.509c-.051.379-.117.866-.2,1.48-.2,1.3-.431,3.21-.885,5.679-.486,2.483-1.782,5.274-2.825,8.642-1.1,3.356-2.2,7.23-3.17,11.569-.99,4.336-1.826,9.138-2.7,14.305-.906,5.129-1.834,10.8-4.429,16.167-1.2,2.7-2.55,5.4-3.566,8.277a37.316,37.316,0,0,0-1.837,9.134,184.444,184.444,0,0,1-2.593,19.7c-2.668,13.339-5.209,26.045-7.521,37.609L76.9,455.432c-1.862,8.672-3.375,15.708-4.433,20.636-.533,2.39-.95,4.266-1.247,5.6-.143.6-.257,1.08-.345,1.451a2.389,2.389,0,0,1-.145.49,2.191,2.191,0,0,1,.061-.506c.068-.376.154-.861.264-1.47.261-1.342.627-3.23,1.093-5.634,1-4.941,2.421-11.994,4.176-20.69,1.8-8.746,3.929-19.136,6.3-30.667,2.291-11.562,4.809-24.263,7.452-37.6a186.679,186.679,0,0,0,2.6-19.634,37.881,37.881,0,0,1,1.9-9.317c1.047-2.94,2.413-5.651,3.615-8.327,2.581-5.29,3.508-10.825,4.451-15.972.906-5.157,1.777-9.971,2.809-14.317,1.015-4.348,2.156-8.229,3.3-11.586,1.094-3.379,2.43-6.145,2.952-8.564.5-2.424.782-4.353,1.035-5.636.117-.608.209-1.092.281-1.466A2.226,2.226,0,0,1,113.146,291.732Z" transform="translate(-70.729 -291.732)"/></g></g></g><g transform="translate(1078.293 280.65)"><g transform="translate(43.707 59.135)"><g transform="translate(0 124.28)"><path class="e" d="M52.21,252.713l77.143-8.178L120.935,169.6l-77.228,7.433,1.05,5.814,2.306-.818c1.525-.074,2.208.906,2.421,2.417,0,.034.009.066.013.1.173,1.529-.183,2.959-1.687,3.281l-2.911-.176.593,5.272s5.123-1.175,5.359,2.088c0,0-.223,3.019-4.823,2.682l.494,4.4s5.117-1.4,5.4,1.98c.241,2.868-2.736,3.079-4.824,3.164l.521,4.64s5.094-1.048,5.023,2.411-4.435,2.814-4.435,2.814l.664,5.907s4.709-2.065,5.1,1.456-3.394,3.261-4.606,2.979l.5,4.491s4.8-2.056,5.028,2.465c.168,3.395-4.526,2.011-4.526,2.011l.7,6.248s4.715-2.012,5.094,1.356c.269,2.4-2.621,3.541-4.673,2.391Z" transform="translate(-43.707 -164.15)"/><rect class="f" width="46.279" height="12.668" transform="translate(20.158 1.682) rotate(-2.083)"/><g transform="translate(19.258 25.125)"><path class="g" d="M108.814,186.588a11.479,11.479,0,0,1-1.9.236l-5.192.418c-4.386.327-10.446.736-17.143,1.151s-12.765.756-17.157.973l-5.2.226a11.57,11.57,0,0,1-1.913,0,11.736,11.736,0,0,1,1.9-.234l5.192-.418c4.386-.327,10.448-.736,17.147-1.151s12.761-.756,17.154-.973l5.2-.226A11.867,11.867,0,0,1,108.814,186.588Z" transform="translate(-60.306 -186.559)"/></g><g transform="translate(21.104 34.52)"><path class="g" d="M110.4,194.686a11.607,11.607,0,0,1-1.9.236l-5.192.418c-4.387.326-10.448.736-17.143,1.15s-12.766.758-17.157.975l-5.2.226a11.568,11.568,0,0,1-1.913,0,11.579,11.579,0,0,1,1.9-.236l5.192-.418c4.386-.326,10.448-.736,17.146-1.15s12.762-.756,17.155-.973l5.2-.226A11.507,11.507,0,0,1,110.4,194.686Z" transform="translate(-61.897 -194.656)"/></g><g transform="translate(21.775 44.167)"><path class="g" d="M110.983,203a11.636,11.636,0,0,1-1.9.236l-5.192.418c-4.386.326-10.446.736-17.143,1.15s-12.765.756-17.157.973l-5.2.226a11.515,11.515,0,0,1-1.913,0,11.472,11.472,0,0,1,1.9-.236l5.192-.418c4.386-.326,10.448-.736,17.147-1.151s12.761-.756,17.154-.973l5.2-.226A11.6,11.6,0,0,1,110.983,203Z" transform="translate(-62.475 -202.971)"/></g><g transform="translate(22.949 53.813)"><path class="g" d="M112,211.315a11.476,11.476,0,0,1-1.9.236l-5.192.418c-4.386.326-10.446.736-17.143,1.15s-12.765.758-17.157.975l-5.2.226a11.561,11.561,0,0,1-1.913,0,11.643,11.643,0,0,1,1.9-.236l5.191-.418c4.386-.326,10.448-.736,17.147-1.15s12.762-.756,17.154-.973l5.2-.226A11.513,11.513,0,0,1,112,211.315Z" transform="translate(-63.487 -211.285)"/></g><g transform="translate(25.634 64.207)"><path class="g" d="M114.308,220.274a11.683,11.683,0,0,1-1.9.234l-5.192.418c-4.386.327-10.446.736-17.143,1.151s-12.765.756-17.157.973l-5.2.226a11.841,11.841,0,0,1-1.913,0,11.45,11.45,0,0,1,1.9-.236l5.192-.418c4.386-.327,10.448-.736,17.147-1.151s12.761-.756,17.154-.973l5.2-.226A11.565,11.565,0,0,1,114.308,220.274Z" transform="translate(-65.801 -220.244)"/></g></g><g transform="translate(46.556)"><path class="e" d="M95.267,67.341l-.486,77.574h75.405l1.236-77.574-5.9.394.556,2.383c-.1,1.523-1.147,2.093-2.673,2.136l-.1,0c-1.537,0-2.919-.513-3.071-2.043l.5-2.873h-5.3s.6,5.222-2.674,5.093c0,0-2.975-.559-2.127-5.093h-4.425s.818,5.241-2.571,5.147c-2.878-.08-2.754-3.062-2.606-5.147h-4.669s.472,5.179-2.957,4.722-2.3-4.722-2.3-4.722h-5.943s1.526,4.91-2.018,4.91-2.861-3.737-2.447-4.91h-4.519s1.506,5-3.012,4.722c-3.392-.212-1.492-4.722-1.492-4.722h-6.287s1.472,4.91-1.917,4.91c-2.411,0-3.227-3-1.855-4.91Z" transform="translate(-82.081 -56.253)"/><rect class="f" width="36.848" height="10.087" transform="matrix(0.813, -0.582, 0.582, 0.813, 0, 21.432)"/><rect class="f" width="36.848" height="10.087" transform="matrix(0.813, -0.582, 0.582, 0.813, 67.207, 92.445)"/><g transform="translate(23.38 31.274)"><path class="g" d="M161.95,85.043a2.213,2.213,0,0,1-.588.06l-1.689.057-6.212.1c-5.244.055-12.49.088-20.492.088s-15.251-.034-20.5-.088l-6.211-.1-1.689-.057a2.2,2.2,0,0,1-.588-.06,2.165,2.165,0,0,1,.588-.061l1.689-.056,6.211-.1c5.244-.055,12.491-.089,20.5-.089s15.247.035,20.492.089l6.212.1,1.689.056A2.175,2.175,0,0,1,161.95,85.043Z" transform="translate(-103.986 -84.74)"/></g><g transform="translate(24.69 45.232)"><path class="g" d="M160.431,97.072a1.992,1.992,0,0,1-.563.061l-1.612.057-5.927.1c-5.005.055-11.919.089-19.555.089s-14.554-.035-19.559-.089l-5.927-.1-1.612-.057a1.987,1.987,0,0,1-.562-.061,2.022,2.022,0,0,1,.562-.06l1.612-.057,5.927-.1c5.005-.055,11.92-.088,19.559-.088s14.55.034,19.555.088l5.927.1,1.612.057A2.027,2.027,0,0,1,160.431,97.072Z" transform="translate(-105.115 -96.77)"/></g><g transform="translate(26 58.704)"><path class="g" d="M133.916,108.684a26.93,26.93,0,0,1-4.053.213c-2.5.055-5.962.089-9.783.089s-7.28-.035-9.784-.089a26.912,26.912,0,0,1-4.053-.213,26.91,26.91,0,0,1,4.053-.213c2.5-.055,5.962-.088,9.784-.088s7.279.034,9.783.088A26.928,26.928,0,0,1,133.916,108.684Z" transform="translate(-106.244 -108.382)"/></g></g></g><g transform="translate(62.407 527.644)"><path class="d" d="M540.218,461.9c0,.167-107.549.3-240.186.3-132.683,0-240.208-.135-240.208-.3s107.524-.3,240.208-.3C432.669,461.6,540.218,461.736,540.218,461.9Z" transform="translate(-59.825 -461.6)"/></g><g transform="translate(417.877 452.47)"><path class="b" d="M389.943,427.288c-2.055,2.935-6.049,1.963-7.9.172s-2.635-4.388-3.347-6.864c-1.628-5.657-3.268-11.593-2.058-17.353a9.649,9.649,0,0,1,2.216-4.719,5.039,5.039,0,0,1,4.773-1.588c2.014.533,3.266,2.5,4.17,4.381a41.351,41.351,0,0,1,4.087,17.752c.01,2.859-.327,5.858-1.94,8.219" transform="translate(-364.607 -396.806)"/><path class="h" d="M389.943,427.288c-2.055,2.935-6.049,1.963-7.9.172s-2.635-4.388-3.347-6.864c-1.628-5.657-3.268-11.593-2.058-17.353a9.649,9.649,0,0,1,2.216-4.719,5.039,5.039,0,0,1,4.773-1.588c2.014.533,3.266,2.5,4.17,4.381a41.351,41.351,0,0,1,4.087,17.752c.01,2.859-.327,5.858-1.94,8.219" transform="translate(-364.607 -396.806)"/><path class="b" d="M383.847,436.118a17.81,17.81,0,0,0-11.049-1.344,9.184,9.184,0,0,0-5.459,2.438c-1.363,1.5-1.622,4.155-.056,5.448a5.226,5.226,0,0,0,3.441.874c2.921-.035,6.162-.549,8.5,1.209,1.331,1,2.217,2.668,3.809,3.163a3.764,3.764,0,0,0,4.14-1.842,6.429,6.429,0,0,0,.469-4.746A7.243,7.243,0,0,0,383.847,436.118Z" transform="translate(-366.21 -390.773)"/><path class="b" d="M393.211,430.2a10.681,10.681,0,0,1-1.661-9.828,18.939,18.939,0,0,1,5.821-8.444,31.346,31.346,0,0,1,10.423-6.15,11.122,11.122,0,0,1,4.687-.8,4.922,4.922,0,0,1,3.934,2.38c1.1,2.093.045,4.63-1.093,6.7a79.381,79.381,0,0,1-6.845,10.426c-2.052,2.645-4.4,5.256-7.53,6.451s-6.376,1.055-8.034-1.114" transform="translate(-362.232 -395.502)"/><g transform="translate(10.137 47.766)"><path class="d" d="M390.286,464.966a6.4,6.4,0,0,1-.186-1.333c-.1-.971-.213-2.189-.354-3.64a52.794,52.794,0,0,0-.819-5.339,41.285,41.285,0,0,0-1.941-6.3,23.235,23.235,0,0,0-3.217-5.7,12.017,12.017,0,0,0-4.068-3.381,11.376,11.376,0,0,0-3.426-1.067,6.313,6.313,0,0,1-1.327-.193,6.329,6.329,0,0,1,1.352-.021,10.365,10.365,0,0,1,3.571.93,11.985,11.985,0,0,1,4.292,3.411,22.676,22.676,0,0,1,3.334,5.816,38.405,38.405,0,0,1,1.927,6.4,45.312,45.312,0,0,1,.71,5.405c.115,1.545.159,2.8.18,3.663A6.247,6.247,0,0,1,390.286,464.966Z" transform="translate(-374.948 -437.976)"/></g><g transform="translate(18.407 11.793)"><path class="d" d="M388.893,467.132a2.616,2.616,0,0,1-.036-.618c0-.465,0-1.051,0-1.769,0-1.536,0-3.759-.079-6.5-.136-5.489-.608-13.065-1.521-21.393s-2.138-15.824-3.249-21.2c-.263-1.348-.528-2.561-.776-3.622s-.44-1.983-.636-2.724c-.168-.7-.305-1.269-.413-1.721a2.7,2.7,0,0,1-.109-.61,2.584,2.584,0,0,1,.216.58c.135.446.3,1.006.513,1.7.229.736.462,1.647.729,2.708s.57,2.267.857,3.613a201.008,201.008,0,0,1,3.416,21.221c.914,8.345,1.326,15.944,1.363,21.446.033,2.751-.027,4.978-.1,6.515-.044.719-.08,1.3-.108,1.769A2.653,2.653,0,0,1,388.893,467.132Z" transform="translate(-382.075 -406.971)"/></g><g transform="translate(25.163 16.274)"><path class="d" d="M387.923,451.858a11.8,11.8,0,0,1,.013-1.848c.068-1.188.232-2.905.566-5.009a66.142,66.142,0,0,1,1.629-7.3,64.523,64.523,0,0,1,3.051-8.634,46.022,46.022,0,0,1,8.961-13.954,22.887,22.887,0,0,1,2.108-1.96c.324-.273.609-.545.9-.762l.818-.563a11.746,11.746,0,0,1,1.556-1,55.217,55.217,0,0,0-5.1,4.55,48.481,48.481,0,0,0-8.736,13.9,68.852,68.852,0,0,0-3.069,8.555,74.092,74.092,0,0,0-1.733,7.225c-.382,2.081-.6,3.781-.737,4.959A11.744,11.744,0,0,1,387.923,451.858Z" transform="translate(-387.898 -410.833)"/></g></g><g transform="translate(187.29 49.35)"><path class="i" d="M424.243,425.074,173.235,393.152l43.722-343.8L474.2,82.063a5.136,5.136,0,0,1,4.446,5.742L437.007,415.19A11.416,11.416,0,0,1,424.243,425.074Z" transform="translate(-166.539 -49.35)"/><rect class="j" width="16.857" height="31.366" transform="matrix(0.126, -0.992, 0.992, 0.126, 288.924, 107.053)"/><rect class="k" width="16.857" height="31.366" transform="matrix(0.126, -0.992, 0.992, 0.126, 288.924, 107.053)"/><rect class="g" width="244.692" height="329.562" transform="matrix(0.992, 0.126, -0.126, 0.992, 60.061, 10.658)"/><rect class="e" width="244.692" height="329.562" transform="matrix(0.992, 0.126, -0.126, 0.992, 49.744, 5.294)"/><g transform="translate(19.814 37.65)"><line class="l" x2="241.886" y2="30.761" transform="translate(33.616)"/><line class="l" x2="241.886" y2="30.761" transform="translate(33.077 16.451)"/><line class="l" x2="241.886" y2="30.761" transform="translate(31.01 32.707)"/><line class="l" x2="241.886" y2="30.761" transform="translate(28.943 48.964)"/><line class="l" x2="241.886" y2="30.761" transform="translate(26.875 65.22)"/><line class="l" x2="241.886" y2="30.761" transform="translate(24.808 81.476)"/><line class="l" x2="241.886" y2="30.761" transform="translate(22.741 97.733)"/><line class="l" x2="241.886" y2="30.761" transform="translate(20.673 113.989)"/><line class="l" x2="241.886" y2="30.761" transform="translate(18.606 130.245)"/><line class="l" x2="241.886" y2="30.761" transform="translate(16.539 146.502)"/><line class="l" x2="241.886" y2="30.761" transform="translate(14.471 162.758)"/><line class="l" x2="241.886" y2="30.761" transform="translate(12.404 179.015)"/><line class="l" x2="241.886" y2="30.761" transform="translate(10.337 195.271)"/><line class="i" x2="241.886" y2="30.761" transform="translate(8.269 211.527)"/><line class="l" x2="241.886" y2="30.761" transform="translate(6.202 227.784)"/><line class="l" x2="241.886" y2="30.761" transform="translate(4.135 244.04)"/><line class="l" x2="241.886" y2="30.761" transform="translate(2.067 260.296)"/><line class="l" x2="241.886" y2="30.761" transform="translate(0 276.553)"/></g><line class="m" x1="41.433" y2="325.802" transform="translate(46.816 11.932)"/><g transform="translate(0 16.394)"><path class="i" d="M229.923,72.071a4.975,4.975,0,1,1-4.308-5.563A4.974,4.974,0,0,1,229.923,72.071Z" transform="translate(-159.045 -63.002)"/><path class="i" d="M225.947,103.337a4.975,4.975,0,1,1-4.308-5.563A4.974,4.974,0,0,1,225.947,103.337Z" transform="translate(-159.682 -57.993)"/><path class="i" d="M221.972,134.6a4.975,4.975,0,1,1-4.308-5.562A4.974,4.974,0,0,1,221.972,134.6Z" transform="translate(-160.319 -52.984)"/><path class="i" d="M218,165.868a4.975,4.975,0,1,1-4.308-5.563A4.975,4.975,0,0,1,218,165.868Z" transform="translate(-160.956 -47.975)"/><path class="i" d="M214.02,197.134a4.975,4.975,0,1,1-4.308-5.563A4.977,4.977,0,0,1,214.02,197.134Z" transform="translate(-161.593 -42.966)"/><path class="i" d="M210.044,228.4a4.975,4.975,0,1,1-4.308-5.563A4.975,4.975,0,0,1,210.044,228.4Z" transform="translate(-162.23 -37.957)"/><path class="i" d="M206.068,259.665a4.975,4.975,0,1,1-4.308-5.563A4.975,4.975,0,0,1,206.068,259.665Z" transform="translate(-162.867 -32.949)"/><path class="i" d="M202.092,290.931a4.975,4.975,0,1,1-4.308-5.563A4.976,4.976,0,0,1,202.092,290.931Z" transform="translate(-163.504 -27.94)"/><path class="i" d="M198.116,322.2a4.975,4.975,0,1,1-4.308-5.563A4.977,4.977,0,0,1,198.116,322.2Z" transform="translate(-164.141 -22.931)"/><path class="j" d="M208.613,86.95c-.017.06-.205.057-.552-.007a8.724,8.724,0,0,1-1.5-.4,10.857,10.857,0,0,1-4.636-3.39,12.006,12.006,0,0,1-1.9-3.566,14.867,14.867,0,0,1-.753-4.563,11.035,11.035,0,0,1,1.038-5.118,11.375,11.375,0,0,1,3.757-4.156,13.093,13.093,0,0,1,5.159-2.061,15.753,15.753,0,0,1,5.115,0,20.774,20.774,0,0,1,7.873,3.123,28.406,28.406,0,0,1,4.408,3.5c.946.927,1.4,1.507,1.319,1.6s-.7-.305-1.769-1.053a49.787,49.787,0,0,0-4.612-2.946,21.456,21.456,0,0,0-7.46-2.572,14.783,14.783,0,0,0-4.564.092,11.706,11.706,0,0,0-4.452,1.812,9.881,9.881,0,0,0-3.2,3.479,9.714,9.714,0,0,0-.941,4.3,14.07,14.07,0,0,0,.516,4.1,11.378,11.378,0,0,0,1.5,3.259,10.718,10.718,0,0,0,2.013,2.2,13.418,13.418,0,0,0,1.889,1.31c.548.329,1.019.508,1.313.695C208.477,86.769,208.63,86.889,208.613,86.95Z" transform="translate(-162.368 -63.481)"/><path class="j" d="M204.637,118.216c-.017.059-.205.057-.553-.007a8.744,8.744,0,0,1-1.494-.4,10.859,10.859,0,0,1-4.637-3.391,12,12,0,0,1-1.9-3.566,14.855,14.855,0,0,1-.753-4.563,11.016,11.016,0,0,1,1.038-5.117,11.378,11.378,0,0,1,3.757-4.157,13.11,13.11,0,0,1,5.158-2.059,15.793,15.793,0,0,1,5.116,0,20.813,20.813,0,0,1,7.873,3.123,28.528,28.528,0,0,1,4.408,3.5c.946.927,1.4,1.507,1.318,1.6s-.7-.305-1.768-1.055a49.819,49.819,0,0,0-4.612-2.945,21.432,21.432,0,0,0-7.46-2.572,14.747,14.747,0,0,0-4.564.092,11.706,11.706,0,0,0-4.452,1.812,9.881,9.881,0,0,0-3.2,3.479,9.7,9.7,0,0,0-.942,4.3,14.072,14.072,0,0,0,.517,4.1,11.392,11.392,0,0,0,1.5,3.259,10.679,10.679,0,0,0,2.013,2.2,13.338,13.338,0,0,0,1.889,1.311c.548.33,1.019.508,1.313.695C204.5,118.035,204.654,118.155,204.637,118.216Z" transform="translate(-163.005 -58.472)"/><path class="j" d="M200.661,149.481c-.019.06-.205.057-.553-.006a8.94,8.94,0,0,1-1.494-.4,10.859,10.859,0,0,1-4.637-3.391,12,12,0,0,1-1.9-3.566,14.826,14.826,0,0,1-.753-4.563,11.016,11.016,0,0,1,1.038-5.117,11.378,11.378,0,0,1,3.757-4.157,13.112,13.112,0,0,1,5.158-2.061,15.792,15.792,0,0,1,5.117,0,20.813,20.813,0,0,1,7.873,3.123,28.459,28.459,0,0,1,4.408,3.5c.946.927,1.4,1.506,1.318,1.6s-.7-.306-1.768-1.055a49.833,49.833,0,0,0-4.612-2.945,21.43,21.43,0,0,0-7.461-2.572,14.774,14.774,0,0,0-4.563.09,11.74,11.74,0,0,0-4.453,1.813,9.878,9.878,0,0,0-3.2,3.479,9.7,9.7,0,0,0-.942,4.3,14.078,14.078,0,0,0,.517,4.1,11.407,11.407,0,0,0,1.5,3.259,10.679,10.679,0,0,0,2.013,2.2,13.432,13.432,0,0,0,1.889,1.311c.548.329,1.019.508,1.313.694S200.678,149.421,200.661,149.481Z" transform="translate(-163.642 -53.463)"/><path class="j" d="M196.685,180.747c-.019.06-.205.057-.553-.007a8.715,8.715,0,0,1-1.494-.4,10.85,10.85,0,0,1-4.637-3.39,12.017,12.017,0,0,1-1.9-3.566,14.832,14.832,0,0,1-.753-4.563,11.016,11.016,0,0,1,1.038-5.117,11.369,11.369,0,0,1,3.757-4.157,13.1,13.1,0,0,1,5.158-2.061,15.792,15.792,0,0,1,5.117,0,20.793,20.793,0,0,1,7.873,3.123,28.533,28.533,0,0,1,4.408,3.5c.944.928,1.4,1.507,1.318,1.6s-.7-.305-1.768-1.053a49.735,49.735,0,0,0-4.612-2.945,21.454,21.454,0,0,0-7.461-2.573,14.812,14.812,0,0,0-4.563.092,11.73,11.73,0,0,0-4.453,1.812,9.881,9.881,0,0,0-3.2,3.481,9.694,9.694,0,0,0-.942,4.3,14.082,14.082,0,0,0,.517,4.1,11.386,11.386,0,0,0,1.5,3.258,10.686,10.686,0,0,0,2.013,2.2,13.256,13.256,0,0,0,1.889,1.31c.548.329,1.019.508,1.313.695S196.7,180.686,196.685,180.747Z" transform="translate(-164.279 -48.454)"/><path class="j" d="M192.707,212.013c-.017.06-.2.057-.552-.007a8.718,8.718,0,0,1-1.494-.4,10.85,10.85,0,0,1-4.637-3.39,12.031,12.031,0,0,1-1.9-3.566,14.8,14.8,0,0,1-.753-4.563,11.006,11.006,0,0,1,1.038-5.118,11.375,11.375,0,0,1,3.757-4.156,13.089,13.089,0,0,1,5.158-2.061,15.76,15.76,0,0,1,5.117,0,20.783,20.783,0,0,1,7.873,3.123,28.465,28.465,0,0,1,4.408,3.5c.944.927,1.4,1.507,1.318,1.6s-.7-.305-1.768-1.053a49.7,49.7,0,0,0-4.612-2.946,21.462,21.462,0,0,0-7.461-2.572,14.749,14.749,0,0,0-4.564.092,11.713,11.713,0,0,0-4.452,1.812,9.878,9.878,0,0,0-3.2,3.479,9.7,9.7,0,0,0-.942,4.3,14.069,14.069,0,0,0,.517,4.1,11.378,11.378,0,0,0,1.5,3.259,10.685,10.685,0,0,0,2.013,2.2,13.353,13.353,0,0,0,1.889,1.31c.548.329,1.019.508,1.313.695C192.573,211.832,192.726,211.952,192.707,212.013Z" transform="translate(-164.916 -43.445)"/><path class="n" d="M188.732,243.279c-.017.059-.205.057-.552-.007a8.715,8.715,0,0,1-1.494-.4,10.841,10.841,0,0,1-4.637-3.391,12,12,0,0,1-1.9-3.566,14.826,14.826,0,0,1-.754-4.563,11.018,11.018,0,0,1,1.04-5.117,11.378,11.378,0,0,1,3.757-4.157,13.1,13.1,0,0,1,5.158-2.059,15.728,15.728,0,0,1,5.117,0,20.809,20.809,0,0,1,7.873,3.122,28.525,28.525,0,0,1,4.408,3.5c.944.927,1.4,1.506,1.318,1.6s-.7-.306-1.768-1.055a49.865,49.865,0,0,0-4.613-2.945,21.423,21.423,0,0,0-7.46-2.572,14.748,14.748,0,0,0-4.564.092,11.714,11.714,0,0,0-4.452,1.812,9.878,9.878,0,0,0-3.2,3.479,9.7,9.7,0,0,0-.942,4.3,14.072,14.072,0,0,0,.517,4.1,11.393,11.393,0,0,0,1.5,3.259,10.646,10.646,0,0,0,2.013,2.2,13.27,13.27,0,0,0,1.889,1.311c.548.33,1.019.508,1.312.695C188.6,243.1,188.75,243.218,188.732,243.279Z" transform="translate(-165.553 -38.436)"/><path class="j" d="M184.756,274.544c-.017.06-.205.057-.552-.006a8.974,8.974,0,0,1-1.5-.4,10.742,10.742,0,0,1-2.2-1.139,10.622,10.622,0,0,1-2.439-2.252,11.976,11.976,0,0,1-1.9-3.566,14.826,14.826,0,0,1-.754-4.563,11.018,11.018,0,0,1,1.04-5.116,11.368,11.368,0,0,1,3.757-4.157,13.105,13.105,0,0,1,5.158-2.061,15.792,15.792,0,0,1,5.117,0,20.814,20.814,0,0,1,7.872,3.123,28.344,28.344,0,0,1,4.408,3.5c.946.927,1.4,1.506,1.319,1.6s-.7-.306-1.768-1.055a49.854,49.854,0,0,0-4.613-2.945,21.423,21.423,0,0,0-7.46-2.572,14.783,14.783,0,0,0-4.564.09,11.735,11.735,0,0,0-4.452,1.813,9.878,9.878,0,0,0-3.2,3.479,9.7,9.7,0,0,0-.942,4.3,14.116,14.116,0,0,0,.516,4.1,11.44,11.44,0,0,0,1.5,3.259,10.677,10.677,0,0,0,2.012,2.2,13.44,13.44,0,0,0,1.89,1.311c.548.329,1.019.507,1.312.694S184.773,274.484,184.756,274.544Z" transform="translate(-166.19 -33.427)"/><path class="n" d="M180.78,305.81c-.017.06-.205.057-.552-.007a8.752,8.752,0,0,1-1.5-.4,10.857,10.857,0,0,1-4.636-3.39,11.993,11.993,0,0,1-1.9-3.566,14.867,14.867,0,0,1-.753-4.563,11.015,11.015,0,0,1,1.04-5.117,11.359,11.359,0,0,1,3.757-4.157,13.088,13.088,0,0,1,5.158-2.061,15.784,15.784,0,0,1,5.115,0,20.775,20.775,0,0,1,7.873,3.123,28.409,28.409,0,0,1,4.408,3.5c.946.927,1.4,1.507,1.319,1.6s-.7-.305-1.768-1.053a49.612,49.612,0,0,0-4.613-2.945,21.423,21.423,0,0,0-7.46-2.573,14.82,14.82,0,0,0-4.564.092,11.732,11.732,0,0,0-4.452,1.812,9.887,9.887,0,0,0-3.2,3.479,9.7,9.7,0,0,0-.942,4.3,14.122,14.122,0,0,0,.516,4.1,11.418,11.418,0,0,0,1.5,3.258,10.713,10.713,0,0,0,2.012,2.2,13.32,13.32,0,0,0,1.89,1.31c.548.33,1.018.508,1.312.7S180.8,305.749,180.78,305.81Z" transform="translate(-166.827 -28.418)"/><path class="j" d="M176.8,337.076c-.017.06-.205.057-.552-.007a8.722,8.722,0,0,1-1.5-.4,10.848,10.848,0,0,1-4.636-3.391,11.985,11.985,0,0,1-1.9-3.565,14.867,14.867,0,0,1-.753-4.563,11.035,11.035,0,0,1,1.038-5.118,11.386,11.386,0,0,1,3.757-4.156,13.093,13.093,0,0,1,5.159-2.061,15.752,15.752,0,0,1,5.115,0,20.793,20.793,0,0,1,7.873,3.122,28.469,28.469,0,0,1,4.408,3.5c.946.927,1.4,1.507,1.319,1.6s-.7-.305-1.768-1.053a49.754,49.754,0,0,0-4.613-2.946,21.447,21.447,0,0,0-7.46-2.572,14.783,14.783,0,0,0-4.564.092,11.706,11.706,0,0,0-4.452,1.812,9.892,9.892,0,0,0-3.2,3.479,9.714,9.714,0,0,0-.941,4.3,14.108,14.108,0,0,0,.516,4.1,11.409,11.409,0,0,0,1.5,3.259,10.719,10.719,0,0,0,2.013,2.2,13.423,13.423,0,0,0,1.889,1.31c.549.329,1.019.508,1.313.695C176.669,336.895,176.821,337.015,176.8,337.076Z" transform="translate(-167.464 -23.409)"/><g class="o"><path d="M188.732,243.279c-.017.059-.205.057-.552-.007a8.715,8.715,0,0,1-1.494-.4,10.841,10.841,0,0,1-4.637-3.391,12,12,0,0,1-1.9-3.566,14.826,14.826,0,0,1-.754-4.563,11.018,11.018,0,0,1,1.04-5.117,11.378,11.378,0,0,1,3.757-4.157,13.1,13.1,0,0,1,5.158-2.059,15.728,15.728,0,0,1,5.117,0,20.809,20.809,0,0,1,7.873,3.122,28.525,28.525,0,0,1,4.408,3.5c.944.927,1.4,1.506,1.318,1.6s-.7-.306-1.768-1.055a49.865,49.865,0,0,0-4.613-2.945,21.423,21.423,0,0,0-7.46-2.572,14.748,14.748,0,0,0-4.564.092,11.714,11.714,0,0,0-4.452,1.812,9.878,9.878,0,0,0-3.2,3.479,9.7,9.7,0,0,0-.942,4.3,14.072,14.072,0,0,0,.517,4.1,11.393,11.393,0,0,0,1.5,3.259,10.646,10.646,0,0,0,2.013,2.2,13.27,13.27,0,0,0,1.889,1.311c.548.33,1.019.508,1.312.695C188.6,243.1,188.75,243.218,188.732,243.279Z" transform="translate(-165.553 -38.436)"/><path d="M180.78,305.81c-.017.06-.205.057-.552-.007a8.752,8.752,0,0,1-1.5-.4,10.857,10.857,0,0,1-4.636-3.39,11.993,11.993,0,0,1-1.9-3.566,14.867,14.867,0,0,1-.753-4.563,11.015,11.015,0,0,1,1.04-5.117,11.359,11.359,0,0,1,3.757-4.157,13.088,13.088,0,0,1,5.158-2.061,15.784,15.784,0,0,1,5.115,0,20.775,20.775,0,0,1,7.873,3.123,28.409,28.409,0,0,1,4.408,3.5c.946.927,1.4,1.507,1.319,1.6s-.7-.305-1.768-1.053a49.612,49.612,0,0,0-4.613-2.945,21.423,21.423,0,0,0-7.46-2.573,14.82,14.82,0,0,0-4.564.092,11.732,11.732,0,0,0-4.452,1.812,9.887,9.887,0,0,0-3.2,3.479,9.7,9.7,0,0,0-.942,4.3,14.122,14.122,0,0,0,.516,4.1,11.418,11.418,0,0,0,1.5,3.258,10.713,10.713,0,0,0,2.012,2.2,13.32,13.32,0,0,0,1.89,1.31c.548.33,1.018.508,1.312.7S180.8,305.749,180.78,305.81Z" transform="translate(-166.827 -28.418)"/></g></g><rect class="j" width="16.857" height="28.227" transform="translate(290.541 94.336) rotate(-82.753)"/><g transform="translate(94.714 67.689)"><path class="d" d="M425.068,130.22a2.628,2.628,0,0,1-.464-.03l-1.355-.15-5.2-.632-19.123-2.439L335.865,118.7l-17.973-2.39c-5.8-.759-11.4-1.556-16.737-2.2a58.634,58.634,0,0,0-15.17-.16c-4.7.659-9.148,1.666-13.274,1.173a15.719,15.719,0,0,1-5.583-1.73c-1.639-.857-3.066-1.846-4.435-2.7a22.776,22.776,0,0,0-3.952-2.081,10.986,10.986,0,0,0-3.659-.685,7.043,7.043,0,0,0-4.815,1.557,7.886,7.886,0,0,0-1.167,1.381,2.5,2.5,0,0,1,.218-.412,2.531,2.531,0,0,1,.328-.472,3.54,3.54,0,0,1,.539-.587,7.08,7.08,0,0,1,4.9-1.7,11.125,11.125,0,0,1,3.758.65,22.861,22.861,0,0,1,4.031,2.064c1.383.842,2.816,1.813,4.433,2.643a15.357,15.357,0,0,0,5.454,1.646c4.029.457,8.422-.557,13.158-1.245a58.815,58.815,0,0,1,15.3.1c5.354.632,10.942,1.417,16.752,2.168l17.974,2.376,63.035,8.447,19.1,2.629,5.19.745,1.347.209A2.716,2.716,0,0,1,425.068,130.22Z" transform="translate(-249.099 -107.692)"/></g><g transform="translate(99 85.881)"><path class="d" d="M419.573,144.586a2.274,2.274,0,0,1-.435-.024l-1.267-.131-4.866-.562-17.883-2.177-58.972-7.41-58.959-7.588-17.859-2.368-4.851-.674-1.26-.19a2.31,2.31,0,0,1-.427-.086,2.273,2.273,0,0,1,.435.024l1.267.131,4.866.562,17.882,2.178,58.981,7.411,58.95,7.585,17.859,2.368,4.852.674,1.26.191A2.266,2.266,0,0,1,419.573,144.586Z" transform="translate(-252.794 -123.372)"/></g><g transform="translate(87.436 184.339)"><path class="d" d="M401.354,228.4a2.052,2.052,0,0,1-.413-.021l-1.205-.123-4.626-.531-17-2.065-56.054-7.039L266.015,211.4l-16.975-2.255-4.611-.644-1.2-.182a2.068,2.068,0,0,1-.4-.082,2.049,2.049,0,0,1,.413.021l1.2.123,4.626.531,17,2.065,56.065,7.04,56.032,7.215,16.975,2.255,4.611.644,1.2.182A2.066,2.066,0,0,1,401.354,228.4Z" transform="translate(-242.827 -208.235)"/></g><g transform="translate(83.246 217.297)"><path class="d" d="M397.741,256.806a2.127,2.127,0,0,1-.413-.022l-1.2-.123-4.626-.53-17-2.065-56.055-7.04L262.4,239.811l-16.974-2.255-4.611-.644-1.2-.182a2.281,2.281,0,0,1-.4-.082,2.049,2.049,0,0,1,.413.021l1.2.123,4.626.531,17,2.064,56.063,7.041,56.032,7.214,16.975,2.255,4.612.644,1.2.183A2.04,2.04,0,0,1,397.741,256.806Z" transform="translate(-239.215 -236.642)"/></g><g transform="translate(85.383 200.486)"><path class="d" d="M396.281,241.9a1.961,1.961,0,0,1-.4-.021l-1.18-.12-4.531-.519-16.644-2.02-54.887-6.892-54.874-7.067-16.62-2.21-4.516-.632-1.172-.179a2.188,2.188,0,0,1-.4-.081,2.009,2.009,0,0,1,.4.02l1.18.119,4.528.52,16.644,2.02,54.9,6.892,54.865,7.066L390.2,241l4.516.631,1.172.18A1.907,1.907,0,0,1,396.281,241.9Z" transform="translate(-241.057 -222.152)"/></g><g transform="translate(81.377 231.984)"><path class="d" d="M308.794,258.365a3.284,3.284,0,0,1-.731-.033l-2.081-.207-7.64-.875-25.179-3.113L248,250.849l-7.616-1.065-2.066-.32a3.3,3.3,0,0,1-.716-.153,3.473,3.473,0,0,1,.731.032l2.081.207,7.64.876,25.182,3.113,25.157,3.288,7.617,1.066,2.066.319A3.3,3.3,0,0,1,308.794,258.365Z" transform="translate(-237.604 -249.301)"/></g><g transform="translate(93.736 99.938)"><path class="d" d="M274.847,138.9c-.021.166-5.991-.457-13.332-1.39s-13.279-1.825-13.258-1.991,5.989.457,13.333,1.391S274.867,138.731,274.847,138.9Z" transform="translate(-248.257 -135.488)"/></g><g transform="translate(95.184 168.452)"><path class="d" d="M402.575,212.574a1.883,1.883,0,0,1-.4-.019l-1.164-.115c-1.021-.117-2.527-.274-4.471-.436s-4.322-.355-7.089-.515c-2.765-.176-5.918-.321-9.4-.475-6.97-.311-15.279-.527-24.5-1.064-4.607-.278-9.446-.631-14.438-1.276-4.985-.676-10.112-1.5-15.382-2.276l-53.922-8.25-16.329-2.577-4.434-.73-1.152-.205a1.964,1.964,0,0,1-.389-.09,1.971,1.971,0,0,1,.4.029l1.16.146,4.452.618,16.358,2.387L325.82,205.8c5.265.777,10.4,1.606,15.369,2.287,4.967.651,9.8,1.014,14.4,1.308,9.2.567,17.512.827,24.484,1.194,3.486.18,6.64.355,9.406.564,2.767.191,5.148.41,7.09.617s3.447.393,4.463.55l1.157.174A1.963,1.963,0,0,1,402.575,212.574Z" transform="translate(-249.505 -194.542)"/></g></g><g transform="translate(92.203 154.733)"><g transform="translate(0)"><path class="g" d="M127.635,319.132S269.611,178.75,285.757,156.509l-9.718-8.941-160.1,159.224Z" transform="translate(-80.631 -138.998)"/><path class="j" d="M89.226,334.04c6.389.122,23.65-2.342,47.963-27.423l21.455-19.358-16.416-15.794s32.718-30.308,31.153-31.966-18.947,14.478-32.69,26.37c-12.5,10.818-54.209,48.968-55.176,64.115A3.806,3.806,0,0,0,89.226,334.04Z" transform="translate(-85.506 -124.289)"/><path class="h" d="M173.333,239.5c-1.564-1.657-18.947,14.478-32.69,26.37-1.082.937-2.4,2.092-3.873,3.406l16.3,15.619-21.414,19.4C109.639,327.1,93.392,331.271,85.8,331.766a3.777,3.777,0,0,0,3.379,2.274c6.389.122,23.65-2.342,47.963-27.423L158.6,287.259,142.18,271.465S174.9,241.157,173.333,239.5Z" transform="translate(-85.459 -124.289)"/><path class="d" d="M151.133,279.771,263.032,167.3l-4.738-4.359L146.584,274.971Z" transform="translate(-75.721 -136.534)"/><path class="i" d="M265.4,157.838s10.614-16.723,7.649-17.6-17.264,8.512-17.264,8.512l2.733,2.825-16.188,15.636,5.357,3.738,14.781-15.613Z" transform="translate(-60.381 -140.181)"/><g transform="translate(45.242 21.892)"><g transform="translate(16.194)"><g transform="translate(5.639 1.607)"><g transform="translate(18.768 8.125)"><path class="p" d="M169.614,229.562h0a10.439,10.439,0,0,0,11.227-10.008c.218-5.682.408-11.425.408-11.425s8.609-.806,9.234-9.327.339-28.188.339-28.188h0a29.689,29.689,0,0,0-30,1.928l-1.323.9.481,45.828A10.437,10.437,0,0,0,169.614,229.562Z" transform="translate(-159.496 -167.439)"/></g><path class="d" d="M170.034,160.674c-5.184-.154-9.887,3.231-12.294,7.4s-2.93,9-3.152,13.706a260.223,260.223,0,0,0,.654,27.678,2.993,2.993,0,0,0,.593,1.949,3.7,3.7,0,0,0,2.246.845,175.3,175.3,0,0,0,47.462.072c1.037-1.877-.418-4.1-2.1-5.548s-3.758-2.752-4.365-4.778c-.954-3.186,2.214-6.6.978-9.707-.929-2.333-4-3.481-5.076-5.76-1.812-3.829,2.862-8.457.789-12.175-1.081-1.938-3.611-2.8-5.21-4.412-1.413-1.429-2.02-3.369-3.244-4.934-1.919-2.453-5.22-3.774-8.507-4.154a31.267,31.267,0,0,0-8.777-.181" transform="translate(-141.539 -160.435)"/><path class="d" d="M159.67,169.038c-2.2,1.072-3.152,3.7-3.471,6.127s-.233,4.974-1.243,7.2c-1.078,2.382-3.323,4.2-3.916,6.745-.77,3.311,1.412,7.214-.558,9.984-1.27,1.784-3.763,2.23-5.325,3.765-2.161,2.121-1.97,5.595-1.625,8.6l28.448-.255" transform="translate(-143.319 -159.057)"/></g><path class="d" d="M166.719,166.12a8.661,8.661,0,0,0-13.067-5.8c-4.546,2.808-6.151,9.509-11.263,11.063-1.331.4-2.97.523-3.67,1.725-.73,1.252.178,2.945,1.484,3.572a7.968,7.968,0,0,0,4.277.343,2.719,2.719,0,0,0-2.968,3.15,3.471,3.471,0,0,0,3.912,2.5,4.834,4.834,0,0,0,3.6-3.3q-.924,2.682-1.849,5.364c3.537.622,6.553-2.564,8.347-5.677s3.419-6.749,6.732-8.137c1.472-.616,3.182-.727,4.448-1.7s1.515-3.41-.009-3.881" transform="translate(-138.459 -159.05)"/><g transform="translate(26.565 7.165)"><path class="d" d="M164.527,165.232c.03-.056.662.256,1.246,1.189a4.6,4.6,0,0,1-2.7,6.907,2.406,2.406,0,0,1-1.722.031c0-.1.657-.07,1.586-.436a4.471,4.471,0,0,0,2.456-6.3C164.963,165.727,164.458,165.307,164.527,165.232Z" transform="translate(-161.356 -165.226)"/></g></g><path class="p" d="M190.679,399.081l14.583,67.261,19.239-.45-8.523-72.76Z" transform="translate(-113.899 -121.549)"/><path class="p" d="M132.682,236.725s-.327.469-.857,1.311c-3.092,4.909-11.79,22.513-4.461,34.289l18.4-16.172,3.109-7.268" transform="translate(-124.501 -146.606)"/><path class="p" d="M141.549,351.443l-6.2,114.838,18.935,4.575,14.2-116.993Z" transform="translate(-122.763 -128.228)"/><g transform="translate(4.099 54.017)"><path class="q" d="M226.362,230.392l-26.692,6.439-1.542,20.59,3.717,11.74c-.046.426,6,20.172,6,20.172l1.873,6.53-61,.633c-.2-7.128,4.54-14.158,4.54-14.158,3.47-5.887,2.573-14.774.957-21.519-.51-2.135-1.189-5.654-1.46-7.833l-.046-.376-3.491,6.142-21.182-15.29c6.878-13.266,16.97-26.681,18.185-27.679a24.936,24.936,0,0,1,15.717-5.763l26.337.224s20.733-2.6,32.82-4.637Z" transform="translate(-128.034 -205.608)"/><g transform="translate(13.805 2.957)"><path class="r" d="M219.706,208.158a17.4,17.4,0,0,0-2.755,1.962c-.821.718-1.737,1.692-2.8,2.836a27.226,27.226,0,0,1-3.9,3.616,24.852,24.852,0,0,1-12.874,4.792,24.139,24.139,0,0,1-8.159-.769c-2.757-.747-5.43-1.975-8.28-2.781a17.735,17.735,0,0,0-4.288-.714,16.622,16.622,0,0,0-4.183.49,39.574,39.574,0,0,0-7.487,2.989,59.24,59.24,0,0,1-6.769,2.969,19.7,19.7,0,0,1-15.406-.933,17.541,17.541,0,0,1-2.181-1.295,4.784,4.784,0,0,1-.694-.549c.039-.059,1,.71,2.977,1.631a20.148,20.148,0,0,0,8.938,1.858,19.724,19.724,0,0,0,6.2-1.186,60.411,60.411,0,0,0,6.687-3,39.515,39.515,0,0,1,7.589-3.063,17.075,17.075,0,0,1,4.341-.516,18.229,18.229,0,0,1,4.435.733c2.912.826,5.579,2.055,8.273,2.791a23.784,23.784,0,0,0,7.96.785A24.715,24.715,0,0,0,210,216.229a27.836,27.836,0,0,0,3.91-3.506,36.119,36.119,0,0,1,2.888-2.78,11.82,11.82,0,0,1,2.1-1.432,5.622,5.622,0,0,1,.6-.281A.645.645,0,0,1,219.706,208.158Z" transform="translate(-139.933 -208.156)"/></g><g transform="translate(7.284 25.457)"><path class="r" d="M197.324,239.689a2.452,2.452,0,0,1-.531.512,4.689,4.689,0,0,1-1.946.841,7.577,7.577,0,0,1-3.352-.173,13.482,13.482,0,0,1-3.99-1.941,34.694,34.694,0,0,0-4.512-2.754,13.061,13.061,0,0,0-5.847-1.065c-4.277.132-8.722,1.932-13.269,3.9a47.075,47.075,0,0,1-6.894,2.4,18.158,18.158,0,0,1-6.81.486,14.359,14.359,0,0,1-5.8-2.153,20.7,20.7,0,0,1-4.115-3.459,38.861,38.861,0,0,1-4.556-6.259c-.473-.781-.826-1.393-1.062-1.813a3.266,3.266,0,0,1-.33-.656,3.467,3.467,0,0,1,.434.593l1.156,1.751a43.194,43.194,0,0,0,4.669,6.091,20.584,20.584,0,0,0,4.069,3.326,13.965,13.965,0,0,0,5.6,2.028,17.756,17.756,0,0,0,6.6-.509,47.6,47.6,0,0,0,6.8-2.381c4.536-1.958,9.07-3.79,13.486-3.9a13.447,13.447,0,0,1,6.071,1.167,33.606,33.606,0,0,1,4.54,2.853,13.459,13.459,0,0,0,3.844,1.971,7.532,7.532,0,0,0,3.222.267A5.555,5.555,0,0,0,197.324,239.689Z" transform="translate(-134.312 -227.55)"/></g><g transform="translate(27.696 53.388)"><path class="r" d="M195.4,255.543c.015.014-.088.142-.3.375a6.712,6.712,0,0,1-1.04.908,9.993,9.993,0,0,1-4.77,1.682,17.344,17.344,0,0,1-7.437-1.007c-2.687-.917-5.431-2.374-8.409-3.585a20.136,20.136,0,0,0-8.768-1.7,19.726,19.726,0,0,0-7.114,1.717,24.328,24.328,0,0,0-5.653,3.773c-.015-.014.087-.144.3-.377a10.531,10.531,0,0,1,.971-.972,17.883,17.883,0,0,1,4.2-2.811,19.487,19.487,0,0,1,7.266-1.885,20.266,20.266,0,0,1,9.023,1.7c3.022,1.231,5.743,2.694,8.369,3.62a17.44,17.44,0,0,0,7.213,1.107,10.313,10.313,0,0,0,4.677-1.451C194.911,256,195.352,255.5,195.4,255.543Z" transform="translate(-151.906 -251.624)"/></g><g transform="translate(26.546 73.249)"><path class="r" d="M202.085,271.75c-.037.051-.62-.428-1.812-1.037a14.775,14.775,0,0,0-5.431-1.443,24.431,24.431,0,0,0-8.309.906c-3.07.81-6.327,2.124-9.859,3.237a31.378,31.378,0,0,1-10.308,1.623,29.414,29.414,0,0,1-8.415-1.377,27.432,27.432,0,0,1-5.272-2.282c-.6-.326-1.033-.621-1.328-.819s-.446-.313-.434-.331c.029-.049.667.343,1.873.942a31.381,31.381,0,0,0,5.286,2.081,30.278,30.278,0,0,0,8.3,1.229,31.683,31.683,0,0,0,10.122-1.643c3.5-1.1,6.777-2.406,9.9-3.2a24.056,24.056,0,0,1,8.489-.794,14.11,14.11,0,0,1,5.5,1.661,9.379,9.379,0,0,1,1.3.877C201.959,271.609,202.1,271.734,202.085,271.75Z" transform="translate(-150.914 -268.742)"/></g></g><g transform="translate(13.182 142.611)"><path class="d" d="M147.557,281.969l-11.694,134.1,28.893.172,14.277-107.477L197.672,417.22l28.91-5.336L208.865,283.1Z" transform="translate(-135.863 -281.969)"/><g transform="translate(19.547 23.274)"><path class="i" d="M197.031,302.046c.02.166-9.887,1.477-22.124,2.927s-22.176,2.493-22.2,2.327,9.884-1.476,22.125-2.927S197.011,301.88,197.031,302.046Z" transform="translate(-152.711 -302.029)"/></g></g><g transform="translate(91.23 344.164)"><g transform="translate(0.132)"><path class="q" d="M225.113,457.841l-.082-2.15-21.783.629.188,7.091,1.347.045c5.994.147,30.488.36,34.452-.875C243.658,461.2,225.113,457.841,225.113,457.841Z" transform="translate(-203.248 -455.691)"/><g class="s" transform="translate(0.031 1.759)"><path class="r" d="M211.29,462.8a6.958,6.958,0,0,0-2.9-4.224,7.714,7.714,0,0,0-5.114-1.33l.171,5.635Z" transform="translate(-203.275 -457.207)"/></g></g><g class="s" transform="translate(0.32 4.092)"><path class="r" d="M234.158,459.218s6.511,1.558,5.737,2.569-25.536,1.661-36.485,1.059l.021-.451,28.889-.53S232.9,459.3,234.158,459.218Z" transform="translate(-203.41 -459.218)"/></g><g transform="translate(0 6.317)"><path class="d" d="M203.134,462.084a1.97,1.97,0,0,0,.375.028l1.072.033,3.947.053c3.332.024,7.937,0,13.02-.129s9.684-.342,13.011-.537l3.937-.255,1.07-.087a.188.188,0,1,0,0-.049l-1.072.041-3.941.179c-3.327.15-7.925.334-13.007.464s-9.682.181-13.013.2c-1.556.008-2.874.016-3.946.023l-1.073.014A2.266,2.266,0,0,0,203.134,462.084Z" transform="translate(-203.134 -461.136)"/></g><g transform="translate(29.188 3.839)"><path class="d" d="M228.337,462.213a7.857,7.857,0,0,1,.682-1.768,8.468,8.468,0,0,1,1.3-1.439,2.879,2.879,0,0,0-1.529,1.317A2.548,2.548,0,0,0,228.337,462.213Z" transform="translate(-228.292 -459)"/></g><g transform="translate(22.731 2.492)"><path class="d" d="M222.738,459.549c.063.035.359-.32.661-.791s.5-.883.434-.917-.358.319-.66.791S222.676,459.514,222.738,459.549Z" transform="translate(-222.726 -457.839)"/></g><g transform="translate(20.954 2.213)"><path class="d" d="M221.2,458.771c.051.049.386-.173.751-.494s.618-.623.568-.672-.386.173-.749.494S221.151,458.722,221.2,458.771Z" transform="translate(-221.195 -457.598)"/></g><g transform="translate(19.793 1.37)"><path class="d" d="M220.194,457.014a5.3,5.3,0,0,0,2.266-.036,2.728,2.728,0,0,0-1.136-.1A2.691,2.691,0,0,0,220.194,457.014Z" transform="translate(-220.194 -456.872)"/></g><g transform="translate(19.37 0.157)"><path class="d" d="M219.83,455.849a2.328,2.328,0,0,0,1.273.307,2.352,2.352,0,0,0,1.3-.195,109.668,109.668,0,0,1-2.572-.112Z" transform="translate(-219.829 -455.826)"/></g><g transform="translate(23.425 0.538)"><path class="d" d="M223.324,458.04a4.309,4.309,0,0,0,1.393-.044,8.626,8.626,0,0,0,1.475-.343,4.226,4.226,0,0,0,.84-.348.71.71,0,0,0,.332-.411.494.494,0,0,0-.226-.513,2.669,2.669,0,0,0-3.139.779,2.236,2.236,0,0,0-.428.876c-.05.223-.042.349-.026.352a3.556,3.556,0,0,1,.6-1.122,2.514,2.514,0,0,1,1.168-.751,2.311,2.311,0,0,1,1.665.061c.225.146.146.391-.1.534a4.38,4.38,0,0,1-.774.332,10.312,10.312,0,0,1-1.425.384C223.854,457.986,223.323,458,223.324,458.04Z" transform="translate(-223.324 -456.155)"/></g><g transform="translate(21.909 0.005)"><path class="d" d="M223.9,458.168a1.2,1.2,0,0,0,.133-.9,2.05,2.05,0,0,0-.41-.937,1.42,1.42,0,0,0-1.18-.63.516.516,0,0,0-.411.61,1.347,1.347,0,0,0,.254.572,3.972,3.972,0,0,0,.682.767,2.046,2.046,0,0,0,.813.5c.023-.033-.285-.225-.682-.625a4.576,4.576,0,0,1-.607-.762c-.2-.268-.346-.756,0-.825a1.266,1.266,0,0,1,.935.526,2.069,2.069,0,0,1,.419.832A4.355,4.355,0,0,1,223.9,458.168Z" transform="translate(-222.017 -455.696)"/></g><g transform="translate(0.275 1.57)"><path class="d" d="M203.371,457.212c.007.045.62-.072,1.6.01a7.333,7.333,0,0,1,3.536,1.247,6.569,6.569,0,0,1,2.272,2.812c.357.855.407,1.435.456,1.428a1.071,1.071,0,0,0-.012-.407,5,5,0,0,0-.269-1.08,6.262,6.262,0,0,0-2.289-2.949,7.031,7.031,0,0,0-3.681-1.224,6.111,6.111,0,0,0-1.192.059A1.334,1.334,0,0,0,203.371,457.212Z" transform="translate(-203.371 -457.044)"/></g><g transform="translate(10.848 5.181)"><path class="d" d="M212.484,460.289a19.165,19.165,0,0,0,6.339-.11c-.009-.071-1.424.046-3.17.074S212.49,460.219,212.484,460.289Z" transform="translate(-212.484 -460.157)"/></g><g transform="translate(6.588 5.411)"><path class="d" d="M208.821,460.363c-.051.051.125.276.278.574s.241.564.316.558.1-.321-.079-.665S208.866,460.313,208.821,460.363Z" transform="translate(-208.812 -460.355)"/></g><g transform="translate(4.929 3.598)"><path class="d" d="M207.392,458.8c-.05.049.1.255.327.461s.458.333.508.284-.1-.255-.326-.461S207.442,458.754,207.392,458.8Z" transform="translate(-207.383 -458.792)"/></g><g transform="translate(2.62 2.697)"><path class="d" d="M205.393,458.14c.017.068.306.058.628.154s.556.247.611.2-.135-.32-.535-.433S205.37,458.079,205.393,458.14Z" transform="translate(-205.392 -458.015)"/></g><g transform="translate(0.975 2.415)"><path class="d" d="M203.977,457.823c-.024.064.1.164.284.224s.349.057.374-.007-.1-.164-.285-.224S204,457.759,203.977,457.823Z" transform="translate(-203.974 -457.773)"/></g></g><g transform="translate(8.803 337.071)"><path class="q" d="M135.313,449.577l-3.224,14.185h21.79l.933-9.234Z" transform="translate(-132.089 -449.577)"/><g transform="translate(0.591 11.411)"><path class="d" d="M154.243,460.127a15.343,15.343,0,0,1-3.175.182c-1.962.021-4.671-.031-7.657-.142l-7.646-.325a17.9,17.9,0,0,1-3.166-.254,15.4,15.4,0,0,1,3.174-.173c1.962-.017,4.671.038,7.659.148l7.645.317A18.105,18.105,0,0,1,154.243,460.127Z" transform="translate(-132.598 -459.412)"/></g><g transform="translate(12.265 2.764)"><path class="d" d="M143.4,451.96a34.838,34.838,0,0,1-.616,9.147,34.962,34.962,0,0,1,.616-9.147Z" transform="translate(-142.66 -451.96)"/></g><path class="t" d="M132.089,462.163h21.79l.208-2.06-21.605-.539-.393,2.353" transform="translate(-132.089 -447.977)"/></g><path class="p" d="M259.278,167.318l-7.946,2.866c-.114-3.182-2.277-6.5-2.277-4.9s-.752,9.807-.752,9.807l-16.576,28.836c-2.305,4.593-6.458,7.269-9.441,7.744l-13.6,2.911,3.821,17.97,18.944-4.678a15.976,15.976,0,0,0,10.914-9.359l15.76-37.78a60.252,60.252,0,0,0,2.655-7.48C261.581,170.065,259.278,167.318,259.278,167.318Z" transform="translate(-111.014 -158.118)"/></g></g></g></g></g></g></svg>