<svg xmlns="http://www.w3.org/2000/svg" width="796.609" height="548.362" viewBox="0 0 796.609 548.362"><defs><style>.a{fill:#f0f0f0;}.b{fill:#e0e0e0;}.c{fill:#fafafa;}.d{fill:#ebebeb;}.e{fill:#f5f5f5;}.f{fill:#fff;}.g{fill:none;stroke:#fbfbfb;stroke-miterlimit:10;stroke-width:0.25px;}.h{fill:#263238;}.i{fill:#ffcd05;}.j{opacity:0.24;}.k{fill:#266ab4;}.l{opacity:0.3;}.m{fill:#455a64;}.n{fill:#ffbe9d;}.o{fill:#eb996e;}.p{fill:#00a0d1;}</style></defs><g transform="translate(-150 -3680)"><path class="a" d="M-245.58,96.451c-114.576-42.535-231.027-4.929-310.007,76.975s-244.729-56.532-332.634,25.241c-59.992,55.8-32.513,199.283,49.745,261.426,111.808,84.468,451.831,41.607,525.384,27.233,84.738-16.561,146.689-66.807,171.859-127.791C-80.586,212.593-194.947,115.249-245.58,96.451Z" transform="translate(1070.545 3663.218)"/><g transform="translate(223.62 3639.315)"><g transform="translate(50.243 40.685)"><g transform="translate(64.578 482.781)"><g transform="translate(0.323)"><rect class="b" width="9.954" height="74.508" transform="translate(0 9.954) rotate(-90)"/><g transform="translate(9.682 0.412)"><path class="c" d="M104.169,405.8c.259,0,.468,2.088.468,4.664s-.209,4.664-.468,4.664-.468-2.088-.468-4.664S103.911,405.8,104.169,405.8Z" transform="translate(-103.701 -405.803)"/></g><g transform="translate(8.059 0.21)"><path class="c" d="M102.943,405.65c.259,0,.468,2.088.468,4.664s-.209,4.664-.468,4.664-.468-2.088-.468-4.664S102.685,405.65,102.943,405.65Z" transform="translate(-102.475 -405.65)"/></g><g transform="translate(68.279 0.412)"><path class="c" d="M148.446,405.8c.259,0,.47,2.088.47,4.664s-.21,4.664-.47,4.664-.467-2.088-.467-4.664S148.188,405.8,148.446,405.8Z" transform="translate(-147.979 -405.803)"/></g><g transform="translate(66.656 0.21)"><path class="c" d="M147.221,405.65c.258,0,.468,2.088.468,4.664s-.21,4.664-.468,4.664-.468-2.088-.468-4.664S146.962,405.65,147.221,405.65Z" transform="translate(-146.753 -405.65)"/></g><g transform="translate(19.274 4.81)"><path class="c" d="M149.068,409.595c0,.259-8.535.468-19.058.468s-19.061-.209-19.061-.468,8.533-.469,19.061-.469S149.068,409.336,149.068,409.595Z" transform="translate(-110.949 -409.126)"/></g></g><g transform="translate(0 44.816)"><rect class="b" width="19.907" height="74.508" transform="translate(0 19.907) rotate(-90)"/><g transform="translate(0.186 1.679)"><path class="c" d="M171.559,453.253a1.645,1.645,0,0,1-.4.233c-.274.142-.689.334-1.241.568a21.631,21.631,0,0,1-5.051,1.445,13.169,13.169,0,0,1-8.2-1.163,10.914,10.914,0,0,1-3.893-3.528,8.2,8.2,0,0,1-1.355-5.736,6.042,6.042,0,0,1,1.37-2.964,3.919,3.919,0,0,1,3.143-1.427,4.508,4.508,0,0,1,3.158,1.7,6.172,6.172,0,0,1,1.442,3.395,9.041,9.041,0,0,1-2.57,7.056,11.337,11.337,0,0,1-7.16,3.5,19.018,19.018,0,0,1-8.312-1.031,15.339,15.339,0,0,1-7.261-4.881,7.979,7.979,0,0,1-1.693-4.3,5.573,5.573,0,0,1,1.585-4.472,3.623,3.623,0,0,1,2.332-1.023,4.268,4.268,0,0,1,2.435.685,6.47,6.47,0,0,1,2.742,4.017,9.378,9.378,0,0,1-2.938,8.77,14.665,14.665,0,0,1-8.388,3.414,20.643,20.643,0,0,1-8.7-.858,12.007,12.007,0,0,1-6.614-5.141,8.806,8.806,0,0,1-.83-7.909,4.159,4.159,0,0,1,3.04-2.573,4.806,4.806,0,0,1,3.753.907,6.216,6.216,0,0,1,1.775,6.707,11.591,11.591,0,0,1-3.756,5.29,16.9,16.9,0,0,1-10.218,3.97,16.5,16.5,0,0,1-12.317-4.968,12.131,12.131,0,0,1-.892-1.036,1.647,1.647,0,0,1-.262-.385,18.942,18.942,0,0,0,5.54,4.224,16.206,16.206,0,0,0,7.907,1.641,16.439,16.439,0,0,0,9.81-3.949,10.955,10.955,0,0,0,3.494-4.992,5.49,5.49,0,0,0-1.55-5.882,4.029,4.029,0,0,0-3.132-.738,3.333,3.333,0,0,0-2.436,2.115,7.993,7.993,0,0,0,.814,7.134,11.148,11.148,0,0,0,6.166,4.74,19.836,19.836,0,0,0,8.307.79,13.772,13.772,0,0,0,7.86-3.191,8.465,8.465,0,0,0,2.652-7.869,5.532,5.532,0,0,0-2.324-3.433,2.852,2.852,0,0,0-3.633.22,4.667,4.667,0,0,0-1.3,3.732,7.072,7.072,0,0,0,1.5,3.807,14.481,14.481,0,0,0,6.818,4.586,18.2,18.2,0,0,0,7.922,1.022,10.5,10.5,0,0,0,6.659-3.205,8.252,8.252,0,0,0,2.4-6.408c-.181-2.192-1.851-4.325-3.864-4.461a3.21,3.21,0,0,0-2.586,1.166,5.387,5.387,0,0,0-1.236,2.615,7.594,7.594,0,0,0,1.2,5.3,10.407,10.407,0,0,0,3.646,3.394,12.905,12.905,0,0,0,7.9,1.261,23.734,23.734,0,0,0,5.033-1.26C170.966,453.469,171.543,453.218,171.559,453.253Z" transform="translate(-96.282 -440.625)"/></g></g><g transform="translate(6.654 9.889)"><g transform="translate(0 0.353)"><rect class="d" width="34.539" height="67.854" transform="translate(0 34.539) rotate(-90)"/></g><g transform="translate(10.806 1.538)"><path class="b" d="M109.8,414.126c.258,0,.468,7.485.468,16.716s-.21,16.718-.468,16.718-.468-7.484-.468-16.718S109.544,414.126,109.8,414.126Z" transform="translate(-109.335 -414.126)"/></g><g transform="translate(15.949 1.109)"><path class="b" d="M113.689,413.8c.259,0,.47,7.39.47,16.5s-.21,16.5-.47,16.5-.468-7.387-.468-16.5S113.431,413.8,113.689,413.8Z" transform="translate(-113.221 -413.802)"/></g><g transform="translate(59.715)"><path class="b" d="M146.76,412.964c.259,0,.47,7.781.47,17.377s-.21,17.38-.47,17.38-.468-7.78-.468-17.38S146.5,412.964,146.76,412.964Z" transform="translate(-146.292 -412.964)"/></g><g transform="translate(53.67 0.467)"><path class="b" d="M142.192,413.317c.258,0,.468,7.58.468,16.93s-.21,16.931-.468,16.931-.468-7.58-.468-16.931S141.933,413.317,142.192,413.317Z" transform="translate(-141.724 -413.317)"/></g></g></g><g transform="translate(413.153 322.713)"><g transform="translate(69.028 91.448)"><path class="d" d="M420.131,357.1c7.035-3.63,15.317-4.1,23.126-2.811,4.2.693,8.569,1.949,11.425,5.1s3.394,8.7.118,11.4c-1.952,1.612-4.673,1.857-7.2,1.828-6.114-.071-12.9-1.149-17.781,2.53-2.786,2.1-4.641,5.587-7.972,6.62-3.26,1.01-6.937-.914-8.666-3.856s-1.787-6.618-.981-9.933A15.165,15.165,0,0,1,420.131,357.1Z" transform="translate(-411.697 -353.639)"/></g><g transform="translate(57.285)"><path class="d" d="M406.886,348.339c4.3,6.143,12.661,4.109,16.537.36s5.515-9.184,7.006-14.367c3.406-11.842,6.842-24.263,4.309-36.322a20.2,20.2,0,0,0-4.638-9.875c-2.534-2.675-6.429-4.265-9.99-3.324-4.215,1.114-6.835,5.242-8.729,9.17a86.586,86.586,0,0,0-8.556,37.155c-.02,5.986.686,12.261,4.062,17.2" transform="translate(-402.824 -284.538)"/></g><g transform="translate(0 19.766)"><path class="d" d="M409.073,352.322c4.67-5.542,5.556-13.626,3.478-20.569s-6.773-12.85-12.183-17.673a65.582,65.582,0,0,0-21.817-12.873,23.262,23.262,0,0,0-9.81-1.667c-3.33.318-6.682,2.021-8.234,4.983-2.3,4.379-.1,9.69,2.285,14.024a166.34,166.34,0,0,0,14.33,21.82c4.294,5.537,9.215,11,15.76,13.5s13.345,2.209,16.815-2.33" transform="translate(-359.537 -299.474)"/></g><g transform="translate(60.977 99.978)"><path class="b" d="M405.692,416.575a13.3,13.3,0,0,0,.389-2.791c.2-2.031.446-4.583.741-7.617a109.95,109.95,0,0,1,1.714-11.175A86.324,86.324,0,0,1,412.6,381.8a48.6,48.6,0,0,1,6.735-11.934,25.152,25.152,0,0,1,8.513-7.077,23.84,23.84,0,0,1,7.171-2.233,13.393,13.393,0,0,0,2.779-.4,12.985,12.985,0,0,0-2.829-.044,21.706,21.706,0,0,0-7.476,1.945,25.112,25.112,0,0,0-8.982,7.14,47.509,47.509,0,0,0-6.981,12.174,80.709,80.709,0,0,0-4.032,13.4,94.318,94.318,0,0,0-1.485,11.316c-.242,3.234-.333,5.853-.377,7.665A13.075,13.075,0,0,0,405.692,416.575Z" transform="translate(-405.613 -360.085)"/></g><g transform="translate(60.977 24.683)"><path class="b" d="M406.218,429.113a5.547,5.547,0,0,0,.074-1.3c0-.973-.005-2.2-.009-3.7-.009-3.214-.008-7.866.164-13.61.284-11.488,1.274-23.853,3.184-41.283,1.81-16.391,4.239-35.467,6.8-47.868.549-2.821,1.1-5.36,1.624-7.582.5-2.229.921-4.149,1.33-5.7l.867-3.6a5.523,5.523,0,0,0,.226-1.278,5.446,5.446,0,0,0-.45,1.215c-.283.932-.639,2.105-1.076,3.548-.476,1.54-.966,3.449-1.523,5.667-.582,2.214-1.192,4.746-1.795,7.562a420.182,420.182,0,0,0-7.149,44.417c-1.915,17.469-2.776,33.373-2.853,44.891-.069,5.758.054,10.419.2,13.636.091,1.5.167,2.729.226,3.7A5.481,5.481,0,0,0,406.218,429.113Z" transform="translate(-405.613 -303.19)"/></g><g transform="translate(20.623 34.062)"><path class="b" d="M416.156,396.145a24.647,24.647,0,0,0-.028-3.868c-.142-2.487-.484-6.081-1.184-10.483a138.339,138.339,0,0,0-3.409-15.273,125.188,125.188,0,0,0-6.387-18.072c-5.3-12.567-12.5-22.842-18.756-29.206a47.439,47.439,0,0,0-4.412-4.1c-.678-.572-1.276-1.142-1.885-1.595l-1.712-1.18a24.8,24.8,0,0,0-3.257-2.086c-.185.251,4.616,3.077,10.677,9.526,6.037,6.436,13.033,16.638,18.288,29.1a142.76,142.76,0,0,1,6.422,17.905,155.213,155.213,0,0,1,3.627,15.121c.8,4.358,1.262,7.915,1.54,10.379A24.815,24.815,0,0,0,416.156,396.145Z" transform="translate(-375.12 -310.277)"/></g><g transform="translate(29.955 169.383)"><path class="d" d="M382.172,412.53l3.074,42.111h54.1l3.074-42.111Z" transform="translate(-382.172 -412.53)"/></g><g transform="translate(24.729 152.785)"><rect class="d" width="71.928" height="16.599"/></g><g transform="translate(24.729 209.883)"><path class="b" d="M378.223,443.133v4.6h70.739v-4.6Z" transform="translate(-378.223 -443.133)"/></g><g transform="translate(28.109 213.975)"><path class="b" d="M384.09,454.323l-3.313-8.1H445.56l-3.865,8.1Z" transform="translate(-380.777 -446.225)"/></g><g transform="translate(30.867 177.231)"><path class="e" d="M441.192,424.376a1.747,1.747,0,0,1-.253.386c-.214.285-.48.638-.809,1.072l-3.151,4.034-.14.18-.136-.188-7.742-10.709h.445c-2.3,3.261-4.867,6.894-7.623,10.794l-.238.339-.267-.319-9.041-10.755.521-.007-.5.625c-2.8,3.515-5.517,6.916-8.083,10.134l-.27.337-.249-.352c-2.743-3.883-5.308-7.51-7.627-10.791l.445.021-9.393,10.7-.167.191-.127-.214-2.941-4.94-.756-1.315a2.118,2.118,0,0,1-.23-.47,2.06,2.06,0,0,1,.315.417l.835,1.266c.752,1.18,1.788,2.808,3.087,4.852l-.294-.024,9.243-10.833.233-.273.21.294,7.7,10.743-.519-.015,8.065-10.149.5-.625.257-.323.265.316c3.163,3.781,6.211,7.423,9.015,10.778l-.506.02,7.7-10.741.226-.314.22.314,7.58,10.825-.277-.008,3.279-3.93.877-1.016C441.069,424.477,441.179,424.366,441.192,424.376Z" transform="translate(-382.861 -418.46)"/></g><g transform="translate(30.405 168.769)"><path class="e" d="M443.061,412.4c0,.187-13.555.337-30.273.337s-30.277-.151-30.277-.337,13.553-.336,30.277-.336S443.061,412.217,443.061,412.4Z" transform="translate(-382.512 -412.066)"/></g></g><g transform="translate(0 27.205)"><g transform="translate(81.812)"><path class="b" d="M223.03,87.182a1.024,1.024,0,0,1-.308-.094l-.876-.345-3.34-1.39-12.231-5.237L166.033,62.585l-1.394-.611h.29L125.5,78.835c-5,2.1-9.055,3.8-11.93,5.013q-2.053.836-3.253,1.327a7.944,7.944,0,0,1-1.153.417,7.719,7.719,0,0,1,1.094-.551l3.2-1.452L125.3,78.367l39.343-17.061.146-.064.146.065c.441.193.917.4,1.395.611l40.154,17.725c5.079,2.28,9.211,4.134,12.138,5.45l3.286,1.515.847.41A1.049,1.049,0,0,1,223.03,87.182Z" transform="translate(-109.164 -61.242)"/></g><g transform="translate(0 20.162)"><rect class="b" width="258.451" height="193.516"/></g><g transform="translate(9.035 29.159)"><rect class="c" width="241.351" height="176.565"/></g><g transform="translate(62.345 106.303)"><path class="b" d="M94.454,141.568s.251,29.64,1.757,38.683l37.177-1.759s-3.266-29.137-2.01-36.924Z" transform="translate(-94.454 -141.568)"/><g transform="translate(9.986 4.151)"><path class="f" d="M110.324,144.745a.5.5,0,0,1,.136-.015l.4-.016a9.091,9.091,0,0,1,1.547.077,8.5,8.5,0,0,1,2.364.7,7.752,7.752,0,0,1,2.573,2.035,8.95,8.95,0,0,1,1.783,3.58,8.643,8.643,0,0,1-.39,4.593A13.6,13.6,0,0,1,117.693,158a24.478,24.478,0,0,0-1.191,2.32,19.887,19.887,0,0,0-1.5,5.275l-.016.123-.12,0-3.671.06-3.85.06-.136,0-.005-.139a11.01,11.01,0,0,0-1.785-5.082c-.447-.761-.936-1.476-1.392-2.2a22.045,22.045,0,0,1-1.306-2.129,7.179,7.179,0,0,1-.582-4.529,9.662,9.662,0,0,1,1.435-3.7,7.189,7.189,0,0,1,2.419-2.178,9.112,9.112,0,0,1,2.283-.883,9.888,9.888,0,0,1,1.518-.247c.176-.009.31-.016.4-.015a.412.412,0,0,1,.135.009.762.762,0,0,1-.135.017l-.394.041a11.172,11.172,0,0,0-1.5.292,9.267,9.267,0,0,0-2.235.912,7.056,7.056,0,0,0-2.338,2.157,9.518,9.518,0,0,0-1.371,3.635,6.969,6.969,0,0,0,.588,4.383,22.025,22.025,0,0,0,1.3,2.1c.454.711.95,1.432,1.4,2.2a11.211,11.211,0,0,1,1.834,5.213l-.142-.136,3.851-.062,3.671-.058-.136.126a19.988,19.988,0,0,1,1.535-5.356,24.081,24.081,0,0,1,1.21-2.337,13.489,13.489,0,0,0,1.035-2.25,8.445,8.445,0,0,0,.409-4.468,8.806,8.806,0,0,0-1.711-3.507,7.66,7.66,0,0,0-2.493-2.021,8.615,8.615,0,0,0-2.315-.734,10.413,10.413,0,0,0-1.531-.124l-.4-.011A.607.607,0,0,1,110.324,144.745Z" transform="translate(-102 -144.705)"/><g transform="translate(3.834 7.093)"><path class="f" d="M111.294,163.66s-.011-.04-.024-.118l-.056-.344c-.048-.308-.115-.754-.2-1.327-.167-1.153-.416-2.824-.581-4.9-.04-.52-.077-1.065-.1-1.634s-.044-1.162-.011-1.777a4.987,4.987,0,0,1,.42-1.859,2.822,2.822,0,0,1,1.417-1.42,1.9,1.9,0,0,1,2.023.385,1.413,1.413,0,0,1,.434,1.018,1.808,1.808,0,0,1-.38,1.065,2.441,2.441,0,0,1-.895.723,4.732,4.732,0,0,1-1.105.367,13.34,13.34,0,0,1-2.346.273,13.591,13.591,0,0,1-2.361-.114,4.463,4.463,0,0,1-1.118-.323,2.878,2.878,0,0,1-.937-.667,2.176,2.176,0,0,1-.54-.994,1.685,1.685,0,0,1,.134-1.1,1.5,1.5,0,0,1,.777-.757,1.343,1.343,0,0,1,1.059.05,2,2,0,0,1,.789.671,2.713,2.713,0,0,1,.394.925,11.208,11.208,0,0,1,.188,1.9l.179,3.405c.1,2.078.189,3.761.249,4.93.026.58.046,1.03.061,1.341l.013.349c0,.078,0,.119,0,.119s-.007-.04-.013-.118-.013-.2-.024-.348c-.02-.312-.048-.762-.083-1.341-.069-1.169-.165-2.851-.286-4.928-.058-1.04-.123-2.18-.192-3.4a11.214,11.214,0,0,0-.191-1.878,2.636,2.636,0,0,0-.381-.889,1.9,1.9,0,0,0-.749-.634,1.229,1.229,0,0,0-.974-.045,1.381,1.381,0,0,0-.717.7,1.576,1.576,0,0,0-.123,1.03,2.048,2.048,0,0,0,.513.941,3.343,3.343,0,0,0,1.99.953,13.569,13.569,0,0,0,2.34.112,13.211,13.211,0,0,0,2.325-.27,4.668,4.668,0,0,0,1.079-.356,2.313,2.313,0,0,0,.854-.688,1.694,1.694,0,0,0,.359-1,1.293,1.293,0,0,0-.4-.938,1.791,1.791,0,0,0-1.907-.365,2.717,2.717,0,0,0-1.366,1.364,4.865,4.865,0,0,0-.414,1.821c-.036.609-.013,1.2,0,1.768s.053,1.113.089,1.632c.156,2.078.392,3.749.544,4.9.078.573.139,1.02.181,1.33l.045.345C111.292,163.619,111.294,163.66,111.294,163.66Z" transform="translate(-104.897 -150.065)"/></g><g transform="translate(5.312 20.534)"><path class="f" d="M106.039,160.572c.017.017.049.461.1,1.236q.069,1.344.167,3.22l-.03-.078c.746.862,1.591,1.834,2.5,2.884l-.128-.054,2.893-.164-.122.062,1.44-1.76.723-.879-.038.113c-.038-1.7-.075-3.3-.11-4.766l.159.15-5.406.06h-1.562a4.292,4.292,0,0,1-.582-.021,2.6,2.6,0,0,1,.515-.049l1.525-.079,5.5-.217.154-.005,0,.156c.044,1.464.093,3.069.144,4.764v.064l-.041.05-.721.88-1.445,1.756-.048.058-.074,0-2.894.142-.079,0-.049-.058-2.456-2.925-.029-.036v-.044q-.018-1.924-.032-3.3A9.778,9.778,0,0,1,106.039,160.572Z" transform="translate(-106.014 -160.221)"/></g><g transform="translate(5.583 24.142)"><path class="f" d="M113.439,163.877a1.613,1.613,0,0,1-.274-.116c-.173-.078-.429-.187-.752-.3a7.319,7.319,0,0,0-5.2.157c-.315.131-.562.253-.731.343a1.662,1.662,0,0,1-.267.132,1.333,1.333,0,0,1,.245-.171,5.728,5.728,0,0,1,.721-.378,6.945,6.945,0,0,1,5.257-.16,5.807,5.807,0,0,1,.744.333A1.228,1.228,0,0,1,113.439,163.877Z" transform="translate(-106.219 -162.948)"/></g><g transform="translate(5.582 22.984)"><path class="f" d="M113.44,163a1.6,1.6,0,0,1-.275-.116c-.173-.078-.429-.187-.75-.3a7.313,7.313,0,0,0-5.2.159c-.315.13-.562.253-.731.341a1.531,1.531,0,0,1-.267.132,1.417,1.417,0,0,1,.245-.171,6.012,6.012,0,0,1,.721-.378,6.945,6.945,0,0,1,5.257-.16,5.91,5.91,0,0,1,.744.333A1.324,1.324,0,0,1,113.44,163Z" transform="translate(-106.218 -162.073)"/></g><g transform="translate(5.515 21.883)"><path class="f" d="M113.387,162.17a1.665,1.665,0,0,1-.274-.115c-.175-.079-.429-.187-.752-.3a7.309,7.309,0,0,0-5.2.159c-.315.13-.562.253-.732.343a1.861,1.861,0,0,1-.266.132,1.244,1.244,0,0,1,.243-.172,6.245,6.245,0,0,1,.723-.378,6.945,6.945,0,0,1,5.257-.16,6.2,6.2,0,0,1,.744.333A1.424,1.424,0,0,1,113.387,162.17Z" transform="translate(-106.167 -161.241)"/></g></g></g><g transform="translate(20.942 57.847)"><path class="d" d="M63.168,104.953s.251,29.641,1.757,38.683l37.177-1.757s-3.266-29.138-2.01-36.925Z" transform="translate(-63.168 -104.953)"/><g transform="translate(6.375 12.367)"><path class="f" d="M92.932,114.381c.012.2-5.564.7-12.452,1.114s-12.484.588-12.5.386,5.562-.7,12.452-1.114S92.919,114.18,92.932,114.381Z" transform="translate(-67.985 -114.298)"/></g><g transform="translate(6.384 18.645)"><path class="f" d="M92.939,119.125c.012.2-5.564.7-12.45,1.114s-12.485.588-12.5.386,5.562-.7,12.453-1.114S92.927,118.924,92.939,119.125Z" transform="translate(-67.992 -119.042)"/></g><g transform="translate(10.799 24.759)"><path class="f" d="M85.541,123.8c.012.2-3.16.554-7.084.791s-7.117.265-7.129.064,3.16-.556,7.085-.791S85.529,123.595,85.541,123.8Z" transform="translate(-71.328 -123.662)"/></g></g><g transform="translate(19.181 145.05)"><path class="d" d="M61.838,170.847s.251,29.64,1.759,38.683l37.175-1.759s-3.266-29.137-2.009-36.924Z" transform="translate(-61.838 -170.847)"/><g transform="translate(6.375 12.366)"><path class="f" d="M91.6,180.274c.012.2-5.564.7-12.452,1.114s-12.484.588-12.5.386,5.562-.7,12.452-1.113S91.59,180.074,91.6,180.274Z" transform="translate(-66.655 -180.191)"/></g><g transform="translate(6.385 18.644)"><path class="f" d="M91.609,185.018c.012.2-5.562.7-12.45,1.114s-12.484.588-12.5.386,5.561-.7,12.452-1.114S91.6,184.819,91.609,185.018Z" transform="translate(-66.663 -184.935)"/></g><g transform="translate(10.799 24.758)"><path class="f" d="M84.211,189.689c.013.2-3.159.556-7.084.791s-7.116.265-7.129.064,3.16-.555,7.085-.791S84.2,189.488,84.211,189.689Z" transform="translate(-69.998 -189.555)"/></g></g><g transform="translate(111.013 59.122)"><g transform="translate(9.763 6.581)"><path class="d" d="M138.606,110.89l3.682,85.49,106.722,1.287-4.791-85.647Z" transform="translate(-138.606 -110.89)"/></g><g transform="translate(8.163 5.603)"><g transform="translate(0.364 0.365)"><rect class="e" width="106.012" height="80.05"/></g><path class="b" d="M243.774,190.567s-.021-.516-.033-1.485q-.012-1.487-.033-4.272c-.019-3.753-.044-9.221-.077-16.2-.038-13.958-.091-33.932-.156-58.1l.3.3-106,.065h-.009l.365-.364c-.013,28.789-.025,56.049-.036,80.049l-.33-.328,76.469.164,21.749.087,5.781.04,1.5.019c.337.007.519.02.519.02s-.156.012-.48.019l-1.46.019-5.716.04-21.673.087-76.684.164h-.328v-.33c-.011-24-.022-51.26-.036-80.049v-.365h.373c39.452.025,76.034.048,106,.065h.3v.3c-.065,24.242-.118,44.279-.155,58.283-.033,6.948-.06,12.392-.077,16.131q-.024,2.745-.034,4.215C243.8,190.094,243.774,190.567,243.774,190.567Z" transform="translate(-137.397 -110.151)"/><g transform="translate(12.708 16.953)"><g transform="translate(0.445 0.37)"><rect class="e" width="42.975" height="54.085"/></g><path class="b" d="M190.419,177.417a1.948,1.948,0,0,1-.019-.273l-.019-.77q-.014-1.068-.04-2.958c-.02-2.612-.049-6.362-.086-11.1-.04-9.52-.1-22.993-.163-38.99l.326.327-42.97.038c-.086.077.687-.684.36-.355v3.724q0,1.86,0,3.7,0,3.684,0,7.288c0,4.8-.008,9.49-.012,14.035-.017,9.084-.032,17.6-.046,25.326l-.3-.3,31.114.158,8.73.078,2.315.034c.527.011.815.033.815.033a6.033,6.033,0,0,1-.75.033l-2.256.034-8.663.078c-7.568.038-18.333.093-31.3.156l-.3,0v-.3c-.013-7.729-.029-16.242-.045-25.326,0-4.545-.008-9.232-.012-14.035q0-3.6,0-7.288v-7.427c-.324.322.442-.457.369-.375l42.97.038h.328v.326c-.067,16.084-.123,29.629-.164,39.2l-.086,11.021q-.024,1.85-.038,2.894c-.008.3-.015.537-.02.733A.913.913,0,0,1,190.419,177.417Z" transform="translate(-146.999 -122.961)"/></g><g transform="translate(14.401 4.583)"><g transform="translate(0.398 0.365)"><rect class="e" width="82.359" height="7.793"/></g><path class="b" d="M231.036,121.771a4.254,4.254,0,0,1-.028-.533c-.009-.38-.021-.879-.036-1.511-.02-1.354-.048-3.278-.083-5.747l.147.147c-13.889.128-45.548.217-82.355.217h0c.728-.728.2-.2.364-.363h0v3.962c0,1.3,0,2.586,0,3.827l-.363-.363,58.377.155,17.522.107c2.037.022,3.633.038,4.768.05l1.249.025a3.552,3.552,0,0,1,.442.025,1.955,1.955,0,0,1-.392.025l-1.2.025-4.685.05-17.437.109-58.642.155h-.364v-4.191c0-.652,0-1.311,0-1.973v-1.989h0c.163-.163-.364.363.365-.367h0c36.806,0,68.466.09,82.355.217h.15v.147c-.037,2.506-.065,4.458-.085,5.832-.015.619-.025,1.108-.034,1.48A2.934,2.934,0,0,1,231.036,121.771Z" transform="translate(-148.279 -113.614)"/></g><g transform="translate(60.943 16.953)"><g transform="translate(0.446 0.37)"><rect class="e" width="35.769" height="32.597"/></g><path class="b" d="M219.663,155.929a5.207,5.207,0,0,1-.034-.631l-.036-1.768c-.018-1.595-.046-3.829-.081-6.645-.038-5.736-.093-13.833-.159-23.554l.31.311c-10.33.015-22.614.034-35.766.054-.083.078.687-.688.361-.36v4.41q0,2.192,0,4.341,0,4.3-.009,8.409c-.011,5.468-.022,10.649-.032,15.433l-.32-.32,25.8.161,7.32.085,1.953.037a5.172,5.172,0,0,1,.695.037,3.787,3.787,0,0,1-.625.036l-1.89.038-7.248.083-26.006.161-.319,0v-.322c-.011-4.784-.021-9.965-.033-15.433q0-4.1-.008-8.409,0-2.15,0-4.341v-4.41c-.326.323.443-.45.368-.369l35.766.054h.312v.31c-.066,9.8-.12,17.968-.16,23.75-.033,2.788-.061,5-.081,6.575-.015.709-.026,1.274-.036,1.71A3.062,3.062,0,0,1,219.663,155.929Z" transform="translate(-183.448 -122.962)"/></g><g transform="translate(61.018 54.585)"><g transform="translate(0.371 0.446)"><rect class="e" width="35.769" height="16.378"/></g><path class="b" d="M219.644,168.221a11.048,11.048,0,0,1-.056-1.187l-.066-3.29c-.034-2.889-.083-6.936-.143-11.9l.265.265-35.766.1c-.328.326.441-.443.361-.363v2.145q0,1.068,0,2.125,0,2.114,0,4.171c-.005,2.738-.009,5.394-.015,7.935l-.345-.345,25.578.164,7.453.1,2.013.044a5.241,5.241,0,0,1,.724.042,3.359,3.359,0,0,1-.641.042l-1.943.044c-1.794.022-4.281.054-7.374.1l-25.811.164-.345,0v-.348c-.005-2.541-.009-5.2-.015-7.935q0-2.057,0-4.171v-4.271c-.079.078.692-.692.368-.367l35.766.1h.269l0,.265c-.06,5.033-.107,9.134-.142,12.063-.028,1.346-.05,2.42-.066,3.23A7.631,7.631,0,0,1,219.644,168.221Z" transform="translate(-183.505 -151.397)"/></g><g transform="translate(13.151 17.416)"><g transform="translate(0.002 0.001)"><path class="f" d="M189.248,123.312c-13.3,18.377-28.609,35.615-41.912,53.992" transform="translate(-147.336 -123.312)"/></g><path class="b" d="M147.337,177.3a2.475,2.475,0,0,1,.351-.6l1.122-1.646c.983-1.425,2.455-3.453,4.3-5.934,3.692-4.967,8.977-11.688,14.893-19.038s11.262-14.017,15.056-18.9l4.482-5.789c.492-.625.9-1.141,1.233-1.564.287-.353.449-.532.47-.517a2.578,2.578,0,0,1-.352.6c-.3.446-.674.99-1.122,1.646-.983,1.425-2.454,3.451-4.3,5.933-3.692,4.968-8.977,11.69-14.9,19.042s-11.261,14.015-15.054,18.9c-1.841,2.377-3.356,4.333-4.484,5.79l-1.232,1.564A2.583,2.583,0,0,1,147.337,177.3Z" transform="translate(-147.334 -123.311)"/></g><g transform="translate(13.151 17.322)"><g transform="translate(0.002 0.001)"><line class="f" x2="42.975" y2="54.085"/></g><path class="b" d="M190.311,177.327c-.157.124-9.906-11.881-21.771-26.814s-21.361-27.145-21.2-27.271,9.9,11.88,21.774,26.817S190.468,177.2,190.311,177.327Z" transform="translate(-147.335 -123.24)"/></g></g><g transform="translate(0 16.319)"><path class="b" d="M144.675,124.971a6.723,6.723,0,1,1-6.723-6.723A6.723,6.723,0,0,1,144.675,124.971Z" transform="translate(-131.229 -118.248)"/></g><g transform="translate(109.956)"><path class="b" d="M227.762,112.64a6.723,6.723,0,1,1-6.723-6.723A6.722,6.722,0,0,1,227.762,112.64Z" transform="translate(-214.316 -105.917)"/></g></g></g><g transform="translate(416.035 139.877)"><g transform="translate(3.895 0.001)"><rect class="b" width="77.475" height="112.298"/></g><g transform="translate(0.014 0.001)"><rect class="e" width="77.475" height="112.298"/></g><g transform="translate(9.429 11.953)"><g transform="translate(0.211 0.21)"><rect class="f" width="58.224" height="87.972"/></g><path class="b" d="M427.274,243.6s-.007-.148-.011-.43-.007-.705-.012-1.248c-.005-1.105-.013-2.724-.024-4.825-.012-4.216-.029-10.359-.052-18.121-.022-15.513-.056-37.48-.1-63.348l.193.193-58.217.017h-.007l.21-.21c-.016,33.187-.03,63.786-.042,87.972l-.168-.168,42.38.089,11.708.042,3.073.02c.7.005,1.063.017,1.063.017s-.343.012-1.027.019l-3.041.018-11.671.042-42.485.089h-.168V243.6c-.012-24.186-.026-54.786-.042-87.972v-.21h.217l58.217.017h.195v.193c-.04,25.92-.073,47.93-.1,63.475-.022,7.742-.04,13.872-.053,18.077-.009,2.084-.017,3.69-.023,4.787-.005.533-.009.941-.012,1.225S427.274,243.6,427.274,243.6Z" transform="translate(-368.84 -155.413)"/></g><g transform="translate(65.165 12.751)"><path class="g" d="M410.956,156.016" transform="translate(-410.956 -156.016)"/></g><g transform="translate(67.154 0)"><path class="b" d="M423.012,146.382a13.391,13.391,0,0,1-1.38,2.006c-.9,1.2-2.177,2.84-3.635,4.611s-2.82,3.338-3.83,4.452a13.226,13.226,0,0,1-1.7,1.739,14.634,14.634,0,0,1,1.48-1.933l3.729-4.526L421.4,148.2A14.441,14.441,0,0,1,423.012,146.382Z" transform="translate(-412.459 -146.381)"/></g><g transform="translate(68.158 99.851)"><g transform="translate(0.003 0.001)"><path class="f" d="M413.22,221.833a72.071,72.071,0,0,0,10.154,12.7" transform="translate(-413.22 -221.833)"/></g><path class="b" d="M423.375,234.534a11.614,11.614,0,0,1-1.771-1.611,56.955,56.955,0,0,1-7.2-9.008,11.551,11.551,0,0,1-1.18-2.082,16.221,16.221,0,0,1,1.428,1.915c.854,1.2,2.054,2.839,3.454,4.591s2.738,3.283,3.72,4.38A16.053,16.053,0,0,1,423.375,234.534Z" transform="translate(-413.217 -221.832)"/></g><g transform="translate(0 99.687)"><g transform="translate(0.003 0.001)"><path class="f" d="M361.717,234.231l10.148-12.522" transform="translate(-361.717 -221.709)"/></g><path class="b" d="M371.865,221.709a76.749,76.749,0,0,1-4.91,6.393,77.249,77.249,0,0,1-5.238,6.129,77.2,77.2,0,0,1,4.911-6.393A77.4,77.4,0,0,1,371.865,221.709Z" transform="translate(-361.715 -221.708)"/></g><g transform="translate(0.012)"><path class="b" d="M361.727,146.382a69.945,69.945,0,0,1,4.926,5.888,70.028,70.028,0,0,1,4.595,6.15,69.834,69.834,0,0,1-4.926-5.889A69.9,69.9,0,0,1,361.727,146.382Z" transform="translate(-361.724 -146.381)"/></g><g transform="translate(30.228 30.025)"><rect class="b" width="19.496" height="55.354"/></g></g><g transform="translate(334.994)"><g transform="translate(133.461 20.578)"><rect class="b" width="11.09" height="55.185" transform="translate(0 0.059) rotate(-0.307)"/></g><g transform="translate(37.173 20.569)"><g transform="translate(0.209 0.153)"><rect class="d" width="28.72" height="30.466" transform="matrix(1, -0.005, 0.005, 1, 0, 0.154)"/></g><g transform="translate(28.793)"><rect class="e" width="28.72" height="30.466" transform="translate(0 0.154) rotate(-0.307)"/></g><g transform="translate(0 7.806)"><path class="b" d="M328.82,63.04c19.086.157,38.22.046,57.3-.263a.305.305,0,0,0,0-.61c-19.086-.106-38.22-.012-57.3.351a.262.262,0,0,0,0,.523Z" transform="translate(-328.566 -62.126)"/></g></g><g transform="translate(19.26 50.401)"><g transform="translate(0.217 0.278)"><rect class="d" width="52.179" height="24.827" transform="translate(0 0.28) rotate(-0.307)"/></g><g transform="translate(52.149)"><rect class="e" width="52.179" height="24.827" transform="translate(0 0.279) rotate(-0.307)"/></g><g transform="translate(0 6.242)"><path class="b" d="M315.284,84.707c34.664.393,69.449.041,104.111-.513a.306.306,0,0,0,0-.611c-34.665-.183-69.453-.163-104.11.6a.262.262,0,0,0,0,.523Z" transform="translate(-315.03 -83.487)"/></g></g><g transform="translate(0 75.786)"><rect class="b" width="202.158" height="8.894"/><g transform="translate(33.098 4.276)"><rect class="b" width="8.207" height="30.35"/></g><g transform="translate(155.605 4.276)"><rect class="b" width="8.207" height="30.35"/></g></g><g transform="translate(144.283)"><rect class="d" width="11.09" height="75.899" transform="matrix(1, -0.005, 0.005, 1, 0, 0.059)"/></g><g transform="translate(155.354 14.128)"><g transform="translate(0.116)"><rect class="e" width="17.233" height="61.507" transform="translate(0 0.092) rotate(-0.307)"/></g><g transform="translate(0 11.551)"><path class="b" d="M435.1,60.388a62.512,62.512,0,0,1-8.615.3,62.507,62.507,0,0,1-8.617-.3c0-.165,3.856-.3,8.617-.3S435.1,60.223,435.1,60.388Z" transform="translate(-417.868 -60.089)"/></g><g transform="translate(0 8.968)"><path class="b" d="M435.1,58.435c0,.165-3.858.3-8.615.3s-8.617-.134-8.617-.3a62.645,62.645,0,0,1,8.617-.3A62.65,62.65,0,0,1,435.1,58.435Z" transform="translate(-417.868 -58.137)"/></g><g transform="translate(0 51.954)"><path class="b" d="M435.1,90.918a62.65,62.65,0,0,1-8.615.3,62.645,62.645,0,0,1-8.617-.3c0-.165,3.856-.3,8.617-.3S435.1,90.753,435.1,90.918Z" transform="translate(-417.868 -90.619)"/></g><g transform="translate(0 49.371)"><path class="b" d="M435.1,88.965c0,.165-3.858.3-8.615.3s-8.617-.134-8.617-.3a62.645,62.645,0,0,1,8.617-.3A62.65,62.65,0,0,1,435.1,88.965Z" transform="translate(-417.868 -88.667)"/></g><g transform="translate(8.594 16.312)"><path class="b" d="M424.661,91.405c-.165,0-.3-6.205-.3-13.859s.134-13.86.3-13.86.3,6.2.3,13.86S424.827,91.405,424.661,91.405Z" transform="translate(-424.362 -63.687)"/></g></g><g transform="translate(172.773 29.232)"><rect class="d" width="18.758" height="46.425"/><g transform="translate(5.717 11.802)"><g transform="translate(0 15.276)"><path class="c" d="M439.541,90.543a4.025,4.025,0,0,1-4.191-4.175,3.624,3.624,0,0,1,1.519-3.132l.426.585a3.018,3.018,0,0,0-1.233,2.548,3.482,3.482,0,0,0,6.96,0,3.016,3.016,0,0,0-1.235-2.548l.427-.585a3.663,3.663,0,0,1,1.519,3.132A4.034,4.034,0,0,1,439.541,90.543Z" transform="translate(-435.35 -83.235)"/></g><g transform="translate(0 7.559)"><path class="c" d="M442.674,83.968l-.633-.364a4.808,4.808,0,0,0,1-2.974c0-1.74-.617-2.435-1.551-2.435-2.4,0-.633,5.472-3.875,5.472-1.249,0-2.262-1.043-2.262-3.131a5.079,5.079,0,0,1,.806-2.832l.634.364a4.248,4.248,0,0,0-.744,2.483c0,1.615.664,2.327,1.55,2.327,2.484,0,.728-5.474,3.875-5.474,1.346,0,2.263,1.154,2.263,3.258A5.182,5.182,0,0,1,442.674,83.968Z" transform="translate(-435.35 -77.404)"/></g><path class="c" d="M442.674,78.256l-.633-.364a4.808,4.808,0,0,0,1-2.974c0-1.739-.617-2.436-1.551-2.436-2.4,0-.633,5.474-3.875,5.474-1.249,0-2.262-1.044-2.262-3.131a5.075,5.075,0,0,1,.806-2.832l.634.364a4.25,4.25,0,0,0-.744,2.484c0,1.612.664,2.324,1.55,2.324,2.484,0,.728-5.472,3.875-5.472,1.346,0,2.263,1.154,2.263,3.258A5.182,5.182,0,0,1,442.674,78.256Z" transform="translate(-435.35 -71.692)"/></g></g><g transform="translate(146.478 9.771)"><circle class="b" cx="3.188" cy="3.188" r="3.188"/></g><g transform="translate(148.68 21.725)"><rect class="b" width="1.971" height="45.151"/></g></g></g><g transform="translate(39.689 587.344)"><path class="h" d="M610.328,454.1c0,.191-127.824.344-285.466.344-157.7,0-285.493-.154-285.493-.344s127.8-.344,285.493-.344C482.5,453.76,610.328,453.914,610.328,454.1Z" transform="translate(-39.369 -453.76)"/></g><g transform="translate(169.47 116.181)"><g transform="translate(0)"><g transform="translate(0 16.306)"><g transform="translate(0.304 0.244)"><path class="c" d="M162.167,110.238c-21.236,33.406-19.847,79.72,3.357,111.791,15.468,21.379,38.672,35.709,57.1,54.6s32.418,46.729,22.695,71.261c-9.9,24.974-38.893,35.133-60.6,50.952A114.547,114.547,0,0,0,157.082,555.3H382.617s39.618-75.506-11.32-133.047S293,363.769,294.891,326.038s28.3-49.995,43.391-64.145,88.67-47.164,45.277-151.655Z" transform="translate(-137.666 -110.238)"/></g><path class="h" d="M162.242,110.3s1.31-.02,3.883-.03l11.433-.032,44.011-.062,162.066-.119h.167l.06.151a210.083,210.083,0,0,1,8.4,24.422,142.324,142.324,0,0,1,4.792,26.538,105.344,105.344,0,0,1-1.431,28.014,90.02,90.02,0,0,1-10.194,27.233,99.271,99.271,0,0,1-8.495,12.326,114.931,114.931,0,0,1-10.39,11.115,153.278,153.278,0,0,1-11.793,9.982c-4.1,3.175-8.388,6.176-12.571,9.344-2.095,1.579-4.007,3.352-6,5.128-2.006,1.74-4.072,3.422-6.156,5.087-4.167,3.334-8.377,6.666-12.351,10.315-8.021,7.177-14.8,16.137-18.523,26.567a64.537,64.537,0,0,0-3.527,16.241c-.112,1.394-.3,2.786-.351,4.187-.028,1.4-.107,2.806-.041,4.21a47.97,47.97,0,0,0,.847,8.392,38.309,38.309,0,0,0,6.769,15.449,85.723,85.723,0,0,0,11.7,12.665c8.564,7.829,17.645,15.3,26.345,23.371Q354,402.825,366.3,416.188a153.223,153.223,0,0,1,11.729,13.945A97.9,97.9,0,0,1,387.48,445.9a103.473,103.473,0,0,1,9.712,35.765,131.025,131.025,0,0,1-2.2,37.6,154.408,154.408,0,0,1-4.84,18.444A134.467,134.467,0,0,1,383,555.52l-.091.184h-6.02l-219.729-.015h-.176l-.1-.147A116.285,116.285,0,0,1,138,502.307a112.248,112.248,0,0,1,7.8-53.738,116.984,116.984,0,0,1,29.813-42.583,135.36,135.36,0,0,1,20.354-14.847c7.04-4.371,14.142-8.414,20.857-12.837,6.684-4.435,13.127-9.155,18.357-14.934a50.158,50.158,0,0,0,11.36-19.692,48.97,48.97,0,0,0,.9-21.98,71.583,71.583,0,0,0-6.97-20.207,98.806,98.806,0,0,0-11.352-17.244,137.369,137.369,0,0,0-13.737-14.332c-9.548-8.79-19.318-16.476-28.113-24.376-4.4-3.941-8.58-7.919-12.42-12.007a111.949,111.949,0,0,1-10.295-12.691,96.7,96.7,0,0,1-12.9-26.747,99.86,99.86,0,0,1-4.392-25.332c-.185-1.969-.111-3.9-.109-5.787.025-1.885-.032-3.729.163-5.517q.208-2.686.4-5.237c.2-1.691.483-3.328.711-4.926a94.084,94.084,0,0,1,8.846-28.086,37.822,37.822,0,0,1,2.041-3.933q.965-1.648,1.619-2.761c.868-1.477,1.315-2.215,1.315-2.215-.091.163-.459.813-1.278,2.259q-.639,1.114-1.585,2.766a38.553,38.553,0,0,0-2.009,3.934,94.688,94.688,0,0,0-8.728,28.07c-.224,1.595-.5,3.228-.7,4.916q-.189,2.545-.389,5.226c-.191,1.784-.13,3.623-.151,5.5,0,1.881-.067,3.809.122,5.773A99.669,99.669,0,0,0,151.954,194a96.472,96.472,0,0,0,12.9,26.629,111.631,111.631,0,0,0,10.279,12.636c3.835,4.071,8.006,8.036,12.409,11.966,8.793,7.878,18.571,15.552,28.146,24.349a137.924,137.924,0,0,1,13.8,14.367,99.33,99.33,0,0,1,11.422,17.318,72.106,72.106,0,0,1,7.036,20.344,49.526,49.526,0,0,1-.891,22.216,50.706,50.706,0,0,1-11.467,19.914c-5.274,5.835-11.749,10.583-18.451,15.035-6.732,4.441-13.836,8.491-20.862,12.859a134.943,134.943,0,0,0-20.262,14.794A116.423,116.423,0,0,0,146.373,448.8a111.623,111.623,0,0,0-7.738,53.441,115.652,115.652,0,0,0,18.795,52.932l-.274-.146,219.729-.016h5.807l-.306.185a134.088,134.088,0,0,0,7.117-17.71,153.9,153.9,0,0,0,4.818-18.363,130.37,130.37,0,0,0,2.189-37.4,102.836,102.836,0,0,0-9.644-35.533,97.348,97.348,0,0,0-9.389-15.66A152.505,152.505,0,0,0,365.8,416.644q-12.244-13.336-25.363-25.363c-8.687-8.062-17.752-15.525-26.339-23.379a86.448,86.448,0,0,1-11.782-12.768,38.99,38.99,0,0,1-6.874-15.7,48.726,48.726,0,0,1-.855-8.5c-.066-1.421.013-2.837.042-4.252.053-1.413.241-2.816.355-4.222a65.214,65.214,0,0,1,3.568-16.394c3.769-10.539,10.633-19.6,18.7-26.808,4-3.667,8.222-7.009,12.387-10.337,2.084-1.662,4.145-3.338,6.139-5.067,1.963-1.744,3.928-3.561,6.037-5.149,4.2-3.181,8.479-6.172,12.575-9.338a152.611,152.611,0,0,0,11.753-9.937,114.53,114.53,0,0,0,10.342-11.052,98.632,98.632,0,0,0,8.451-12.247,89.438,89.438,0,0,0,10.148-27.053,104.83,104.83,0,0,0,1.441-27.867,141.766,141.766,0,0,0-4.755-26.445,209.3,209.3,0,0,0-8.361-24.369l.225.151-161.97-.119-44.044-.064-11.462-.03C163.574,110.319,162.242,110.3,162.242,110.3Z" transform="translate(-137.436 -110.054)"/></g><g transform="translate(21.233 58.198)"><path class="i" d="M369.445,161.328c33.218,5.459-19.156,64.292-48.8,87.507-17.166,13.443-35.6,28.02-43.753,48.241-9.249,22.941-2.394,48.729-6.876,71.807a3.206,3.206,0,0,1-6.351-.674c.22-15.149-.184-30.29-2.694-45.2-3.56-21.152-11.692-42.077-26.517-57.579-12.1-12.653-27.969-21.062-40.877-32.89-18.846-17.27-38.2-39.547-40.093-65.039,0,0,36.184-29.146,56.271-25.467,23.472,4.3,46.581,40.52,82.951,36.372C318.1,175.506,330.914,154.994,369.445,161.328Z" transform="translate(-153.481 -141.709)"/></g><g transform="translate(12.211 353.654)"><path class="i" d="M374.6,404.023c-.839-8.308-3.054-17.708-10.427-21.627-4.466-2.374-9.9-2.111-14.8-.824s-9.487,3.511-14.336,4.951a46.979,46.979,0,0,1-29.333-.929c-9.012-3.311-16.747-9.3-25.117-14s-18.165-8.21-27.483-5.892c-16.066,4-24.426,23.339-40.31,28.01-7.059,2.075-14.641.91-21.817-.716s-14.381-3.712-21.734-3.438c-5.762.216-11.757,2.207-15.8,6.156l.042-.056c-.041.041-.077.086-.116.127a16.427,16.427,0,0,0-1.821,2.135c-4.927,6.568-5.714,15.4-4.2,23.419,1.7,8.98,5.892,17.279,10.394,25.233,5.3,9.367,11.326,18.694,20.093,24.939,10.815,7.7,24.417,2.387,37.654,3.432,30.879,2.436,64.1,4.1,94.982,1.706,16.312-1.265,31.6.5,44.547-9.5,9.108-7.04,15.03-17.653,17.886-28.8S375.756,415.476,374.6,404.023Z" transform="translate(-146.664 -364.966)"/></g><g class="j" transform="translate(176.959 376.8)"><path d="M276.064,382.456c-1.744,2.669-2.487,6.246-.806,8.955s3.953,5.173,4.682,8.278c1.145,4.875-1.791,9.644-3.981,14.148a45.111,45.111,0,0,0-4.375,26.112,35.52,35.52,0,0,0,12.959,22.8c3.136,2.42,7.211,4.3,10.991,3.111,3.559-1.116,5.86-4.726,6.567-8.389s.123-7.432-.341-11.132a173.183,173.183,0,0,1,1.306-51.715c.506-2.848.989-6.1-.818-8.363-1.153-1.444-2.992-2.124-4.746-2.708-6.883-2.291-14.311.255-21.438-1.1" transform="translate(-271.153 -382.456)"/></g><g transform="translate(3.162 455.739)"><path class="h" d="M139.83,458.217s-.621-10.35,12.881-16.112h237.22s12.37,6.26,13.892,15.9Z" transform="translate(-139.826 -442.105)"/></g><g transform="translate(19.569)"><path class="h" d="M380.894,115.543c-.123.06-.249.118-.376.175L157.46,114.282s-.791-.507-1.977-1.435a8.457,8.457,0,0,1,5.279-15.114l216.495,1.748C386.193,99.553,388.975,111.725,380.894,115.543Z" transform="translate(-152.223 -97.733)"/></g><g class="j" transform="translate(64.748 100.106)"><path d="M334.154,176.17c.449.86-1.225,2.721-4.423,5.558s-7.891,6.739-13.845,11.537a180.577,180.577,0,0,1-22.472,15.853A91,91,0,0,1,278,216.19a72.125,72.125,0,0,1-8.855,2.448,58.626,58.626,0,0,1-9.568,1.245,51.131,51.131,0,0,1-19.23-2.628,69.411,69.411,0,0,1-15.452-7.887c-4.447-2.949-8.279-5.859-11.892-8.643s-6.878-5.484-9.809-8.016c-11.717-10.153-17.879-17.617-16.691-19.058,1.228-1.5,9.522,3.25,22.447,11.193l10.558,6.483c3.789,2.308,7.864,4.854,12.02,7.21a66.911,66.911,0,0,0,13.03,5.889,41.6,41.6,0,0,0,14.343,1.69c10.16-.517,20.019-4.1,28.561-8.221,8.585-4.2,16.263-8.955,22.961-12.7A115.781,115.781,0,0,1,327,177.109C331.172,175.612,333.723,175.342,334.154,176.17Z" transform="translate(-186.362 -173.376)"/></g><g transform="translate(129.236 312.845)"><path class="i" d="M237.436,334.3a3.753,3.753,0,1,1-.189.073" transform="translate(-235.091 -334.13)"/></g><g transform="translate(20.414 38.993)"><path class="h" d="M184.245,228.018a6.807,6.807,0,0,1-.787-.794q-.8-.881-2.16-2.369c-.913-1.051-2.115-2.266-3.343-3.818-1.248-1.551-2.659-3.307-4.214-5.242-1.439-2.034-3.07-4.226-4.713-6.654q-1.171-1.862-2.418-3.848c-.408-.666-.852-1.323-1.248-2.022l-1.163-2.148a89.268,89.268,0,0,1-8.218-19.785,83.126,83.126,0,0,1-3.119-21.2c-.005-1.649.086-3.26.123-4.822.036-.781.022-1.554.1-2.308s.16-1.5.238-2.226c.167-1.457.283-2.872.479-4.218q.363-2.009.7-3.854c.378-2.468,1.031-4.633,1.5-6.557.254-.957.453-1.857.705-2.665l.721-2.2,1.02-3.041a6.742,6.742,0,0,1,.4-1.044,6.964,6.964,0,0,1-.269,1.089q-.332,1.143-.895,3.074-.3,1.008-.662,2.215c-.233.813-.413,1.715-.648,2.672-.43,1.926-1.047,4.089-1.392,6.551-.208,1.224-.425,2.507-.651,3.839-.18,1.342-.282,2.749-.435,4.2q-.107,1.088-.218,2.213c-.071.75-.052,1.518-.083,2.293-.025,1.552-.107,3.15-.093,4.787a84.178,84.178,0,0,0,3.147,21.023,90.51,90.51,0,0,0,8.112,19.667q.58,1.084,1.145,2.141c.389.7.827,1.355,1.228,2.02l2.377,3.848c1.613,2.431,3.217,4.629,4.625,6.675,1.521,1.953,2.9,3.724,4.121,5.29,1.2,1.572,2.366,2.81,3.246,3.887q1.3,1.54,2.062,2.452A6.914,6.914,0,0,1,184.245,228.018Z" transform="translate(-152.862 -127.197)"/></g><g transform="translate(39.237 183.444)"><path class="h" d="M167.086,389.325a2.586,2.586,0,0,1,.247-.435c.2-.308.455-.72.787-1.244l1.3-2.013.835-1.282c.326-.438.707-.877,1.092-1.358l2.6-3.172c1.019-1.1,2.188-2.234,3.41-3.484a91.765,91.765,0,0,1,9.085-7.645c7.025-5.325,16.087-10.615,25.911-16.79a149.3,149.3,0,0,0,14.858-10.467,69.842,69.842,0,0,0,13.333-14.09c7.477-11.117,10.514-23.994,10.779-35.507a84.1,84.1,0,0,0-5.073-30.165,112.482,112.482,0,0,0-8.766-18.8c-1.225-2.125-2.233-3.747-2.926-4.837-.327-.524-.585-.937-.778-1.248a2.565,2.565,0,0,1-.246-.438,2.756,2.756,0,0,1,.3.4l.836,1.211c.732,1.067,1.776,2.667,3.04,4.776a107.626,107.626,0,0,1,9,18.771,83.754,83.754,0,0,1,5.249,30.344,69.1,69.1,0,0,1-.73,8.925,65.236,65.236,0,0,1-1.937,9.141,62.35,62.35,0,0,1-8.176,17.813,70.117,70.117,0,0,1-13.477,14.226,147.857,147.857,0,0,1-14.945,10.481c-9.859,6.156-18.926,11.39-25.96,16.643a94.206,94.206,0,0,0-9.109,7.533c-1.228,1.232-2.4,2.349-3.433,3.428q-1.439,1.705-2.63,3.118c-.392.471-.779.9-1.113,1.333l-.856,1.259q-.794,1.155-1.353,1.971l-.844,1.206A2.863,2.863,0,0,1,167.086,389.325Z" transform="translate(-167.085 -236.35)"/></g><g transform="translate(15.713 359.803)"><path class="h" d="M160.527,369.613a2.567,2.567,0,0,1-.29.614l-.942,1.683c-.426.721-.932,1.611-1.443,2.685s-1.182,2.25-1.739,3.638l-.932,2.152c-.319.75-.58,1.559-.889,2.381-.647,1.634-1.149,3.443-1.72,5.332a71.522,71.522,0,0,0-2.334,25.438c.22,1.961.382,3.833.721,5.557.156.864.265,1.707.443,2.5s.356,1.555.524,2.285c.3,1.466.729,2.749,1.047,3.893s.642,2.116.93,2.9c.247.732.453,1.335.619,1.828a2.508,2.508,0,0,1,.173.655,2.427,2.427,0,0,1-.3-.6c-.2-.482-.446-1.072-.744-1.787a27.965,27.965,0,0,1-1.044-2.878c-.356-1.141-.824-2.422-1.153-3.892q-.276-1.1-.572-2.292c-.193-.8-.316-1.646-.486-2.516-.365-1.735-.553-3.62-.791-5.6a69.044,69.044,0,0,1,2.356-25.667c.594-1.9,1.121-3.72,1.8-5.36.324-.823.6-1.634.934-2.383l.979-2.15c.59-1.386,1.285-2.561,1.842-3.618a28.112,28.112,0,0,1,1.551-2.64l1.056-1.621A2.425,2.425,0,0,1,160.527,369.613Z" transform="translate(-149.31 -369.613)"/></g><g transform="translate(67.922 391.607)"><path class="h" d="M311.388,393.646a1.245,1.245,0,0,1-.269.2l-.824.516-3.211,1.928-2.331,1.382c-.867.478-1.843.932-2.874,1.453-2.082,1-4.394,2.283-7.12,3.314l-4.228,1.734c-1.476.592-3.068,1.049-4.686,1.609-3.221,1.177-6.786,2.014-10.514,2.987a123.558,123.558,0,0,1-49.773,1.3c-3.773-.777-7.378-1.428-10.657-2.435-1.645-.474-3.258-.847-4.763-1.36l-4.313-1.513c-2.778-.885-5.152-2.042-7.283-2.937-1.057-.467-2.055-.869-2.946-1.3l-2.4-1.257q-2.1-1.116-3.307-1.759l-.851-.472a.168.168,0,1,1,.034-.062l.883.412,3.36,1.641,2.419,1.2c.9.413,1.9.8,2.96,1.245,2.139.858,4.517,1.978,7.293,2.832l4.309,1.462c1.5.5,3.111.858,4.752,1.318,3.269.978,6.86,1.6,10.618,2.36a125.507,125.507,0,0,0,49.521-1.293c3.711-.95,7.265-1.763,10.479-2.911,1.615-.545,3.2-.987,4.677-1.563l4.227-1.686c2.728-1,5.045-2.239,7.136-3.208,1.035-.5,2.018-.94,2.892-1.4l2.353-1.325,3.27-1.814c.348-.185.631-.335.86-.458A1.19,1.19,0,0,1,311.388,393.646Z" transform="translate(-188.761 -393.645)"/></g><g transform="translate(75.905 111.525)"><path class="h" d="M323.24,182.006a1.59,1.59,0,0,1-.282.262c-.225.187-.511.422-.867.715l-3.379,2.7c-2.945,2.328-7.2,5.7-12.58,9.726a182.655,182.655,0,0,1-19.684,13.013,89.62,89.62,0,0,1-12.681,5.833,57.767,57.767,0,0,1-14.633,3.256,55.724,55.724,0,0,1-28.115-5.848,95.761,95.761,0,0,1-10.858-6.458c-3.232-2.28-6.182-4.486-8.791-6.6-5.241-4.2-9.346-7.763-12.2-10.2l-3.269-2.827-.84-.748a1.519,1.519,0,0,1-.27-.273,1.619,1.619,0,0,1,.315.218l.884.7,3.353,2.728c2.9,2.375,7.058,5.878,12.326,10.025,2.624,2.087,5.582,4.263,8.812,6.512a97.22,97.22,0,0,0,10.815,6.359,55.442,55.442,0,0,0,27.786,5.73,57.47,57.47,0,0,0,14.454-3.2,90.094,90.094,0,0,0,12.6-5.754,189.435,189.435,0,0,0,19.7-12.85c5.409-3.965,9.71-7.283,12.706-9.544l3.457-2.6.91-.66A1.661,1.661,0,0,1,323.24,182.006Z" transform="translate(-194.793 -182.005)"/></g><g class="j" transform="translate(84.998 398.36)"><path d="M201.664,403.113c6.27-4.842,15.081-3.668,22.835-2.039s15.563,4.281,23.409,3.183c5.913-.827,11.337-3.737,17.172-5s12.916-.33,16.151,4.689a125.714,125.714,0,0,1-79.567-.831" transform="translate(-201.664 -398.748)"/></g></g></g><g transform="translate(348.37 305.066)"><g transform="translate(0 81.6)"><g transform="translate(9.63)"><path class="k" d="M395.213,398.45l-28.5-31.912-.289,38.791L375,430.208,289.747,445l-3.615-67.268L280,326.067a14.028,14.028,0,0,1,8.79-14.707l23.461-9.24,33.045,6.062,13.293,5.053A36.449,36.449,0,0,1,373.07,323.31l40.015,45.76" transform="translate(-279.897 -302.12)"/><g transform="translate(84.817 36.899)"><path class="f" d="M343.987,349.89a45.129,45.129,0,0,0,4.815-.339,19.537,19.537,0,0,0,16.025-14.778,45.134,45.134,0,0,0,.727-4.771,4.2,4.2,0,0,1,.12,1.31,16.857,16.857,0,0,1-.372,3.57,19.1,19.1,0,0,1-16.43,15.15,16.861,16.861,0,0,1-3.589.083A4.17,4.17,0,0,1,343.987,349.89Z" transform="translate(-343.987 -330.002)"/></g><g transform="translate(86.628 41.537)"><path class="h" d="M346.038,393.527c.2,0,.25-13.44.115-30.012s-.408-30.009-.606-30.008-.251,13.436-.115,30.014S345.838,393.528,346.038,393.527Z" transform="translate(-345.355 -333.507)"/></g></g><g transform="translate(0 9.24)"><path class="k" d="M366.437,411.28l-51.514-20.738a11.773,11.773,0,0,1-7.341-10.023l-3.769-49.389s.446-21.006-12.674-22.028l-7.464,2.939c-9.647,5.123-12.036,19.168-10.723,30.012,1.866,15.407,2.643,37.212,4.731,50.585,1.708,10.938,7.973,20.56,18.68,23.379l63.449,13.735Z" transform="translate(-272.619 -309.102)"/></g><g transform="translate(31.918 38.802)"><path class="h" d="M296.751,331.44a7.118,7.118,0,0,1,.161,1.13q.123,1.207.331,3.254c.263,2.9.634,6.97,1.09,11.978.435,5.079.953,11.1,1.526,17.769q.212,2.509.433,5.137a38.535,38.535,0,0,0,.658,5.284,8.773,8.773,0,0,0,2.561,4.629,17.406,17.406,0,0,0,4.752,2.956c14.205,6.147,27.3,11.222,36.8,14.781l11.282,4.157,3.068,1.131a7.023,7.023,0,0,1,1.055.437,7.131,7.131,0,0,1-1.1-.306l-3.111-1.01c-2.7-.893-6.583-2.231-11.361-3.952-9.559-3.447-22.671-8.446-36.917-14.612a17.979,17.979,0,0,1-4.939-3.086,9.458,9.458,0,0,1-2.746-4.973,38.77,38.77,0,0,1-.656-5.38q-.208-2.628-.409-5.14c-.517-6.68-.985-12.7-1.38-17.786-.364-5.016-.66-9.1-.871-12q-.127-2.055-.2-3.265A6.9,6.9,0,0,1,296.751,331.44Z" transform="translate(-296.738 -331.44)"/></g><g transform="translate(2.38 65.651)"><path class="h" d="M274.455,351.728a2.521,2.521,0,0,1,.1.663l.171,1.906c.154,1.76.36,4.129.61,7.009.283,2.956.642,6.474,1.154,10.362a99.117,99.117,0,0,0,2.327,12.511,18.689,18.689,0,0,0,2.514,5.965,34.115,34.115,0,0,0,3.848,4.728,32.93,32.93,0,0,0,8.243,6.184,30.966,30.966,0,0,0,9.047,2.962,2.456,2.456,0,0,1-.67-.016,14.325,14.325,0,0,1-1.906-.245,25.2,25.2,0,0,1-6.694-2.267,32.3,32.3,0,0,1-8.474-6.174,34.079,34.079,0,0,1-3.956-4.8,19.149,19.149,0,0,1-2.619-6.159,93.077,93.077,0,0,1-2.291-12.613c-.48-3.907-.79-7.436-1.011-10.4s-.331-5.372-.393-7.034c-.016-.765-.029-1.4-.041-1.915A2.4,2.4,0,0,1,274.455,351.728Z" transform="translate(-274.418 -351.728)"/></g><g transform="translate(24.433 88.016)"><path class="h" d="M291.094,380.823a7.549,7.549,0,0,1,.938-2.746,17.717,17.717,0,0,1,10.451-8.925,7.6,7.6,0,0,1,2.859-.5c.021.115-1.06.331-2.7.957a20.043,20.043,0,0,0-10.182,8.7C291.586,379.827,291.205,380.861,291.094,380.823Z" transform="translate(-291.082 -368.628)"/></g><g transform="translate(34.577 11.621)"><path class="f" d="M298.747,361.931a1.317,1.317,0,0,1,.327.144l.922.484a31.942,31.942,0,0,0,3.676,1.558,29.086,29.086,0,0,0,14.437,1.233A28.514,28.514,0,0,0,336.057,354.2a23.675,23.675,0,0,0,4.7-11.67,15.907,15.907,0,0,0-.687-6.6,13.4,13.4,0,0,0-3.715-5.675,11.222,11.222,0,0,0-6.045-2.939,7.2,7.2,0,0,0-6.061,1.7,3.9,3.9,0,0,0-1.183,2.742,4.793,4.793,0,0,0,1,2.831,7.737,7.737,0,0,0,5.241,2.733,21.213,21.213,0,0,0,11.261-1.611,20.9,20.9,0,0,0,11.862-13.262,22.4,22.4,0,0,0,.979-6.2,23.411,23.411,0,0,0-.288-3.973c-.077-.417-.139-.754-.188-1.023a1.451,1.451,0,0,1-.045-.355,16.626,16.626,0,0,1,.79,5.352,22.057,22.057,0,0,1-.879,6.307,21.593,21.593,0,0,1-3.872,7.49,22.023,22.023,0,0,1-19.713,7.9,8.359,8.359,0,0,1-5.675-2.968,5.441,5.441,0,0,1-1.134-3.225,4.57,4.57,0,0,1,1.371-3.217,7.861,7.861,0,0,1,6.631-1.906,11.9,11.9,0,0,1,6.418,3.107,14.076,14.076,0,0,1,3.9,5.969,16.545,16.545,0,0,1,.708,6.884,24.24,24.24,0,0,1-4.861,11.985,28.457,28.457,0,0,1-32.987,9.792A20.951,20.951,0,0,1,298.747,361.931Z" transform="translate(-298.747 -310.901)"/></g><g transform="translate(0.831 41.83)"><path class="f" d="M273.25,341.376a4.623,4.623,0,0,1,.847-1.055,19.033,19.033,0,0,1,2.783-2.42,23.321,23.321,0,0,1,11.4-4.039,22.013,22.013,0,0,1,6.716.282,20.654,20.654,0,0,1,5.176,1.818,23.272,23.272,0,0,1,3.147,1.916,4.767,4.767,0,0,1,1.034.871c-.071.109-1.612-1.056-4.391-2.348a21.637,21.637,0,0,0-11.609-1.854,24.5,24.5,0,0,0-11.193,3.754C274.606,340,273.345,341.472,273.25,341.376Z" transform="translate(-273.247 -333.728)"/></g><g transform="translate(9.07 3.842)"><path class="f" d="M279.475,315.343a21.046,21.046,0,0,0,4.17,3.031,14.91,14.91,0,0,0,5.307,1.556,13.29,13.29,0,0,0,12-4.964,14.962,14.962,0,0,0,2.656-4.852,21.009,21.009,0,0,0,.807-5.091,4.466,4.466,0,0,1,.172,1.4,12.757,12.757,0,0,1-.513,3.829,14.706,14.706,0,0,1-2.627,5.108,13.561,13.561,0,0,1-12.56,5.2,14.643,14.643,0,0,1-5.467-1.757,12.682,12.682,0,0,1-3.07-2.346A4.469,4.469,0,0,1,279.475,315.343Z" transform="translate(-279.473 -305.023)"/></g><g transform="translate(53.956 75.762)"><path class="f" d="M313.4,378.981A5.121,5.121,0,0,1,313.5,378a10.751,10.751,0,0,1,.913-2.665,14.7,14.7,0,0,1,7.711-6.694c4.027-1.809,9.564-2.158,15.145-.543,2.722.81,5.849,1.809,7.893,4.469a4.784,4.784,0,0,1,.58,4.845,7.692,7.692,0,0,1-3.671,3.465,11.656,11.656,0,0,1-4.877,1.207,7.1,7.1,0,0,1-4.683-1.452,5.988,5.988,0,0,1-2.1-4.244,10.658,10.658,0,0,1,.7-4.464,20.026,20.026,0,0,1,10.618-10.747,20.827,20.827,0,0,1,10.133-1.74,14.326,14.326,0,0,1,3.7.779c-.021.089-1.311-.347-3.723-.512a21.213,21.213,0,0,0-9.912,1.918,20.718,20.718,0,0,0-5.782,3.923,18.553,18.553,0,0,0-4.44,6.6,10.054,10.054,0,0,0-.642,4.192,5.325,5.325,0,0,0,1.869,3.777,6.447,6.447,0,0,0,4.243,1.288,11.023,11.023,0,0,0,4.582-1.138,7.041,7.041,0,0,0,3.353-3.13,4.1,4.1,0,0,0-.5-4.169,9.554,9.554,0,0,0-3.446-2.735,24.7,24.7,0,0,0-4.071-1.518c-5.466-1.612-10.835-1.322-14.786.382a14.687,14.687,0,0,0-7.66,6.367A15.026,15.026,0,0,0,313.4,378.981Z" transform="translate(-313.391 -359.368)"/></g><g transform="translate(19.665 90.082)"><path class="f" d="M287.479,394.08c-.021-.131,1.964-.3,4.94-1.359a24.635,24.635,0,0,0,15.8-17.482c.756-3.068.723-5.058.855-5.05a4.821,4.821,0,0,1,.073,1.39,20.738,20.738,0,0,1-.453,3.77,23.764,23.764,0,0,1-16.122,17.834,20.928,20.928,0,0,1-3.705.83A4.819,4.819,0,0,1,287.479,394.08Z" transform="translate(-287.479 -370.189)"/></g><g transform="translate(2.97 72.215)"><path class="f" d="M274.864,360.053a2.416,2.416,0,0,1,.622-.249c.416-.136,1.032-.327,1.839-.531a22.183,22.183,0,0,1,7.017-.713,14.655,14.655,0,0,1,4.771,1.18,11,11,0,0,1,4.451,3.492,9.153,9.153,0,0,1,1.73,6.006,7.317,7.317,0,0,1-1.022,3.222,5.119,5.119,0,0,1-2.7,2.258,3.562,3.562,0,0,1-3.48-.688,4.647,4.647,0,0,1-1.2-3.211,13.736,13.736,0,0,1,1.214-6.127,13.392,13.392,0,0,1,7.514-7.129,13.632,13.632,0,0,1,7-.695,11.566,11.566,0,0,1,1.863.472,2.437,2.437,0,0,1,.614.27c-.02.068-.883-.275-2.514-.476a13.955,13.955,0,0,0-6.793.883,13.011,13.011,0,0,0-7.108,6.933,13.2,13.2,0,0,0-1.12,5.835,4.013,4.013,0,0,0,1,2.746,2.884,2.884,0,0,0,2.8.529,4.445,4.445,0,0,0,2.324-1.96,6.7,6.7,0,0,0,.933-2.918,8.557,8.557,0,0,0-1.573-5.579,10.507,10.507,0,0,0-4.17-3.343,14.419,14.419,0,0,0-4.578-1.215,23.77,23.77,0,0,0-6.916.49C275.765,359.867,274.879,360.106,274.864,360.053Z" transform="translate(-274.864 -356.688)"/></g><g class="l" transform="translate(33.609 53.485)"><path d="M343.42,394.58c-5.509-3.111-10.9-5.5-16.658-8.119s-11.4-5.978-15.17-11.058c-7.109-9.581-6.3-23.412-13.577-32.868l1.425,19.075c.435,5.828-.458,11.59,3.3,15.55,3.162,3.336,9.327,5.894,13.692,7.334,8.773,2.894,18.218,7.193,26.991,10.086" transform="translate(-298.016 -342.535)"/></g></g><g transform="translate(158.593 257.416)"><g transform="translate(0 2.303)"><path class="k" d="M402.39,436.713s43.1,11.93,44.831,12.539c2.6.913,2.16,10.427-1.881,10.279-1.911-.07-33.107,1.162-37.048.914s-15.834-4.932-15.834-4.932Z" transform="translate(-392.458 -436.713)"/></g><g transform="translate(27.8 10.139)"><path class="h" d="M413.551,451.245c.217.029.508-2.25,1.9-4.628,1.356-2.4,3.181-3.8,3.048-3.968-.075-.167-2.217,1.048-3.674,3.608C413.345,448.8,413.37,451.264,413.551,451.245Z" transform="translate(-413.465 -442.635)"/></g><g transform="translate(23.325 8.474)"><path class="h" d="M410.152,449.614c.21.037.647-2,1.794-4.252,1.126-2.264,2.5-3.827,2.348-3.975-.119-.142-1.8,1.268-2.992,3.651C410.1,447.41,409.966,449.6,410.152,449.614Z" transform="translate(-410.083 -441.377)"/></g><g transform="translate(18.892 6.985)"><path class="h" d="M407.019,448.849c.218-.013.052-2.166,1.008-4.554.916-2.4,2.5-3.874,2.348-4.031-.086-.164-2.019,1.169-3.02,3.769C406.328,446.621,406.844,448.911,407.019,448.849Z" transform="translate(-406.734 -440.251)"/></g><g transform="translate(16.524)"><path class="h" d="M408.362,444.988a7.611,7.611,0,0,0,.463-3.207,15.1,15.1,0,0,0-.437-3.515,14.685,14.685,0,0,0-.642-2,2.4,2.4,0,0,0-.691-1.056,1.147,1.147,0,0,0-1.48.073A1.9,1.9,0,0,0,405,436.5a8.35,8.35,0,0,0-.056,1.138,9.517,9.517,0,0,0,.266,2.111,12.8,12.8,0,0,0,1.326,3.3,8.68,8.68,0,0,0,1.936,2.594c.1-.069-.623-1.072-1.484-2.831a14.149,14.149,0,0,1-1.13-3.2,9.4,9.4,0,0,1-.208-1.969c.018-.663.009-1.49.4-1.809a.418.418,0,0,1,.569-.048,1.806,1.806,0,0,1,.472.753,15.954,15.954,0,0,1,.654,1.9,17.379,17.379,0,0,1,.57,3.365C408.442,443.751,408.246,444.971,408.362,444.988Z" transform="translate(-404.944 -434.973)"/></g><g transform="translate(11.264 9.129)"><path class="h" d="M409.595,442.32a6.021,6.021,0,0,0-2.78-.449,12.448,12.448,0,0,0-3.058.375,6.753,6.753,0,0,0-1.761.648,1.82,1.82,0,0,0-.974,1.971,2.156,2.156,0,0,0,1.554,1.538,3.942,3.942,0,0,0,1.933-.005,7.436,7.436,0,0,0,2.8-1.376,7.6,7.6,0,0,0,2-1.973,18.976,18.976,0,0,0-2.3,1.555,7.654,7.654,0,0,1-2.644,1.145,3.417,3.417,0,0,1-1.6-.023,1.462,1.462,0,0,1-1.049-1.024,1.113,1.113,0,0,1,.641-1.2,6.522,6.522,0,0,1,1.564-.61,14.456,14.456,0,0,1,2.9-.507C408.519,442.263,409.576,442.435,409.595,442.32Z" transform="translate(-400.97 -441.871)"/></g><g transform="translate(34.175 11.93)"><path class="h" d="M418.617,451.269c.213-.025,0-1.867.85-3.888.807-2.038,2.246-3.208,2.111-3.375-.071-.175-1.874.846-2.779,3.1C417.869,449.354,418.442,451.345,418.617,451.269Z" transform="translate(-418.282 -443.988)"/></g><g transform="translate(4.434 21.189)"><path class="h" d="M395.809,451a8.9,8.9,0,0,0,1.667.785,37.083,37.083,0,0,0,4.8,1.486,68.408,68.408,0,0,0,16.456,1.559c6.459-.07,12.28-.364,16.5-.533l5-.265a8.873,8.873,0,0,0,1.828-.2,9.127,9.127,0,0,0-1.837-.085l-5,.036-16.489.322a77.1,77.1,0,0,1-16.34-1.335C398.265,451.922,395.859,450.862,395.809,451Z" transform="translate(-395.809 -450.984)"/></g><g transform="translate(3.159 18.518)"><path class="h" d="M394.846,452.63c.058.1,1.237-.589,3.229-1.462a15.009,15.009,0,0,1,8.156-1.357c3.249.5,5.55,2.68,7.05,4.194a25.388,25.388,0,0,0,2.484,2.538,13.294,13.294,0,0,0-2.109-2.884,17.021,17.021,0,0,0-2.857-2.672,10.224,10.224,0,0,0-4.453-1.888,14.258,14.258,0,0,0-8.486,1.605A11.466,11.466,0,0,0,394.846,452.63Z" transform="translate(-394.845 -448.966)"/></g></g><g transform="translate(79.707 247.819)"><path class="k" d="M375.915,427.721s-40.787,26.7-42.249,27.81c-2.2,1.66.323,9.563,4.128,8.194,1.8-.647,36.025-10.168,39.706-11.6s13.589-9.509,13.589-9.509Z" transform="translate(-332.849 -427.721)"/><g transform="translate(23.629 14.401)"><path class="h" d="M358.029,445.324c.179-.037-.545-2.39-2.729-4.365-2.165-2-4.574-2.5-4.595-2.323-.077.205,2.087.982,4.108,2.855C356.862,443.335,357.832,445.418,358.029,445.324Z" transform="translate(-350.703 -438.603)"/></g><g transform="translate(28.167 11.214)"><path class="h" d="M360.582,442.8c.173-.067-.617-2.116-2.487-4.011s-3.888-2.741-3.958-2.57c-.1.188,1.683,1.26,3.444,3.074C359.358,441.088,360.393,442.9,360.582,442.8Z" transform="translate(-354.133 -436.195)"/></g><g transform="translate(32.482 8.272)"><path class="h" d="M363.2,441.161c.185.005-.019-2.333-1.783-4.488-1.743-2.173-3.989-2.856-4.022-2.673-.1.2,1.858,1.116,3.461,3.127C362.495,439.112,362.991,441.214,363.2,441.161Z" transform="translate(-357.393 -433.972)"/></g><g transform="translate(33.769 0.184)"><path class="h" d="M360.468,438.065c.107-.052-.451-1.155-.924-3.053a17.3,17.3,0,0,1-.479-3.38,15.649,15.649,0,0,1,.045-2.01,1.8,1.8,0,0,1,.221-.86.419.419,0,0,1,.558-.128c.465.187.708.978.926,1.6a9.47,9.47,0,0,1,.4,1.94,14.114,14.114,0,0,1-.1,3.4c-.286,1.936-.668,3.113-.553,3.148a8.722,8.722,0,0,0,1.056-3.061,12.806,12.806,0,0,0,.263-3.541,9.5,9.5,0,0,0-.388-2.091,8.345,8.345,0,0,0-.4-1.068,1.9,1.9,0,0,0-.918-.987,1.149,1.149,0,0,0-1.432.38,2.4,2.4,0,0,0-.337,1.216,14.848,14.848,0,0,0,0,2.1,15.136,15.136,0,0,0,.651,3.481A7.644,7.644,0,0,0,360.468,438.065Z" transform="translate(-358.366 -427.86)"/></g><g transform="translate(35.787 8.084)"><path class="h" d="M359.892,435.7c.052.1,1.007-.381,2.651-.781a14.44,14.44,0,0,1,2.921-.4,6.535,6.535,0,0,1,1.675.106,1.11,1.11,0,0,1,.975.951,1.462,1.462,0,0,1-.689,1.294,3.393,3.393,0,0,1-1.515.507,7.642,7.642,0,0,1-2.866-.287,19.128,19.128,0,0,0-2.66-.785,7.55,7.55,0,0,0,2.508,1.272,7.453,7.453,0,0,0,3.086.462,3.969,3.969,0,0,0,1.845-.582,2.153,2.153,0,0,0,1.011-1.937,1.816,1.816,0,0,0-1.526-1.581,6.72,6.72,0,0,0-1.875-.083,12.513,12.513,0,0,0-3.028.572A6.042,6.042,0,0,0,359.892,435.7Z" transform="translate(-359.891 -433.83)"/></g><g transform="translate(5.811 24.439)"><path class="h" d="M341.57,456.263c.046.064.687-.413,1-1.58a6.025,6.025,0,0,0-.764-4.427,16.037,16.037,0,0,0-1.367-2.035,7.455,7.455,0,0,0-1.384-1.486,2.407,2.407,0,0,0-1.3-.545c-.34-.015-.515.069-.509.111a3.821,3.821,0,0,1,1.484.823,9.2,9.2,0,0,1,1.176,1.488,23.215,23.215,0,0,1,1.272,1.992,6.316,6.316,0,0,1,.9,3.977C341.921,455.636,341.475,456.193,341.57,456.263Z" transform="translate(-337.24 -446.188)"/></g><g transform="translate(19.756 17.514)"><path class="h" d="M352.8,447.015c.189.02.132-2.051-1.436-3.908-1.547-1.874-3.574-2.3-3.589-2.111-.078.2,1.648.876,3.036,2.574C352.237,445.238,352.594,447.057,352.8,447.015Z" transform="translate(-347.777 -440.955)"/></g><g transform="translate(2.525 16.333)"><path class="h" d="M386.275,440.066a14.3,14.3,0,0,0-1.793,1.231,51.23,51.23,0,0,1-5.029,3.081,66.05,66.05,0,0,1-7.988,3.556c-3.087,1.151-6.552,2.238-10.215,3.3-7.338,2.113-13.98,4.044-18.774,5.487l-5.668,1.739a12.794,12.794,0,0,0-2.051.733,12.541,12.541,0,0,0,2.129-.463l5.73-1.519c4.83-1.317,11.49-3.17,18.836-5.284,3.67-1.064,7.149-2.176,10.25-3.371a60.031,60.031,0,0,0,8-3.731,40.149,40.149,0,0,0,4.951-3.3A11.36,11.36,0,0,0,386.275,440.066Z" transform="translate(-334.757 -440.063)"/></g><g transform="translate(36.802 15.736)"><path class="h" d="M379.412,440.761a11.443,11.443,0,0,0-3.457-.92,14.258,14.258,0,0,0-8.572,1.047,10.24,10.24,0,0,0-3.67,3.151,17.09,17.09,0,0,0-1.911,3.414,13.3,13.3,0,0,0-1.134,3.388,25.39,25.39,0,0,0,1.6-3.172c.969-1.9,2.5-4.677,5.443-6.137a15.019,15.019,0,0,1,8.182-1.186C378.053,440.574,379.387,440.873,379.412,440.761Z" transform="translate(-360.658 -439.612)"/></g></g><g transform="translate(91.489 180.502)"><path class="h" d="M457.8,379.041s12.235,4.37,12.286,18.089c.1,26.281-53.1,55.25-53.1,55.25l-70.793-46.909-4.437-1.795S437.318,367.779,457.8,379.041Z" transform="translate(-341.752 -376.854)"/><g transform="translate(40.297 15.462)"><path class="m" d="M372.2,425.387a13.067,13.067,0,0,0,1.844-1.251c1.161-.84,2.816-2.088,4.842-3.657,4.054-3.132,9.568-7.572,15.5-12.665s11.156-9.876,14.866-13.409c1.855-1.767,3.34-3.215,4.346-4.234a13.2,13.2,0,0,0,1.515-1.633,13.259,13.259,0,0,0-1.709,1.429l-4.5,4.063c-3.8,3.434-9.065,8.147-14.989,13.237s-11.38,9.58-15.349,12.813c-1.908,1.556-3.49,2.848-4.7,3.834A13.178,13.178,0,0,0,372.2,425.387Z" transform="translate(-372.202 -388.538)"/></g><g transform="translate(83.168 11.832)"><path class="m" d="M417.488,385.974c.026-.176-3.133-.486-6.822.619-3.7,1.077-6.184,3.05-6.065,3.184.116.188,2.7-1.457,6.269-2.492C414.43,386.216,417.491,386.195,417.488,385.974Z" transform="translate(-404.597 -385.795)"/></g><g transform="translate(83.527 7.85)"><path class="m" d="M411.3,382.8c-.064-.171-2.333.827-4.2,3.156-1.885,2.315-2.382,4.743-2.2,4.768.206.071.979-2.133,2.763-4.314C409.422,384.213,411.415,382.991,411.3,382.8Z" transform="translate(-404.868 -382.786)"/></g><g transform="translate(115.982 91.008)"><path class="h" d="M433.348,445.7c.037-.082-.844-.253-1.825.553a6.624,6.624,0,0,0-2.046,4.109,8.067,8.067,0,0,0,.646,4.531c.5,1.076,1.052,1.58,1.113,1.53.1-.068-.29-.664-.641-1.719a9.191,9.191,0,0,1-.4-4.24,7.1,7.1,0,0,1,1.674-3.833C432.616,445.843,433.362,445.812,433.348,445.7Z" transform="translate(-429.392 -445.623)"/></g></g><g transform="translate(55.459 139.756)"><path class="m" d="M450.318,346.065,425.1,409.981,316.536,411.75l-2.01-5.873,38.049-1.38,18.287-56.7Z" transform="translate(-314.526 -346.065)"/><g transform="translate(83.09 27.135)"><path class="d" d="M379.312,367.1a4.823,4.823,0,0,1,5.221.557,4.221,4.221,0,0,1,1.023,4.625,4.574,4.574,0,0,1-3.922,2.739,4.122,4.122,0,0,1-4.146-2.738c-.5-1.716.056-4.279,1.825-5.184" transform="translate(-377.312 -366.569)"/></g></g><g transform="translate(17.829 186.463)"><path class="h" d="M441.687,454.117s-100.024-65.61-104.12-66.974-13.994-7.85-23.891-5.12-18.772,11.6-23.21,24.574c-2.534,7.41-3.732,20.053-4.293,29.533a43.811,43.811,0,0,0,10.252,31.24c3.375,3.913,7.535,7.318,12.472,8.855,1.042.324,2.123.6,3.233.844,18.911,4.1,38.347-4.39,48.971-20.562l2.334-3.552s65.432,24.038,66.455,23.7Z" transform="translate(-286.092 -381.358)"/><g transform="translate(31.849 4.369)"><path class="m" d="M310.158,434.99s.181.093.548.242l1.637.65,6.342,2.442,23.567,8.877c10.01,3.735,22,8.176,35.454,13.071s28.366,10.26,44.289,15.652l.29.1.142-.273,7.815-14.923,3.983-7.611.154-.294-.278-.176-76.3-48.433-22.918-14.457-6.225-3.884c-.695-.425-1.233-.756-1.625-.994-.368-.221-.565-.318-.565-.318s.172.138.528.377l1.588,1.052,6.155,4,22.8,14.645,76.172,48.621-.123-.468c-1.265,2.415-2.62,5-3.985,7.609l-7.809,14.926.43-.173c-15.915-5.377-30.832-10.721-44.3-15.571-13.444-4.894-25.455-9.265-35.505-12.922l-23.641-8.674-6.385-2.323-1.661-.588C310.355,435.039,310.158,434.99,310.158,434.99Z" transform="translate(-310.158 -384.66)"/></g></g><g transform="translate(37.556)"><g transform="translate(4.295)"><path class="h" d="M322.451,248.634c1.7-4.611,5.475-6.613,10.252-7.77a15.332,15.332,0,0,1,13.718,3.535c2.424,2.221,4.2,5.29,7.2,6.647,4.931,2.235,11.249-1.031,15.923,1.7a6.984,6.984,0,0,1-4.5,12.944c3.213,1.518,3.813,6.354,1.6,9.134s-6.3,3.532-9.722,2.566-6.257-3.355-8.674-5.961-4.529-5.5-7.144-7.9-5.877-4.343-9.428-4.476c-4.807-.179-9.241,3.052-11.765,7.146s-3.465,8.95-4.169,13.708-1.232,9.613-3.068,14.06c-.216.523-.524,1.1-1.076,1.216-.8.168-1.384-.717-1.7-1.468a70.617,70.617,0,0,1-5.642-26.871c-.057-5.349.543-10.357,3.864-14.549s10.984-6.806,14.34-3.66" transform="translate(-304.243 -240.46)"/></g><g transform="translate(3.719 6.301)"><path class="n" d="M311.313,268.445l-7.353,53.435a16.046,16.046,0,0,0,14.5,18.171h0a16.053,16.053,0,0,0,17.3-13.823c.549-4.022,1.016-7.375,1.1-7.786,0,0,13.779.592,16.614-12.736,1.37-6.441,3.111-19.937,4.544-32.165a25.378,25.378,0,0,0-20.245-27.831l-1.289-.258C322.414,243.487,312.888,254.332,311.313,268.445Z" transform="translate(-303.808 -245.222)"/><g transform="translate(16.676 64.602)"><path class="o" d="M332.839,302.468a31.687,31.687,0,0,1-16.43-8.431s2.2,10.439,15.77,11.9Z" transform="translate(-316.409 -294.037)"/></g><g transform="translate(22.24 20.215)"><g transform="translate(0 7.584)"><g transform="translate(20.26 3.65)"><g transform="translate(2.152 2.907)"><path class="h" d="M341.42,273.318a1.946,1.946,0,0,1-2.225,1.558,1.86,1.86,0,0,1-1.622-2.113,1.945,1.945,0,0,1,2.222-1.559A1.863,1.863,0,0,1,341.42,273.318Z" transform="translate(-337.549 -271.182)"/></g><path class="h" d="M343.445,271.841c-.286.2-1.518-1.157-3.572-1.562-2.046-.434-3.765.322-3.937.025-.087-.134.243-.535,1-.881a5.341,5.341,0,0,1,3.213-.327,5.125,5.125,0,0,1,2.782,1.554C343.461,271.26,343.584,271.752,343.445,271.841Z" transform="translate(-335.923 -268.986)"/></g><g transform="translate(2.134 3.23)"><path class="h" d="M326.1,270.805a1.946,1.946,0,0,1-2.225,1.556,1.861,1.861,0,0,1-1.624-2.113,1.949,1.949,0,0,1,2.223-1.559A1.864,1.864,0,0,1,326.1,270.805Z" transform="translate(-322.226 -268.668)"/></g><path class="h" d="M328.138,269.083c-.287.2-1.521-1.157-3.573-1.562-2.046-.434-3.765.322-3.937.025-.087-.134.241-.535,1-.88a5.35,5.35,0,0,1,3.213-.33,5.135,5.135,0,0,1,2.782,1.555C328.15,268.5,328.275,269,328.138,269.083Z" transform="translate(-320.614 -266.228)"/><g transform="translate(11.932 2.276)"><path class="h" d="M329.63,285.242a13.96,13.96,0,0,1,3.455.065c.536.052,1.052.046,1.212-.294a2.72,2.72,0,0,0-.04-1.625q-.359-2.051-.753-4.3c-1.018-6.115-1.642-11.1-1.395-11.139s1.272,4.886,2.288,11q.357,2.257.683,4.313a3.094,3.094,0,0,1-.139,2.112,1.337,1.337,0,0,1-1.015.594,3.584,3.584,0,0,1-.916-.054A13.549,13.549,0,0,1,329.63,285.242Z" transform="translate(-329.63 -267.948)"/></g><g transform="translate(4.973 19.781)"><path class="h" d="M325,281.178c.337.048-.1,2.278,1.489,4.24s4.012,2.193,3.967,2.507c0,.147-.615.328-1.624.155a5.664,5.664,0,0,1-3.338-1.967,4.926,4.926,0,0,1-1.105-3.527C324.5,281.637,324.855,281.135,325,281.178Z" transform="translate(-324.371 -281.175)"/></g></g><g transform="translate(0.105)"><path class="h" d="M330.249,263c-.314.517-2.311-.156-4.777-.348-2.464-.24-4.547.077-4.767-.487-.094-.269.349-.727,1.243-1.109a8.321,8.321,0,0,1,7.271.637C330.032,262.22,330.39,262.748,330.249,263Z" transform="translate(-320.693 -260.497)"/></g><g transform="translate(21.292 5.05)"><path class="h" d="M343.626,267.259c-.454.394-1.772-.373-3.469-.736-1.683-.422-3.2-.314-3.437-.868-.1-.266.221-.688.94-1a5.132,5.132,0,0,1,5.564,1.292C343.729,266.543,343.831,267.063,343.626,267.259Z" transform="translate(-336.703 -264.313)"/></g></g></g><g transform="translate(0 38.456)"><path class="n" d="M311.335,270.7c-.208-.143-8.638-4.548-10.17,4.644s8.012,8.836,8.071,8.576S311.335,270.7,311.335,270.7Z" transform="translate(-300.998 -269.519)"/><g transform="translate(2.404 2.863)"><path class="o" d="M306.421,279.266c-.034-.036-.179.086-.47.164a1.624,1.624,0,0,1-1.2-.175c-.911-.519-1.472-2.2-1.24-3.86a5.369,5.369,0,0,1,.831-2.219,1.877,1.877,0,0,1,1.409-1.028.828.828,0,0,1,.872.6c.079.278-.009.451.037.475.022.028.224-.12.212-.512a1.026,1.026,0,0,0-.265-.637,1.223,1.223,0,0,0-.847-.383,2.284,2.284,0,0,0-1.911,1.146,5.511,5.511,0,0,0-.982,2.471c-.25,1.862.409,3.753,1.674,4.359a1.737,1.737,0,0,0,1.5,0C306.369,279.486,306.451,279.289,306.421,279.266Z" transform="translate(-302.814 -271.683)"/></g></g><g transform="translate(9.274 4.427)"><path class="h" d="M360.038,271.79a19.681,19.681,0,0,1-16.372-7.287c-2.7-3.406-4.416-7.869-8.238-9.936a11.067,11.067,0,0,0-8.527-.523,21.383,21.383,0,0,0-7.447,4.526c1.225,7.305-2.023,14.539-5.19,21.236a3.7,3.7,0,0,1-1.483,1.9c-1.247.614-2.735-.359-3.481-1.532-1.192-1.879-1.331-4.226-1.288-6.45a38.309,38.309,0,0,1,3.049-14.8,26.089,26.089,0,0,1,9.609-11.508,24.72,24.72,0,0,1,18.284-3.028,30.357,30.357,0,0,1,16.028,9.621,17.783,17.783,0,0,1,4.318,7.583" transform="translate(-308.006 -243.806)"/></g></g></g><g transform="translate(38.38 329.462)"><g transform="translate(16.154)"><path class="h" d="M72.917,482.487a3.372,3.372,0,0,1,.232-.558l.75-1.6a40.346,40.346,0,0,0,2.2-6.4c1.457-5.691,1.967-14.387-.188-24.716a132.86,132.86,0,0,0-4.584-16.6c-1.941-5.892-4.194-12.143-6.035-18.9a73.121,73.121,0,0,1-2.979-21.73c.279-7.688,2.554-15.359,5.057-23s5.08-15.128,5.855-22.648a34.518,34.518,0,0,0-4.153-20.916c-3.312-6.1-7.48-11.322-10.6-16.729a58.118,58.118,0,0,1-6.371-16.083,59.9,59.9,0,0,1-.4-24.915,46.368,46.368,0,0,1,2.6-8.8,3.421,3.421,0,0,1-.154.584c-.131.417-.3.975-.527,1.687a64.022,64.022,0,0,0-1.616,6.586,60.668,60.668,0,0,0,.646,24.729,57.977,57.977,0,0,0,6.392,15.879c3.113,5.343,7.3,10.539,10.676,16.714A35.205,35.205,0,0,1,74,346.416c-.778,7.649-3.381,15.175-5.872,22.815s-4.752,15.223-5.035,22.781A72.728,72.728,0,0,0,66,413.522c1.81,6.724,4.036,12.977,5.953,18.885a130.98,130.98,0,0,1,4.51,16.7c2.1,10.406,1.5,19.189-.064,24.9a36.993,36.993,0,0,1-2.358,6.391l-.823,1.57A3.419,3.419,0,0,1,72.917,482.487Z" transform="translate(-50.586 -258.895)"/></g><g transform="translate(26.52 22.798)"><path class="p" d="M60.179,308.456s-6.332-20.253,5.028-32.112a.7.7,0,0,1,1.2.348C67.017,280.037,67.775,290.224,60.179,308.456Z" transform="translate(-58.419 -276.122)"/><g transform="translate(1.531 6.971)"><path class="h" d="M63.6,281.39a18.675,18.675,0,0,1-.427,3.736c-.416,2.574-.905,5.6-1.445,8.933s-1.008,6.359-1.417,8.932a20.279,20.279,0,0,1-.671,3.7,15.77,15.77,0,0,1,.114-3.765c.209-2.313.618-5.5,1.192-8.992s1.18-6.641,1.675-8.908A16.777,16.777,0,0,1,63.6,281.39Z" transform="translate(-59.576 -281.39)"/></g></g><g transform="translate(35.596 76.829)"><g transform="translate(0.124)"><path class="p" d="M65.371,343.02s3.874-20.863,19.46-26.032a.7.7,0,0,1,.9.871C84.706,321.1,80.611,330.457,65.371,343.02Z" transform="translate(-65.371 -316.95)"/></g><g transform="translate(0 5.423)"><path class="h" d="M80.616,321.051a18.721,18.721,0,0,1-2.124,3.1c-1.572,2.079-3.417,4.522-5.455,7.219s-3.866,5.149-5.431,7.232a20.318,20.318,0,0,1-2.321,2.954,15.8,15.8,0,0,1,1.861-3.274c1.268-1.947,3.117-4.571,5.259-7.391s4.149-5.317,5.648-7.089A16.849,16.849,0,0,1,80.616,321.051Z" transform="translate(-65.278 -321.048)"/></g></g><g transform="translate(31.339 124.544)"><g transform="translate(0.01)"><path class="p" d="M62.227,383.7s-2.353-21.09,11.062-30.562a.7.7,0,0,1,1.114.572C74.361,357.108,73.162,367.253,62.227,383.7Z" transform="translate(-62.068 -353.004)"/></g><g transform="translate(0 6.521)"><path class="h" d="M70.793,357.933a18.6,18.6,0,0,1-1.131,3.586c-.9,2.447-1.956,5.32-3.123,8.492l-3.1,8.5a20.538,20.538,0,0,1-1.363,3.5,15.616,15.616,0,0,1,.83-3.674c.647-2.231,1.654-5.279,2.885-8.6s2.426-6.294,3.344-8.425A16.876,16.876,0,0,1,70.793,357.933Z" transform="translate(-62.06 -357.932)"/></g></g><g transform="translate(43.086 177.62)"><g transform="translate(0.107)"><path class="p" d="M71.075,423.376s-1.6-21.16,12.149-30.146a.7.7,0,0,1,1.094.61C84.154,397.235,82.591,407.33,71.075,423.376Z" transform="translate(-71.018 -393.111)"/></g><g transform="translate(0 6.413)"><path class="h" d="M80.525,397.958a18.7,18.7,0,0,1-1.26,3.543l-3.425,8.376c-1.269,3.132-2.419,5.967-3.4,8.382a20.256,20.256,0,0,1-1.487,3.449,15.649,15.649,0,0,1,.961-3.641c.727-2.207,1.842-5.217,3.191-8.491s2.651-6.2,3.645-8.3A16.788,16.788,0,0,1,80.525,397.958Z" transform="translate(-70.937 -397.957)"/></g></g><g transform="translate(0 10.366)"><path class="p" d="M57.559,293.7s-18.809-9.824-19.179-26.242a.7.7,0,0,1,1.1-.606C42.272,268.785,50.019,275.445,57.559,293.7Z" transform="translate(-38.38 -266.728)"/><g transform="translate(3.898 6.369)"><path class="h" d="M41.333,271.543a18.636,18.636,0,0,1,2.344,2.941c1.527,2.113,3.322,4.593,5.3,7.333s3.788,5.206,5.321,7.313a20.406,20.406,0,0,1,2.143,3.086,15.719,15.719,0,0,1-2.585-2.739c-1.49-1.783-3.455-4.321-5.524-7.2s-3.866-5.528-5.12-7.478A16.885,16.885,0,0,1,41.333,271.543Z" transform="translate(-41.325 -271.54)"/></g></g><g transform="translate(18.636 55.031)"><path class="p" d="M73.2,326.28s-19.372-8.663-20.738-25.028a.7.7,0,0,1,1.059-.672C56.431,302.34,64.567,308.516,73.2,326.28Z" transform="translate(-52.462 -300.478)"/><g transform="translate(4.238 6.164)"><path class="h" d="M55.671,305.139a18.585,18.585,0,0,1,2.518,2.792c1.653,2.017,3.593,4.383,5.737,7l5.755,6.977a20.409,20.409,0,0,1,2.327,2.95,15.661,15.661,0,0,1-2.746-2.577c-1.595-1.689-3.711-4.1-5.95-6.847s-4.2-5.282-5.566-7.154A16.9,16.9,0,0,1,55.671,305.139Z" transform="translate(-55.664 -305.136)"/></g></g><g transform="translate(19.503 97.177)"><path class="p" d="M61.844,364.5s-13.3-16.534-7.062-31.726a.7.7,0,0,1,1.248-.116C57.818,335.546,62.247,344.75,61.844,364.5Z" transform="translate(-53.117 -332.326)"/><g transform="translate(2.952 7.177)"><path class="h" d="M55.38,337.749a18.629,18.629,0,0,1,.97,3.634c.553,2.548,1.2,5.538,1.922,8.843s1.386,6.287,1.945,8.832a20.39,20.39,0,0,1,.728,3.686,15.706,15.706,0,0,1-1.27-3.545c-.651-2.231-1.436-5.342-2.18-8.806s-1.329-6.613-1.7-8.9A16.989,16.989,0,0,1,55.38,337.749Z" transform="translate(-55.347 -337.749)"/></g></g><g transform="translate(21.089 160.306)"><path class="p" d="M74.63,406.164s-19.222-8.987-20.313-25.373a.7.7,0,0,1,1.069-.654C58.265,381.944,66.3,388.257,74.63,406.164Z" transform="translate(-54.316 -380.028)"/><g transform="translate(4.145 6.222)"><path class="h" d="M57.455,384.733a18.63,18.63,0,0,1,2.471,2.835c1.618,2.045,3.519,4.443,5.619,7.093s4.014,5.034,5.638,7.072a20.374,20.374,0,0,1,2.276,2.988,15.731,15.731,0,0,1-2.7-2.623c-1.567-1.715-3.642-4.165-5.833-6.946s-4.106-5.35-5.446-7.246A16.914,16.914,0,0,1,57.455,384.733Z" transform="translate(-57.448 -384.73)"/></g></g><g transform="translate(36.699 98.186)"><g transform="translate(6.288 4.827)"><path class="h" d="M107.569,336.735a1.518,1.518,0,0,1,.024.467c-.009.369-.02.815-.033,1.356-.057,1.274-.132,3-.228,5.145-.247,4.523-.593,10.829-1.007,18.374v.018l-.005.025c-1.372,7.678-5.282,16.189-10.535,24.452-3.854,6.086-7.891,11.621-11.376,16.767a119.02,119.02,0,0,0-8.528,14.1,59.763,59.763,0,0,0-3.99,10.346c-.339,1.268-.593,2.256-.738,2.933a5.2,5.2,0,0,1-.282,1.022,5.4,5.4,0,0,1,.124-1.052c.1-.689.3-1.693.6-2.98A54.563,54.563,0,0,1,75.375,417.2,112.537,112.537,0,0,1,83.8,402.932c3.461-5.182,7.477-10.726,11.311-16.782,5.225-8.222,9.116-16.6,10.538-24.158l-.005.044c.529-7.537.973-13.837,1.29-18.357.173-2.144.312-3.862.416-5.133.054-.539.1-.982.135-1.35A1.626,1.626,0,0,1,107.569,336.735Z" transform="translate(-70.862 -336.735)"/></g><g transform="translate(27.287 20.381)"><path class="p" d="M90.992,381.194s8.141-19.6-2.1-32.435a.7.7,0,0,0-1.231.238C86.755,352.273,85.077,362.349,90.992,381.194Z" transform="translate(-86.729 -348.488)"/><g transform="translate(2.721 7.103)"><path class="h" d="M88.844,353.856a16.99,16.99,0,0,1,.646,3.708c.287,2.3.61,5.491.863,9.022s.373,6.74.372,9.064a15.615,15.615,0,0,1-.228,3.76,20.425,20.425,0,0,1-.333-3.743c-.173-2.6-.377-5.651-.6-9.024s-.449-6.426-.63-9.027A18.515,18.515,0,0,1,88.844,353.856Z" transform="translate(-88.785 -353.856)"/></g><g class="l"><path d="M90.992,381.194s8.141-19.6-2.1-32.435a.7.7,0,0,0-1.231.238C86.755,352.273,85.077,362.349,90.992,381.194Z" transform="translate(-86.729 -348.488)"/></g></g><g transform="translate(0 67.924)"><path class="p" d="M72.444,416.8s6.526-20.192-4.722-32.157a.7.7,0,0,0-1.207.336C65.876,388.317,65.021,398.5,72.444,416.8Z" transform="translate(-66.111 -384.414)"/><g transform="translate(2.747 6.988)"><path class="h" d="M68.219,389.694a16.861,16.861,0,0,1,.944,3.642c.474,2.272,1.055,5.425,1.592,8.924s.918,6.687,1.106,9a15.714,15.714,0,0,1,.078,3.765,20.3,20.3,0,0,1-.637-3.7c-.384-2.577-.834-5.6-1.333-8.945s-.967-6.368-1.359-8.946A18.62,18.62,0,0,1,68.219,389.694Z" transform="translate(-68.187 -389.694)"/></g><g class="l"><path d="M72.444,416.8s6.526-20.192-4.722-32.157a.7.7,0,0,0-1.207.336C65.876,388.317,65.021,398.5,72.444,416.8Z" transform="translate(-66.111 -384.414)"/></g></g><g transform="translate(41.918)"><path class="p" d="M97.785,362.225s17.383-12.169,15.629-28.5a.7.7,0,0,0-1.166-.461C109.726,335.546,102.9,343.15,97.785,362.225Z" transform="translate(-97.785 -333.088)"/><g class="l"><path d="M97.785,362.225s17.383-12.169,15.629-28.5a.7.7,0,0,0-1.166-.461C109.726,335.546,102.9,343.15,97.785,362.225Z" transform="translate(-97.785 -333.088)"/></g><g transform="translate(0.161 6.735)"><path class="h" d="M110.229,338.178a16.767,16.767,0,0,1-1.444,3.475c-.993,2.1-2.431,4.963-4.113,8.078s-3.3,5.888-4.547,7.848a15.638,15.638,0,0,1-2.21,3.05,20.45,20.45,0,0,1,1.727-3.336l4.333-7.939,4.31-7.956A18.776,18.776,0,0,1,110.229,338.178Z" transform="translate(-97.906 -338.177)"/></g></g><g transform="translate(13.343 60.636)"><path class="p" d="M76.193,398.562s20.966-3.27,26.583-18.7a.7.7,0,0,0-.844-.926C98.664,379.868,89.19,383.69,76.193,398.562Z" transform="translate(-76.193 -378.907)"/><g class="l"><path d="M76.193,398.562s20.966-3.27,26.583-18.7a.7.7,0,0,0-.844-.926C98.664,379.868,89.19,383.69,76.193,398.562Z" transform="translate(-76.193 -378.907)"/></g><g transform="translate(0.129 5.036)"><path class="h" d="M97.236,382.719a16.923,16.923,0,0,1-2.828,2.484c-1.814,1.445-4.367,3.383-7.25,5.44s-5.557,3.831-7.539,5.042a15.629,15.629,0,0,1-3.327,1.765,20.407,20.407,0,0,1,3.02-2.235L86.7,390l7.374-5.243A18.584,18.584,0,0,1,97.236,382.719Z" transform="translate(-76.29 -382.712)"/></g></g></g><g transform="translate(23.924 217.062)"><path class="m" d="M62.574,422.915l-6.116,41.164H94.572l-4.941-41.164Z" transform="translate(-56.458 -422.915)"/></g><g transform="translate(27.881 229.421)"><path class="h" d="M90.188,432.65c0,.22-6.882.4-15.37.4s-15.37-.177-15.37-.4,6.88-.4,15.37-.4S90.188,432.431,90.188,432.65Z" transform="translate(-59.448 -432.254)"/></g><g transform="translate(27.63 232.697)"><path class="h" d="M91,435.125c0,.22-7.108.4-15.873.4s-15.874-.177-15.874-.4,7.105-.4,15.874-.4S91,434.906,91,435.125Z" transform="translate(-59.258 -434.729)"/></g></g></g></g></svg>