<svg xmlns="http://www.w3.org/2000/svg" width="796.609" height="497.922" viewBox="0 0 796.609 497.922"><defs><style>.a{fill:#f0f0f0;}.b{fill:#e0e0e0;}.c,.f{fill:#ffcd05;}.d{fill:#fafafa;}.e{opacity:0.8;}.f,.m{fill-rule:evenodd;}.g{fill:#263238;}.h,.m{fill:#fff;}.i,.s{opacity:0.3;}.j{fill:#e8505b;}.k{fill:#00a0d1;}.l{fill:#173761;}.n,.u{opacity:0.4;}.o{fill:#ffbe9d;}.p{fill:#eb996e;}.q{fill:#455a64;}.r{fill:#266ab4;}.t{opacity:0.2;}</style></defs><g transform="translate(-973 -1923)"><path class="a" d="M-798.9,96.451c114.576-42.535,231.027-4.929,310.007,76.975s244.729-56.532,332.634,25.241c59.992,55.8,32.513,199.283-49.745,261.426-111.808,84.468-451.831,41.607-525.384,27.233-84.738-16.561-146.689-66.807-171.859-127.791C-963.895,212.593-849.534,115.249-798.9,96.451Z" transform="translate(1893.545 1892.218)"/><g transform="translate(1063.145 1870.321)"><g transform="translate(135.509 52.679)"><g transform="translate(366.839 84.905)"><g transform="translate(14.694 14.456)"><path class="b" d="M426.436,132.228a5.993,5.993,0,0,1,1.878.588,7.9,7.9,0,0,1,3.742,3.786,8.013,8.013,0,0,1,.763,3.658,8.116,8.116,0,0,1-1.258,4.1,8.136,8.136,0,0,1-3.592,3.087,8.1,8.1,0,0,1-9.419-2.112,8.147,8.147,0,0,1-1.93-4.326,8.135,8.135,0,0,1,.614-4.245,8,8,0,0,1,2.253-2.982,7.9,7.9,0,0,1,5-1.826,5.987,5.987,0,0,1,1.948.271c-.009.055-.694-.138-1.944-.094a7.918,7.918,0,0,0-4.8,1.9,7.758,7.758,0,0,0-2.658,6.927,7.748,7.748,0,0,0,1.851,4.086,7.694,7.694,0,0,0,8.9,2,7.77,7.77,0,0,0,3.418-2.9,7.757,7.757,0,0,0,.555-7.4,7.914,7.914,0,0,0-3.528-3.764C427.124,132.4,426.419,132.282,426.436,132.228Z" transform="translate(-416.552 -131.957)"/></g><path class="b" d="M435.775,126.649a1.584,1.584,0,0,1-.018-.278c-.005-.208-.011-.486-.02-.847-.01-.776-.026-1.895-.046-3.348l.058.071-7.233-1.578.13-.064-1.9,4.048-.034.073-.081,0a18.091,18.091,0,0,0-4.715.836l-.086.028-.065-.064-3.18-3.148.2.023-6.244,3.976.073-.212c.467,1.3.983,2.741,1.509,4.212l.039.108-.078.084a17.984,17.984,0,0,0-2.744,3.908l-.055.107h-.119l-4.472.016.2-.159c-.505,2.27-1.052,4.717-1.611,7.225l-.117-.238,4.042,1.915.118.056.006.132a18.047,18.047,0,0,0,.821,4.7l.04.127-.094.1-3.156,3.172.03-.277,3.965,6.253-.268-.093,4.216-1.5.13-.046.1.094a17.963,17.963,0,0,0,3.893,2.742h0c.055.09-.122-.2.124.2v2.243c0,.746,0,1.49.005,2.23l-.178-.222,7.224,1.622-.253.124,1.92-4.039.058-.123.135-.005a17.9,17.9,0,0,0,4.7-.815l.128-.04.094.094,3.168,3.16-.27-.029,6.257-3.955-.085.247q-.761-2.147-1.5-4.217l-.041-.117.084-.09a17.914,17.914,0,0,0,2.755-3.9l.056-.107h.119l4.472,0-.184.149c.575-2.54,1.118-4.938,1.636-7.22l.1.2-4.036-1.929-.09-.043,0-.1a18.049,18.049,0,0,0-.807-4.716l-.028-.086.064-.064,3.168-3.16-.019.167-3.934-6.27.12.041-4.225,1.473-.043.015-.031-.03a18.734,18.734,0,0,0-2.873-2.212l-.77-.464a1.946,1.946,0,0,1-.253-.157,2.374,2.374,0,0,1,.272.123c.177.09.444.228.79.432a17.576,17.576,0,0,1,2.933,2.169l-.074-.015c1.148-.416,2.525-.917,4.2-1.528l.076-.028.045.069,3.989,6.236.058.09-.076.078c-.973.984-2,2.024-3.146,3.181l.036-.15a18.336,18.336,0,0,1,.849,4.793l-.093-.142,4.044,1.91.127.059-.031.137c-.508,2.285-1.04,4.684-1.605,7.227l-.033.147h-.153l-4.472.018.174-.107a18.315,18.315,0,0,1-2.8,3.993l.043-.207q.741,2.07,1.506,4.214l.056.158-.142.089-6.249,3.968-.147.093-.123-.122-3.173-3.155.222.054a18.343,18.343,0,0,1-4.813.84l.193-.127q-.949,2-1.916,4.041l-.078.163-.175-.039q-3.561-.8-7.224-1.618l-.178-.04v-.182l-.005-2.23,0-1.122V159c.246.4.068.112.122.2h0a18.364,18.364,0,0,1-3.991-2.812l.231.048-4.216,1.5-.17.061-.1-.153c-1.361-2.152-2.7-4.275-3.959-6.255l-.1-.15.127-.127,3.16-3.168-.054.222a18.468,18.468,0,0,1-.835-4.813l.124.187c-1.4-.665-2.781-1.324-4.038-1.923l-.153-.073.038-.165,1.628-7.222.036-.158h.162l4.472,0-.173.107a18.3,18.3,0,0,1,2.816-3.983l-.04.19c-.521-1.474-1.03-2.913-1.491-4.219l-.049-.135.122-.076,6.262-3.947.11-.07.091.093,3.162,3.166-.15-.036a18.3,18.3,0,0,1,4.794-.82l-.115.076,1.935-4.032.04-.084.089.021,7.214,1.662.058.013v.058c-.013,1.44-.023,2.548-.03,3.318-.006.366-.013.648-.016.859A2.378,2.378,0,0,1,435.775,126.649Z" transform="translate(-404.828 -120.423)"/></g><g transform="translate(310.794 376.377)"><path class="c" d="M490.894,428.762s-.015-.47-.023-1.365-.013-2.226-.023-3.955c-.013-3.474-.03-8.571-.051-15.115-.026-13.08-.064-31.931-.11-55.076l.207.206-130.506.061h-.01l.267-.267c-.006,26.724-.013,52.26-.019,75.511l-.248-.248,93.871.12,26.959.068,7.188.03,1.859.015c.419.005.64.015.64.015s-.2.01-.61.015l-1.831.015-7.138.03-26.9.068-94.036.12h-.248v-.249c-.005-23.251-.013-48.787-.019-75.511v-.267h.277l130.506.061h.206v.206c-.046,23.2-.084,42.093-.109,55.2-.023,6.522-.04,11.6-.053,15.069-.01,1.712-.018,3.022-.023,3.917S490.894,428.762,490.894,428.762Z" transform="translate(-360.111 -352.984)"/><g transform="translate(0.434 9.143)"><path class="c" d="M490.856,360.546c0,.148-29.193.267-65.2.267s-65.2-.119-65.2-.267,29.187-.267,65.2-.267S490.856,360.4,490.856,360.546Z" transform="translate(-360.457 -360.279)"/></g><g transform="translate(11.572 21.861)"><rect class="c" width="40.316" height="40.316"/></g><g transform="translate(62.963 28.243)"><path class="c" d="M468.7,375.786a2.485,2.485,0,0,1-.593.054l-1.7.05-6.253.085-20.631.078-20.633-.078-6.253-.085-1.7-.05a2.485,2.485,0,0,1-.593-.054,2.484,2.484,0,0,1,.593-.054l1.7-.05,6.253-.084,20.633-.079,20.631.079,6.253.084,1.7.05A2.484,2.484,0,0,1,468.7,375.786Z" transform="translate(-410.348 -375.519)"/><g transform="translate(0 9.005)"><path class="c" d="M470,382.971a2.6,2.6,0,0,1-.607.054l-1.737.05-6.393.085-21.088.078-21.093-.078-6.392-.085-1.738-.05a2.578,2.578,0,0,1-.605-.054,2.677,2.677,0,0,1,.605-.054l1.738-.049,6.392-.085,21.093-.079,21.088.079,6.393.085,1.737.049A2.7,2.7,0,0,1,470,382.971Z" transform="translate(-410.348 -382.704)"/></g><g transform="translate(0 18.011)"><path class="c" d="M470,390.157a2.694,2.694,0,0,1-.607.054l-1.737.05-6.393.084-21.088.079-21.093-.079-6.392-.084-1.738-.05a2.674,2.674,0,0,1-.605-.054,2.582,2.582,0,0,1,.605-.054l1.738-.05,6.392-.085,21.093-.078,21.088.078,6.393.085,1.737.05A2.6,2.6,0,0,1,470,390.157Z" transform="translate(-410.348 -389.89)"/></g><g transform="translate(0 27.016)"><path class="c" d="M470,397.342a2.689,2.689,0,0,1-.607.054l-1.737.05-6.393.084-21.088.079-21.093-.079-6.392-.084-1.738-.05a2.67,2.67,0,0,1-.605-.054,2.585,2.585,0,0,1,.605-.054l1.738-.05,6.392-.085,21.093-.078,21.088.078,6.393.085,1.737.05A2.6,2.6,0,0,1,470,397.342Z" transform="translate(-410.348 -397.075)"/></g></g></g><g transform="translate(0 0.729)"><circle class="d" cx="54.241" cy="54.241" r="54.241" transform="translate(0 76.709) rotate(-45)"/><g transform="translate(76.056 46.409)"><path class="b" d="M198.1,122.258a10.916,10.916,0,0,1-1.916.127l-5.271.107c-4.474.061-10.707.1-17.742.115h-.348v-.348c0-1.125,0-2.312,0-3.518,0-7.857.039-14.97.1-20.118.045-2.482.083-4.536.112-6.1a13.513,13.513,0,0,1,.137-2.236,13.692,13.692,0,0,1,.137,2.236c.029,1.56.066,3.615.112,6.1.064,5.149.1,12.261.1,20.118,0,1.206,0,2.393,0,3.518l-.348-.348c7.035.011,13.268.053,17.742.115l5.271.107A10.765,10.765,0,0,1,198.1,122.258Z" transform="translate(-172.817 -90.29)"/></g><g transform="translate(76.223 31.377)"><path class="b" d="M173.3,78.3c.193,0,.351,2.04.351,4.556s-.158,4.557-.351,4.557-.351-2.04-.351-4.557S173.107,78.3,173.3,78.3Z" transform="translate(-172.95 -78.296)"/></g><g transform="translate(94.927 38.685)"><path class="b" d="M194.235,84.137c.138.137-1.173,1.669-2.926,3.423s-3.287,3.066-3.424,2.928,1.173-1.669,2.928-3.424S194.1,84,194.235,84.137Z" transform="translate(-187.874 -84.127)"/></g><g transform="translate(108.059 54.457)"><path class="b" d="M206.031,96.735c.089.177-1.632,1.212-3.737,2.5s-3.82,2.329-3.937,2.168,1.434-1.473,3.572-2.769S205.947,96.566,206.031,96.735Z" transform="translate(-198.351 -96.711)"/></g><g transform="translate(111.782 77.556)"><path class="b" d="M213.747,115.492c0,.194-2.781.351-6.213.351s-6.213-.157-6.213-.351,2.781-.351,6.213-.351S213.747,115.3,213.747,115.492Z" transform="translate(-201.322 -115.141)"/></g><g transform="translate(26.316 76.727)"><path class="b" d="M144.866,114.831c0,.194-2.627.351-5.868.351s-5.868-.157-5.868-.351,2.627-.351,5.868-.351S144.866,114.638,144.866,114.831Z" transform="translate(-133.13 -114.48)"/></g><g transform="translate(34.832 94.51)"><path class="b" d="M149.238,128.678c.127.147-1.859,1.948-4.434,4.022s-4.759,3.631-4.874,3.475,1.869-1.956,4.434-4.022S149.111,128.531,149.238,128.678Z" transform="translate(-139.925 -128.668)"/></g><g transform="translate(52.938 108.002)"><path class="b" d="M160.611,139.438c.162.119-1.311,2.383-3.018,5.231s-3.023,5.208-3.2,5.121.867-2.606,2.6-5.482S160.461,139.326,160.611,139.438Z" transform="translate(-154.372 -139.434)"/></g><g transform="translate(76.223 112.977)"><path class="b" d="M173.3,155.83c-.194,0-.351-2.782-.351-6.213s.157-6.214.351-6.214.351,2.781.351,6.214S173.494,155.83,173.3,155.83Z" transform="translate(-172.95 -143.403)"/></g><g transform="translate(94.049 109.012)"><path class="b" d="M196.48,148.352c-.1.157-2.53-1.241-5.124-3.509s-4.316-4.477-4.175-4.6c.152-.134,2.076,1.844,4.636,4.067S196.592,148.184,196.48,148.352Z" transform="translate(-187.173 -140.24)"/></g><g transform="translate(108.183 95.848)"><path class="b" d="M206.192,137.476c-.138.137-1.98-1.483-4.115-3.618s-3.755-3.977-3.618-4.113,1.979,1.481,4.115,3.617S206.328,137.339,206.192,137.476Z" transform="translate(-198.451 -129.736)"/></g><g transform="translate(36.8 53.597)"><path class="b" d="M148.27,102.8c-.138.138-1.763-1.266-3.631-3.133s-3.272-3.494-3.135-3.632,1.762,1.267,3.631,3.135S148.407,102.663,148.27,102.8Z" transform="translate(-141.496 -96.025)"/></g><g transform="translate(52.434 37.41)"><path class="b" d="M160.621,89.731c-.137.137-1.735-1.232-3.568-3.058s-3.211-3.418-3.074-3.554,1.735,1.231,3.569,3.057S160.758,89.594,160.621,89.731Z" transform="translate(-153.97 -83.109)"/></g></g><g class="e" transform="translate(298.479)"><path class="f" d="M411.013,64.73a35.973,35.973,0,0,1,7.8,5.5l8.337-2.968,7.837,12.369L428.746,85.9a35.9,35.9,0,0,1,1.638,9.4l7.991,3.8-3.206,14.287-8.846.02a35.789,35.789,0,0,1-5.5,7.8l2.968,8.338-12.368,7.837-6.273-6.244a35.882,35.882,0,0,1-9.4,1.636l-3.794,7.992-14.289-3.2-.019-8.847a35.813,35.813,0,0,1-7.8-5.5l-8.338,2.969-7.837-12.369,6.247-6.273a35.988,35.988,0,0,1-1.638-9.4l-7.99-3.8,3.2-14.289,8.846-.018a35.8,35.8,0,0,1,5.5-7.8l-2.968-8.34,12.366-7.836,6.273,6.245a35.842,35.842,0,0,1,9.406-1.637l3.794-7.991,14.286,3.2.021,8.846Zm-12.6,16.813A15.708,15.708,0,1,0,410.3,100.307,15.707,15.707,0,0,0,398.416,81.543Z" transform="translate(-350.285 -52.679)"/></g><g transform="translate(139.95 289.025)"><path class="d" d="M223.8,300.568H298.84s-6.636-12.077-25.952-10.319c-18.449,1.678-19.386-5.941-28.767-6.879S226.924,289.624,223.8,300.568Z" transform="translate(-223.797 -283.288)"/></g></g><g transform="translate(19.855 543.829)"><path class="g" d="M596.743,444.886c0,.18-129.152.327-288.43.327-159.335,0-288.458-.147-288.458-.327s129.123-.326,288.458-.326C467.592,444.56,596.743,444.705,596.743,444.886Z" transform="translate(-19.855 -444.56)"/></g><g transform="translate(50.123 168.217)"><g transform="translate(332.934)"><g transform="translate(0.327 0.326)"><rect class="h" width="182.085" height="121.917"/></g><path class="c" d="M492.059,267.108s-.018-.762-.028-2.218L492,258.458c-.016-5.642-.038-13.921-.066-24.52-.033-21.181-.08-51.628-.138-88.747l.261.261-182.07.066h-.014l.326-.327c-.01,43.434-.019,84.735-.028,121.917l-.3-.3,131.181.148,37.478.08,9.969.036,2.573.018c.58.006.884.018.884.018s-.28.011-.849.018l-2.539.018-9.91.036-37.41.08-131.376.147h-.3v-.3c-.008-37.182-.018-78.484-.028-121.917v-.326h.341l182.07.065h.262v.261c-.056,37.187-.1,67.689-.137,88.91-.029,10.573-.051,18.831-.066,24.461-.013,2.792-.023,4.929-.029,6.383C492.078,266.383,492.059,267.108,492.059,267.108Z" transform="translate(-309.648 -144.865)"/><g transform="translate(0.327 10.88)"><path class="c" d="M309.909,153.872c0-.18,40.73-.326,90.963-.326,50.249,0,90.971.145,90.971.326s-40.721.326-90.971.326C350.639,154.2,309.909,154.052,309.909,153.872Z" transform="translate(-309.909 -153.546)"/></g><g transform="translate(4.592 4.257)"><g class="i"><path class="c" d="M316.231,149.722a1.459,1.459,0,1,1-1.46-1.46A1.46,1.46,0,0,1,316.231,149.722Z" transform="translate(-313.312 -148.262)"/></g><g class="i" transform="translate(5.001)"><path class="c" d="M320.22,149.722a1.459,1.459,0,1,1-1.459-1.46A1.459,1.459,0,0,1,320.22,149.722Z" transform="translate(-317.302 -148.262)"/></g><g class="i" transform="translate(9.929)"><path class="c" d="M324.153,149.722a1.459,1.459,0,1,1-1.459-1.46A1.459,1.459,0,0,1,324.153,149.722Z" transform="translate(-321.234 -148.262)"/></g></g><g class="i" transform="translate(15.981 23.92)"><rect class="c" width="48.571" height="48.571"/></g><g transform="translate(72.826 37.322)"><path class="c" d="M452.37,174.97c0,.18-18.943.327-42.306.327s-42.309-.147-42.309-.327,18.939-.326,42.309-.326S452.37,174.791,452.37,174.97Z" transform="translate(-367.755 -174.644)"/></g><g transform="translate(72.826 46.349)"><path class="c" d="M452.37,182.172c0,.18-18.943.326-42.306.326s-42.309-.145-42.309-.326,18.939-.326,42.309-.326S452.37,181.991,452.37,182.172Z" transform="translate(-367.755 -181.846)"/></g><g transform="translate(72.826 55.374)"><path class="c" d="M452.37,189.374c0,.179-18.943.326-42.306.326s-42.309-.147-42.309-.326,18.939-.327,42.309-.327S452.37,189.194,452.37,189.374Z" transform="translate(-367.755 -189.047)"/></g><g transform="translate(72.826 64.4)"><path class="c" d="M417.763,196.575a11.264,11.264,0,0,1-1.965.128l-5.358.1c-4.526.059-10.776.1-17.679.1s-13.159-.038-17.683-.1l-5.359-.1a11.255,11.255,0,0,1-1.964-.128,11.357,11.357,0,0,1,1.964-.127l5.359-.1c4.524-.059,10.776-.1,17.683-.1s13.154.036,17.679.1l5.358.1A11.366,11.366,0,0,1,417.763,196.575Z" transform="translate(-367.755 -196.249)"/></g><g class="i" transform="translate(19.02 88.867)"><rect class="j" width="22.826" height="22.826"/></g><g class="i" transform="translate(60.416 88.867)"><rect class="c" width="22.826" height="22.826"/></g><g class="i" transform="translate(101.812 88.867)"><rect class="c" width="22.826" height="22.826"/></g><g class="i" transform="translate(143.207 88.867)"><rect class="c" width="22.826" height="22.826"/></g></g><g transform="translate(0 43.99)"><g transform="translate(0.257 0.257)"><rect class="h" width="162.207" height="65.886"/></g><path class="c" d="M206.468,246.106s-.011-.4-.018-1.177-.011-1.923-.02-3.418c-.01-3.007-.025-7.423-.045-13.112-.023-11.371-.056-27.82-.1-48.179l.18.18-162.2.076h-.011l.257-.257c0,23.072-.008,45.344-.011,65.885l-.246-.246,116.3.117,33.738.068,9.029.031,2.337.015c.528.005.8.015.8.015s-.256.01-.772.016l-2.309.015-8.979.031-33.682.068-116.466.117h-.246v-.247c0-20.542-.008-42.813-.011-65.885v-.257h.268l162.2.076h.182v.18c-.041,20.4-.074,36.891-.1,48.288-.019,5.672-.034,10.075-.044,13.072-.009,1.481-.015,2.613-.02,3.385S206.468,246.106,206.468,246.106Z" transform="translate(-44.005 -179.964)"/><g transform="translate(0.42 8.886)"><path class="c" d="M44.34,187.311c0-.143,36.256-.257,80.97-.257,44.73,0,80.979.114,80.979.257s-36.25.256-80.979.256C80.6,187.567,44.34,187.453,44.34,187.311Z" transform="translate(-44.34 -187.054)"/></g><g transform="translate(4.855 3.991)"><g class="i"><path class="c" d="M50.234,184.326a1.177,1.177,0,1,1-1.177-1.178A1.178,1.178,0,0,1,50.234,184.326Z" transform="translate(-47.879 -183.148)"/></g><g class="i" transform="translate(4.034)"><path class="c" d="M53.452,184.326a1.177,1.177,0,1,1-1.177-1.178A1.177,1.177,0,0,1,53.452,184.326Z" transform="translate(-51.098 -183.148)"/></g><g class="i" transform="translate(8.01)"><path class="c" d="M56.625,184.326a1.177,1.177,0,1,1-1.178-1.178A1.178,1.178,0,0,1,56.625,184.326Z" transform="translate(-54.27 -183.148)"/></g></g><g class="i" transform="translate(14.043 19.851)"><rect class="c" width="39.179" height="39.179"/></g><g transform="translate(61.186 30.093)"><path class="c" d="M182.88,204.232c0,.142-20.162.257-45.027.257s-45.029-.115-45.029-.257,20.157-.257,45.029-.257S182.88,204.09,182.88,204.232Z" transform="translate(-92.824 -203.975)"/><g transform="translate(0 7.982)"><path class="c" d="M182.88,210.6c0,.142-20.162.257-45.027.257s-45.029-.115-45.029-.257,20.157-.257,45.029-.257S182.88,210.458,182.88,210.6Z" transform="translate(-92.824 -210.344)"/></g><g transform="translate(0 15.963)"><path class="c" d="M150.8,216.969a2.565,2.565,0,0,1-.589.051l-1.688.049-6.213.081-20.494.075-20.5-.075-6.211-.081-1.688-.049a2.565,2.565,0,0,1-.589-.051,2.563,2.563,0,0,1,.589-.051c.441-.014,1-.029,1.688-.049l6.211-.081,20.5-.075,20.494.075,6.213.081c.687.02,1.247.035,1.688.049A2.563,2.563,0,0,1,150.8,216.969Z" transform="translate(-92.824 -216.712)"/></g></g></g></g><g transform="translate(237.865 85.091)"><path class="d" d="M279.51,114.3c-2.72-1.812-6.452-.716-9.17,1.1s-5.042,4.3-8.089,5.482c-5.72,2.223-13.219-.411-17.665,3.82-2.821,2.686-3.109,7.094-5.265,10.337-3.632,5.464-12.346,7.517-13.093,14.036-.436,3.8,2.572,7.448,6.248,8.515s7.719-.059,10.906-2.178c3.722-2.474,6.646-6.289,10.889-7.7,4.335-1.439,9.686-.234,13.106-3.261s2.909-8.594,5.362-12.458c1.3-2.057,3.364-3.492,5.208-5.083s3.6-3.562,3.908-5.978-.682-6.539-2.342-6.631" transform="translate(-185.599 -69.717)"/><g transform="translate(0 42.757)"><g transform="translate(23.245 268.079)"><path class="g" d="M212.393,326.562c.154-.093.662.414,1.134,1.132s.737,1.386.59,1.491-.655-.4-1.135-1.133S212.239,326.656,212.393,326.562Z" transform="translate(-212.349 -326.551)"/></g><g transform="translate(17.878 256.783)"><path class="g" d="M208.106,317.54c.17-.058.838,1.186,1.491,2.776s1.05,2.947.889,3.026-.83-1.164-1.491-2.777S207.936,317.6,208.106,317.54Z" transform="translate(-208.067 -317.538)"/></g><g transform="translate(14.926 244.6)"><path class="g" d="M205.8,307.818c.179-.023.579,1.331.894,3.023s.426,3.1.251,3.143-.575-1.31-.892-3.023S205.618,307.841,205.8,307.818Z" transform="translate(-205.711 -307.818)"/></g><g transform="translate(14.198 232.082)"><path class="g" d="M205.5,297.83c.179.013.307,1.419.282,3.14s-.189,3.122-.37,3.131-.307-1.4-.282-3.141S205.324,297.816,205.5,297.83Z" transform="translate(-205.13 -297.83)"/></g><g transform="translate(15.2 219.718)"><path class="g" d="M207.327,287.966c.173.048.02,1.451-.342,3.135s-.8,3.024-.981,3-.025-1.431.343-3.135S207.153,287.917,207.327,287.966Z" transform="translate(-205.93 -287.965)"/></g><g transform="translate(18.503 208.035)"><path class="g" d="M211.167,278.648c.159.084-.281,1.425-.985,2.994s-1.411,2.79-1.58,2.727.272-1.4.985-2.994S211.008,278.563,211.167,278.648Z" transform="translate(-208.565 -278.644)"/></g><g transform="translate(24.259 197.586)"><path class="g" d="M216.909,270.315c.139.114-.58,1.328-1.607,2.711a8.5,8.5,0,0,1-2.121,2.331c-.169-.112.56-1.318,1.6-2.718S216.77,270.2,216.909,270.315Z" transform="translate(-213.158 -270.306)"/></g><g transform="translate(32.098 188.298)"><path class="g" d="M223.751,262.907c.128.127-.734,1.245-1.926,2.5s-2.266,2.167-2.4,2.045.728-1.238,1.925-2.5S223.622,262.781,223.751,262.907Z" transform="translate(-219.412 -262.896)"/></g><g transform="translate(40.846 179.386)"><path class="g" d="M230.806,255.8c.13.125-.751,1.227-1.968,2.461s-2.307,2.132-2.434,2.005.753-1.231,1.968-2.463S230.676,255.671,230.806,255.8Z" transform="translate(-226.392 -255.785)"/></g><g transform="translate(49.505 169.94)"><path class="g" d="M237.294,248.256c.144.108-.633,1.286-1.736,2.629s-2.107,2.339-2.242,2.218.643-1.3,1.737-2.631S237.15,248.148,237.294,248.256Z" transform="translate(-233.301 -248.248)"/></g><g transform="translate(56.997 159.186)"><path class="g" d="M242.177,239.671c.164.068-.248,1.433-1.053,2.984s-1.669,2.681-1.821,2.587.452-1.36,1.241-2.888S242.009,239.6,242.177,239.671Z" transform="translate(-239.279 -239.668)"/></g><g transform="translate(61.852 147.077)"><path class="g" d="M244.246,230.006c.177.013.221,1.439-.068,3.165s-.79,3.063-.961,3.017.039-1.43.317-3.123S244.063,229.993,244.246,230.006Z" transform="translate(-243.153 -230.006)"/></g><g transform="translate(61.948 134.619)"><path class="g" d="M243.3,220.067c.17-.044.662,1.3.927,3.025s.211,3.156.035,3.166-.415-1.37-.679-3.066S243.119,220.112,243.3,220.067Z" transform="translate(-243.229 -220.066)"/></g><g transform="translate(57.068 123.15)"><path class="g" d="M239.357,210.921c.145-.1,1.068.991,1.893,2.534s1.232,2.911,1.068,2.978-.832-1.161-1.643-2.67S239.206,211.024,239.357,210.921Z" transform="translate(-239.336 -210.915)"/></g><g transform="translate(48.339 114.241)"><path class="g" d="M232.377,203.827c.1-.148,1.364.518,2.707,1.644s2.226,2.252,2.1,2.374-1.2-.777-2.517-1.874S232.275,203.98,232.377,203.827Z" transform="translate(-232.371 -203.807)"/></g><g transform="translate(36.952 109.11)"><path class="g" d="M223.286,199.777c.038-.173,1.458,0,3.116.568s2.888,1.3,2.812,1.458-1.4-.287-3.024-.84S223.245,199.955,223.286,199.777Z" transform="translate(-223.285 -199.713)"/></g><g transform="translate(24.499 107.935)"><path class="g" d="M213.35,199.448c-.031-.173,1.349-.563,3.1-.652s3.165.144,3.152.32-1.409.241-3.118.332S213.381,199.63,213.35,199.448Z" transform="translate(-213.35 -198.775)"/></g><g transform="translate(12.931 110.217)"><path class="g" d="M204.126,203.594c-.1-.143.973-1.092,2.522-1.921s2.935-1.2,3-1.039-1.181.8-2.686,1.614S204.233,203.744,204.126,203.594Z" transform="translate(-204.12 -200.596)"/></g><g transform="translate(4.31 117.268)"><path class="g" d="M197.264,211.179c-.152-.089.459-1.386,1.538-2.77s2.18-2.3,2.3-2.176-.741,1.222-1.788,2.576S197.42,211.274,197.264,211.179Z" transform="translate(-197.241 -206.222)"/></g><g transform="translate(0 127.848)"><path class="g" d="M193.912,220.752c-.175-.016-.174-1.454.243-3.162s1.063-2.988,1.226-2.924-.19,1.415-.592,3.078S194.1,220.77,193.912,220.752Z" transform="translate(-193.802 -214.663)"/></g><g transform="translate(0.013 140.192)"><path class="g" d="M195.4,230.6c-.164.064-.811-1.214-1.226-2.923s-.427-3.142-.252-3.16.478,1.345.886,3.005S195.57,230.53,195.4,230.6Z" transform="translate(-193.812 -224.513)"/></g><g transform="translate(4.277 151.918)"><path class="g" d="M200.891,238.965c-.134.115-1.172-.861-2.193-2.282s-1.613-2.721-1.459-2.809.984,1.036,1.989,2.428S201.03,238.845,200.891,238.965Z" transform="translate(-197.215 -233.869)"/></g><g transform="translate(12.296 161.509)"><path class="g" d="M208.5,245.476c-.1.145-1.344-.55-2.7-1.647s-2.3-2.164-2.176-2.295,1.246.708,2.587,1.787S208.605,245.327,208.5,245.476Z" transform="translate(-203.613 -241.521)"/></g><g transform="translate(22.452 168.824)"><path class="g" d="M217.311,250.227c-.071.165-1.39-.34-2.943-1.129s-2.738-1.557-2.647-1.712,1.409.35,2.943,1.129S217.382,250.063,217.311,250.227Z" transform="translate(-211.716 -247.358)"/></g><g transform="translate(33.899 173.884)"><path class="g" d="M226.924,253c-.031.175-1.45.065-3.141-.37s-2.988-1.018-2.932-1.186,1.428.127,3.094.553S226.956,252.821,226.924,253Z" transform="translate(-220.85 -251.395)"/></g><g transform="translate(46.194 175.971)"><path class="g" d="M236.922,253.223c.02.175-1.375.475-3.123.506s-3.152-.206-3.14-.382,1.411-.236,3.127-.271S236.9,253.04,236.922,253.223Z" transform="translate(-230.659 -253.06)"/></g><g transform="translate(58.623 172.873)"><path class="g" d="M246.473,250.623c.076.159-1.146.9-2.794,1.489s-3.059.8-3.1.629,1.268-.66,2.881-1.245S246.4,250.456,246.473,250.623Z" transform="translate(-240.576 -250.589)"/></g><g transform="translate(69.997 166.048)"><path class="g" d="M254.629,245.157c.12.13-.831,1.192-2.218,2.255s-2.658,1.708-2.754,1.559,1-1.029,2.356-2.077S254.506,245.02,254.629,245.157Z" transform="translate(-249.651 -245.142)"/></g><g transform="translate(79.354 156.574)"><path class="g" d="M260.9,237.589c.15.1-.489,1.367-1.539,2.764s-2.093,2.368-2.226,2.25.673-1.265,1.7-2.641S260.743,237.49,260.9,237.589Z" transform="translate(-257.117 -237.583)"/></g><g transform="translate(86.185 145.307)"><path class="g" d="M264.944,228.6c.169.053-.118,1.448-.774,3.067s-1.413,2.826-1.57,2.747.323-1.4.966-2.992S264.77,228.539,264.944,228.6Z" transform="translate(-262.567 -228.594)"/></g><g transform="translate(90.056 133.03)"><path class="g" d="M266.588,218.8c.178.013.224,1.434-.013,3.161s-.664,3.086-.838,3.049-.04-1.433.192-3.137S266.407,218.785,266.588,218.8Z" transform="translate(-265.656 -218.798)"/></g><g transform="translate(90.503 120.509)"><path class="g" d="M266.176,208.808c.178-.024.432,1.365.566,3.1s.1,3.147-.083,3.151-.435-1.385-.568-3.1S266,208.833,266.176,208.808Z" transform="translate(-266.013 -208.808)"/></g><g transform="translate(87.886 108.275)"><path class="g" d="M263.983,199.048c.172-.056.679,1.261,1.134,2.943s.681,3.076.505,3.113-.684-1.28-1.134-2.943S263.811,199.1,263.983,199.048Z" transform="translate(-263.925 -199.047)"/></g><g transform="translate(83.115 96.691)"><path class="g" d="M260.149,189.808c.157-.081.915,1.114,1.668,2.682.7,1.593,1.138,2.939.971,3.007s-.867-1.154-1.563-2.731C260.479,191.212,259.986,189.892,260.149,189.808Z" transform="translate(-260.118 -189.804)"/></g><g transform="translate(76.955 85.771)"><path class="g" d="M255.228,181.1c.154-.093.99,1.045,1.867,2.54s1.461,2.78,1.3,2.869-.994-1.048-1.869-2.54S255.073,181.189,255.228,181.1Z" transform="translate(-255.203 -181.091)"/></g><g transform="translate(70.73 74.885)"><path class="g" d="M250.264,172.409c.16-.083.968,1.075,1.8,2.586s1.389,2.81,1.232,2.9-.963-1.067-1.8-2.587S250.1,172.492,250.264,172.409Z" transform="translate(-250.236 -172.405)"/></g><g transform="translate(65.818 63.363)"><path class="g" d="M246.361,163.213c.173-.053.8,1.211,1.4,2.821s.953,2.975.787,3.048-.791-1.191-1.4-2.822S246.188,163.265,246.361,163.213Z" transform="translate(-246.317 -163.212)"/></g><g transform="translate(63.537 51.038)"><path class="g" d="M244.689,153.378c.183-.005.374,1.384.556,3.092s.287,3.107.108,3.14-.574-1.334-.757-3.071S244.512,153.383,244.689,153.378Z" transform="translate(-244.497 -153.378)"/></g><g transform="translate(63.713 38.567)"><path class="g" d="M245.688,143.428c.179.039.021,1.434-.226,3.135s-.5,3.083-.681,3.069-.219-1.435.034-3.163S245.515,143.389,245.688,143.428Z" transform="translate(-244.638 -143.427)"/></g><g transform="translate(66.388 26.738)"><path class="g" d="M249.233,133.993c.163.083-.338,1.392-1,2.978s-1.243,2.863-1.418,2.8.14-1.445.815-3.056S249.076,133.913,249.233,133.993Z" transform="translate(-246.772 -133.989)"/></g><g transform="translate(71.977 16.355)"><path class="g" d="M255.091,125.715c.135.122-.692,1.255-1.742,2.613s-1.944,2.443-2.1,2.341.509-1.361,1.58-2.74S254.959,125.595,255.091,125.715Z" transform="translate(-251.231 -125.705)"/></g><g transform="translate(80.27 8.096)"><path class="g" d="M262.822,119.136c.1.152-.983,1.044-2.342,2.1s-2.5,1.869-2.622,1.733.84-1.186,2.223-2.251S262.725,118.987,262.822,119.136Z" transform="translate(-257.848 -119.115)"/></g><g transform="translate(90.642 2.401)"><path class="g" d="M271.882,114.615c.06.172-1.209.768-2.786,1.451s-2.884,1.2-2.968,1.035,1.1-.942,2.708-1.634S271.824,114.447,271.882,114.615Z" transform="translate(-266.124 -114.571)"/></g><g transform="translate(102.404)"><path class="g" d="M278.593,112.8c.026.178-.638.449-1.481.605s-1.562.138-1.6-.038.624-.446,1.483-.605S278.568,112.622,278.593,112.8Z" transform="translate(-275.509 -112.655)"/></g></g><g transform="translate(68.447)"><path class="j" d="M298.377,84.54s14.721-10.5,35.093-3.719c0,0,1.674,16.865-14.663,30.276" transform="translate(-235.759 -78.54)"/><path class="j" d="M261.351,115.065c.627.94,16.6,26.623,16.6,26.623l47.969-29.552a16.789,16.789,0,0,0,4.685-24.287h0a16.789,16.789,0,0,0-22.85-3.945Z" transform="translate(-245.138 -77.904)"/><path class="g" d="M274.814,132.2l-1.075,18.07s31.086-15.055,23.328-31.779Z" transform="translate(-242 -68.419)"/><path class="g" d="M286.848,96.911s-21.074-9.3-38.433,4.339l16.213,10.582Z" transform="translate(-248.415 -74.671)"/><path class="g" d="M285.024,108.27l-30,18.766s1.03,3.226,1.836,2.958c.676-.226,23.218-13.536,30.527-17.857a2.259,2.259,0,0,0,.59-3.381h0A2.267,2.267,0,0,0,285.024,108.27Z" transform="translate(-246.74 -71.096)"/><g transform="translate(54.366 11.404)"><circle class="d" cx="9.604" cy="9.604" r="9.604" transform="matrix(0.229, -0.973, 0.973, 0.229, 0, 18.699)"/><g transform="translate(1.618 1.673)"><path class="g" d="M312.619,98.849c-.075.005-.035-.856-.424-2.314a9.579,9.579,0,0,0-3.511-5.136,9.343,9.343,0,0,0-8.84-1.287,9.2,9.2,0,0,0-4.308,3.25,9.256,9.256,0,0,0,0,10.974,9.208,9.208,0,0,0,4.309,3.251,9.346,9.346,0,0,0,8.841-1.287,9.576,9.576,0,0,0,3.509-5.136c.389-1.459.348-2.319.424-2.315a2.175,2.175,0,0,1,.034.617,7.592,7.592,0,0,1-.212,1.76,9.554,9.554,0,0,1-3.475,5.442,9.715,9.715,0,0,1-4.128,1.882,9.873,9.873,0,0,1-5.2-.4,9.757,9.757,0,0,1-4.618-3.437,9.846,9.846,0,0,1,0-11.732,9.746,9.746,0,0,1,4.617-3.437,9.869,9.869,0,0,1,5.2-.4,9.693,9.693,0,0,1,4.128,1.882,9.557,9.557,0,0,1,3.477,5.442,7.592,7.592,0,0,1,.212,1.76A2.154,2.154,0,0,1,312.619,98.849Z" transform="translate(-293.084 -88.974)"/></g></g><g transform="translate(69.748 2.304)"><path class="g" d="M321.531,107.428c-.124.013-.269-1.865-1.005-4.784a36.4,36.4,0,0,0-1.669-5,36.1,36.1,0,0,0-6.97-10.794,36.675,36.675,0,0,0-3.873-3.582c-2.359-1.871-4.009-2.775-3.947-2.883a5.077,5.077,0,0,1,1.2.565,12.818,12.818,0,0,1,1.336.79c.5.333,1.1.687,1.7,1.163a32.191,32.191,0,0,1,4.028,3.532,33.856,33.856,0,0,1,7.09,10.98,32.259,32.259,0,0,1,1.563,5.126c.187.739.266,1.428.362,2.024a13.07,13.07,0,0,1,.17,1.542A5.116,5.116,0,0,1,321.531,107.428Z" transform="translate(-304.066 -80.378)"/></g><g transform="translate(66.932 3.145)"><path class="g" d="M319.512,108.641c-.124.013-.274-1.9-1.023-4.865a37.412,37.412,0,0,0-1.7-5.092,37.076,37.076,0,0,0-7.057-11.005,37.636,37.636,0,0,0-3.92-3.665c-2.388-1.919-4.058-2.851-4-2.959a5.226,5.226,0,0,1,1.211.587,13.23,13.23,0,0,1,1.352.813c.51.343,1.112.708,1.716,1.2a33,33,0,0,1,4.076,3.617,34.756,34.756,0,0,1,7.176,11.19,33.2,33.2,0,0,1,1.587,5.213c.19.752.272,1.451.371,2.059a13.632,13.632,0,0,1,.175,1.568A5.32,5.32,0,0,1,319.512,108.641Z" transform="translate(-301.819 -81.049)"/></g></g></g><g transform="translate(41.464 343.354)"><g transform="translate(47.069 85.629)"><path class="k" d="M83.661,438.2c-1.074-4.261,1.74-8.518,4.885-11.587s6.9-5.814,8.55-9.886c2.673-6.6-.822-15.181,3.707-20.673,2.665-3.23,7.416-4.289,9.785-7.744,1.242-1.811,1.653-4.044,2.149-6.184a62.943,62.943,0,0,1,15.819-29.2,54.608,54.608,0,0,1-6.3,28.195c-1.841,3.459-4.1,6.828-4.723,10.7-1.016,6.282,2.455,12.778.876,18.941-1.806,7.05-9.763,11.73-10.181,19-.352,6.141,4.972,11.564,4.538,17.7a16.6,16.6,0,0,1-2.775,7.27c-4.8,7.87-11.8,13.27-22.382,13.033l-12.958.38Z" transform="translate(-74.652 -352.926)"/></g><g transform="translate(0 40.561)"><path class="l" d="M81.54,477.572a10.341,10.341,0,0,1-3.567-.1,21.712,21.712,0,0,1-4.2-1.084,17.83,17.83,0,0,1-5.184-2.878,7.249,7.249,0,0,1-2.122-2.861,13.384,13.384,0,0,1-.588-3.875,37.618,37.618,0,0,0-.278-4.192,11.557,11.557,0,0,0-1.56-4.175c-1.512-2.692-4.033-5.246-4.833-8.895-.866-3.589-.208-7.464.417-11.355s1.229-8.115-.233-12.172c-1.367-4.06-4.187-7.734-5.582-12.31-1.389-4.621-.7-9.579-.971-14.475a19.2,19.2,0,0,0-1.648-7.2c-1.035-2.3-2.477-4.471-3.6-6.891-2.272-4.894-2.646-10.428-3.245-15.852q-.436-4.1-.882-8.284a40.463,40.463,0,0,0-1.392-8.293,73.312,73.312,0,0,0-3.053-8.036,26.636,26.636,0,0,1-1.48-4.2,42.112,42.112,0,0,1-.392-4.458,52.465,52.465,0,0,1,.395-8.966c.37-2.988.926-5.948,1.265-8.942.02-.177.041-.355.06-.516l.071-.6.529.268a20.015,20.015,0,0,1,6.941,5.926,31.767,31.767,0,0,1,4.24,7.921c2.133,5.578,2.879,11.416,3.938,16.989,1.033,5.572,2.406,11.057,5.234,15.7,1.407,2.316,3.113,4.432,4.6,6.691a18.3,18.3,0,0,1,3.172,7.4c.736,5.484-2.311,10.281-1.71,15.138a16.788,16.788,0,0,0,2.325,6.737c1.164,2.077,2.537,4,3.838,5.942a38.077,38.077,0,0,1,3.444,6,18.95,18.95,0,0,1,1.554,6.5c.292,4.37-.352,8.511-.055,12.427a28.608,28.608,0,0,0,3.137,10.666c1.549,3.2,3.276,6.089,4.72,8.892a45.27,45.27,0,0,1,1.941,4.14,20.281,20.281,0,0,1,1.114,4.1,25.9,25.9,0,0,1,.054,7.4,18.63,18.63,0,0,1-3.761,9.409,8.888,8.888,0,0,1-1.054,1.129,5.136,5.136,0,0,1-.855.717c-.485.353-.744.515-.744.515a16.3,16.3,0,0,0,2.523-2.467,18.756,18.756,0,0,0,3.571-9.346,25.739,25.739,0,0,0-.124-7.289,20.053,20.053,0,0,0-1.123-4.006c-.544-1.34-1.221-2.7-1.953-4.085-1.456-2.779-3.2-5.66-4.784-8.876A29.069,29.069,0,0,1,76.4,430.649c-.318-4,.307-8.154,0-12.422a18.287,18.287,0,0,0-1.527-6.285,37.409,37.409,0,0,0-3.4-5.878c-1.3-1.924-2.688-3.858-3.887-5.978a17.526,17.526,0,0,1-2.433-7.014c-.594-5.172,2.43-10,1.679-15.1a17.577,17.577,0,0,0-3.066-7.08c-1.466-2.217-3.181-4.336-4.63-6.709-2.918-4.778-4.313-10.366-5.357-15.961-1.069-5.607-1.817-11.384-3.912-16.847a30.958,30.958,0,0,0-4.13-7.713,19.168,19.168,0,0,0-6.648-5.681l.6-.327-.061.521c-.343,3.031-.9,6-1.266,8.95a51.679,51.679,0,0,0-.394,8.83,42.089,42.089,0,0,0,.373,4.324,25.97,25.97,0,0,0,1.431,4.047,73.951,73.951,0,0,1,3.077,8.125,41.2,41.2,0,0,1,1.41,8.431q.442,4.185.872,8.289c.588,5.448.963,10.893,3.151,15.616,1.08,2.352,2.52,4.529,3.586,6.9a19.947,19.947,0,0,1,1.694,7.47c.253,5-.425,9.885.9,14.322,1.318,4.415,4.123,8.109,5.528,12.3,1.5,4.234.846,8.6.206,12.474-.648,3.9-1.3,7.69-.483,11.139.729,3.484,3.178,6.015,4.721,8.784a11.977,11.977,0,0,1,1.583,4.341,37.654,37.654,0,0,1,.248,4.242,13.17,13.17,0,0,0,.531,3.769,6.944,6.944,0,0,0,1.994,2.739,17.793,17.793,0,0,0,5.058,2.89A22.3,22.3,0,0,0,78,477.309a16.637,16.637,0,0,0,2.633.271C81.23,477.56,81.54,477.572,81.54,477.572Z" transform="translate(-37.097 -316.967)"/><g transform="translate(4.369 7.745)"><path class="g" d="M40.588,323.147a1.536,1.536,0,0,1,.123.392c.074.311.167.694.279,1.168.248,1.021.544,2.564,1.023,4.491.5,1.921,1.661,4.1,2.65,6.783,1.03,2.661,2.073,5.744,3.028,9.207s1.822,7.3,2.715,11.418c.921,4.107,1.839,8.514,4.076,12.676,1.05,2.111,2.233,4.247,3.17,6.582a30.623,30.623,0,0,1,1.824,7.445,150.344,150.344,0,0,0,2.7,15.69c2.538,10.632,4.954,20.757,7.155,29.978,2.256,9.189,4.288,17.47,6,24.451,1.667,6.917,3.02,12.537,3.976,16.5.44,1.9.787,3.4,1.04,4.5.1.475.183.862.249,1.174a1.483,1.483,0,0,1,.058.406,1.53,1.53,0,0,1-.139-.386c-.089-.307-.2-.687-.331-1.154-.29-1.083-.688-2.573-1.192-4.459l-4.231-16.436C73,446.6,70.909,438.335,68.588,429.162c-2.222-9.223-4.662-19.351-7.224-29.986a148.426,148.426,0,0,1-2.7-15.754,29.843,29.843,0,0,0-1.755-7.265c-.9-2.276-2.067-4.4-3.117-6.535-2.256-4.241-3.18-8.781-4.063-12.872-.864-4.126-1.681-7.956-2.608-11.409s-1.911-6.534-2.9-9.2c-.937-2.672-2.063-4.877-2.528-6.862-.439-1.975-.677-3.5-.874-4.542-.08-.48-.145-.869-.2-1.184A1.543,1.543,0,0,1,40.588,323.147Z" transform="translate(-40.583 -323.147)"/></g></g><g transform="translate(33.343)"><path class="k" d="M72.514,485.8c-8.434-5.078-10.776-20.36-7.194-29.529s9.808-17.531,10.817-27.324c.775-7.529-1.648-15.273.148-22.624C78.71,396.4,88.453,388.758,88.4,378.545c-.03-5.73-3.26-11.139-2.968-16.863.358-7.019,5.78-12.559,9.153-18.726,5.162-9.439,5.562-20.631,7.369-31.236s5.918-21.952,15.356-27.115c1.339,9.02,3.676,15.206,2.861,27.413-.293,4.383-5.434,12.749-6.181,22.354-.447,5.741-.767,11.492-1.151,17.238-.373,5.591-.768,11.285-2.8,16.506-1.559,4-4.048,7.631-5.213,11.765-2.191,7.777.582,16.229-1.2,24.11-1.506,6.678-6.166,12.405-7.15,19.18-1.382,9.518,4.726,19.45,1.519,28.518-1.592,4.5-5.32,8.1-6.4,12.747-.837,3.608.031,7.437-.728,11.062-1.224,5.839-12.4,10.316-18.354,9.921" transform="translate(-63.701 -284.604)"/><g transform="translate(8.809 8.934)"><path class="l" d="M113.146,291.732a2.388,2.388,0,0,1-.04.509c-.051.379-.117.866-.2,1.48-.2,1.3-.431,3.21-.885,5.679-.486,2.483-1.782,5.274-2.825,8.642-1.1,3.356-2.2,7.23-3.17,11.569-.99,4.336-1.826,9.138-2.7,14.305-.906,5.129-1.834,10.8-4.429,16.167-1.2,2.7-2.55,5.4-3.566,8.277a37.316,37.316,0,0,0-1.837,9.134,184.444,184.444,0,0,1-2.593,19.7c-2.668,13.339-5.209,26.045-7.521,37.609L76.9,455.432c-1.862,8.672-3.375,15.708-4.433,20.636-.533,2.39-.95,4.266-1.247,5.6-.143.6-.257,1.08-.345,1.451a2.389,2.389,0,0,1-.145.49,2.191,2.191,0,0,1,.061-.506c.068-.376.154-.861.264-1.47.261-1.342.627-3.23,1.093-5.634,1-4.941,2.421-11.994,4.176-20.69,1.8-8.746,3.929-19.136,6.3-30.667,2.291-11.562,4.809-24.263,7.452-37.6a186.679,186.679,0,0,0,2.6-19.634,37.881,37.881,0,0,1,1.9-9.317c1.047-2.94,2.413-5.651,3.615-8.327,2.581-5.29,3.508-10.825,4.451-15.972.906-5.157,1.777-9.971,2.809-14.317,1.015-4.348,2.156-8.229,3.3-11.586,1.094-3.379,2.43-6.145,2.952-8.564.5-2.424.782-4.353,1.035-5.636.117-.608.209-1.092.281-1.466A2.226,2.226,0,0,1,113.146,291.732Z" transform="translate(-70.729 -291.732)"/></g></g></g><g transform="translate(499.391 324.548)"><g transform="translate(0 22.76)"><rect class="c" width="8.735" height="28.221"/></g><g transform="translate(16.078 11.145)"><rect class="c" width="8.735" height="39.835"/></g><g transform="translate(33.191 5.721)"><rect class="c" width="8.735" height="45.259"/></g><g transform="translate(50.305)"><rect class="c" width="8.735" height="50.981"/></g></g><g transform="translate(149.019 312.462)"><g transform="translate(31.327 56.734)"><g transform="translate(14.694 14.454)"><path class="c" d="M169.517,317.027a6,6,0,0,1,1.877.588,7.907,7.907,0,0,1,3.741,3.787,8.009,8.009,0,0,1,.765,3.658,8.147,8.147,0,0,1-1.258,4.1,8.131,8.131,0,0,1-3.593,3.087,8.1,8.1,0,0,1-9.417-2.112,8.137,8.137,0,0,1-1.931-4.326,8.14,8.14,0,0,1,.614-4.246,8.018,8.018,0,0,1,2.253-2.982,7.916,7.916,0,0,1,5-1.826,6.046,6.046,0,0,1,1.949.271c-.009.056-.694-.138-1.944-.093a7.915,7.915,0,0,0-4.8,1.895,7.754,7.754,0,0,0-2.658,6.927,7.768,7.768,0,0,0,1.85,4.087,7.695,7.695,0,0,0,8.9,2,7.762,7.762,0,0,0,3.418-2.905,7.762,7.762,0,0,0,.556-7.4,7.918,7.918,0,0,0-3.529-3.762C170.2,317.2,169.5,317.082,169.517,317.027Z" transform="translate(-159.632 -316.756)"/></g><path class="c" d="M178.855,311.449a1.815,1.815,0,0,1-.018-.28c0-.208-.011-.486-.019-.846-.011-.777-.026-1.895-.046-3.348l.056.07-7.233-1.578.13-.063-1.9,4.047-.034.073-.081,0a18.111,18.111,0,0,0-4.715.837l-.086.028-.064-.064c-.991-.981-2.064-2.044-3.181-3.148l.2.021-6.243,3.977.073-.212c.466,1.3.981,2.74,1.509,4.212l.038.108-.078.083a18.079,18.079,0,0,0-2.744,3.909l-.054.105h-.12l-4.472.015.2-.158c-.506,2.268-1.052,4.716-1.612,7.225l-.115-.238,4.041,1.915.119.055.005.132a18.043,18.043,0,0,0,.822,4.7l.04.128-.1.1-3.155,3.172.03-.277,3.964,6.252-.267-.091,4.215-1.5.13-.045.1.093a17.911,17.911,0,0,0,3.892,2.742h0c.055.09-.122-.2.124.2v1.122l0,1.12q0,1.12,0,2.231l-.178-.222,7.224,1.622-.253.123,1.92-4.039.059-.122.134-.005a17.945,17.945,0,0,0,4.7-.815l.128-.04.1.094,3.168,3.16-.269-.03,6.257-3.955-.085.248q-.761-2.147-1.5-4.217l-.043-.118.085-.09a17.991,17.991,0,0,0,2.755-3.9l.055-.107h.119l4.472,0-.184.148c.575-2.539,1.119-4.937,1.636-7.22l.1.2-4.036-1.929-.089-.043,0-.1a18.049,18.049,0,0,0-.808-4.716l-.026-.086.064-.064c1.151-1.149,2.187-2.183,3.167-3.161l-.019.168-3.934-6.272.12.041-4.224,1.474-.043.015-.033-.03a18.843,18.843,0,0,0-2.873-2.213l-.77-.464a2.073,2.073,0,0,1-.253-.155,1.914,1.914,0,0,1,.272.123c.177.09.444.228.79.432a17.574,17.574,0,0,1,2.934,2.169l-.075-.015,4.206-1.528.076-.028.044.069,3.989,6.237.058.09-.076.076-3.146,3.181.036-.15a18.286,18.286,0,0,1,.85,4.794l-.094-.142,4.046,1.909.125.06-.03.135c-.508,2.285-1.042,4.685-1.607,7.227l-.033.148h-.152c-1.453.006-2.939.013-4.472.018l.174-.105a18.386,18.386,0,0,1-2.8,3.993l.043-.207q.739,2.068,1.505,4.212l.056.158-.142.09-6.249,3.968-.145.093-.124-.123-3.173-3.153.222.054a18.392,18.392,0,0,1-4.813.84l.193-.128q-.948,2-1.916,4.042l-.076.163-.177-.04-7.224-1.618-.178-.039v-.183l-.005-2.23,0-1.122V343.8c.246.4.068.112.123.2h0a18.393,18.393,0,0,1-3.991-2.812l.231.048-4.216,1.5-.17.061-.1-.153-3.959-6.255-.1-.152.125-.125,3.16-3.17-.054.222a18.457,18.457,0,0,1-.833-4.811l.123.187c-1.4-.667-2.78-1.325-4.038-1.923l-.153-.074.038-.164c.565-2.508,1.117-4.953,1.629-7.222l.035-.159h.162l4.473,0-.174.105a18.372,18.372,0,0,1,2.816-3.983l-.039.192c-.521-1.475-1.031-2.913-1.493-4.219l-.048-.135.12-.076,6.262-3.948.11-.069.091.091c1.11,1.11,2.177,2.18,3.162,3.166l-.15-.036a18.3,18.3,0,0,1,4.8-.818l-.115.076,1.934-4.032.04-.084.09.02,7.213,1.662.058.014v.058c-.014,1.439-.024,2.548-.031,3.318-.006.365-.011.647-.015.857A2.213,2.213,0,0,1,178.855,311.449Z" transform="translate(-147.908 -305.223)"/></g><g transform="translate(14.693)"><path class="f" d="M168.578,266.693a20.091,20.091,0,0,1,4.362,3.072l4.66-1.659,4.379,6.913-3.489,3.506a20.055,20.055,0,0,1,.915,5.258l4.467,2.121-1.791,7.985-4.944.011a20,20,0,0,1-3.074,4.362l1.659,4.661-6.912,4.379-3.506-3.489a20.055,20.055,0,0,1-5.258.914l-2.121,4.467-7.986-1.791-.01-4.944a19.991,19.991,0,0,1-4.362-3.073l-4.661,1.659-4.38-6.913,3.492-3.506a20.1,20.1,0,0,1-.916-5.256l-4.466-2.121,1.791-7.986,4.944-.011a20.022,20.022,0,0,1,3.073-4.362l-1.659-4.66,6.913-4.38,3.506,3.49a20.045,20.045,0,0,1,5.256-.915l2.121-4.467,7.986,1.791.011,4.946Zm-7.041,9.4a8.779,8.779,0,1,0,6.645,10.489A8.779,8.779,0,0,0,161.537,276.089Z" transform="translate(-134.636 -259.956)"/><g class="e"><path class="m" d="M168.578,266.693a20.091,20.091,0,0,1,4.362,3.072l4.66-1.659,4.379,6.913-3.489,3.506a20.055,20.055,0,0,1,.915,5.258l4.467,2.121-1.791,7.985-4.944.011a20,20,0,0,1-3.074,4.362l1.659,4.661-6.912,4.379-3.506-3.489a20.055,20.055,0,0,1-5.258.914l-2.121,4.467-7.986-1.791-.01-4.944a19.991,19.991,0,0,1-4.362-3.073l-4.661,1.659-4.38-6.913,3.492-3.506a20.1,20.1,0,0,1-.916-5.256l-4.466-2.121,1.791-7.986,4.944-.011a20.022,20.022,0,0,1,3.073-4.362l-1.659-4.66,6.913-4.38,3.506,3.49a20.045,20.045,0,0,1,5.256-.915l2.121-4.467,7.986,1.791.011,4.946Zm-7.041,9.4a8.779,8.779,0,1,0,6.645,10.489A8.779,8.779,0,0,0,161.537,276.089Z" transform="translate(-134.636 -259.956)"/></g></g><g transform="translate(0 49.858)"><path class="f" d="M142.671,303.657a11.716,11.716,0,0,1,2.539,1.788l2.712-.965,2.549,4.024-2.032,2.04a11.679,11.679,0,0,1,.534,3.059l2.6,1.236-1.043,4.649-2.879.006a11.644,11.644,0,0,1-1.788,2.539l.966,2.712-4.024,2.551-2.04-2.032a11.7,11.7,0,0,1-3.061.533l-1.235,2.6-4.65-1.043-.005-2.878a11.65,11.65,0,0,1-2.539-1.79l-2.713.966-2.549-4.024,2.032-2.04a11.686,11.686,0,0,1-.533-3.061l-2.6-1.235,1.042-4.649,2.879-.006a11.643,11.643,0,0,1,1.788-2.539l-.965-2.713,4.023-2.549,2.042,2.032a11.678,11.678,0,0,1,3.059-.533l1.236-2.6,4.647,1.043.008,2.878Zm-4.1,5.471a5.111,5.111,0,1,0,3.868,6.1A5.111,5.111,0,0,0,138.573,309.128Z" transform="translate(-122.913 -299.737)"/><g class="n"><path class="m" d="M142.671,303.657a11.716,11.716,0,0,1,2.539,1.788l2.712-.965,2.549,4.024-2.032,2.04a11.679,11.679,0,0,1,.534,3.059l2.6,1.236-1.043,4.649-2.879.006a11.644,11.644,0,0,1-1.788,2.539l.966,2.712-4.024,2.551-2.04-2.032a11.7,11.7,0,0,1-3.061.533l-1.235,2.6-4.65-1.043-.005-2.878a11.65,11.65,0,0,1-2.539-1.79l-2.713.966-2.549-4.024,2.032-2.04a11.686,11.686,0,0,1-.533-3.061l-2.6-1.235,1.042-4.649,2.879-.006a11.643,11.643,0,0,1,1.788-2.539l-.965-2.713,4.023-2.549,2.042,2.032a11.678,11.678,0,0,1,3.059-.533l1.236-2.6,4.647,1.043.008,2.878Zm-4.1,5.471a5.111,5.111,0,1,0,3.868,6.1A5.111,5.111,0,0,0,138.573,309.128Z" transform="translate(-122.913 -299.737)"/></g></g></g><g transform="translate(209.545 239.12)"><g transform="translate(138.716)"><path class="g" d="M360.764,277.79a12.238,12.238,0,0,0,8.853-12.214c-.153-2.453-1.065-4.839-.96-7.294.163-3.811,2.692-7.032,4.595-10.337s3.18-7.665.961-10.768c-1.439-2.013-3.979-2.92-5.721-4.676-1.706-1.72-2.515-4.1-3.429-6.344s-2.1-4.557-4.2-5.755-5.332-.665-6.186,1.6" transform="translate(-263.447 -196.791)"/><path class="g" d="M356.434,220.611c3.754-2.384,4.661-7.912,2.626-11.866s-6.352-6.356-10.742-7.064a20.468,20.468,0,0,0-17.634,5.843c-2.423,2.5-4.385,5.75-7.67,6.893-2.889,1.005-6.084.1-9.115.491-4.065.526-7.549,3.417-9.633,6.946a29.683,29.683,0,0,0-3.425,11.715c-.442,3.736-.734,7.836-3.326,10.562-2.527,2.66-6.52,3.222-9.663,5.114-5.913,3.559-7.829,12.374-3.928,18.066,1.245,1.815,3.031,3.479,3.175,5.675.132,2.005-1.164,3.79-1.771,5.705-1.563,4.931,2.474,10.79,7.638,11.086,2.607.15,5.4-.866,7.738.3,2.321,1.158,3.185,3.957,4.67,6.084a11.162,11.162,0,0,0,13.611,3.516c1.918-.94,3.729-2.493,5.859-2.349s3.8,1.959,5.893,2.364c2.74.53,5.342-1.488,6.97-3.754s2.765-4.934,4.849-6.788c2.73-2.428,6.565-3.028,10.019-4.217a28.262,28.262,0,0,0,15.96-39.591" transform="translate(-281.886 -201.437)"/><g transform="translate(32.57 15.916)"><path class="o" d="M358.1,222.325a6,6,0,0,1,5.357,6.1h0l-3.581,81.054c-.15,9.573-14.144,14.952-24.392,14.714h0c-10.35-.241-10.685-5.317-10.814-14.424-.216-15.215-.2-20.927-.2-20.84,0,0-13.075-2.2-15.747-19.271-1.328-8.489-.871-22.4-.129-33.773.667-10.236,7.477-22.782,17.675-21.68Z" transform="translate(-307.873 -214.136)"/><g transform="translate(3.684 26.701)"><g transform="translate(0.786 4.121)"><path class="g" d="M311.441,240.7a2.188,2.188,0,0,0,2.106,2.213,2.094,2.094,0,0,0,2.26-1.969,2.19,2.19,0,0,0-2.1-2.213A2.094,2.094,0,0,0,311.441,240.7Z" transform="translate(-311.44 -238.728)"/></g><path class="g" d="M310.847,237.731c.271.286,1.931-.937,4.286-.926,2.352-.021,4.078,1.193,4.334.906.127-.128-.149-.643-.9-1.193a6.008,6.008,0,0,0-3.468-1.078,5.766,5.766,0,0,0-3.413,1.094C310.96,237.088,310.714,237.6,310.847,237.731Z" transform="translate(-310.813 -235.44)"/></g><g transform="translate(26.831 27.192)"><g transform="translate(1.113 3.63)"><path class="g" d="M330.17,240.7a2.188,2.188,0,0,0,2.106,2.213,2.094,2.094,0,0,0,2.26-1.969,2.189,2.189,0,0,0-2.1-2.213A2.094,2.094,0,0,0,330.17,240.7Z" transform="translate(-330.169 -238.728)"/></g><path class="g" d="M329.315,238.123c.272.286,1.934-.937,4.288-.926,2.352-.023,4.078,1.193,4.334.9.125-.127-.147-.643-.9-1.192a6,6,0,0,0-3.468-1.078,5.766,5.766,0,0,0-3.413,1.093C329.431,237.479,329.183,237.994,329.315,238.123Z" transform="translate(-329.281 -235.832)"/></g><g transform="translate(12.284 27.308)"><path class="g" d="M323.671,255.544a15.586,15.586,0,0,0-3.824-.7c-.6-.064-1.169-.184-1.271-.6a3.062,3.062,0,0,1,.406-1.781q.854-2.181,1.788-4.576c2.484-6.513,4.284-11.87,4.021-11.968s-2.492,5.1-4.974,11.617c-.6,1.607-1.171,3.137-1.715,4.6a3.49,3.49,0,0,0-.317,2.36,1.514,1.514,0,0,0,.988.881,4.12,4.12,0,0,0,1.02.144A15.286,15.286,0,0,0,323.671,255.544Z" transform="translate(-317.674 -235.925)"/></g><g transform="translate(16.592 68.746)"><path class="p" d="M321.112,275.033a43.4,43.4,0,0,0,22.865-6.046s-5.792,12.031-22.865,10.4Z" transform="translate(-321.112 -268.987)"/></g><g transform="translate(19.027 51.012)"><path class="j" d="M323.291,256.431a4.244,4.244,0,0,1,3.808-1.568,3.878,3.878,0,0,1,2.672,1.441,2.454,2.454,0,0,1,.18,2.807,2.846,2.846,0,0,1-3.088.773,8.909,8.909,0,0,1-3.007-1.8,2.609,2.609,0,0,1-.671-.7.786.786,0,0,1,.005-.876" transform="translate(-323.055 -254.838)"/></g><g transform="translate(17.688 48.572)"><path class="g" d="M329.5,252.891c-.382-.023-.394,2.533-2.586,4.343s-4.912,1.522-4.932,1.879c-.036.16.605.5,1.755.533a6.366,6.366,0,0,0,4.118-1.425,5.546,5.546,0,0,0,2-3.641C329.963,253.51,329.68,252.877,329.5,252.891Z" transform="translate(-321.986 -252.891)"/></g><g transform="translate(25.803 23.602)"><path class="g" d="M328.474,234.723c.231.64,2.582.342,5.344.682,2.77.283,5,1.1,5.363.524.164-.274-.223-.877-1.122-1.5a9.362,9.362,0,0,0-8.158-.919C328.886,233.917,328.373,234.418,328.474,234.723Z" transform="translate(-328.461 -232.967)"/></g><g transform="translate(4.539 19.749)"><path class="g" d="M311.555,232.323c.412.535,2.037-.016,3.987-.038,1.95-.09,3.6.367,3.984-.192.167-.271-.093-.807-.813-1.315a5.774,5.774,0,0,0-6.422.184C311.6,231.511,311.373,232.061,311.555,232.323Z" transform="translate(-311.495 -229.893)"/></g></g><path class="g" d="M339.719,216.861a16.566,16.566,0,0,1,13.526-2.533c4.552,1.307,8.324,5.409,8.479,10.047.1,3.014-1.2,6.219.135,8.937,1.273,2.587,4.41,3.64,6.635,5.513a10.183,10.183,0,0,1,2.358,12.313c-1.862,3.42-5.78,5.928-6.109,9.79-.31,3.633,2.754,6.7,3.5,10.272.823,3.94-1.359,8.017-4.486,10.632s-7.076,4.054-10.938,5.444c-3.012,1.084-6.238,2.185-9.365,1.475a9.587,9.587,0,0,1-7.019-8,13.045,13.045,0,0,1,3.553-10.3c2.192-2.413,5.265-4.464,5.792-7.65.821-4.962-5.092-9.04-4.728-14.053.188-2.586,2.012-4.726,3.529-6.852s2.841-4.8,1.91-7.228c-1.211-3.155-5.357-3.977-7.862-6.29a7.661,7.661,0,0,1-2.093-7.76,7.9,7.9,0,0,1,6.186-5.274" transform="translate(-268.124 -198.306)"/><path class="g" d="M351.039,214.177A11.674,11.674,0,0,1,337.266,225.7c-2.607-.476-5.463-1.795-7.72-.4-2.374,1.46-2.472,5.038-4.577,6.866-3.008,2.611-7.791.16-11.609,1.293-2.949.875-4.791,3.694-6.75,6.065s-4.894,4.626-7.843,3.751a34.6,34.6,0,0,1,1.171-7.868A11.63,11.63,0,0,1,304.4,229a43.378,43.378,0,0,0,3.771-2.195c2.448-1.976,3.015-5.416,4.527-8.175a12.791,12.791,0,0,1,9.747-6.466c3.356-.343,6.816.664,10.088-.162,2.419-.609,4.531-2.18,6.982-2.645,4.771-.907,9.208,2.517,12.667,5.927" transform="translate(-277.61 -199.469)"/><g transform="translate(75.542 18.468)"><path class="q" d="M371.216,253.2a3.7,3.7,0,0,0,.379-1.968,4.954,4.954,0,0,0-3.435-3.925,25.364,25.364,0,0,0-3.751-1.01,10.979,10.979,0,0,1-4.249-1.751,5.985,5.985,0,0,1-2.211-4.565,48.176,48.176,0,0,1,.263-5.373,12.277,12.277,0,0,0-.134-2.626,5.6,5.6,0,0,0-1.006-2.24,8.573,8.573,0,0,0-4.108-2.358,18.5,18.5,0,0,1-4.184-1.8,14.724,14.724,0,0,1-6.1-7.381,9.945,9.945,0,0,1-.437-1.494,1.692,1.692,0,0,1-.076-.538c.059-.016.228.712.75,1.938a15.188,15.188,0,0,0,3.112,4.636,15.4,15.4,0,0,0,7.125,4.072,9.062,9.062,0,0,1,4.414,2.525,6.211,6.211,0,0,1,1.146,2.517,12.763,12.763,0,0,1,.149,2.782,50.755,50.755,0,0,0-.277,5.3,5.387,5.387,0,0,0,1.943,4.133,10.619,10.619,0,0,0,4,1.7,24.477,24.477,0,0,1,3.8,1.11,5.994,5.994,0,0,1,2.644,1.985,4.541,4.541,0,0,1,.867,2.345,2.979,2.979,0,0,1-.308,1.547A1.2,1.2,0,0,1,371.216,253.2Z" transform="translate(-342.16 -216.173)"/></g><g transform="translate(2.872 3.552)"><path class="q" d="M285.391,266.868a1.081,1.081,0,0,1-.279-.132,1.893,1.893,0,0,1-.64-.645,3.447,3.447,0,0,1,.348-3.37,4.486,4.486,0,0,1,1.827-1.748,23.519,23.519,0,0,1,2.743-1.158,8.464,8.464,0,0,0,2.87-1.627,6.138,6.138,0,0,0,1.639-3.236c.288-1.282.372-2.681.6-4.137a9.082,9.082,0,0,1,1.693-4.3c1.988-2.619,5.244-4.011,7.674-6.466a11.822,11.822,0,0,0,2.666-4.519,31.105,31.105,0,0,0,1.207-5.464c.528-3.749,1.059-7.95,3.583-11.38a8.313,8.313,0,0,1,5.149-3.326,18.062,18.062,0,0,1,5.942.149,21.577,21.577,0,0,0,5.552.325,7.227,7.227,0,0,0,4.537-2.342c2.329-2.512,3.667-5.894,6.53-7.625a10.9,10.9,0,0,1,8.62-1.188,9.557,9.557,0,0,1,5.675,4.41,10.744,10.744,0,0,1,1.474,5.263,9.241,9.241,0,0,1-.545,3.414,5.718,5.718,0,0,1-.5,1.094c-.033-.015.15-.389.379-1.136a9.7,9.7,0,0,0,.416-3.365,10.607,10.607,0,0,0-1.533-5.082,9.194,9.194,0,0,0-5.486-4.153,10.455,10.455,0,0,0-8.207,1.2,12,12,0,0,0-3.292,3.4,38,38,0,0,1-3.091,4.184,8.5,8.5,0,0,1-2.18,1.707,8.078,8.078,0,0,1-2.713.84,22.028,22.028,0,0,1-5.719-.31,17.6,17.6,0,0,0-5.729-.145,7.662,7.662,0,0,0-4.754,3.083,15.786,15.786,0,0,0-2.439,5.349,52.621,52.621,0,0,0-1.034,5.734,31.477,31.477,0,0,1-1.25,5.571,12.4,12.4,0,0,1-2.825,4.738c-2.573,2.549-5.8,3.91-7.673,6.373A8.554,8.554,0,0,0,295,250.9c-.242,1.421-.34,2.83-.652,4.157a6.555,6.555,0,0,1-1.8,3.435,8.776,8.776,0,0,1-3.027,1.667,23.873,23.873,0,0,0-2.727,1.09,4.251,4.251,0,0,0-1.756,1.605,3.34,3.34,0,0,0-.45,3.176A2.777,2.777,0,0,0,285.391,266.868Z" transform="translate(-284.177 -204.271)"/></g></g><g transform="translate(93.651 93.507)"><path class="r" d="M253.206,360.833l30.27-2.775S302.1,309,325.067,297.1l14.874,25.982L308.1,382.907H245.929Z" transform="translate(-245.929 -270.712)"/><path class="s" d="M253.206,360.833l30.27-2.775S302.1,309,325.067,297.1l14.874,25.982L308.1,382.907H245.929Z" transform="translate(-245.929 -270.712)"/><g transform="translate(19.223 94.503)"><path class="d" d="M261.281,360.921c-.154-.093.988-2.287,2.55-4.9s2.957-4.66,3.112-4.567-.988,2.286-2.552,4.9S261.435,361.013,261.281,360.921Z" transform="translate(-261.267 -351.448)"/></g><g transform="translate(33.785 94.808)"><path class="d" d="M279.783,360.265c-.14.113-1.8-1.715-3.7-4.08s-3.33-4.377-3.19-4.489,1.8,1.713,3.7,4.081S279.924,360.152,279.783,360.265Z" transform="translate(-272.885 -351.691)"/></g><g transform="translate(44.08 84.193)"><path class="d" d="M281.426,351.159c-.18,0-.326-1.777-.326-3.968s.145-3.969.326-3.969.326,1.776.326,3.969S281.606,351.159,281.426,351.159Z" transform="translate(-281.1 -343.222)"/></g><g transform="translate(28.316 106.105)"><path class="d" d="M273.959,364.277c-.1.15-1.395-.521-2.894-1.5s-2.636-1.9-2.537-2.048,1.394.521,2.894,1.5S274.058,364.127,273.959,364.277Z" transform="translate(-268.522 -360.705)"/></g><g transform="translate(46.336 64.575)"><path class="d" d="M287.7,327.57c.164.074-.772,2.522-2.091,5.466s-2.523,5.274-2.687,5.2.772-2.52,2.092-5.467S287.532,327.5,287.7,327.57Z" transform="translate(-282.9 -327.569)"/></g><g transform="translate(58.166 44.678)"><path class="d" d="M297.574,311.71c.109.144-.974,1.147-2.416,2.241s-2.7,1.865-2.811,1.721.973-1.147,2.416-2.241S297.465,311.568,297.574,311.71Z" transform="translate(-292.339 -311.693)"/></g><path class="r" d="M332.641,378.506l15.61-63.05A21.448,21.448,0,0,1,372.875,299.5h0a21.447,21.447,0,0,1,17.39,24.394l-9.558,61.623a30.831,30.831,0,0,1-25.58,24.945l-12.41,1.936Z" transform="translate(-223.964 -270.19)"/><g transform="translate(126.831 21.531)"><path class="g" d="M378.169,296.932a14.089,14.089,0,0,0-5.568-2.8,14.846,14.846,0,0,0-6.719.046,18.229,18.229,0,0,0-7.3,3.809c-4.576,3.835-7.065,8.818-8.757,12.309-.836,1.773-1.473,3.231-1.928,4.232a8.705,8.705,0,0,1-.762,1.533,8.469,8.469,0,0,1,.528-1.629c.382-1.033.955-2.519,1.742-4.328a46.841,46.841,0,0,1,3.21-6.153,27.371,27.371,0,0,1,5.55-6.467,18.371,18.371,0,0,1,7.585-3.893,14.855,14.855,0,0,1,6.966.091,11.86,11.86,0,0,1,4.23,2.043,7.993,7.993,0,0,1,.948.857C378.089,296.8,378.186,296.916,378.169,296.932Z" transform="translate(-347.126 -293.225)"/></g><g transform="translate(48.901 39.425)"><path class="g" d="M305.479,307.5a3.019,3.019,0,0,1-.436.585l-1.336,1.6c-1.154,1.39-2.8,3.423-4.684,6.048a64.465,64.465,0,0,0-10.658,22.626c-2.177,9.614-2.285,18.618-2.655,25.066-.155,3.234-.307,5.85-.446,7.657-.075.845-.135,1.532-.184,2.078a3.1,3.1,0,0,1-.109.722,3.01,3.01,0,0,1-.021-.729c.015-.548.036-1.238.061-2.084.059-1.9.14-4.493.238-7.662.253-6.448.282-15.485,2.48-25.194a62.3,62.3,0,0,1,10.921-22.751c1.938-2.6,3.647-4.6,4.864-5.943.6-.677,1.1-1.177,1.43-1.522A3.083,3.083,0,0,1,305.479,307.5Z" transform="translate(-284.946 -307.502)"/></g><path class="r" d="M405.729,315.335c-1.712-11.274-7.94-13.981-14.388-17.491-2.109-1.147-12.274-3.756-20.333-5.721-.769-4.884-2.149-13.624-2.453-15.47-.425-2.592-41.054,3.889-41.567,4.862-.342.644-1.277,10.768-1.869,17.516l-9.727,3.4-12.7,16.141-6.607,9.384A50.569,50.569,0,0,0,287.9,345.97c-1.6,7.188-1.821,14.2-1.821,21.833l-1.963,41.392,85.007,24.037,6.581-41.93,21.93-29.853C399.512,349.376,407.836,329.2,405.729,315.335Z" transform="translate(-236.254 -276.045)"/><g transform="translate(94.802 4.752)"><path class="g" d="M323.692,299.372a13.149,13.149,0,0,1-.565-2.871c-.266-1.785-.589-4.254-.906-6.986q-.22-2.028-.421-3.855a27.087,27.087,0,0,1-.224-3.187,3.825,3.825,0,0,1,.605-2.118c.328-.426.609-.541.627-.514.036.043-.182.228-.411.649a4.079,4.079,0,0,0-.36,1.987c.023.869.218,1.929.361,3.115.149,1.213.307,2.5.473,3.849.316,2.732.566,5.21.716,7.007A13.074,13.074,0,0,1,323.692,299.372Z" transform="translate(-321.57 -279.837)"/></g><g transform="translate(105.532 3.036)"><path class="g" d="M332.362,297.157a9.824,9.824,0,0,1-.9-2.628,42.072,42.072,0,0,1-1.229-13.311,9.891,9.891,0,0,1,.407-2.75c.2.016-.167,4.231.325,9.395C331.423,293.028,332.557,297.1,332.362,297.157Z" transform="translate(-330.131 -278.468)"/></g><g transform="translate(124.763 0.562)"><path class="g" d="M348.647,294.726c-.216-.023.686-4.235-.232-9.348-.857-5.126-3.123-8.789-2.928-8.882a8.447,8.447,0,0,1,1.489,2.359A23.739,23.739,0,0,1,349.256,292,8.441,8.441,0,0,1,348.647,294.726Z" transform="translate(-345.475 -276.494)"/></g><g transform="translate(70.2 45.718)"><path class="d" d="M301.951,322.465c-.148-.1,1.26-2.513,3.329-5.266s3.992-4.786,4.126-4.671-1.553,2.324-3.6,5.062S302.105,322.567,301.951,322.465Z" transform="translate(-301.941 -312.523)"/></g><g transform="translate(83.105 31.917)"><path class="d" d="M318.49,309.681c-.144.11-1.657-1.629-3.38-3.884s-3-4.172-2.861-4.281,1.656,1.629,3.38,3.885S318.633,309.572,318.49,309.681Z" transform="translate(-312.237 -301.511)"/></g><g transform="translate(101.215 30.292)"><path class="d" d="M334.841,300.224c.118.143-1.76,1.859-4,4.044s-4.007,4.014-4.148,3.893,1.425-2.156,3.692-4.36S334.732,300.087,334.841,300.224Z" transform="translate(-326.687 -300.215)"/></g><g transform="translate(97.929 13.098)"><path class="d" d="M329.885,291.771c-.122.133-1.52-.937-3.125-2.39s-2.809-2.74-2.687-2.874,1.52.936,3.125,2.39S330.006,291.637,329.885,291.771Z" transform="translate(-324.065 -286.496)"/></g><g transform="translate(112.708 8.967)"><path class="d" d="M344.431,283.254c.038.175-1.851.729-4.219,1.237s-4.318.775-4.355.6,1.851-.731,4.219-1.238S344.393,283.077,344.431,283.254Z" transform="translate(-335.857 -283.2)"/></g><g transform="translate(124.174 28.006)"><path class="d" d="M345.622,307.163c-.181.009-.426-1.948-.548-4.369s-.076-4.394.1-4.4.425,1.946.548,4.369S345.8,307.154,345.622,307.163Z" transform="translate(-345.005 -298.391)"/></g><g transform="translate(114.594 39.765)"><path class="d" d="M341.163,318.137c-.169.061-1.152-2.208-2.195-5.068s-1.752-5.231-1.582-5.294,1.152,2.208,2.195,5.07S341.334,318.075,341.163,318.137Z" transform="translate(-337.362 -307.773)"/></g><g transform="translate(96.794 48.69)"><path class="d" d="M327.4,325.743c-.168.065-1.247-2.311-2.411-5.305s-1.971-5.477-1.8-5.542,1.248,2.31,2.413,5.305S327.564,325.677,327.4,325.743Z" transform="translate(-323.159 -314.894)"/></g><g transform="translate(82.459 59.57)"><path class="d" d="M313.945,334.21c-.177.036-.807-2.315-1.409-5.251s-.945-5.347-.768-5.383.807,2.315,1.407,5.251S314.122,334.174,313.945,334.21Z" transform="translate(-311.722 -323.576)"/></g><g transform="translate(60.579 61.054)"><path class="d" d="M298.948,334.337c-.162.079-1.337-2-2.626-4.645s-2.2-4.852-2.039-4.931,1.339,2,2.626,4.645S299.109,334.258,298.948,334.337Z" transform="translate(-294.264 -324.759)"/></g><g transform="translate(54.373 83.065)"><path class="d" d="M299.783,342.338c.08.162-2.2,1.45-5.09,2.879s-5.3,2.454-5.379,2.292,2.2-1.45,5.09-2.878S299.7,342.177,299.783,342.338Z" transform="translate(-289.312 -342.322)"/></g><g transform="translate(62.522 93.384)"><path class="d" d="M298.378,359.955c-.163.063-1.074-1.944-1.77-4.562s-.91-4.812-.737-4.838.676,2.087,1.369,4.67S298.552,359.89,298.378,359.955Z" transform="translate(-295.814 -350.555)"/></g><g transform="translate(53.318 109.528)"><path class="d" d="M296.221,370.531c-.123.133-1.954-1.345-4.092-3.3s-3.774-3.652-3.652-3.785,1.954,1.346,4.092,3.3S296.343,370.4,296.221,370.531Z" transform="translate(-288.471 -363.436)"/></g><g transform="translate(74.438 107.153)"><path class="d" d="M317.542,361.569c.048.187-2.83,1.009-6.189,2.49-3.368,1.465-5.923,3.024-6.028,2.861-.1-.135,2.337-1.966,5.766-3.459C314.511,361.953,317.509,361.4,317.542,361.569Z" transform="translate(-305.322 -361.541)"/></g><g transform="translate(76.078 91.519)"><path class="d" d="M309.726,357.865c-.169.06-.994-1.861-1.84-4.29s-1.394-4.448-1.224-4.507,1,1.862,1.841,4.291S309.9,357.806,309.726,357.865Z" transform="translate(-306.631 -349.067)"/></g><g transform="translate(86.931 83.371)"><path class="d" d="M322.715,342.569c.152.1-1.384,2.807-3.432,6.056s-3.831,5.8-3.983,5.708,1.384-2.807,3.432-6.056S322.562,342.472,322.715,342.569Z" transform="translate(-315.29 -342.566)"/></g><g transform="translate(103.424 72.952)"><path class="d" d="M335.688,346.3c-.137.105-2.159-2.34-4.165-5.691s-3.217-6.284-3.061-6.354,1.627,2.7,3.621,6.018S335.84,346.187,335.688,346.3Z" transform="translate(-328.449 -334.253)"/></g><g transform="translate(110.83 68.84)"><path class="d" d="M343.962,331.036c.035.169-2.086.719-4.771.847s-4.849-.2-4.831-.371,2.163-.144,4.8-.281S343.929,330.852,343.962,331.036Z" transform="translate(-334.359 -330.971)"/></g><g transform="translate(131.061 50.553)"><path class="d" d="M363.069,316.395c.076.163-2.673,1.636-6.144,3.289s-6.346,2.863-6.423,2.7,2.672-1.636,6.143-3.289S362.992,316.233,363.069,316.395Z" transform="translate(-350.501 -316.38)"/></g><g transform="translate(145.155 28.861)"><path class="d" d="M361.764,309.118c-.162-.08.822-2.394,2.2-5.166s2.621-4.957,2.782-4.877-.822,2.393-2.2,5.166S361.925,309.2,361.764,309.118Z" transform="translate(-361.746 -299.073)"/></g><g transform="translate(156.304 36.583)"><path class="d" d="M374.253,316.708c-.181.041-.912-2.545-1.9-5.7s-1.857-5.7-1.686-5.772,1.315,2.388,2.309,5.576S374.425,316.671,374.253,316.708Z" transform="translate(-370.642 -305.234)"/></g><g transform="translate(150.935 60.165)"><path class="d" d="M377.647,324.075c.061.162-2.357,1.209-5.5,2.01s-5.764,1.054-5.789.882,2.523-.714,5.627-1.515S377.583,323.9,377.647,324.075Z" transform="translate(-366.358 -324.05)"/></g><g transform="translate(136.927 61.218)"><path class="d" d="M355.221,338.679c-.189-.038.348-3.088.5-6.886.17-3.8-.105-6.881.086-6.9.164-.029.738,3.068.565,6.931C356.217,335.684,355.383,338.722,355.221,338.679Z" transform="translate(-355.181 -324.89)"/></g><g transform="translate(123.772 80.43)"><path class="d" d="M352.842,350.04c-.115.127-2.32-1.745-4.585-4.483s-3.707-5.244-3.562-5.334,1.817,2.22,4.065,4.917S352.973,349.9,352.842,350.04Z" transform="translate(-344.685 -340.219)"/></g><g transform="translate(146.554 87.022)"><path class="d" d="M373.568,345.5c.07.165-2.271,1.3-5.226,2.535s-5.409,2.1-5.478,1.935,2.27-1.3,5.226-2.537S373.5,345.332,373.568,345.5Z" transform="translate(-362.862 -345.479)"/></g><g transform="translate(147.919 101.948)"><path class="d" d="M364.217,371.174c-.18,0-.3-3.089-.258-6.9s.216-6.892.4-6.889.3,3.088.257,6.9S364.4,371.177,364.217,371.174Z" transform="translate(-363.951 -357.388)"/></g><g transform="translate(128.694 100.23)"><path class="d" d="M348.656,369.875c-.17-.023.143-3.235,1.113-7.085s2.2-6.832,2.362-6.772c.177.063-.777,3.113-1.728,6.931S348.843,369.9,348.656,369.875Z" transform="translate(-348.612 -356.017)"/></g><g transform="translate(115.793 121.521)"><path class="d" d="M352.159,373.1c.01.188-3.114.488-6.923,1.122s-6.866,1.345-6.917,1.163c-.049-.164,2.958-1.177,6.81-1.807S352.153,372.928,352.159,373.1Z" transform="translate(-338.319 -373.005)"/></g><g transform="translate(108.119 108.602)"><path class="d" d="M332.2,370.884c-.129-.125,1.534-2.058,3.716-4.316s4.056-3.989,4.186-3.864-1.534,2.058-3.716,4.318S332.332,371.009,332.2,370.884Z" transform="translate(-332.195 -362.697)"/></g><g transform="translate(90.733 120.551)"><path class="d" d="M321.787,382.022c-.186.035-.742-2.22-1.693-4.9s-1.919-4.8-1.752-4.884c.149-.085,1.407,1.923,2.367,4.667S321.956,381.994,321.787,382.022Z" transform="translate(-318.323 -372.231)"/></g><g transform="translate(104.37 132.605)"><path class="d" d="M341.515,387.33c-.074.164-2.889-.925-6.288-2.434s-6.1-2.865-6.022-3.031,2.888.925,6.288,2.434S341.588,387.166,341.515,387.33Z" transform="translate(-329.204 -381.849)"/></g><g transform="translate(77.457 126.848)"><path class="d" d="M307.762,386.221c-.17-.056.357-2.109,1.179-4.585s1.627-4.437,1.8-4.38-.357,2.111-1.179,4.586S307.933,386.278,307.762,386.221Z" transform="translate(-307.73 -377.255)"/></g><g transform="translate(87.227 138.85)"><path class="d" d="M331.61,388.166c-.036.191-3.6-.387-8.033-.614-4.432-.244-8.036-.049-8.051-.242-.02-.165,3.6-.657,8.086-.41C328.1,387.13,331.646,388,331.61,388.166Z" transform="translate(-315.526 -386.832)"/></g><g transform="translate(108.642 52.368)"><path class="g" d="M332.648,368.687a1.479,1.479,0,0,1-.034-.494,4.648,4.648,0,0,1,.2-1.423,3.147,3.147,0,0,1,1.362-1.865,4.378,4.378,0,0,1,3.059-.505l-.256.149c1.372-4.806,3.563-11.829,5.756-19.7,2.054-7.367,3.439-14.152,4.412-19.072l1.148-5.828a14.074,14.074,0,0,1,.5-2.124,13.807,13.807,0,0,1-.246,2.168c-.2,1.39-.516,3.4-.944,5.869a196.185,196.185,0,0,1-4.236,19.159c-2.2,7.89-4.468,14.884-5.968,19.652l-.059.185-.2-.036a4.066,4.066,0,0,0-2.786.372,2.933,2.933,0,0,0-1.315,1.648A17.359,17.359,0,0,0,332.648,368.687Z" transform="translate(-332.613 -317.829)"/></g><g transform="translate(112.865 98.914)"><path class="g" d="M359.9,376.712c-.107.049-.877-1.648-2.472-4.177a43.086,43.086,0,0,0-17.05-15.5c-2.67-1.346-4.433-1.951-4.393-2.063a5.08,5.08,0,0,1,1.27.333,28.234,28.234,0,0,1,3.325,1.313,39.06,39.06,0,0,1,17.243,15.671,28.472,28.472,0,0,1,1.626,3.185A5.067,5.067,0,0,1,359.9,376.712Z" transform="translate(-335.982 -354.967)"/></g><g class="t" transform="translate(113.219 98)"><path d="M336.616,354.238c4.793.345,8.718.706,13.217,2.393s8.658,4.914,10.312,9.425c.4,1.082.585,2.446-.234,3.256a2.32,2.32,0,0,1-2.375.382,6.284,6.284,0,0,1-2.076-1.427c-2.764-2.556-5.626-4.813-8.479-7.268s-7-5.038-10.717-5.607" transform="translate(-336.265 -354.238)"/></g><g transform="translate(70.698 81.217)"><path class="g" d="M336.175,349.636a5.8,5.8,0,0,1-1.307.756,22.762,22.762,0,0,1-3.855,1.454,25.748,25.748,0,0,1-25.237-6.554,22.847,22.847,0,0,1-2.661-3.147,5.789,5.789,0,0,1-.775-1.3c.105-.079,1.246,1.761,3.755,4.11a26.556,26.556,0,0,0,24.8,6.441C334.23,350.569,336.122,349.517,336.175,349.636Z" transform="translate(-302.338 -340.847)"/></g><g class="t" transform="translate(71.381 82.187)"><path d="M302.883,341.621c2.109,4.59,4.588,9.207,8.59,12.289,2.307,1.776,5,3.27,7.916,3.318,4.184.069,7.777-2.785,10.969-5.49-10.341,1.619-22-3.072-27.475-10.117" transform="translate(-302.883 -341.621)"/></g><g transform="translate(115.873 1.74)"><path class="g" d="M340.228,296.462c-.2-.011.041-4.3-.475-9.555-.49-5.255-1.54-9.424-1.347-9.473a10.3,10.3,0,0,1,.87,2.688,48.289,48.289,0,0,1,1.3,13.535A10.337,10.337,0,0,1,340.228,296.462Z" transform="translate(-338.382 -277.434)"/></g></g><g transform="translate(0 281.999)"><path class="r" d="M233.911,426.44s-13.622,2.944-25.783,1.12c-11.4-1.71-36.93.059-36.921,15.086.011,16.759,34.053,12.618,47.335,9.961s26.508-5.063,26.508-5.063Z" transform="translate(-171.206 -426.44)"/><g transform="translate(29.44 9.661)"><path class="g" d="M197.388,445.958c-.175.04-.912-2.572-1.646-5.833s-1.184-5.936-1.009-5.976.912,2.572,1.646,5.833S197.564,445.919,197.388,445.958Z" transform="translate(-194.696 -434.149)"/></g><g transform="translate(35.064 9.642)"><path class="g" d="M200.9,446.182c-.179.025-.693-2.653-1.149-5.98s-.682-6.046-.5-6.07.693,2.652,1.149,5.981S201.075,446.159,200.9,446.182Z" transform="translate(-199.183 -434.133)"/></g><g transform="translate(39.917 9.41)"><path class="g" d="M204.4,444.477c-.179.023-.609-2.317-.96-5.225s-.49-5.283-.311-5.3.609,2.317.96,5.226S204.582,444.456,204.4,444.477Z" transform="translate(-203.055 -433.948)"/></g><g transform="translate(45.971 8.904)"><path class="g" d="M210.226,442.822c-.158.068-1.125-1.886-1.752-4.487s-.672-4.78-.5-4.791c.187-.018.511,2.092,1.134,4.637S210.4,442.752,210.226,442.822Z" transform="translate(-207.885 -433.544)"/></g><g transform="translate(49.802 1.543)"><path class="g" d="M210.962,438.184a5.858,5.858,0,0,1,1.78-.119,15.1,15.1,0,0,1,4.783.936,5.323,5.323,0,0,1,1.473.793,2.235,2.235,0,0,1,.922,1.661,2.519,2.519,0,0,1-3.084,2.241,6.344,6.344,0,0,1-3.556-2.532,10.815,10.815,0,0,1-2.012-4.19,10.64,10.64,0,0,1,1.5-8.678,1.73,1.73,0,0,1,1.011-.609,1.374,1.374,0,0,1,1.133.353,3.047,3.047,0,0,1,.852,1.829,9.3,9.3,0,0,1-.179,3.409,9.468,9.468,0,0,1-2.3,4.3,7.422,7.422,0,0,1-.994.882c-.249.174-.385.256-.4.238-.038-.046.475-.427,1.2-1.288a9.789,9.789,0,0,0,2.038-4.231,9,9,0,0,0,.1-3.227,2.54,2.54,0,0,0-.7-1.476.874.874,0,0,0-1.315.219,10.629,10.629,0,0,0,.565,12.078,5.824,5.824,0,0,0,3.158,2.334,1.969,1.969,0,0,0,2.436-1.637,1.727,1.727,0,0,0-.7-1.285,4.937,4.937,0,0,0-1.32-.752,16.592,16.592,0,0,0-4.631-1.112C211.6,438.215,210.963,438.236,210.962,438.184Z" transform="translate(-210.942 -427.671)"/></g><g transform="translate(2.142 0.298)"><path class="g" d="M243.269,445.267a1.473,1.473,0,0,1-.343.109l-1.021.254-3.949.9c-3.437.756-8.42,1.816-14.611,3.012s-13.59,2.545-21.882,3.675a59.1,59.1,0,0,1-13.147.656,28.249,28.249,0,0,1-6.886-1.316,18.907,18.907,0,0,1-3.3-1.469,10.206,10.206,0,0,1-2.9-2.337l.05.055a6.912,6.912,0,0,1-1.184-1.421,8.864,8.864,0,0,1-.693-7.334,11.724,11.724,0,0,1,4.367-5.709,22.194,22.194,0,0,1,6.208-3.076c1.087-.308,2.144-.681,3.221-.925,1.082-.216,2.138-.5,3.2-.65,8.538-1.347,16.3-.663,22.754-.661,3.235.06,6.156-.028,8.717-.184a58.335,58.335,0,0,0,6.522-.825l2.349-.494,1.692-.483,1.045-.287a1.663,1.663,0,0,1,.363-.078,1.51,1.51,0,0,1-.342.14l-1.028.35-1.682.545-2.347.554a54.51,54.51,0,0,1-6.545.94c-2.571.193-5.507.313-8.747.283-6.466.054-14.226-.575-22.651.792-1.054.149-2.093.437-3.16.652-1.06.244-2.1.615-3.166.92a21.611,21.611,0,0,0-6.027,3,11.1,11.1,0,0,0-4.13,5.393,8.235,8.235,0,0,0,.627,6.788,6.292,6.292,0,0,0,1.068,1.282l.021.021.029.036a9.77,9.77,0,0,0,2.692,2.147,18.356,18.356,0,0,0,3.186,1.419,27.768,27.768,0,0,0,6.733,1.3,59.019,59.019,0,0,0,13.017-.613c8.277-1.093,15.675-2.4,21.875-3.531s11.193-2.129,14.644-2.81l3.973-.781,1.035-.192A1.584,1.584,0,0,1,243.269,445.267Z" transform="translate(-172.915 -426.677)"/></g><g transform="translate(19.509 3.374)"><path class="g" d="M189.948,452.716a22.535,22.535,0,0,1-.33-3.48c-.154-2.149-.41-5.111-.845-8.365s-.97-6.18-1.386-8.293a22.356,22.356,0,0,1-.6-3.445,15.877,15.877,0,0,1,1.048,3.344,76.759,76.759,0,0,1,2.242,16.738A15.841,15.841,0,0,1,189.948,452.716Z" transform="translate(-186.772 -429.132)"/></g><path class="u" d="M217.892,427.165l8.632,21.62,6.7-1.24-12.829-21.1Z" transform="translate(-159.38 -426.44)"/></g><path class="g" d="M342.142,387c-1.389.462-90.592-24.535-126.666-34.678a34.266,34.266,0,0,0-27.9,4.222l-.435.281a34.272,34.272,0,0,0-14.757,36.537h0a34.255,34.255,0,0,0,15.47,21.45c23.789,14.574,74.134,45.235,75.674,44.638,2.017-.782,64.89-2.413,64.89-2.413l-75.639-54.4L288.766,425.9,342.142,387Z" transform="translate(-171.133 -163.539)"/><path class="o" d="M248.933,360.06l18.963-9.81,18.594,11.657,69.62,2.275,10.077,33.893L265.421,374.716s-18.341,1.623-19.715-2.5S248.933,360.06,248.933,360.06Z" transform="translate(-152.399 -163.741)"/><path class="g" d="M295.632,406.541l-9.372,30.778,1.166,9.38h0a48.157,48.157,0,0,0,63.518,4.281h0A47.192,47.192,0,0,0,369.4,413.339l-.14-32.159Z" transform="translate(-142.061 -155.906)"/><g transform="translate(49.546 214.879)"><path class="q" d="M258.948,408.842c-.108.145-10.988-7.787-24.3-17.714s-24.019-18.1-23.911-18.241,10.987,7.786,24.3,17.717S259.056,408.7,258.948,408.842Z" transform="translate(-210.738 -372.885)"/></g><g transform="translate(95.468 192.638)"><path class="p" d="M266.129,355.156c.055.172-4.1,1.656-9.276,3.315s-9.419,2.864-9.474,2.692,4.1-1.656,9.276-3.314S266.074,354.985,266.129,355.156Z" transform="translate(-247.379 -355.14)"/></g><g transform="translate(93.854 198.388)"><path class="p" d="M267.872,359.773a19.828,19.828,0,0,1-3.23.607c-2,.326-4.746.816-7.751,1.505s-5.693,1.451-7.631,2.032a19.645,19.645,0,0,1-3.17.864,14.17,14.17,0,0,1,3.026-1.3,68.139,68.139,0,0,1,15.465-3.556A14.175,14.175,0,0,1,267.872,359.773Z" transform="translate(-246.091 -359.728)"/></g><g transform="translate(93.026 203.711)"><path class="p" d="M266.452,364c.035.177-4.642,1.253-10.446,2.4s-10.54,1.941-10.576,1.763,4.642-1.252,10.448-2.4S266.417,363.823,266.452,364Z" transform="translate(-245.43 -363.975)"/></g><g transform="translate(1.071 149.667)"><path class="q" d="M260.437,322.037l17.491,57.553a1.669,1.669,0,0,0,1.47,1.178l47.665,3.577a1.666,1.666,0,0,1,1.542,1.662v2.975a1.667,1.667,0,0,1-1.7,1.667l-130.3-2.448a1.67,1.67,0,0,1-1.527-1.073L172.171,327.1a1.666,1.666,0,0,1,1.479-2.26l85.114-3.982A1.666,1.666,0,0,1,260.437,322.037Z" transform="translate(-172.06 -320.854)"/><path class="b" d="M213.807,341.64a4.111,4.111,0,0,0-2.578,2.928,3.945,3.945,0,0,0,1.684,3.586,4.285,4.285,0,0,0,4.763.178,3.97,3.97,0,0,0,1.3-4.81c-.575-1.589-3.484-2.7-5.169-1.881" transform="translate(-162.145 -315.659)"/></g><g transform="translate(60.071 191.842)"><path class="g" d="M232.907,465.767l-13.771-22.656,101.27-79.369a40.69,40.69,0,0,1,22.118-9.065h0a40.693,40.693,0,0,1,44.243,43.914l-1.618,19.364-67.22,21.6Z" transform="translate(-219.136 -354.505)"/><g transform="translate(13.772 57.469)"><path class="q" d="M359.992,400.359a1.524,1.524,0,0,1-.268.249l-.827.682-3.225,2.574q-1.062.837-2.342,1.849c-.855.678-1.861,1.306-2.9,2.04l-3.364,2.306c-.6.4-1.2.836-1.844,1.25l-2.01,1.211c-2.752,1.642-5.721,3.524-9.089,5.225-1.669.874-3.373,1.826-5.172,2.716l-5.6,2.652c-7.709,3.514-16.345,7.05-25.6,10.2-18.5,6.374-35.6,10.963-47.847,14.676-3.072.9-5.839,1.748-8.263,2.515-2.429.751-4.522,1.4-6.215,1.974l-3.92,1.273c-.422.129-.76.234-1.025.316a1.5,1.5,0,0,1-.357.086,1.521,1.521,0,0,1,.335-.149l1-.377,3.883-1.391c1.683-.613,3.765-1.3,6.185-2.079,2.415-.8,5.176-1.678,8.239-2.609,12.222-3.829,29.3-8.487,47.768-14.852,9.242-3.142,17.861-6.651,25.565-10.127l5.592-2.621c1.8-.879,3.5-1.819,5.172-2.678,3.369-1.676,6.343-3.528,9.1-5.141q1.032-.609,2.017-1.188c.642-.4,1.25-.83,1.851-1.226l3.383-2.258c1.048-.718,2.063-1.331,2.927-1.993s1.654-1.256,2.371-1.8c1.4-1.053,2.5-1.881,3.3-2.474l.867-.632A1.546,1.546,0,0,1,359.992,400.359Z" transform="translate(-230.124 -400.358)"/></g><g transform="translate(117.722 68.053)"><path class="q" d="M341.439,408.813a3.918,3.918,0,0,1-1.021.535c-.673.308-1.664.712-2.905,1.173a74.037,74.037,0,0,1-20.167,4.334c-1.32.089-2.39.128-3.131.123a3.949,3.949,0,0,1-1.151-.068,38.441,38.441,0,0,1,4.239-.515c2.616-.292,6.218-.8,10.142-1.639s7.412-1.862,9.917-2.671A38.654,38.654,0,0,1,341.439,408.813Z" transform="translate(-313.064 -408.803)"/></g><g transform="translate(0 13.044)"><path class="q" d="M316.353,364.913c.11.142-21.565,17.174-48.406,38.036s-48.7,37.667-48.812,37.525,21.56-17.17,48.411-38.041S316.243,364.77,316.353,364.913Z" transform="translate(-219.136 -364.912)"/></g><g transform="translate(25.613 86.059)"><g transform="translate(0.011)"><path class="r" d="M305.321,434.378c-4.858-2.591-10.311-1.059-14.958.508-3.094,1.043-6.309,2.695-9.451,1.81-2.272-.64-3.962-2.482-5.7-4.082a35.811,35.811,0,0,0-26.177-9.379,10.661,10.661,0,0,0-7.189,3.25c-4.771,5.167-1.173,11.893,3.091,16.238a47.11,47.11,0,0,0,28.467,13.733c8.885.927,21.1-.3,30.113-4.157,5.555-2.379,8.406-8.932,5.491-14.225A9.128,9.128,0,0,0,305.321,434.378Z" transform="translate(-239.581 -423.17)"/><g class="n" transform="translate(0.253 4.135)"><path d="M305.26,437.679c-4.858-2.591-10.311-1.059-14.96.508-3.093,1.043-6.308,2.695-9.45,1.81-2.272-.64-3.963-2.482-5.7-4.082a35.815,35.815,0,0,0-26.178-9.38,10.664,10.664,0,0,0-7.189,3.251,8.29,8.29,0,0,0-2,3.622,18.894,18.894,0,0,0,5.093,8.48,47.114,47.114,0,0,0,28.468,13.733c8.885.927,21.1-.3,30.112-4.157a10.989,10.989,0,0,0,6.409-7.639,9.278,9.278,0,0,0-.919-2.45A9.125,9.125,0,0,0,305.26,437.679Z" transform="translate(-239.783 -426.469)"/></g></g><g transform="translate(0 3.89)"><path class="g" d="M309.919,443.873A8.436,8.436,0,0,0,308.729,441a9.42,9.42,0,0,0-2.6-2.542,10.383,10.383,0,0,0-4.466-1.71c-3.607-.424-7.786,1.094-12.428,2.351-2.295.607-4.8,1.537-7.545,1.192a10,10,0,0,1-3.882-1.344,24.126,24.126,0,0,1-3.336-2.512A36.319,36.319,0,0,0,254.579,427a20.8,20.8,0,0,0-5.879-.034,12.812,12.812,0,0,0-4.548,1.587,11.6,11.6,0,0,0-2.786,2.361,28.208,28.208,0,0,0-1.793,2.589,10.079,10.079,0,0,1,1.6-2.751,11.381,11.381,0,0,1,2.791-2.51,13,13,0,0,1,4.664-1.732,20.941,20.941,0,0,1,6.02-.046,34.618,34.618,0,0,1,6.734,1.5,38.972,38.972,0,0,1,6.973,3.078,29.059,29.059,0,0,1,3.394,2.21c1.08.847,2.1,1.777,3.153,2.682a23.916,23.916,0,0,0,3.241,2.449,9.383,9.383,0,0,0,3.631,1.267c2.542.336,4.979-.533,7.307-1.138,4.621-1.211,8.872-2.723,12.643-2.228a10.449,10.449,0,0,1,7.22,4.571,6.745,6.745,0,0,1,.9,2.193A3.086,3.086,0,0,1,309.919,443.873Z" transform="translate(-239.572 -426.274)"/></g><g transform="translate(0 3.89)"><path class="g" d="M309.919,443.873A8.436,8.436,0,0,0,308.729,441a9.42,9.42,0,0,0-2.6-2.542,10.383,10.383,0,0,0-4.466-1.71c-3.607-.424-7.786,1.094-12.428,2.351-2.295.607-4.8,1.537-7.545,1.192a10,10,0,0,1-3.882-1.344,24.126,24.126,0,0,1-3.336-2.512A36.319,36.319,0,0,0,254.579,427a20.8,20.8,0,0,0-5.879-.034,12.812,12.812,0,0,0-4.548,1.587,11.6,11.6,0,0,0-2.786,2.361,28.208,28.208,0,0,0-1.793,2.589,10.079,10.079,0,0,1,1.6-2.751,11.381,11.381,0,0,1,2.791-2.51,13,13,0,0,1,4.664-1.732,20.941,20.941,0,0,1,6.02-.046,34.618,34.618,0,0,1,6.734,1.5,38.972,38.972,0,0,1,6.973,3.078,29.059,29.059,0,0,1,3.394,2.21c1.08.847,2.1,1.777,3.153,2.682a23.916,23.916,0,0,0,3.241,2.449,9.383,9.383,0,0,0,3.631,1.267c2.542.336,4.979-.533,7.307-1.138,4.621-1.211,8.872-2.723,12.643-2.228a10.449,10.449,0,0,1,7.22,4.571,6.745,6.745,0,0,1,.9,2.193A3.086,3.086,0,0,1,309.919,443.873Z" transform="translate(-239.572 -426.274)"/></g><g transform="translate(10.099 11.568)"><path class="g" d="M247.631,441.152a12.468,12.468,0,0,1,2.488-1.723,71.767,71.767,0,0,1,13.189-6.2,12.454,12.454,0,0,1,2.913-.816,15.764,15.764,0,0,1-2.749,1.248c-1.716.714-4.076,1.72-6.64,2.923s-4.84,2.383-6.486,3.247A15.683,15.683,0,0,1,247.631,441.152Z" transform="translate(-247.63 -432.4)"/></g><g transform="translate(11.769 15.859)"><path class="g" d="M248.963,445.144c-.079-.163,4.17-2.379,9.486-4.949s9.694-4.524,9.773-4.362-4.17,2.378-9.489,4.949S249.041,445.305,248.963,445.144Z" transform="translate(-248.962 -435.823)"/></g><g transform="translate(9.119 12.933)"><path class="g" d="M269.623,447.842c-.1.152-5.273-2.937-11.561-6.9s-11.31-7.3-11.213-7.45,5.271,2.935,11.562,6.9S269.719,447.689,269.623,447.842Z" transform="translate(-246.848 -433.489)"/></g><g transform="translate(17.749 10.414)"><path class="g" d="M270.792,443.31a15.468,15.468,0,0,1-2.534-1.693c-1.523-1.1-3.623-2.616-5.975-4.246s-4.511-3.064-6.072-4.106a15.39,15.39,0,0,1-2.475-1.778,13.065,13.065,0,0,1,2.718,1.387c1.631.944,3.838,2.324,6.2,3.961s4.428,3.221,5.883,4.417A13.075,13.075,0,0,1,270.792,443.31Z" transform="translate(-253.734 -431.479)"/></g></g></g></g></g></g></svg>