<svg xmlns="http://www.w3.org/2000/svg" width="1770.377" height="396.393" viewBox="0 0 1770.377 396.393"><defs><style>.a{fill:#ffc100;}.b{fill:#062a4f;}.c{fill:#0059a7;}</style></defs><g transform="translate(0 -1842.821)"><g transform="translate(0 1842.821)"><path class="a" d="M1770.2,1852.1l.176,387.118H0c41.465-20.34,90.351-30.324,136.461-31.666,70.4-2.06,144.114,2.707,207.511-31.008,57.823-30.753,105.448-92.559,169.642-94.785,79.165-2.707,147.564,88.672,224.792,69.35,57-14.254,94.324-85.432,152.653-89.9,62.428-4.795,112.786,70.229,175.193,64.768,57.318-5.021,94.262-75.228,150.676-87.423,56.877-12.263,109.927,38.042,167.792,41.444,55.909,3.286,106-37.579,144.179-82.656,38.184-45.1,71.132-97.418,118.842-129.676C1683.929,1843.209,1732.8,1834.486,1770.2,1852.1Z" transform="translate(0 -1842.821)"/></g><g transform="translate(394.897 1972.546)"><path class="b" d="M2589.479,2241.623v266.668H1214c2.513-60.774,41.383-93.7,81.935-101.081,41.27-7.515,83.352,4.914,123.184,18.025,39.857,13.112,80.993,27.221,122.734,23.148,80.409-7.856,149.6-81.742,229.2-68,32.608,5.624,60.615,25.487,89.542,41.567,28.9,16.055,62.975,28.929,94.592,19.179,38.847-12.008,61.868-54.363,100.225-67.843,57.093-20.047,120.962,31.451,178.255,12.008,27.087-9.2,46.634-32.608,62.636-56.255,16-23.674,30.476-49.266,52.917-66.949s55.947-25.434,79.556-9.327c26.347,17.92,37.1,61.3,68.968,61.747,22.307.341,37.164-21.835,49.395-40.49C2557.162,2258.728,2572.669,2242.7,2589.479,2241.623Z" transform="translate(-1213.998 -2241.623)"/></g><g transform="translate(1110.126 2048.174)"><path class="c" d="M4073.017,2474.122v191.039H3412.766c37.366-66.631,116.234-108.32,192.428-100.123,29.476,3.171,57.847,12.965,87.132,17.567s61.323,3.312,85.679-13.575c22.734-15.76,36.92-43.779,63.015-53.009,31.143-11.039,63.647,9.253,95.824,16.816C3988.394,2544.957,4045.491,2518.723,4073.017,2474.122Z" transform="translate(-3412.766 -2474.122)"/></g></g></svg>