<svg xmlns="http://www.w3.org/2000/svg" width="796.609" height="565.867" viewBox="0 0 796.609 565.867"><defs><style>.a{fill:#f0f0f0;}.b{fill:#e0e0e0;}.c{fill:#fafafa;}.d{fill:#f5f5f5;}.e{fill:#ebebeb;}.f{fill:#455a64;}.g{fill:#263238;}.h{fill:#ffcd05;}.i{fill:#ffbe9d;}.j{fill:#eb996e;}.k{fill:#266ab4;}.l,.m{opacity:0.3;}.n{fill:#00a0d1;}.o{opacity:0.4;}</style></defs><g transform="translate(-973 -3390.8)"><path class="a" d="M-798.9,96.451c114.576-42.535,231.027-4.929,310.007,76.975s244.729-56.532,332.634,25.241c59.992,55.8,32.513,199.283-49.745,261.426-111.808,84.468-451.831,41.607-525.384,27.233-84.738-16.561-146.689-66.807-171.859-127.791C-963.895,212.593-849.534,115.249-798.9,96.451Z" transform="translate(1893.545 3394.218)"/><g transform="translate(1058.737 3351.154)"><g transform="translate(93.133 39.646)"><g transform="translate(0)"><g transform="translate(0 13.996)"><rect class="b" width="217.99" height="273.909"/><rect class="c" width="203.437" height="258.253" transform="translate(7.981 7.838)"/><path class="d" d="M85.7,219.385h40.928l5.261,24.083h17.757l15.127-68.489h50.641V128.285h36.83v78.026h36.892v81.226H85.7Z" transform="translate(-77.719 -21.447)"/><rect class="b" width="6.577" height="256.122" transform="translate(106.364 7.838)"/><rect class="b" width="203.437" height="6.732" transform="translate(7.981 132.947)"/></g><g transform="translate(375.865 56.088)"><path class="b" d="M392.06,103.478l13.085,33.473-8.134-.037-6.519-20.571Z" transform="translate(-342.881 -72.549)"/><path class="e" d="M360.064,80.79l-4.5,64.137L402,145.9l5.225-65.107Z" transform="translate(-355.566 -80.79)"/><path class="c" d="M363.271,84.663l-3.745,53.385,34.52,1.617,4.823-55.319Z" transform="translate(-354.128 -79.498)"/><path class="b" d="M368.576,90.116l-2.8,37.526h19.042l3.359-37.526Z" transform="translate(-351.858 -77.402)"/></g><path class="e" d="M308.284,142.258V89.523H346.9v52.694Z" transform="translate(3.125 -21.53)"/><path class="b" d="M327.711,107.639s9.315-68.088,6.706-67.993-9.164,62.077-9.164,62.077-.274-51.334-2.73-51.061,0,54.338,0,54.338-4.2-43.876-6.468-42.827.975,45.466.975,45.466h10.682" transform="translate(5.655 -39.646)"/><path class="e" d="M319.24,103.861s3.228-33.937,4.293-31.616,0,20.2,0,20.2,8.941-43.855,11.283-42.365-9.154,47.6-9.154,47.6,8.729-26.324,10.644-23.549-7.239,27.467-7.239,27.467,9.368-17.456,10.007-15.114-4.473,17.374-4.473,17.374Z" transform="translate(7.105 -35.868)"/><path class="e" d="M320.082,100.147s-20.65-40.537-18.094-39.28,15.753,27.44,15.753,27.44-8.735-25.274-6.816-26.048,11.5,28.39,11.5,28.39l2.15,9.5Z" transform="translate(0.759 -31.948)"/><path class="b" d="M326.123,89.634l.976,52.735H308.738l-.354-52.911Z" transform="translate(3.162 -21.554)"/><path class="d" d="M308.45,94.28l17.784.3,20.791-.3.652-5.039H307.945Z" transform="translate(3.003 -21.632)"/><rect class="b" width="193.109" height="8.479" transform="translate(278.177 119.867)"/></g></g><g transform="translate(263.27 186.607)"><path class="f" d="M310.553,355.234c-1.636-1.8,2.219-12.4,20.529-13.148s25.635,5.918,25.669,13.148C356.767,358.443,310.553,355.234,310.553,355.234Z" transform="translate(-166.31 -76.778)"/><g transform="translate(114.868)"><path class="d" d="M309.251,148.792,288.914,274.585H474.663l22.376-127.134Z" transform="translate(-288.914 -147.451)"/><path class="b" d="M302.475,160.239c.071-.443,187.513-.71,187.513-.71l2.127-12.078-187.789,1.341-1.85,11.447" transform="translate(-283.988 -147.45)"/><path class="g" d="M310.5,153.048a1.721,1.721,0,1,1-1.72-1.72A1.72,1.72,0,0,1,310.5,153.048Z" transform="translate(-282.323 -146.042)"/><path class="g" d="M316.707,153.048a1.721,1.721,0,1,1-1.72-1.72A1.72,1.72,0,0,1,316.707,153.048Z" transform="translate(-280.069 -146.042)"/><path class="g" d="M322.912,153.048a1.72,1.72,0,1,1-1.72-1.72A1.72,1.72,0,0,1,322.912,153.048Z" transform="translate(-277.815 -146.042)"/><path class="h" d="M347.44,207.358l-23.254,26.82c-9.116-6.453-14.451-16.356-14.451-26.82,0-18.69,17.021-34.069,37.705-34.069s37.706,15.38,37.706,34.069Z" transform="translate(-281.352 -138.066)"/><g transform="translate(45.64 73.506)"><path class="g" d="M345.824,201.428a4.323,4.323,0,0,1-.4.526l-1.205,1.453-4.608,5.438L323.066,228.13l-.055-.442a37.746,37.746,0,0,0,17.311,6.44,39.968,39.968,0,0,0,20.594-3.107,37.3,37.3,0,0,0,15.5-12.483,35.253,35.253,0,0,0,4.208-8.249,33.233,33.233,0,0,0,1.614-8.448l.3.316-26.577-.444-7.47-.17-1.978-.065a4.639,4.639,0,0,1-.693-.05,3.483,3.483,0,0,1,.653-.037l1.947-.019,7.435,0,26.69.174.322,0-.02.315a33.724,33.724,0,0,1-1.6,8.632,35.736,35.736,0,0,1-4.268,8.433A37.817,37.817,0,0,1,361.2,231.672a40.473,40.473,0,0,1-20.958,3.134,38.138,38.138,0,0,1-17.577-6.627l-.273-.192.218-.249,16.819-19.191,4.707-5.3c.521-.574.932-1.029,1.246-1.373A3.254,3.254,0,0,1,345.824,201.428Z" transform="translate(-322.394 -201.372)"/></g><circle class="g" cx="2.115" cy="2.115" r="2.115" transform="translate(80.004 46.939)"/><g transform="translate(82.117 33.229)"><path class="g" d="M393.232,172.182a10.669,10.669,0,0,1-1.983.138l-5.411.113c-4.568.064-10.878.1-17.847.1l-3.367,0,.248-.1c-4.381,4.365-8.279,8.2-11.1,10.932l-3.344,3.193a8.4,8.4,0,0,1-1.277,1.1,8.216,8.216,0,0,1,1.1-1.277l3.191-3.344c2.73-2.818,6.567-6.717,10.932-11.1l.1-.1h.146l3.367,0c6.969,0,13.279.04,17.847.1l5.411.112A10.573,10.573,0,0,1,393.232,172.182Z" transform="translate(-349.152 -171.826)"/></g><g transform="translate(120.884 22.137)"><path class="g" d="M430.779,201.694a6.342,6.342,0,0,1,.1-.714c.083-.5.2-1.166.339-2.019.315-1.8.766-4.368,1.339-7.63,1.186-6.587,2.875-15.967,4.923-27.335l.284.342-52.8.065c-.08.063.656-.548.344-.284v.01l0,.019-.007.04-.015.079-.03.158-.059.316-.117.631-.233,1.26-.465,2.506q-.464,2.495-.92,4.954-.916,4.912-1.8,9.647c-1.178,6.3-2.305,12.34-3.366,18.013l-.316-.38,38.023.153c4.627.038,8.3.067,10.861.087l2.9.042.754.02a1.419,1.419,0,0,1,.266.019.831.831,0,0,1-.233.02l-.721.02q-1.029.016-2.841.041c-2.547.022-6.2.05-10.8.087l-38.21.154h-.387l.071-.383c1.044-5.678,2.157-11.715,3.317-18.023q.875-4.73,1.784-9.65.454-2.456.917-4.954.231-1.247.463-2.506l.233-1.26.117-.631.059-.316.03-.158.015-.079.007-.04,0-.019v-.01c-.312.255.425-.361.354-.3l52.8.065h.349l-.065.342c-2.177,11.41-3.974,20.827-5.236,27.44-.631,3.227-1.129,5.766-1.476,7.545-.168.829-.3,1.478-.4,1.96A4.712,4.712,0,0,1,430.779,201.694Z" transform="translate(-377.59 -163.689)"/></g><g transform="translate(83.312 89.44)"><circle class="g" cx="2.115" cy="2.115" r="2.115"/><g transform="translate(2.115 1.76)"><path class="g" d="M389.935,214.705c0,.2-8.587.356-19.178.356s-19.178-.159-19.178-.356,8.584-.354,19.178-.354S389.935,214.51,389.935,214.705Z" transform="translate(-351.58 -214.351)"/></g></g><g transform="translate(119.197 79.952)"><path class="g" d="M431.228,234.168a3.713,3.713,0,0,1,.1-.521c.085-.369.2-.853.337-1.464.316-1.318.762-3.18,1.332-5.554,1.185-4.823,2.876-11.711,4.955-20.181l.259.333-54.444.087c-.311.24.414-.326.34-.264v.007l0,.015-.007.029-.015.057-.029.115-.057.228-.116.458-.23.911-.458,1.816q-.458,1.81-.911,3.6-.9,3.574-1.783,7.046c-1.174,4.625-2.308,9.1-3.392,13.366l-.323-.414c15.849.06,29.411.113,39.067.151l11.287.091,3.026.045.788.023a1.515,1.515,0,0,1,.279.022.889.889,0,0,1-.244.023l-.755.022-2.968.045-11.225.093-39.256.15-.428,0,.1-.417c1.073-4.271,2.2-8.745,3.36-13.373q.873-3.47,1.775-7.049.452-1.789.908-3.6l.458-1.816.23-.912.116-.457.057-.229.029-.115.015-.057.007-.029,0-.014v-.007c-.075.055.654-.511.349-.271l54.444.087h.345l-.086.331c-2.2,8.5-4,15.411-5.252,20.251-.62,2.338-1.108,4.173-1.452,5.472l-.389,1.408A2.544,2.544,0,0,1,431.228,234.168Z" transform="translate(-376.352 -206.1)"/></g><g transform="translate(133.663 33.716)"><path class="g" d="M423.088,172.537c0,.2-8.088.356-18.061.356s-18.063-.159-18.063-.356,8.085-.354,18.063-.354S423.088,172.342,423.088,172.537Z" transform="translate(-386.964 -172.183)"/></g><g transform="translate(133.029 39.631)"><path class="g" d="M422.834,176.876c0,.2-8.134.356-18.168.356s-18.167-.16-18.167-.356,8.133-.354,18.167-.354S422.834,176.681,422.834,176.876Z" transform="translate(-386.499 -176.522)"/></g><g transform="translate(133.24 45.334)"><path class="g" d="M421.721,181.06c0,.2-7.851.356-17.534.356s-17.534-.159-17.534-.356,7.849-.354,17.534-.354S421.721,180.865,421.721,181.06Z" transform="translate(-386.654 -180.706)"/></g><g transform="translate(134.508 90.541)"><path class="g" d="M422.017,214.224c0,.2-7.709.354-17.216.354s-17.217-.158-17.217-.354,7.706-.356,17.217-.356S422.017,214.027,422.017,214.224Z" transform="translate(-387.584 -213.868)"/></g><g transform="translate(137.465 97.09)"><path class="g" d="M419.117,219.028c0,.2-6.573.354-14.68.354s-14.683-.158-14.683-.354,6.572-.356,14.683-.356S419.117,218.831,419.117,219.028Z" transform="translate(-389.753 -218.672)"/></g></g><g transform="translate(0 95.143)"><path class="f" d="M253.288,319.4c-.664,3.836-18.852,44.082-7.1,44.082h58.989s-6.094-5.736,12.353-44.082Z" transform="translate(-190.998 -180.14)"/><path class="f" d="M228.763,222.188l-24.112,140.93h203.4L433,217.244Z" transform="translate(-204.651 -217.244)"/><path class="c" d="M232.833,226.269,212.5,352.062H398.245l22.377-127.134Z" transform="translate(-201.802 -214.453)"/><path class="g" d="M433,217.244l3.843,2.581-25.9,147.126H210.013l-5.362-3.833h203.4Z" transform="translate(-204.651 -217.244)"/><path class="e" d="M226.057,237.716c.072-.443,187.514-.709,187.514-.709l2.125-12.079-187.788,1.341-1.851,11.447" transform="translate(-196.877 -214.452)"/><g transform="translate(167.169 52.657)"><path class="g" d="M327.283,329.671a2.019,2.019,0,0,1,.04-.346c.044-.273.1-.622.168-1.059.166-.986.4-2.368.694-4.133.63-3.666,1.532-8.917,2.656-15.447,2.319-13.23,5.546-31.632,9.209-52.521l.05-.289h.294l14.52-.005h.536l-.076.419c-5.675,30.8-10.659,57.852-13.527,73.416l-.029.159h-.161l-10.677-.112-2.774-.045-.7-.019a1,1,0,0,1-.222-.016,1.684,1.684,0,0,1,.262-.018l.736-.018,2.823-.046,10.551-.112-.19.158c2.8-15.576,7.667-42.649,13.207-73.473l.349.419h-.109l-14.52,0,.345-.289c-3.772,20.759-7.1,39.047-9.484,52.195-1.213,6.553-2.188,11.822-2.87,15.5-.338,1.794-.6,3.2-.793,4.2-.09.455-.162.817-.218,1.1A3.419,3.419,0,0,1,327.283,329.671Z" transform="translate(-327.28 -255.871)"/></g><g transform="translate(143.562 73.688)"><path class="g" d="M309.966,324.068a8.69,8.69,0,0,1,.15-.984q.192-1.076.523-2.919c.485-2.623,1.174-6.34,2.03-10.963,1.791-9.451,4.283-22.591,7.132-37.615l.053-.281h.288l14.522-.008h.541l-.086.424c-4.31,21.364-8.14,40.351-10.568,52.388l-.035.176h-.177l-10.667-.125-2.784-.052a8,8,0,0,1-.923-.04c.016-.014.361-.026,1.012-.041l2.838-.052,10.524-.124-.213.174c2.365-12.049,6.1-31.057,10.3-52.443l.348.425h-.106L320.142,272l.339-.281c-2.96,14.893-5.547,27.92-7.409,37.288-.943,4.646-1.7,8.38-2.237,11.016q-.395,1.885-.623,2.983c-.068.312-.125.568-.172.783A1.721,1.721,0,0,1,309.966,324.068Z" transform="translate(-309.963 -271.298)"/></g><g transform="translate(119.956 35.518)"><path class="g" d="M292.648,334.238a3.128,3.128,0,0,1,.057-.434l.214-1.317c.207-1.206.5-2.924.877-5.124.789-4.522,1.923-11.023,3.333-19.105l11.465-64.668.052-.289h.294l14.52,0H324l-.076.418c-7.119,38.965-13.4,72.931-16.724,90.553l-.027.146h-.146l-10.728-.1-2.74-.041c-.612-.011-.905-.031-.905-.031s.342-.02.975-.033l2.784-.041,10.615-.1-.173.143c3.118-17.66,9.253-51.652,16.372-90.617l.349.419h-.11l-14.52,0,.346-.289c-4.657,25.529-8.775,48.1-11.736,64.337-1.5,8.106-2.709,14.625-3.55,19.16-.42,2.23-.748,3.971-.979,5.192-.112.571-.2,1.02-.266,1.358A4.439,4.439,0,0,1,292.648,334.238Z" transform="translate(-292.647 -243.298)"/></g><g transform="translate(96.348 88.74)"><path class="g" d="M275.333,320.057a4.047,4.047,0,0,1,.085-.682c.085-.526.195-1.2.331-2.047.319-1.88.762-4.5,1.314-7.749,1.185-6.747,2.829-16.117,4.73-26.945l.049-.279h.286l14.522-.014h.537l-.082.421c-2.823,14.72-5.366,27.98-7.161,37.341l-.04.2-.2,0-10.622-.138-2.814-.059a6.9,6.9,0,0,1-.937-.046c.018-.015.375-.03,1.037-.048l2.874-.059,10.461-.138-.239.2c1.741-9.372,4.206-22.647,6.943-37.383l.348.421h-.106l-14.522-.014.335-.281c-2.016,10.7-3.76,19.964-5.015,26.633-.635,3.274-1.146,5.91-1.514,7.8-.175.871-.316,1.569-.425,2.11A6.925,6.925,0,0,1,275.333,320.057Z" transform="translate(-275.329 -282.34)"/></g><g transform="translate(72.743 64.536)"><path class="g" d="M258.016,326.506a1.342,1.342,0,0,1,.027-.286c.034-.233.076-.522.129-.881q.2-1.251.544-3.448c.5-3.077,1.215-7.461,2.1-12.915,1.848-11.094,4.421-26.523,7.35-44.1l.048-.289h.3l14.52-.007h.533l-.074.416c-4.5,25.4-8.475,47.849-10.9,61.541l-.03.172h-.173l-10.663-.119-2.784-.049a8.4,8.4,0,0,1-.926-.038,1.613,1.613,0,0,1,.266-.019l.742-.02,2.834-.048,10.531-.119-.2.17c2.36-13.7,6.229-36.173,10.606-61.591l.35.416h-.11l-14.52-.007.344-.29c-3.041,17.445-5.711,32.763-7.631,43.777-.976,5.476-1.76,9.879-2.311,12.97q-.411,2.237-.643,3.514l-.179.92A2.3,2.3,0,0,1,258.016,326.506Z" transform="translate(-258.013 -264.585)"/></g><g transform="translate(49.137 43.201)"><path class="g" d="M240.7,332.191a2.645,2.645,0,0,1,.048-.394c.049-.3.112-.7.191-1.2.184-1.107.446-2.675.781-4.68.706-4.139,1.719-10.078,2.979-17.464,2.594-14.933,6.2-35.7,10.285-59.225l.05-.29h.3l14.52,0h.534l-.075.417c-6.343,35.328-11.961,66.219-15.055,82.871l-.029.153h-.151l-10.711-.106-2.752-.044-.69-.016a1.138,1.138,0,0,1-.221-.016,1.748,1.748,0,0,1,.258-.016l.725-.018,2.8-.042,10.592-.106-.18.15c2.891-16.688,8.373-47.6,14.717-82.932l.349.417h-.11l-14.52,0,.346-.289c-4.195,23.393-7.9,44.045-10.559,58.9-1.351,7.409-2.437,13.368-3.194,17.519-.379,2.035-.675,3.625-.883,4.748-.1.518-.18.928-.24,1.242A3.71,3.71,0,0,1,240.7,332.191Z" transform="translate(-240.696 -248.934)"/></g><path class="g" d="M234.084,230.527a1.72,1.72,0,1,1-1.72-1.722A1.72,1.72,0,0,1,234.084,230.527Z" transform="translate(-195.211 -213.044)"/><circle class="g" cx="1.721" cy="1.721" r="1.721" transform="translate(43.89 15.761)"/><path class="g" d="M246.5,230.527a1.721,1.721,0,1,1-1.722-1.722A1.722,1.722,0,0,1,246.5,230.527Z" transform="translate(-190.704 -213.044)"/><g transform="translate(25.531 70.627)"><path class="g" d="M223.383,324.883a9.383,9.383,0,0,1,.145-1.046q.186-1.135.508-3.1c.472-2.776,1.141-6.717,1.974-11.617,1.742-10,4.165-23.905,6.929-39.777l.049-.286h.293l14.52-.008h.537l-.079.42c-4.216,22.71-7.956,42.855-10.294,55.449l-.033.177-.177,0-10.667-.123-2.782-.05a8.42,8.42,0,0,1-.923-.039,1.443,1.443,0,0,1,.266-.019l.743-.022,2.835-.05c2.5-.029,6.053-.07,10.528-.123l-.21.174c2.275-12.6,5.914-32.768,10.016-55.5l.349.419H247.8l-14.52-.007.341-.286c-2.876,15.744-5.4,29.535-7.209,39.455-.92,4.924-1.66,8.883-2.181,11.672q-.384,2-.608,3.161l-.169.829A1.9,1.9,0,0,1,223.383,324.883Z" transform="translate(-223.38 -269.053)"/></g><g transform="translate(105.554 44.857)"><g transform="translate(1.511)"><path class="h" d="M361,276.275H283.19l4.439-26.126H366Z" transform="translate(-283.19 -250.149)"/></g><path class="h" d="M283.592,269.41l-1.51,9.113s10.215-9.474,10.056-9.474h-8.485" transform="translate(-282.082 -243.284)"/><g transform="translate(14.682 8.728)"><path class="c" d="M350.741,256.905c0,.2-12.959.356-28.942.356s-28.946-.16-28.946-.356,12.957-.354,28.946-.354S350.741,256.709,350.741,256.905Z" transform="translate(-292.852 -256.551)"/></g><g transform="translate(13.918 15.033)"><path class="c" d="M350.181,261.53c0,.2-12.96.354-28.944.354s-28.945-.158-28.945-.354,12.957-.354,28.945-.354S350.181,261.334,350.181,261.53Z" transform="translate(-292.292 -261.176)"/></g></g></g></g><g transform="translate(43.264 465.088)"><g transform="translate(302.951 9.023)"><rect class="g" width="221.682" height="129.353"/><rect class="f" width="100.988" height="129.353"/><g transform="translate(9.1 7.57)"><path class="g" d="M353.773,400.273s-.018-.232-.027-.658c-.005-.457-.015-1.081-.027-1.883-.015-1.677-.035-4.088-.064-7.179-.031-6.224-.079-15.171-.136-26.213l.255.255-81.235.1c-.32.316.425-.434.35-.352v4.7q0,2.343,0,4.661,0,4.634,0,9.146c0,6.012-.008,11.841-.012,17.422l-.338-.337,58.226.16,16.89.094,4.531.042,1.179.02a3.5,3.5,0,0,1,.414.02,2.206,2.206,0,0,1-.372.022l-1.14.02-4.462.042-16.814.093c-14.464.041-34.8.1-58.453.161H272.2v-.339c0-5.581-.01-11.41-.014-17.422q0-4.509,0-9.146v-9.363c-.079.074.675-.676.36-.358l81.235.1h.256v.256c-.057,11.107-.1,20.107-.138,26.369-.027,3.065-.048,5.458-.063,7.121-.012.781-.022,1.391-.029,1.836A5.02,5.02,0,0,1,353.773,400.273Z" transform="translate(-272.172 -363.905)"/><g transform="translate(37.171 14.64)"><path class="g" d="M306.7,378.4c-.059,0-.078-.307-.241-.81a3.463,3.463,0,0,0-1.275-1.737,3.225,3.225,0,0,0-3-.391,3.138,3.138,0,0,0,0,5.876,3.225,3.225,0,0,0,3-.39,3.46,3.46,0,0,0,1.275-1.738c.164-.5.183-.811.241-.81.038,0,.117.311.026.878a3.435,3.435,0,0,1-1.238,2.068,3.687,3.687,0,0,1-3.532.607,3.764,3.764,0,0,1,0-7.105,3.687,3.687,0,0,1,3.532.607,3.438,3.438,0,0,1,1.238,2.069C306.821,378.1,306.742,378.408,306.7,378.4Z" transform="translate(-299.439 -374.645)"/></g></g><g transform="translate(9.1 47.125)"><path class="g" d="M353.773,429.289s-.018-.232-.027-.66c-.005-.457-.015-1.081-.027-1.883-.015-1.677-.035-4.088-.064-7.177-.031-6.224-.079-15.173-.136-26.215l.255.255-81.235.1c-.32.318.425-.432.35-.35v4.7q0,2.343,0,4.661,0,4.634,0,9.147c0,6.012-.008,11.841-.012,17.422l-.338-.338,58.226.161,16.89.093,4.531.042,1.179.022a3.5,3.5,0,0,1,.414.02,2.351,2.351,0,0,1-.372.02l-1.14.02-4.462.042-16.814.094-58.453.161H272.2v-.338c0-5.581-.01-11.41-.014-17.422q0-4.509,0-9.147v-9.361c-.079.072.675-.676.36-.359l81.235.1h.256v.255c-.057,11.107-.1,20.107-.138,26.37-.027,3.064-.048,5.457-.063,7.12-.012.783-.022,1.391-.029,1.836A5.089,5.089,0,0,1,353.773,429.289Z" transform="translate(-272.172 -392.921)"/><g transform="translate(37.171 14.64)"><path class="g" d="M306.7,407.421c-.059,0-.078-.307-.241-.81a3.458,3.458,0,0,0-1.275-1.737,3.221,3.221,0,0,0-3-.391,3.138,3.138,0,0,0,0,5.875,3.225,3.225,0,0,0,3-.391,3.463,3.463,0,0,0,1.275-1.737c.164-.5.183-.811.241-.81.038,0,.117.309.026.877a3.438,3.438,0,0,1-1.238,2.069,3.687,3.687,0,0,1-3.532.607,3.764,3.764,0,0,1,0-7.105,3.687,3.687,0,0,1,3.532.607,3.435,3.435,0,0,1,1.238,2.068C306.821,407.111,306.742,407.424,306.7,407.421Z" transform="translate(-299.439 -403.661)"/></g></g><g transform="translate(9.1 86.678)"><path class="g" d="M353.773,458.3s-.018-.232-.027-.658c-.005-.457-.015-1.082-.027-1.883-.015-1.677-.035-4.088-.064-7.177-.031-6.226-.079-15.174-.136-26.215l.255.255-81.235.1c-.32.316.425-.434.35-.352v4.7q0,2.343,0,4.661,0,4.633,0,9.146c0,6.012-.008,11.841-.012,17.422l-.338-.337,58.226.159,16.89.094,4.531.042,1.179.02a3.474,3.474,0,0,1,.414.02,2.451,2.451,0,0,1-.372.022c-.285,0-.661.011-1.14.02l-4.462.042-16.814.093-58.453.161H272.2V458.3c0-5.581-.01-11.41-.014-17.422q0-4.509,0-9.146v-9.363c-.079.072.675-.676.36-.359l81.235.1h.256v.256c-.057,11.106-.1,20.107-.138,26.369-.027,3.065-.048,5.458-.063,7.121-.012.781-.022,1.391-.029,1.836A5.022,5.022,0,0,1,353.773,458.3Z" transform="translate(-272.172 -421.936)"/><g transform="translate(37.171 14.64)"><path class="g" d="M306.7,436.436c-.059,0-.078-.307-.241-.81a3.463,3.463,0,0,0-1.275-1.737,3.228,3.228,0,0,0-3-.391,3.138,3.138,0,0,0,0,5.875,3.221,3.221,0,0,0,3-.391,3.452,3.452,0,0,0,1.275-1.737c.164-.5.183-.811.241-.81.038,0,.117.311.026.878a3.432,3.432,0,0,1-1.238,2.068,3.687,3.687,0,0,1-3.532.607,3.764,3.764,0,0,1,0-7.105,3.687,3.687,0,0,1,3.532.607,3.438,3.438,0,0,1,1.238,2.069C306.821,436.126,306.742,436.439,306.7,436.436Z" transform="translate(-299.439 -432.675)"/></g></g></g><rect class="g" width="186.474" height="129.353" transform="translate(7.15 9.023)"/><rect class="g" width="532.682" height="12.292"/><rect class="f" width="16.517" height="126.084" transform="translate(7.15 12.292)"/></g><g transform="translate(104.738 223.69)"><g transform="translate(36.057)"><g transform="translate(44.509)"><g transform="translate(62.644 38.472)"><path class="g" d="M202.98,211.165a10.989,10.989,0,0,1-.229-1.562,11.327,11.327,0,0,0-1.352-3.982,4.669,4.669,0,0,0-1.994-1.91,2.583,2.583,0,0,0-2.842.538c-1.69,1.524-2.416,4.246-2.44,6.916.023,2.669.75,5.392,2.44,6.917a2.585,2.585,0,0,0,2.844.538,4.676,4.676,0,0,0,1.993-1.911,11.33,11.33,0,0,0,1.352-3.981,11.084,11.084,0,0,1,.229-1.564,4.971,4.971,0,0,1,.046,1.595,10.512,10.512,0,0,1-1.194,4.2,5.124,5.124,0,0,1-2.188,2.2,3.1,3.1,0,0,1-1.793.259,3.64,3.64,0,0,1-1.712-.837c-1.962-1.744-2.687-4.6-2.728-7.416.041-2.811.766-5.671,2.728-7.416a3.651,3.651,0,0,1,1.712-.836,3.093,3.093,0,0,1,1.793.259,5.116,5.116,0,0,1,2.188,2.2,10.507,10.507,0,0,1,1.194,4.2A4.953,4.953,0,0,1,202.98,211.165Z" transform="translate(-193.412 -202.875)"/></g><g transform="translate(9.323 12.571)"><path class="i" d="M158.33,191.475,154.3,273.157l34.972,3.294,1.932-19.824s12.334,3.048,16.082-8.365c2.394-7.289,4.523-64.387,4.523-64.387Z" transform="translate(-154.298 -183.875)"/></g><path class="g" d="M221.832,195.646c-2.983,7.105-14.243,13.185-14.243,13.185l-1.868,18.083a35.556,35.556,0,0,0-5.023-.045c.9-8.485-10.026-6.83-11.139-1.043-1.07,5.565,5.267,9.277,5.267,9.277-4.375,6.712-6.148,10.253-12.355,16.541-6.718,6.807-10.329,7.357-17.264,7.151l-7.641-.353s-2.72-6.527-4.714-21.946c-.96-7.416-6.749-17.134-5.1-29.192,4.683-34.267,42.6-28.182,42.6-28.182C204.584,168.1,228.844,178.937,221.832,195.646Z" transform="translate(-147.459 -174.653)"/><g transform="translate(56.477 46.788)"><path class="g" d="M204.624,209.111c.005.195-3.508.532-7.847.751s-7.873.239-7.889.044,3.5-.533,7.848-.752S204.617,208.915,204.624,209.111Z" transform="translate(-188.888 -208.975)"/></g></g><g transform="translate(114.36 138.983)"><path class="i" d="M312.848,280.5,300.1,288.4l-4.676,10.927v-9.511s3.463-4.047,6.3-7.082.81-5.059,0-6.072-13.01,13.154-13.01,13.154v8.142c-5.675-6.993-8.312-4.589-9.187-3.317s9.187,10.748,9.187,10.748v2.9L238.73,335.161l-13.155-32.727L198.7,316.528l16.04,38.839a20.278,20.278,0,0,0,29.06,9.717l58.816-34.759,3.923-6.526a16.543,16.543,0,0,0,2.327-7.424l1.96-29.4C314.467,284.753,312.848,280.5,312.848,280.5Z" transform="translate(-198.699 -276.606)"/><g transform="translate(35.316 58.565)"><path class="j" d="M229.567,319.568c.184.068-.773,3.108-2.136,6.79s-2.619,6.612-2.8,6.543.773-3.108,2.138-6.79S229.383,319.5,229.567,319.568Z" transform="translate(-224.605 -319.567)"/></g><g transform="translate(102.252 10.35)"><path class="j" d="M283.581,284.221a23.172,23.172,0,0,1-2.323,1.047,8.649,8.649,0,0,0-2.168,1.569,8.557,8.557,0,0,0-1.663,2.795c-1.865,4.459-3.523,8.02-3.7,7.943s1.182-3.754,3.051-8.221a8.463,8.463,0,0,1,1.862-2.987,8.1,8.1,0,0,1,2.412-1.555A5.92,5.92,0,0,1,283.581,284.221Z" transform="translate(-273.707 -284.198)"/></g><g transform="translate(107.654 14.854)"><path class="j" d="M282.016,287.672a1.484,1.484,0,0,0-1.07.717c-.4.758-.911,1.966-1.425,3.246-1.033,2.594-1.6,4.8-1.8,4.763-.185-.029.075-2.356,1.137-5.023a16.429,16.429,0,0,1,1.675-3.277,1.422,1.422,0,0,1,1.062-.594C281.9,287.506,282.035,287.634,282.016,287.672Z" transform="translate(-277.67 -287.503)"/></g></g><g transform="translate(0 92.436)"><g transform="translate(13.143)"><path class="k" d="M217.636,323.946l5.712,19.348,36.246-16.41c-1.3-4.049-7.3-22.095-18.774-50.727a49.226,49.226,0,0,0-37.573-30.286c-11.863-1.973-24.768-3.513-34.707-3.4a43.107,43.107,0,0,0-41.829,34.489c-3.07,15.211,2.305,25.247-1.159,58.52l-1.1,83.652,96.772,3.557Z" transform="translate(-124.45 -242.461)"/></g><path class="k" d="M133.55,328.545s-13.444.789-18.741-9.4c0,0,14.5-53.58,19.551-59.89Z" transform="translate(-114.809 -236.359)"/><g transform="translate(15.999 29.748)"><path class="g" d="M241.891,273.687a4.135,4.135,0,0,1-1.149.62,11.267,11.267,0,0,1-3.687.7,24.077,24.077,0,0,1-5.874-.74c-2.24-.506-4.736-1.257-7.522-1.719a35.272,35.272,0,0,0-4.39-.239,27.909,27.909,0,0,0-4.7.78,40.724,40.724,0,0,0-9.784,4.072c-3.307,1.808-6.673,3.936-10.258,6.031a53.587,53.587,0,0,1-11.739,5.434,23.121,23.121,0,0,1-13.019.209,33.067,33.067,0,0,1-10.641-5.768c-3.041-2.35-5.69-4.831-8.189-7.1a69.322,69.322,0,0,0-7.22-5.895,27.979,27.979,0,0,0-12.227-5.207,41,41,0,0,0-4.943-.048,4.391,4.391,0,0,1,1.261-.327,16.559,16.559,0,0,1,3.735-.176,27.2,27.2,0,0,1,12.736,4.927,66.959,66.959,0,0,1,7.442,5.848c2.54,2.236,5.2,4.664,8.2,6.935a32.207,32.207,0,0,0,10.234,5.471,21.868,21.868,0,0,0,12.239-.234,53.244,53.244,0,0,0,11.437-5.276c3.562-2.058,6.958-4.173,10.334-5.978a41.052,41.052,0,0,1,10.125-4.064,28.626,28.626,0,0,1,4.939-.731,34.6,34.6,0,0,1,4.6.344c2.876.544,5.351,1.367,7.545,1.937a25.455,25.455,0,0,0,5.685.96A15.7,15.7,0,0,0,241.891,273.687Z" transform="translate(-126.545 -264.283)"/></g><g transform="translate(63.295 102.428)"><path class="g" d="M204.923,321.078c-.139.218-2.038-1.69-6.016-2.187a20.53,20.53,0,0,0-6.92.379c-2.6.528-5.4,1.46-8.452,2.229a34.107,34.107,0,0,1-16.076.22c-4.042-.953-6.284-2.251-6.218-2.384.086-.226,2.442.727,6.415,1.4a37.517,37.517,0,0,0,15.537-.613c2.98-.747,5.835-1.656,8.546-2.135a19.714,19.714,0,0,1,7.33-.086,11.433,11.433,0,0,1,4.58,1.885C204.6,320.485,204.979,321.021,204.923,321.078Z" transform="translate(-161.24 -317.598)"/></g><g transform="translate(62.294 154.765)"><path class="g" d="M206.189,357.078c.061.064-.36.62-1.28,1.478a19.925,19.925,0,0,1-4.388,3.033,17.389,17.389,0,0,1-7.735,1.963,25.644,25.644,0,0,1-9.492-2.121c-3.176-1.238-6.088-2.628-8.828-3.412a21.19,21.19,0,0,0-7.476-.875,11.783,11.783,0,0,0-4.828,1.419c-1.058.586-1.561,1.066-1.652.968-.046-.04.326-.66,1.351-1.431a10.84,10.84,0,0,1,5.014-1.953,20.538,20.538,0,0,1,7.937.611,87.785,87.785,0,0,1,9,3.351,26,26,0,0,0,8.982,2.136,17.477,17.477,0,0,0,7.3-1.561C204.05,358.884,206.025,356.874,206.189,357.078Z" transform="translate(-160.505 -355.991)"/></g><g class="l" transform="translate(2.964 91.965)"><path d="M116.983,311.08c12.675,2.591,25.69-.022,38.6-.788,7.83-.465,16.517-1.311,22.711,3.5,4.912,3.816,6.888,10.232,8.3,16.289,5.4,23.083,6.385,43.713,7.6,67.389l-62.7-1.354Z" transform="translate(-116.983 -309.923)"/></g><path class="m" d="M130.631,278.875l2.716,39.1h-8.271Z" transform="translate(-111.08 -229.235)"/></g><path class="g" d="M142.074,372.057l124.453,4.406a37.121,37.121,0,0,1,35.8,37.676l-1.1,70.638H255.594l-2.938-60.9-110.582-2.908Z" transform="translate(-104.906 -102.954)"/></g><g transform="translate(0 179.886)"><rect class="f" width="12.241" height="44.808" transform="translate(102.715 153.793)"/><path class="f" d="M88.359,318.039V426.007A25.638,25.638,0,0,0,114,451.646h71.9V318.039a11.427,11.427,0,0,0-11.426-11.428H99.785A11.427,11.427,0,0,0,88.359,318.039Z" transform="translate(-88.359 -306.611)"/><path class="f" d="M277.538,424.492H102.454a19,19,0,0,1,19-19H258.534a19,19,0,0,1,19,19Z" transform="translate(-83.24 -270.698)"/><g transform="translate(23.976 132.268)"><path class="g" d="M179.5,403.638a9.7,9.7,0,0,1-.273,3.175,12.887,12.887,0,0,1-10.227,9.68,17.78,17.78,0,0,1-3.371.23l-3.533.019-15.732.044-28.584-.074-8.662-.1-2.356-.064a3.523,3.523,0,0,1-.821-.071,3.669,3.669,0,0,1,.821-.072l2.356-.068,8.662-.123,28.584-.134c5.577,0,10.885.007,15.732.011l3.533.011a17.43,17.43,0,0,0,3.269-.185,12.311,12.311,0,0,0,5.333-2.272,12.724,12.724,0,0,0,4.729-6.9A30.515,30.515,0,0,0,179.5,403.638Z" transform="translate(-105.947 -403.638)"/></g><g transform="translate(98.094 153.815)"><path class="g" d="M181.8,419.8c0,.2-4.809.354-10.741.354s-10.741-.158-10.741-.354,4.808-.354,10.741-.354S181.8,419.6,181.8,419.8Z" transform="translate(-160.317 -419.444)"/></g><g transform="translate(83.716 77.909)"><path class="f" d="M238.9,431.831a4.9,4.9,0,0,1-.333-1.321c-.172-.874-.4-2.165-.68-3.831-.559-3.33-1.322-8.156-2.236-14.123-.488-2.97-.883-6.284-1.546-9.732q-.252-1.288-.514-2.621-.382-1.3-.776-2.646-.194-.671-.394-1.352l-.523-1.329c-.359-.889-.687-1.8-1.082-2.7a49.8,49.8,0,0,0-6.52-10.433,46.617,46.617,0,0,0-9.8-8.832,43.681,43.681,0,0,0-11.883-5.723,44.5,44.5,0,0,0-12.12-2.08c-7.937-.173-15.158-.125-21.184-.221-6.036-.064-10.921-.14-14.3-.225-1.688-.042-3-.087-3.888-.134a4.963,4.963,0,0,1-1.355-.143,4.956,4.956,0,0,1,1.355-.143c.889-.046,2.2-.091,3.888-.134,3.375-.085,8.26-.161,14.3-.225,6.046-.033,13.205-.187,21.227-.083a45.082,45.082,0,0,1,12.492,2.06,44.468,44.468,0,0,1,12.262,5.873,47.3,47.3,0,0,1,10.078,9.125,50.214,50.214,0,0,1,6.643,10.784c.4.928.728,1.874,1.086,2.792q.264.689.522,1.371.2.7.391,1.395.386,1.382.762,2.725.249,1.37.492,2.7c.624,3.533.953,6.8,1.38,9.795.787,5.986,1.4,10.832,1.79,14.187.195,1.677.335,2.981.416,3.867A5,5,0,0,1,238.9,431.831Z" transform="translate(-149.77 -363.762)"/></g></g></g><g transform="translate(50.208 406.185)"><g transform="translate(0.008)"><path class="n" d="M53.218,317.858s-2.2,6.184,2.028,10.651H64.08S63.258,318.525,53.218,317.858Z" transform="translate(-46.808 -305.134)"/><path class="o" d="M53.218,317.858s-2.2,6.184,2.028,10.651H64.08S63.258,318.525,53.218,317.858Z" transform="translate(-46.808 -305.134)"/><path class="n" d="M65.374,308.536c-.363-.433-7.883,11.338-3.659,23.363H70S73.238,317.914,65.374,308.536Z" transform="translate(-43.981 -308.524)"/><path class="n" d="M77.514,317.858a10.789,10.789,0,0,0-10.065,10.651h8.282S79.351,323.414,77.514,317.858Z" transform="translate(-41.432 -305.134)"/><path class="f" d="M56.119,325.326a18.589,18.589,0,0,0-7.447,18.443c2.128,12.236,15.073,17.557,15.073,17.557H78.109S92.718,354.9,92.363,341.6s-9.06-16.078-9.06-16.078Z" transform="translate(-48.364 -302.422)"/></g><g transform="translate(0 34.326)"><path class="g" d="M92.316,337.075a7.215,7.215,0,0,0-1.189-1.479,6.425,6.425,0,0,0-4.793-1.373c-2.185.2-4.527,1.486-7.016,3.049a24.016,24.016,0,0,1-4.169,2.147,9.693,9.693,0,0,1-5.064.5c-3.5-.59-6.3-2.471-8.915-3.732-2.6-1.311-5.192-2.088-7.35-1.769a6.985,6.985,0,0,0-4.478,2.273,8.425,8.425,0,0,0-.976,1.633c-.023-.005.007-.176.089-.5a4.338,4.338,0,0,1,.669-1.3,7.056,7.056,0,0,1,4.624-2.6c2.309-.4,5.052.378,7.709,1.678,2.677,1.26,5.447,3.074,8.741,3.621a9.066,9.066,0,0,0,4.715-.458,24.187,24.187,0,0,0,4.069-2.053c2.5-1.528,4.977-2.841,7.307-2.99a6.534,6.534,0,0,1,5.028,1.671,4.185,4.185,0,0,1,.852,1.193A1.275,1.275,0,0,1,92.316,337.075Z" transform="translate(-48.357 -333.704)"/></g><g transform="translate(0.676 37.531)"><path class="g" d="M92.333,339.427a7.259,7.259,0,0,0-1.17-1.472,6.3,6.3,0,0,0-4.74-1.381c-2.163.2-4.48,1.486-6.939,3.048a23.782,23.782,0,0,1-4.122,2.147,9.507,9.507,0,0,1-5.022.507c-3.471-.593-6.233-2.477-8.821-3.737-2.567-1.31-5.139-2.087-7.277-1.764a6.88,6.88,0,0,0-4.421,2.279,8.606,8.606,0,0,0-.96,1.625c-.023-.005.007-.176.086-.5a4.351,4.351,0,0,1,.654-1.3,6.95,6.95,0,0,1,4.567-2.608c2.289-.412,5.01.372,7.638,1.674,2.649,1.258,5.386,3.073,8.647,3.622a8.879,8.879,0,0,0,4.669-.461,23.864,23.864,0,0,0,4.023-2.052c2.47-1.527,4.921-2.841,7.233-2.99a6.421,6.421,0,0,1,4.974,1.679,4.132,4.132,0,0,1,.836,1.19C92.312,339.251,92.354,339.419,92.333,339.427Z" transform="translate(-48.853 -336.056)"/></g><g transform="translate(5.844 40.554)"><path class="g" d="M53.7,338.539c-.057-.078.378-.331.89.089a.982.982,0,0,1,.275,1.081,1.165,1.165,0,0,1-1.146.766,1.193,1.193,0,0,1-1.041-.892A1.056,1.056,0,0,1,53,338.531c.491-.412.913-.226.881-.145,0,.1-.305.161-.507.481a.565.565,0,0,0-.065.528.589.589,0,0,0,.463.372.563.563,0,0,0,.492-.3.474.474,0,0,0-.038-.495C54.025,338.656,53.718,338.634,53.7,338.539Z" transform="translate(-52.644 -338.273)"/></g><g transform="translate(22.111 35.373)"><path class="g" d="M65.633,334.737c-.056-.076.378-.33.892.089a.984.984,0,0,1,.275,1.082,1.167,1.167,0,0,1-1.146.766,1.19,1.19,0,0,1-1.041-.893,1.054,1.054,0,0,1,.319-1.051c.491-.412.913-.226.879-.144,0,.1-.305.159-.507.48a.572.572,0,0,0-.064.529.588.588,0,0,0,.462.371.559.559,0,0,0,.492-.3.471.471,0,0,0-.038-.495C65.956,334.855,65.651,334.834,65.633,334.737Z" transform="translate(-64.577 -334.473)"/></g><g transform="translate(37.883 40.788)"><path class="g" d="M77.2,338.709c-.057-.076.376-.33.89.089a.984.984,0,0,1,.275,1.082,1.167,1.167,0,0,1-1.146.766,1.19,1.19,0,0,1-1.041-.893A1.054,1.054,0,0,1,76.5,338.7c.491-.412.913-.226.879-.144,0,.1-.3.159-.506.48a.568.568,0,0,0-.065.529.59.59,0,0,0,.463.371.559.559,0,0,0,.491-.3.471.471,0,0,0-.038-.495C77.526,338.827,77.221,338.806,77.2,338.709Z" transform="translate(-76.147 -338.445)"/></g></g><g transform="translate(501.887 405.814)"><path class="f" d="M381.318,316.152,386,364.657h23.637l5.663-48.505Z" transform="translate(-379.102 -305.384)"/><path class="g" d="M381.909,311.553s-1.97,1.97-2.217,6.4H418.1s.739-3.94-2.215-6.4Z" transform="translate(-379.692 -307.054)"/><path class="g" d="M384.878,308.308l-1.3,4.8,28.993.218-1.913-5.073Z" transform="translate(-378.281 -308.253)"/><path class="h" d="M380.962,325.059c0,.45,2.812,24.412,2.812,24.412h28.9l2.752-24.412Z" transform="translate(-379.231 -302.148)"/></g></g></g></svg>