<svg xmlns="http://www.w3.org/2000/svg" width="707.921" height="447.638" viewBox="0 0 707.921 447.638"><defs><style>.a{fill:#e0e0e0;}.b{fill:#ebebeb;}.c{fill:#fafafa;}.d{fill:#fff;}.e{fill:#f5f5f5;}.f{fill:#263238;}.g{fill:#e8505b;}.h{opacity:0.6;}.i{opacity:0.3;}.j{fill:#455a64;}.k{fill:#266ab4;}.l{fill:#ffbe9d;}.m{fill:#7c5142;}.n,.u{fill:none;}.n{stroke:#fff;stroke-miterlimit:10;}.o{fill:#ffcd05;}.p{opacity:0.8;}.q{opacity:0.4;}.r{opacity:0.5;}.s{fill:#00a0d1;}.t{opacity:0.2;}</style></defs><g transform="translate(-21.727 -26.663)"><rect class="a" width="62.237" height="64.877" transform="translate(656.46 143.596)"/><rect class="b" width="62.237" height="64.877" transform="translate(652.245 143.596)"/><rect class="c" width="45.504" height="47.435" transform="translate(660.612 152.318)"/><path class="a" d="M660.612,200.068a8.768,8.768,0,0,1-1.137,1.289c-.731.763-1.755,1.8-2.9,2.926s-2.2,2.135-2.967,2.853a8.434,8.434,0,0,1-1.3,1.11,8.617,8.617,0,0,1,1.132-1.284c.73-.763,1.757-1.8,2.9-2.931s2.2-2.14,2.972-2.857A8.264,8.264,0,0,1,660.612,200.068Z"/><path class="a" d="M706.116,199.951a8.776,8.776,0,0,1,1.289,1.137c.763.731,1.8,1.754,2.926,2.9s2.136,2.2,2.853,2.968a8.586,8.586,0,0,1,1.111,1.3,8.4,8.4,0,0,1-1.285-1.131c-.763-.731-1.8-1.757-2.931-2.9s-2.14-2.2-2.857-2.972A8.39,8.39,0,0,1,706.116,199.951Z"/><path class="a" d="M705.991,152.444a8.77,8.77,0,0,1,1.137-1.289c.731-.763,1.755-1.8,2.9-2.926s2.2-2.135,2.967-2.853a8.438,8.438,0,0,1,1.3-1.11,8.611,8.611,0,0,1-1.132,1.284c-.73.763-1.757,1.8-2.905,2.931s-2.2,2.14-2.971,2.857A8.3,8.3,0,0,1,705.991,152.444Z"/><path class="a" d="M660.487,152.561a8.772,8.772,0,0,1-1.289-1.137c-.763-.731-1.8-1.755-2.926-2.9s-2.136-2.195-2.853-2.968a8.509,8.509,0,0,1-1.111-1.3,8.522,8.522,0,0,1,1.285,1.132c.763.731,1.8,1.757,2.931,2.9s2.14,2.2,2.857,2.972A8.331,8.331,0,0,1,660.487,152.561Z"/><path class="a" d="M705.991,199.752s-.005-.08-.008-.229l-.008-.66c0-.59-.01-1.446-.018-2.558-.009-2.243-.022-5.511-.039-9.665-.018-8.306-.044-20.145-.075-34.322l.148.149-45.375.022h0l.17-.171c-.008,17.411-.017,33.7-.024,47.434l-.146-.146,32.866.075,9.226.038,2.44.017.629.008c.142,0,.218.008.218.008s-.065.006-.2.008l-.613.009-2.411.017-9.194.038-32.959.075h-.147v-.147c-.007-13.735-.016-30.023-.024-47.434v-.171h.175l45.375.022h.15v.149c-.031,14.216-.057,26.088-.075,34.418-.017,4.139-.03,7.4-.039,9.63-.008,1.1-.014,1.946-.018,2.53,0,.277-.006.49-.008.644S705.991,199.752,705.991,199.752Z"/><path class="b" d="M672.621,172.134s-.974,11.745,11.745,11.745C684.366,177.611,679.2,172.664,672.621,172.134Z"/><path class="b" d="M695.894,172.143s-11.744-.974-11.744,11.744C690.417,183.887,695.365,178.717,695.894,172.143Z"/><path class="a" d="M683.8,165.715s-9.594,8.613.526,18.164C689.033,178.892,688.634,171.073,683.8,165.715Z"/><path class="a" d="M596.308,44.525v75.543h-108.5L483.9,45.053Z"/><rect class="d" width="74.855" height="108.5" transform="translate(483.899 119.908) rotate(-90)"/><path class="a" d="M592.914,120.423H483.385V44.538H592.914Zm-108.5-1.029H591.885V45.568H484.414Z"/><rect class="d" width="84.997" height="56.255" transform="translate(495.651 54.353)"/><path class="a" d="M580.648,54.353s-.146.01-.419.015l-1.209.014-4.668.03-17.516.066-61.185.121.245-.246c.007,17.188.015,36.232.023,56.248v.007l-.268-.268,85,.055-.214.213c.047-17.119.086-31.156.113-40.93.023-4.886.041-8.7.054-11.319.01-1.292.018-2.285.024-2.974.008-.674.023-1.032.023-1.032s.015.328.023.987q.008,1.02.024,2.935c.012,2.6.031,6.4.054,11.27.027,9.806.065,23.888.112,41.063v.214h-.214l-85,.054h-.268V110.6c.007-20.016.015-39.06.022-56.248v-.246h.246L557,54.228l17.46.066,4.619.03,1.181.015C580.521,54.343,580.648,54.353,580.648,54.353Z"/><path class="a" d="M483.9,44.843a9.119,9.119,0,0,1,1.866,1.208c1.11.8,2.621,1.938,4.253,3.244s3.068,2.543,4.079,3.468a8.918,8.918,0,0,1,1.554,1.59c-.1.114-2.71-2.037-5.968-4.639A59.406,59.406,0,0,1,483.9,44.843Z"/><path class="a" d="M592.4,45.053a52.566,52.566,0,0,1-5.709,4.86,52.591,52.591,0,0,1-6.042,4.44,52.573,52.573,0,0,1,5.709-4.86A52.632,52.632,0,0,1,592.4,45.053Z"/><path class="d" d="M592.313,119.919l-12.1-9.805"/><path class="a" d="M580.216,110.114a56.816,56.816,0,0,1,6.217,4.694,56.8,56.8,0,0,1,5.88,5.111,56.775,56.775,0,0,1-6.217-4.694A56.8,56.8,0,0,1,580.216,110.114Z"/><path class="a" d="M483.9,119.908a51.72,51.72,0,0,1,5.649-4.809,51.525,51.525,0,0,1,5.983-4.39,51.613,51.613,0,0,1-5.65,4.81A51.426,51.426,0,0,1,483.9,119.908Z"/><rect class="a" width="18.836" height="53.482" transform="translate(512.909 90.716) rotate(-90)"/><path class="e" d="M141.32,50.892,107.26,38.579,73.532,50.726c-4.306,2.048-8.083,3.274-8.083,7.312V78.144A76.371,76.371,0,0,0,76.56,118.159a69.317,69.317,0,0,0,31.032,27.591c13.786-4.509,24.077-16.527,30.369-26.807a76.368,76.368,0,0,0,11.111-40.015V60.848C149.072,55.089,146.041,52.277,141.32,50.892Z"/><path class="b" d="M107.592,134.082A55.139,55.139,0,0,1,83.04,112.074a60.428,60.428,0,0,1-8.79-31.659v-14.1c0-3.195,1.914-6.187,5.715-7.973l27.3-10.277-.007-9.482L73.532,50.726c-3.541,1.557-8.083,3.274-8.083,7.312V78.144A76.371,76.371,0,0,0,76.56,118.159a69.317,69.317,0,0,0,31.032,27.591Z"/><path class="a" d="M107.592,145.75a40.941,40.941,0,0,0,6.691-2.889,60.1,60.1,0,0,0,14.159-11.213,76.823,76.823,0,0,0,9.85-13.323,73.523,73.523,0,0,0,10.78-40.4l.02-16.6c-.02-8.266-4.232-8.876-7.772-10.433L107.26,38.579l.007,9.482L134.887,58.5c3.8,1.787,5.715,4.779,5.715,7.974v14.1a60.428,60.428,0,0,1-8.79,31.659c-4.978,8.133-12.355,16.519-24.22,21.842Z"/><path class="a" d="M116.3,79.51l.038-2.713a8.843,8.843,0,1,0-17.686-.014l-.038,2.764a4.969,4.969,0,0,0-4.22,4.922v16.006a4.965,4.965,0,0,0,4.949,4.981h16.505a4.965,4.965,0,0,0,4.949-4.981V84.469A4.968,4.968,0,0,0,116.3,79.51Zm-6.447,16.981h-4.317l.674-3.139a2.63,2.63,0,1,1,2.853-.05C109.364,94.519,109.849,96.491,109.849,96.491Zm4.542-17H100.516l.037-2.69a6.938,6.938,0,1,1,13.876-.014Z"/><path class="d" d="M79.769,79.315a10.928,10.928,0,0,1-.511-2.785,48.076,48.076,0,0,1-.277-6.826c.038-1.335.126-2.606.246-3.757a8.091,8.091,0,0,1,.761-3.034A3.471,3.471,0,0,1,81.48,61.4c.462-.216.75-.206.754-.173A3.862,3.862,0,0,0,80.365,63.1,8.375,8.375,0,0,0,79.774,66c-.09,1.143-.16,2.4-.2,3.723-.078,2.644,0,5.04.1,6.773A17.3,17.3,0,0,1,79.769,79.315Z"/><path class="d" d="M80.269,88.067c-.164,0-.314-.823-.334-1.845s.1-1.854.262-1.857.314.823.334,1.846S80.434,88.064,80.269,88.067Z"/><path class="a" d="M638.149,374.655a34.181,34.181,0,0,0-14.622-5.033c-2.389-.245-5-.175-6.917,1.272a1.424,1.424,0,0,0-.712,1.263,1.543,1.543,0,0,0,.676.864c5.95,4.539,14.949,5.112,21.575,1.634"/><path class="a" d="M637.774,374.242a71.379,71.379,0,0,1-9.444-8.31,23.884,23.884,0,0,1-5.921-10.95,4.414,4.414,0,0,1,.468-3.664c7.528,5.879,13.441,13.483,14.9,22.924"/><path class="a" d="M638.071,374.6a34.148,34.148,0,0,1,.175-12.4,16.767,16.767,0,0,1,6.605-10.232c1.3,3.041.742,6.544-.175,9.722a47.25,47.25,0,0,1-6.549,13.788"/><path class="a" d="M645.451,387.822c-4.48.545-8.382,2.906-11.726,5.935a22.179,22.179,0,0,0-6.708,11.515c4.394-.272,8.122-3.371,10.826-6.845s4.577-7.287,7.547-10.537"/><path class="a" d="M647.054,389.937a28.92,28.92,0,0,1,3.339-27.357c2.552,9.078,1.615,19.333-3.339,27.357"/><path class="a" d="M656.8,401.548a20.913,20.913,0,0,0-20,11.51c-.248.5-.467,1.125-.135,1.568a1.483,1.483,0,0,0,1.326.39c3.941-.255,7.434-2.626,10.316-5.326s5.393-5.819,8.578-8.154"/><path class="a" d="M656.493,400.915a37.243,37.243,0,0,1-.371-20.8c.733-2.678,1.963-5.5,4.439-6.753a.876.876,0,0,1,.68-.119.9.9,0,0,1,.429.5,12.538,12.538,0,0,1,1.047,5.968,37.423,37.423,0,0,1-.936,6.042c-.779,3.693-1.194,7.661-3.22,10.846a22.048,22.048,0,0,0-1.287,2.383c-.384.809-.387,1.094-.738,1.738"/><path class="a" d="M682.3,404.761c-1.912-7.274.118-16.092,4.7-22.055.338-.439.785-.91,1.337-.859.844.078,1.063,1.2,1.025,2.05a39.855,39.855,0,0,1-7.063,20.864"/><path class="a" d="M684.631,406.352A32.083,32.083,0,0,0,710.957,401a21.316,21.316,0,0,0-14.251-1.749c-4.761,1.089-9.111,3.222-12.075,7.1"/><path class="a" d="M686.594,401.508c4.949-8.069,14.438-13.336,23.892-13.815-1.089,3.845-4.249,6.834-7.814,8.64s-7.546,2.592-11.469,3.354c-1.526.3-3.62.622-4.609,1.821"/><path class="a" d="M682.8,378.007a69.441,69.441,0,0,0,3.056-13.993c.368-4.769-.312-9.748-2.787-13.841-4.623,8.946-5.091,19.4-.408,28.314"/><path class="a" d="M698.361,370.14c5.407-9.826,16.437-17.675,27.6-18.775-4.306,10.72-16.048,19.005-27.6,18.775"/><path class="a" d="M694.96,372.065c8.063,1.229,14.933,6.378,22.468,9.5a10.06,10.06,0,0,0,5.079.973A3.976,3.976,0,0,0,725,375.5a10.883,10.883,0,0,0-3.69-2.238c-8.207-3.417-17.008-3.5-25.653-1.43"/><path class="a" d="M690.294,377.721c1.825.522,2.449,1.467,3.9,2.7a42.024,42.024,0,0,0,17.037,8.752c.651.162,1.505.226,1.828-.362.281-.514-.075-1.136-.441-1.593a23.45,23.45,0,0,0-10.287-6.984c-3.932-1.464-7.339-3.229-12.032-2.85"/><path class="a" d="M685.029,343.565a32.24,32.24,0,0,0,24.72,8.41,1.7,1.7,0,0,0,1.126-.4c.622-.677-.125-1.721-.85-2.287-7.268-5.666-16.071-8.015-25-5.719"/><path class="a" d="M691.271,341.28a34.455,34.455,0,0,1,30.847-5.09,24.486,24.486,0,0,1-14.7,6.453,46.512,46.512,0,0,1-16.148-1.363"/><path class="a" d="M688.79,325.584c-.714-7.254-.25-12.98-.754-20.269-.04-.582-.165-1.282-.71-1.492-.758-.292-1.391.64-1.64,1.414a23.233,23.233,0,0,0,3.094,20.188"/><path class="a" d="M688.268,326.386a42.661,42.661,0,0,0,12.017-11.679c2.373-3.248,4.375-7.138,3.835-11.124a11.5,11.5,0,0,0-8.668,4.3,24.187,24.187,0,0,0-4.419,8.89c-.962,3.192-1.636,6.472-2.765,9.609"/><path class="a" d="M700.075,323.106a96.918,96.918,0,0,0,29.573-17.438c-3.533-1.423-7.578-.571-11.109.854a35.031,35.031,0,0,0-18.619,16.505"/><path class="a" d="M691.588,330.355c5.459.6,11,.985,16.421.08,5.324-.89,10.355-3,15.33-5.094a1.806,1.806,0,0,0,1.042-.791,1.2,1.2,0,0,0-.374-1.312,3.176,3.176,0,0,0-1.307-.612c-5.409-1.513-11.245-.8-16.567.99a76.827,76.827,0,0,0-14.545,6.739"/><path class="a" d="M660.416,343.813c-3.725-7.519-3.483-16.292-.266-24.041,2.265,3.451,2.542,7.846,2.128,11.953s-1.665,8.334-1.746,12.461"/><path class="a" d="M645.536,336.308a33.526,33.526,0,0,0-24.915,10.614,23.288,23.288,0,0,0,13.643-2.529,69.42,69.42,0,0,0,11.692-7.826"/><path class="a" d="M635.533,332.962c-4.55-.368-8.927-.932-13.3.409a15.953,15.953,0,0,0-10.138,8.6,24.045,24.045,0,0,0,12.47-2.355,71.685,71.685,0,0,0,10.969-6.65"/><path class="a" d="M650.344,333.116c-4.092-2.682-8.295-5.413-13.06-6.523s-10.287-.291-13.61,3.3c3.857,2.264,8.537,2.531,13.01,2.528s9.955-.055,14.171,1.438"/><path class="a" d="M650.369,333.332c-7-6.871-9.649-19.213-6.834-28.606a43.6,43.6,0,0,1,6.834,28.606"/><path class="a" d="M669.607,313.865c1.32-3.067,2.248-6.287,3.432-9.409a27.035,27.035,0,0,1,4.892-8.675,12.887,12.887,0,0,1,8.665-4.491,34.9,34.9,0,0,1-16.817,22.625"/><path class="a" d="M666.126,317.922c-2.184-3.006-4.707-7.086-7.668-9.329s-6.817-3.6-10.431-2.74a24.3,24.3,0,0,0,18.1,12.069"/><path class="a" d="M666.822,314.116a51.868,51.868,0,0,1-3.451-11.178,17.44,17.44,0,0,1,1.749-11.366c3.841,7.26,5.078,15.053,1.9,22.626"/><path class="a" d="M669.643,291.572c2.175-7.2,8.765-12.5,15.88-14.927a5.93,5.93,0,0,1,2.784-.418,2.417,2.417,0,0,1,2.052,1.713c.26,1.224-.752,2.322-1.7,3.135a54.05,54.05,0,0,1-19.013,10.5"/><path class="a" d="M669.721,285.686c.277-4.64.566-9.347,2.075-13.744s4.419-8.521,8.65-10.445c.72,4.686-1.348,9.349-3.841,13.382s-5.5,7.839-7,12.338"/><path class="a" d="M669.607,288.881c-1.8-5.245-1.984-11.907-5.124-16.477-2.2-3.194-5.712-5.37-7.6-8.753a13.316,13.316,0,0,0,.442,9.937,28.76,28.76,0,0,0,5.81,8.318c2.324,2.482,4.315,4.349,6.475,6.975"/><path class="a" d="M669.643,443.343c-.14,0-.261-34.99-.271-78.141-.01-43.167.1-78.149.235-78.149s.261,34.982.271,78.148S669.782,443.343,669.643,443.343Z"/><path class="a" d="M700.219,338.533a7.594,7.594,0,0,1-1.315.494l-3.621,1.221c-3.053,1.04-7.246,2.546-11.8,4.411-4.507,1.933-8.757,3.5-11.177,5.6a8.2,8.2,0,0,0-2.246,2.971c-.347.822-.409,1.325-.456,1.316a1.045,1.045,0,0,1,.015-.367,5.562,5.562,0,0,1,.257-1.02,7.888,7.888,0,0,1,2.192-3.167,19.664,19.664,0,0,1,4.85-3.013c1.94-.9,4.09-1.85,6.373-2.788,4.565-1.871,8.791-3.328,11.878-4.283,1.543-.481,2.8-.836,3.675-1.07A7.44,7.44,0,0,1,700.219,338.533Z"/><path class="a" d="M710.241,313.915a2.126,2.126,0,0,1-.368.393l-1.123,1.055-4.191,3.807-13.951,12.422c-5.446,4.848-10.152,9.479-13.414,12.967-1.633,1.741-2.919,3.184-3.8,4.191l-1.014,1.158a2.159,2.159,0,0,1-.379.384,2.187,2.187,0,0,1,.3-.448c.212-.281.52-.7.942-1.22.832-1.048,2.081-2.53,3.684-4.307a176.669,176.669,0,0,1,13.34-13.1c5.465-4.836,10.437-9.181,14.051-12.312,1.774-1.522,3.228-2.771,4.3-3.688l1.185-.983A2.176,2.176,0,0,1,710.241,313.915Z"/><path class="a" d="M684.729,336.521c-.143-.063.995-2.69,2.128-6.012s1.683-6.125,1.828-6.1a20.493,20.493,0,0,1-1.349,6.263,40.731,40.731,0,0,1-1.694,4.205A6.506,6.506,0,0,1,684.729,336.521Z"/><path class="a" d="M669.674,357.7a6.274,6.274,0,0,1-.839-.974l-2.15-2.757c-1.8-2.334-4.3-5.556-7.1-9.082s-5.371-6.689-7.235-8.978l-2.2-2.719a6.373,6.373,0,0,1-.758-1.038,6.157,6.157,0,0,1,.908.91c.56.607,1.354,1.5,2.321,2.617,1.935,2.232,4.554,5.363,7.357,8.894s5.256,6.791,6.99,9.182c.868,1.2,1.558,2.171,2.023,2.854A6.16,6.16,0,0,1,669.674,357.7Z"/><path class="a" d="M662.97,349.092a12.33,12.33,0,0,1-2.809-5.258,15,15,0,0,1-.636-5.3l.223.018c-.1.4-.173.619-.213.612s-.042-.232-.009-.648l.223.018a24.194,24.194,0,0,0,.9,5.157A39.321,39.321,0,0,0,662.97,349.092Z"/><path class="a" d="M654.315,338.2a9.12,9.12,0,0,0-1.961-1.139,13.117,13.117,0,0,0-5.445-.433,33.64,33.64,0,0,0-5.482.885,16.344,16.344,0,0,1-2.256.541,7.883,7.883,0,0,1,2.16-.885,25.047,25.047,0,0,1,5.54-1.045,11.882,11.882,0,0,1,5.617.606A3.482,3.482,0,0,1,654.315,338.2Z"/><path class="a" d="M652.263,335.566c-.038.079-1.142-.458-3-1.094a30.23,30.23,0,0,0-15.14-1.154c-1.937.346-3.109.709-3.136.626a2.83,2.83,0,0,1,.8-.34,18.621,18.621,0,0,1,2.269-.637,26.722,26.722,0,0,1,15.332,1.169,18.625,18.625,0,0,1,2.146.974A2.834,2.834,0,0,1,652.263,335.566Z"/><path class="a" d="M669.607,324.408a62.4,62.4,0,0,1-2.191-7.611,62.234,62.234,0,0,1-1.7-7.735,61.878,61.878,0,0,1,2.192,7.611A62.029,62.029,0,0,1,669.607,324.408Z"/><path class="a" d="M669.747,324.408a36.835,36.835,0,0,0-2.429-4.557,20.03,20.03,0,0,0-3.574-3.688,3.318,3.318,0,0,1,1.38.711,11.124,11.124,0,0,1,2.608,2.687A10.1,10.1,0,0,1,669.747,324.408Z"/><path class="a" d="M669.643,424.69c-.055.009-.158-.841-.552-2.327a33.185,33.185,0,0,0-2.338-6.057c-2.418-4.94-6.817-11.2-12.406-17.478-2.77-3.164-5.457-6.149-7.737-9.007a63.184,63.184,0,0,1-5.533-7.98,38.283,38.283,0,0,1-2.793-5.922c-.257-.73-.445-1.3-.549-1.694a2.97,2.97,0,0,1-.144-.6c.046-.014.3.8.877,2.227a43.027,43.027,0,0,0,2.918,5.812,66.786,66.786,0,0,0,5.587,7.868c2.289,2.829,4.98,5.8,7.755,8.968,5.6,6.29,9.993,12.633,12.347,17.654a30.275,30.275,0,0,1,2.207,6.166,16.936,16.936,0,0,1,.309,1.755A2.874,2.874,0,0,1,669.643,424.69Z"/><path class="a" d="M697.273,393.482a12.926,12.926,0,0,1-1.448.813,31.692,31.692,0,0,0-3.757,2.483,43.127,43.127,0,0,0-4.932,4.5c-1.732,1.829-3.515,3.953-5.335,6.229-3.639,4.566-7.043,8.607-9.081,11.832-1.035,1.6-1.787,2.948-2.28,3.895a12.589,12.589,0,0,1-.8,1.457,1.369,1.369,0,0,1,.134-.41c.108-.261.254-.652.486-1.135a37.028,37.028,0,0,1,2.154-4c1.98-3.3,5.356-7.4,8.989-11.958,1.824-2.28,3.629-4.408,5.393-6.234a40,40,0,0,1,5.055-4.463,26.369,26.369,0,0,1,3.879-2.371c.48-.241.872-.389,1.13-.5A1.391,1.391,0,0,1,697.273,393.482Z"/><path class="a" d="M697.813,403.607a21.1,21.1,0,0,1-3.06.444,40.388,40.388,0,0,0-7.259,1.43,21.8,21.8,0,0,0-6.5,3.411c-1.5,1.157-2.2,2.115-2.274,2.059a2.351,2.351,0,0,1,.453-.7,11.549,11.549,0,0,1,1.6-1.632,19.679,19.679,0,0,1,6.57-3.615,32.8,32.8,0,0,1,7.379-1.3A16.825,16.825,0,0,1,697.813,403.607Z"/><path class="a" d="M679.613,409.839c-.159-.091,1.22-2.2,2.29-5.031,1-2.86,1.239-5.367,1.419-5.338a4.845,4.845,0,0,1-.051,1.642,17.579,17.579,0,0,1-.893,3.868,18.645,18.645,0,0,1-1.775,3.548A4.922,4.922,0,0,1,679.613,409.839Z"/><path class="a" d="M706.221,366.3a2.365,2.365,0,0,1-.49.26l-1.438.654c-.63.27-1.4.613-2.257,1.067s-1.873.906-2.924,1.537l-1.67.949c-.579.333-1.152.728-1.761,1.11-1.231.746-2.464,1.666-3.78,2.605a64.863,64.863,0,0,0-14.559,15.065c-.893,1.348-1.771,2.612-2.475,3.868-.36.622-.736,1.208-1.049,1.8l-.892,1.7c-.594,1.072-1.019,2.1-1.435,2.975s-.741,1.653-.989,2.292l-.605,1.459a.278.278,0,1,1-.1-.034c.137-.395.308-.89.517-1.5.221-.652.512-1.442.914-2.334s.8-1.934,1.375-3.022l.868-1.727c.306-.6.675-1.193,1.031-1.825.693-1.273,1.563-2.554,2.452-3.919a62.479,62.479,0,0,1,14.665-15.175c1.334-.936,2.585-1.849,3.834-2.585.618-.377,1.2-.766,1.787-1.092l1.7-.927c1.067-.615,2.093-1.054,2.973-1.478s1.657-.75,2.3-.993l1.479-.568A2.232,2.232,0,0,1,706.221,366.3Z"/><path class="a" d="M684.354,380.953a3.509,3.509,0,0,1,1.2-1.791A7.59,7.59,0,0,1,690.4,377.3a13.244,13.244,0,0,1,5.1,1,7.266,7.266,0,0,1,1.928.936,11.793,11.793,0,0,1-2.046-.6,15.434,15.434,0,0,0-4.964-.828,7.888,7.888,0,0,0-4.628,1.624A14.178,14.178,0,0,0,684.354,380.953Z"/><path class="a" d="M681.085,384.325a12.923,12.923,0,0,0,1.067-9.148,2.961,2.961,0,0,1,.569,1.3,9.252,9.252,0,0,1-.783,6.706C681.511,383.961,681.134,384.36,681.085,384.325Z"/><path class="a" d="M645.477,429.7c.754,13.371,4.783,26.97,10.981,40.719h26.951c5.911-13.612,9.662-27.19,10.329-40.719Z"/><path class="c" d="M689.37,451.341c0,.14-8.874.253-19.818.253s-19.82-.113-19.82-.253,8.872-.253,19.82-.253S689.37,451.2,689.37,451.341Z"/><path class="c" d="M688.768,456.185c0,.14-8.319.253-18.579.253s-18.58-.113-18.58-.253,8.317-.252,18.58-.252S688.768,456.046,688.768,456.185Z"/><path class="c" d="M656.893,438.483a76.294,76.294,0,0,1,0,12.416,76.294,76.294,0,0,1,0-12.416Z"/><path class="c" d="M671.333,438.483a81.813,81.813,0,0,1,0,12.858,81.813,81.813,0,0,1,0-12.858Z"/><path class="c" d="M684.889,438.374a85.078,85.078,0,0,1,0,13.114,85.448,85.448,0,0,1,0-13.114Z"/><path class="c" d="M692.882,438.483c0,.14-10.408.253-23.244.253s-23.246-.113-23.246-.253,10.406-.253,23.246-.253S692.882,438.344,692.882,438.483Z"/><path class="e" d="M677.02,168.071c-8.021-46-33.553-89.438-72.164-115.69S514.581,18.591,471.35,36.227c-65.173,26.588-102.124,102.39-169.415,123.04-35.895,11.016-74.431,4.279-111.882,1.587s-78.757.152-106.44,25.518C58.07,209.775,50.331,248.886,60,282.152s20.64,57.622,42.727,84.312c29.2,35.284,77.292,43.472,106.31,45.673,81.756,9.219,162.5,11.958,241.979,6.562,58.359,2.052,127.254-21.473,155-47.833,20.309-19.293,38.137-41.239,50.2-66.523C676.307,262.2,685.042,214.067,677.02,168.071Z"/><path class="f" d="M705,470.323c0,.144-147.2.26-328.743.26-181.6,0-328.775-.116-328.775-.26s147.171-.26,328.775-.26C557.8,470.063,705,470.179,705,470.323Z"/><path class="g" d="M653.1,436.972l11.2,20,13.424,13.265a2.349,2.349,0,0,1-.1,3.432h0a2.336,2.336,0,0,1-2.085.528c-4.719-1.11-22.058-5.279-22.8-6.789-.855-1.749-13.22-20.315-13.22-20.315Z"/><g class="h"><path class="d" d="M677.636,473.672l-25.668-7.593.494.836a3.535,3.535,0,0,0,1.888,1.548c2.123.732,8.031,2.627,21.142,5.773a2.346,2.346,0,0,0,2.144-.564Z"/></g><g class="h"><path class="d" d="M652.258,457.318a1.421,1.421,0,0,1,1.279,1.4A1.366,1.366,0,0,1,652.16,460a1.5,1.5,0,0,1-1.346-1.49,1.418,1.418,0,0,1,1.579-1.173"/></g><path class="f" d="M668.029,467.712a7.172,7.172,0,0,1,.825-2.558c.808-1.274,2.063-1.64,2.016-1.777-.012-.058-.352-.064-.853.143a3.75,3.75,0,0,0-2.2,3.353C667.83,467.415,667.971,467.725,668.029,467.712Z"/><path class="f" d="M671,469.525c.144.03.4-.986,1.247-1.882.828-.914,1.822-1.245,1.781-1.387A3.3,3.3,0,0,0,671,469.525Z"/><path class="f" d="M663.411,465.87a12.071,12.071,0,0,1,4.254-5.446,6.422,6.422,0,0,0-4.254,5.446Z"/><path class="f" d="M659.5,460.074c.122.087.944-1.013,2.332-1.9,1.377-.909,2.716-1.213,2.686-1.361a5.827,5.827,0,0,0-5.018,3.263Z"/><path class="f" d="M656.059,454.285a7.468,7.468,0,0,1,5.382-2.933c.007-.06-.354-.18-.965-.175a5.121,5.121,0,0,0-4.041,2.2C656.1,453.89,656,454.259,656.059,454.285Z"/><path class="f" d="M657.748,451.158a1.971,1.971,0,0,0-.414-.762,6.023,6.023,0,0,0-1.748-1.605,2.674,2.674,0,0,0-1.635-.516.945.945,0,0,0-.81.722,1.539,1.539,0,0,0,.214,1.076,3.321,3.321,0,0,0,4.068,1.165,3.849,3.849,0,0,0,2.233-3.658,1.333,1.333,0,0,0-.511-.989.927.927,0,0,0-1.084.07,3.288,3.288,0,0,0-.9,1.444,6.733,6.733,0,0,0-.441,2.33,2.052,2.052,0,0,0,.1.861,10.739,10.739,0,0,1,.672-3.057,3.071,3.071,0,0,1,.817-1.24.494.494,0,0,1,.59-.042.923.923,0,0,1,.3.67,3.44,3.44,0,0,1-1.973,3.15,2.883,2.883,0,0,1-3.467-.94,1.12,1.12,0,0,1-.182-.745.512.512,0,0,1,.442-.4,2.4,2.4,0,0,1,1.392.411A8.908,8.908,0,0,1,657.748,451.158Z"/><path class="g" d="M627.817,443.317l-4.552,16.4s15.136,10.134,14.59,13.246l-32.108-7.685,6.045-25.838Z"/><g class="h"><path class="d" d="M613.669,455.945a1.347,1.347,0,0,0-1.264,1.279,1.3,1.3,0,0,0,1.257,1.265,1.422,1.422,0,0,0,1.332-1.362,1.345,1.345,0,0,0-1.454-1.171"/></g><g class="h"><path class="d" d="M605.747,465.273l.712-2.58,30.518,8.333s1.28.964.878,1.932Z"/></g><path class="f" d="M623.824,459.674c-.043.155-.844.039-1.736.358-.9.3-1.46.88-1.59.784-.137-.065.321-.947,1.408-1.315S623.892,459.538,623.824,459.674Z"/><path class="f" d="M626.858,461.872c0,.161-.743.265-1.434.8-.707.515-1.013,1.2-1.168,1.156-.153-.011-.042-.955.831-1.605S626.891,461.722,626.858,461.872Z"/><path class="f" d="M627.806,466.361c-.15,0-.181-.836.427-1.6s1.423-.929,1.458-.783c.058.151-.528.5-1.018,1.131S627.966,466.383,627.806,466.361Z"/><path class="f" d="M624.447,455.822c-.1.127-.767-.261-1.668-.413-.9-.171-1.658-.038-1.708-.192-.063-.135.749-.554,1.807-.361S624.554,455.717,624.447,455.822Z"/><g class="i"><path d="M626.911,446.563l-.807,2.923-15.746-3.921.789-3.408Z"/></g><path class="f" d="M625.3,452.5a3.09,3.09,0,0,1-1.606-.393,7.381,7.381,0,0,1-1.558-.92,7.788,7.788,0,0,1-.806-.71,2.017,2.017,0,0,1-.395-.495.7.7,0,0,1,.127-.851.887.887,0,0,1,.773-.194,2.117,2.117,0,0,1,.583.228,5.922,5.922,0,0,1,.918.582,5.847,5.847,0,0,1,1.25,1.328,2.776,2.776,0,0,1,.633,1.532c-.084.035-.329-.543-.95-1.294a6.677,6.677,0,0,0-1.241-1.151,6.273,6.273,0,0,0-.855-.506c-.319-.17-.608-.242-.731-.112-.046.051-.055.072-.008.189a1.7,1.7,0,0,0,.291.362,8.785,8.785,0,0,0,.733.688,9.176,9.176,0,0,0,1.412.968A11.387,11.387,0,0,1,625.3,452.5Z"/><path class="f" d="M625.046,452.673a2.641,2.641,0,0,1-.052-1.654,5.373,5.373,0,0,1,.641-1.709,5.46,5.46,0,0,1,.643-.878,1.367,1.367,0,0,1,1.22-.566.771.771,0,0,1,.564.609,2.2,2.2,0,0,1,.024.629,3.632,3.632,0,0,1-.258,1.083,3.79,3.79,0,0,1-1.084,1.5c-.827.682-1.526.713-1.526.657-.034-.092.585-.264,1.257-.948a3.8,3.8,0,0,0,.87-1.389,3.393,3.393,0,0,0,.193-.937c.031-.353-.031-.659-.167-.655-.159-.04-.492.152-.688.393a5.4,5.4,0,0,0-.607.776,5.95,5.95,0,0,0-.7,1.53C625.111,452.043,625.138,452.67,625.046,452.673Z"/><path class="f" d="M633.866,262.854s10.944,19.105,11.539,40.275-14.871,152.488-14.871,152.488L606,449.655c-.451,4.225,7.688-43.168,10.565-65.976,2.834-22.462-11.4-103.494-11.4-103.494l26.808-17.331"/><path class="f" d="M577.818,278.858s-2.663,22.727,4.05,37.959,60.006,141.255,60.006,141.255l21.834-11.124L610.261,278.924Z"/><path class="j" d="M643.828,384.451c-.136.044-6.871-20.24-15.04-45.3s-14.684-45.422-14.547-45.467,6.87,20.236,15.042,45.3S643.965,384.406,643.828,384.451Z"/><path class="j" d="M641.874,458.073c-.132.056-10.778-24.761-23.775-55.424s-23.431-55.576-23.3-55.632,10.777,24.756,23.778,55.429S642.007,458.016,641.874,458.073Z"/><path class="f" d="M602.652,139.741c-3.194-6.659-13.292-10.473-21.651-8.5-7.03,1.663-14.672,8.505-15.369,15.722-1.011,10.466,4.475,21.329.795,31.2-4.283,11.488-10.148,7.7-9.736,24.358.125,5.013,2.072,17.3,4.505,21.705,1.258,2.276,3.221,4.4,5.811,4.886,3.231.6,7.674,1.247,10.29-.708,7.066-5.28,13.633-5.993,15.406-14.583,2.613-12.657-5.828-28.155-5.461-38.429s-1.236-20.509-2.835-30.671"/><path class="f" d="M639.544,198.181c-2.046-4.527-6.042-7.855-10.146-10.655s-8.5-5.277-11.967-8.834-5.911-11.652-5.988-17.6h0c-.064-1.634-.18-3.245-.4-4.842-.795-5.83-2.045-11.753-5.212-16.747s-11.578-9.639-19-6.739l-3.749,4.82a138.316,138.316,0,0,1,3.855,48.166c-.452,4.679-.992,9.907,1.976,13.6,1.93,2.4,5.016,3.635,8.07,4.237,3.385.667,7.21.58,9.893-1.55a3.093,3.093,0,0,1,.526-.327,15.724,15.724,0,0,0,2.709,4.906c2.977,3.54,7.574,5.235,12.032,6.467,5.108,1.41,11.156,2.217,15.205-1.2C641.149,208.684,641.591,202.708,639.544,198.181Z"/><path class="k" d="M576.056,185.612s-11.9,5.1-14.73,7.082,11.614,41.924,11.614,41.924,6.8,16.43,5.1,23.795c-.958,4.148-2.724,8.566-3.476,12.393a7.327,7.327,0,0,0,5.7,8.6c7.011,1.442,20.509,3.215,32.051-1.162a82.252,82.252,0,0,0,19.479-10.289,7.324,7.324,0,0,0,1.917-9.668,19.731,19.731,0,0,0-2.984-3.838c-3.9-3.9-7.376-19.108-8.274-23.291a7.263,7.263,0,0,1-.14-2.09c.306-3.974,1.216-18.553-1.217-25.608-1.944-5.639-5.953-12.328-8.275-15.969a7.314,7.314,0,0,0-4.85-3.257l-9.493-1.746a7.314,7.314,0,0,0-2.474-.031l-19.948,3.157Z"/><g class="i"><path d="M578.606,256.875l-2.112,6.988s14.582-4.923,19.29-10.456,9.343-9.663,11.526-9.911,11.6-.247,13.249,1.074,7.219,4.858,7.219,4.858l-2.561-7.345-6.257-4.91-18.634-1.935Z"/></g><path class="k" d="M561.326,192.694s-4.732,3.385-4.732,11.883c0,0,.428,38.929,1.757,46.438,1.77,9.993,9.833,11.2,14.044,11.2s26.734-18.332,26.734-18.332l-6.923-10.41-16.448,4.284s-.676-16.036-.676-21.487S561.326,192.694,561.326,192.694Z"/><path class="k" d="M609.1,184.541s10.474,2.472,14.654,11.569c3.67,7.987,26.676,43.87,14.8,50.483-8.577,4.777-19.524-6.224-19.524-6.224Z"/><path class="l" d="M625.217,229.646a14.266,14.266,0,0,1-.994-5.168,9.508,9.508,0,0,0-.388-3.16,2.432,2.432,0,0,0-2.52-1.687l-.372,7.813Z"/><path class="f" d="M621.676,212.007l-1.307,27.613L607.1,240.9l-.3-27.063a1.436,1.436,0,0,1,1.213-1.434l12-1.885A1.435,1.435,0,0,1,621.676,212.007Z"/><path class="j" d="M608,221.294a4.671,4.671,0,0,0,.075-.818c.026-.578.059-1.329.1-2.233.032-.96.07-2.079.112-3.313a3.861,3.861,0,0,1,.026-.45.848.848,0,0,1,.179-.375.839.839,0,0,1,.341-.249,2.453,2.453,0,0,1,.465-.1l2.074-.338c2.842-.466,5.412-.9,7.27-1.234l2.2-.4a4.665,4.665,0,0,0,.8-.186,4.616,4.616,0,0,0-.818.079l-2.212.318c-1.866.281-4.441.687-7.283,1.154l-2.074.343a2.618,2.618,0,0,0-.52.114,1.1,1.1,0,0,0-.447.331,1.113,1.113,0,0,0-.23.493,3.62,3.62,0,0,0-.025.494c-.02,1.234-.038,2.354-.053,3.314-.005.9-.009,1.657-.012,2.235A4.709,4.709,0,0,0,608,221.294Z"/><path class="c" d="M614.1,214.348a.659.659,0,0,1,.723-.514.649.649,0,0,1,.549.448.744.744,0,0,1-.255.725.678.678,0,0,1-.759.047A.625.625,0,0,1,614.1,214.348Z"/><path class="l" d="M615.741,222.358c.314.029,7.838,2.516,7.838,2.516l4.234,3.251a7.5,7.5,0,0,1,1.145,5.629c-.515,3.622-2.055,5.111-5.9,6.734l-7.744,0L611,237.963a2.409,2.409,0,0,1-1.164-2.438l.026-.168-.549-.653a1.33,1.33,0,0,1-.163-1.464h0a1.328,1.328,0,0,1,1.788-.573l4.8,2.466,3.022-.079.29-1.041-4.7-1.566-6.2-3.4a1.642,1.642,0,0,1-.615-2.291h0a1.642,1.642,0,0,1,2-.677l5.607,2.2,5.73,1.515-1.182-1.993-7.033-3.663S611.825,221.993,615.741,222.358Z"/><path class="l" d="M614.495,218.8a4.628,4.628,0,0,0-3.83.778c-2.251,1.379-5.079,3.37-5.079,3.37l-4.4,2.048.364-1.227s4.626-.26,3.884-3.535l-2.726.554-2.548-.837-3.919,5.246-1.043,5.811-2.49,2.846,5.456,8.447,7.351-2.805,6.617-.655,2.885-3.195-.172-3.455,2.715-3.812s.149-1.718-1.369-1.639-4.548,4.217-4.548,4.217l-3.588.659s-.709-.47-.254-.869,10.252-7.3,10.535-8.548.65-2.087-.456-2.246a5.969,5.969,0,0,0-2.769.717S615.336,218.925,614.495,218.8Z"/><path class="m" d="M606.749,226.709a100.653,100.653,0,0,0,8.6-6.139,100.776,100.776,0,0,0-8.6,6.139Z"/><path class="m" d="M605.95,235.53a2.24,2.24,0,0,0,.569.089c.367.036.9.084,1.564.1a10.252,10.252,0,0,0,2.328-.205,6.837,6.837,0,0,0,2.612-1.188,12.1,12.1,0,0,0,3.283-3.99c.32-.579.556-1.058.716-1.392a2.232,2.232,0,0,0,.219-.531c-.038-.021-.432.695-1.106,1.825a12.939,12.939,0,0,1-3.275,3.863,6.826,6.826,0,0,1-2.506,1.163,10.983,10.983,0,0,1-2.272.258C606.77,235.533,605.952,235.483,605.95,235.53Z"/><path class="m" d="M592.7,233.851s.062-.056.172-.176l.488-.537,1.869-2.1.009-.01,0-.015,1.071-5.806-.015.033,3.935-5.233-.111.035,2.546.843.027.009.028-.006,2.726-.548-.131-.085a2.6,2.6,0,0,1-.052,1.376,2.37,2.37,0,0,1-.869,1.1,6.007,6.007,0,0,1-2.86.912l-.087.008-.024.079c-.112.377-.238.8-.366,1.227l-.078.263.249-.116,4.407-2.043.011,0,.01-.007c1.31-.914,2.676-1.839,4.1-2.748a11.2,11.2,0,0,1,2.217-1.208,4.118,4.118,0,0,1,2.473-.17l.023.006h.005c.26.036.42.337.475.67a3.737,3.737,0,0,1,.019,1.047l-.029.255.23-.115a7.881,7.881,0,0,1,1.5-.58,2.386,2.386,0,0,1,1.545-.014c.222.095.281.324.267.589a5.016,5.016,0,0,1-.151.816,2.521,2.521,0,0,1-.245.768,4.91,4.91,0,0,1-.557.627,65.529,65.529,0,0,1-5.348,4.334l-2.693,1.994-1.329.975-.329.246a.736.736,0,0,0-.306.378.592.592,0,0,0,.124.493,1.432,1.432,0,0,0,.326.31l.044.03.055-.01,3.588-.661.05-.01.032-.042a22.208,22.208,0,0,1,2.969-3.332c.543-.449,1.149-.942,1.81-.818a.956.956,0,0,1,.734.533,1.955,1.955,0,0,1,.177.951l.022-.06-2.708,3.816-.023.032,0,.039q.093,1.791.179,3.456l.027-.077-2.877,3.2.061-.031-6.614.678h-.01l-.009,0-5.432,2.109q-.918.364-1.415.56l-.359.148a.68.68,0,0,0-.119.056.7.7,0,0,0,.126-.038l.366-.129,1.429-.525,5.456-2.045-.019,0,6.619-.632.036,0,.025-.027,2.894-3.187.029-.033,0-.044-.165-3.456-.021.071,2.722-3.806.02-.029,0-.031a2.192,2.192,0,0,0-.2-1.083,1.346,1.346,0,0,0-.369-.448,1.262,1.262,0,0,0-.542-.219,1.686,1.686,0,0,0-1.112.219,5.576,5.576,0,0,0-.905.651,22.446,22.446,0,0,0-3.016,3.369l.082-.051-3.588.656.1.02c-.189-.13-.385-.357-.337-.511s.334-.311.534-.474q.662-.483,1.329-.973l2.7-1.994a65.279,65.279,0,0,0,5.378-4.356,5.164,5.164,0,0,0,.591-.669,1.112,1.112,0,0,0,.184-.441l.1-.417a5.2,5.2,0,0,0,.158-.868,1.111,1.111,0,0,0-.066-.479.693.693,0,0,0-.348-.37,2.616,2.616,0,0,0-1.746-.008,8.177,8.177,0,0,0-1.559.6l.2.14a3.952,3.952,0,0,0-.021-1.134,1.5,1.5,0,0,0-.2-.546.75.75,0,0,0-.5-.344l.028.007a4.35,4.35,0,0,0-2.661.171,11.436,11.436,0,0,0-2.271,1.238c-1.424.914-2.788,1.842-4.1,2.761l.02-.011-4.4,2.054.171.147.362-1.227-.11.087a6.227,6.227,0,0,0,2.983-.965,2.6,2.6,0,0,0,.949-1.215,2.814,2.814,0,0,0,.054-1.5l-.016-.109-.115.024-2.725.56.055,0-2.55-.831-.069-.022-.043.057-3.9,5.258-.011.015,0,.019c-.408,2.34-.75,4.3-1.015,5.816l.012-.025-1.831,2.132-.468.554C592.751,233.783,592.7,233.851,592.7,233.851Z"/><path class="l" d="M573.125,151.7a15.559,15.559,0,0,1,14.63-16.964A16.02,16.02,0,0,1,604.53,148.75c.914,7.216,1.671,14.5,1.567,17.13-.314,7.943-5.13,10.911-7.074,11.788a10.586,10.586,0,0,1-2.143.464h0a.053.053,0,0,0-.046.061l1.555,9.168c.656,6-2.883,11.238-8.981,11.946-6.119.711-10.763-4.005-11.535-10.01Z"/><path class="f" d="M601.967,153.858a1.265,1.265,0,0,1-1.078,1.409,1.23,1.23,0,0,1-1.454-.978,1.266,1.266,0,0,1,1.076-1.41A1.231,1.231,0,0,1,601.967,153.858Z"/><path class="f" d="M602.606,150.856c-.138.182-1.192-.409-2.566-.246-1.375.144-2.3.956-2.469.808-.082-.065.043-.379.444-.744a3.558,3.558,0,0,1,1.952-.849,3.444,3.444,0,0,1,2.068.4C602.5,150.494,602.675,150.774,602.606,150.856Z"/><path class="f" d="M589.147,155.581a1.266,1.266,0,0,1-1.079,1.409,1.23,1.23,0,0,1-1.454-.978,1.267,1.267,0,0,1,1.077-1.41A1.232,1.232,0,0,1,589.147,155.581Z"/><path class="f" d="M589.123,152.678c-.139.182-1.194-.408-2.567-.245-1.375.144-2.3.955-2.469.807-.082-.064.042-.378.445-.743a3.555,3.555,0,0,1,1.951-.85,3.451,3.451,0,0,1,2.068.4C589.011,152.317,589.191,152.6,589.123,152.678Z"/><path class="f" d="M595.328,162.112a9.323,9.323,0,0,1,2.186-.655c.346-.076.67-.183.7-.426a1.751,1.751,0,0,0-.359-.994l-1.357-2.505a45.07,45.07,0,0,1-3.166-6.6,45.48,45.48,0,0,1,3.7,6.332q.689,1.321,1.316,2.525a1.99,1.99,0,0,1,.346,1.332.876.876,0,0,1-.516.572,2.441,2.441,0,0,1-.586.15A9.15,9.15,0,0,1,595.328,162.112Z"/><path class="m" d="M596.825,178.139s-5.257,1.044-12.373-2.1c0,0,2.932,6.648,12.792,4.574Z"/><path class="m" d="M595.142,165.434a2.525,2.525,0,0,0-2.33-.646,2.276,2.276,0,0,0-1.462,1,1.4,1.4,0,0,0,.086,1.623,1.7,1.7,0,0,0,1.857.238,5.216,5.216,0,0,0,1.632-1.234,1.513,1.513,0,0,0,.344-.445.447.447,0,0,0-.063-.5"/><path class="f" d="M591.4,163.516c.222-.038.4,1.427,1.807,2.319s2.972.546,3.009.749c.032.09-.32.326-.989.422a3.8,3.8,0,0,1-2.5-.543,3.2,3.2,0,0,1-1.419-1.955C591.17,163.9,591.293,163.52,591.4,163.516Z"/><path class="f" d="M589.454,150.242c-.091.383-1.485.369-3.075.747-1.6.347-2.842.962-3.1.658-.114-.147.071-.519.553-.935a5.285,5.285,0,0,1,2.225-1.068,5.37,5.37,0,0,1,2.476,0C589.158,149.807,589.491,150.061,589.454,150.242Z"/><path class="f" d="M601.766,148.156c-.205.335-1.19.127-2.331.244-1.145.078-2.079.45-2.34.156-.116-.145,0-.47.385-.809a3.442,3.442,0,0,1,3.763-.322C601.684,147.694,601.854,147.994,601.766,148.156Z"/><path class="f" d="M597.859,135.143a16.509,16.509,0,0,1-11.9,12.832q.261-1.121.521-2.241a23.369,23.369,0,0,1-13.061,10.8,16.2,16.2,0,0,1,3.737-19.886c5.7-4.7,14.921-5.808,20.706-1.206"/><path class="f" d="M579.521,152.835c-1.388,2.608-.82,5.785.049,8.6s2.022,5.677,1.7,8.6c-.3,2.718-1.853,5.18-2.2,7.893-.58,4.571,2.3,8.807,3.4,13.286A17.924,17.924,0,0,1,578,207.677a2.2,2.2,0,0,1-1.564.857,1.628,1.628,0,0,1-1.366-1.4,6.984,6.984,0,0,1,.105-2.081c.739-6.558-5.556-11.991-6.321-18.548-.5-4.26,1.4-8.418,1.784-12.689.479-5.374-1.454-10.655-1.981-16.026a12.235,12.235,0,0,1,.457-5.468,5.758,5.758,0,0,1,3.874-3.7,3.843,3.843,0,0,1,4.513,2.339"/><path class="f" d="M577.865,237.29a15.87,15.87,0,0,1-1.71.084,9.355,9.355,0,0,0-6.8,3.934,15.95,15.95,0,0,1-.924,1.44,3.582,3.582,0,0,1,.614-1.639,8.458,8.458,0,0,1,7.09-4.1A3.574,3.574,0,0,1,577.865,237.29Z"/><path class="f" d="M575.539,215.831c.144,0,.336,4.774.429,10.666s.053,10.674-.091,10.676-.336-4.773-.429-10.667S575.4,215.833,575.539,215.831Z"/><path class="f" d="M621.036,222.93c-.088.005-.175-1.267-.539-3.28a34.192,34.192,0,0,0-6.322-14.5c-1.227-1.637-2.1-2.566-2.036-2.627.026-.026.267.184.683.586a20.949,20.949,0,0,1,1.644,1.814,29.9,29.9,0,0,1,6.4,14.667,21.065,21.065,0,0,1,.21,2.439A2.982,2.982,0,0,1,621.036,222.93Z"/><path class="f" d="M556.507,206.834a1.438,1.438,0,0,1,.026.32c.007.241.015.551.026.941.016.862.04,2.074.07,3.618.076,3.176.185,7.712.32,13.3.175,5.615.4,12.3.87,19.71q.1,1.389.2,2.811l.108,1.429c.065.47.13.944.2,1.419a18.544,18.544,0,0,0,.634,2.83,14.821,14.821,0,0,0,1.231,2.671,11.8,11.8,0,0,0,4.229,4.2,13.82,13.82,0,0,0,5.9,1.823l.37.017h.03a9.025,9.025,0,0,0,4.481-.859,31.576,31.576,0,0,0,4.04-2.211q3.9-2.409,7.415-4.952a123.138,123.138,0,0,0,12.334-10.183l-.031.275-6.884-10.436.181.07c-4.532,1.121-8.11,2.11-10.576,2.728l-2.823.714-.731.172a1.037,1.037,0,0,1-.252.043,1.145,1.145,0,0,1,.24-.089l.719-.217,2.8-.8c2.453-.673,6.016-1.712,10.54-2.878l.114-.029.067.1,6.962,10.384.1.15-.132.126a120.618,120.618,0,0,1-12.339,10.272c-2.342,1.7-4.828,3.371-7.436,4.988a31.994,31.994,0,0,1-4.105,2.25,9.517,9.517,0,0,1-4.745.9l.03,0-.405-.018a14.324,14.324,0,0,1-6.126-1.895,12.306,12.306,0,0,1-4.406-4.389,15.3,15.3,0,0,1-1.272-2.774,18.825,18.825,0,0,1-.647-2.913q-.1-.732-.2-1.455l-.1-1.432q-.094-1.425-.187-2.817c-.445-7.421-.631-14.112-.759-19.73s-.157-10.167-.155-13.31c.012-1.545.021-2.757.028-3.619l.026-.942A1.463,1.463,0,0,1,556.507,206.834Z"/><path class="f" d="M634.8,247.735c0,.036-.249.067-.7.092a11.822,11.822,0,0,1-1.929-.069,16.041,16.041,0,0,1-2.814-.566,19.626,19.626,0,0,1-3.248-1.343,27.725,27.725,0,0,1-5.208-3.63,11.011,11.011,0,0,1-1.864-1.85,16.236,16.236,0,0,1,2.1,1.565,35.977,35.977,0,0,0,5.217,3.454,22.228,22.228,0,0,0,3.15,1.346,19.29,19.29,0,0,0,2.72.66C633.8,247.648,634.8,247.644,634.8,247.735Z"/><path class="f" d="M637.313,230.379a16.672,16.672,0,0,0-9.9-2.508,10.523,10.523,0,0,1,9.9,2.508Z"/><path class="f" d="M633.03,225.9c-.008.154-1.409.137-3.036.6-1.633.446-2.821,1.186-2.908,1.059a6.657,6.657,0,0,1,5.944-1.661Z"/><path class="f" d="M581.477,279.284c-.03.05-.458-.123-.977-.645a5.02,5.02,0,0,1-.97-5.344c.3-.67.643-.983.688-.946.07.047-.15.425-.342,1.073a5.68,5.68,0,0,0,.9,4.977C581.187,278.939,581.525,279.215,581.477,279.284Z"/><path class="f" d="M591.566,280.753c-.027.052-.5-.108-1.135-.608a6.281,6.281,0,0,1-2.215-5.607c.119-.8.358-1.239.413-1.219.081.024-.026.495-.046,1.249a7.295,7.295,0,0,0,2.095,5.3C591.208,280.41,591.608,280.68,591.566,280.753Z"/><path class="f" d="M600.907,281.438c-.03.052-.456-.114-1-.6a5.615,5.615,0,0,1-1.677-5.2c.16-.711.409-1.094.464-1.07a7.266,7.266,0,0,0,2.215,6.863Z"/><path class="f" d="M610.261,278.924c-.153.006-.286-1.387-.8-3.008s-1.183-2.848-1.054-2.93a7.723,7.723,0,0,1,1.853,5.938Z"/><path class="f" d="M620.107,275.288a29.221,29.221,0,0,0-.685-3.752,28.943,28.943,0,0,0-1.648-3.439,7.467,7.467,0,0,1,2.333,7.191Z"/><path class="f" d="M627.055,271.161c-.158,0-.125-1.663-.809-3.54-.659-1.886-1.735-3.15-1.615-3.253a7.326,7.326,0,0,1,2.424,6.793Z"/><path class="f" d="M632.995,267.033a11.407,11.407,0,0,0-3.222-6.34,6.35,6.35,0,0,1,3.222,6.34Z"/><g class="i"><path d="M575.674,236.909a6.4,6.4,0,0,0-8.8,1.55,3.169,3.169,0,0,0-.683,1.778,1.6,1.6,0,0,0,.965,1.534,2.5,2.5,0,0,0,2.422-.958,11.963,11.963,0,0,1,6.3-3.64"/></g><g class="i"><path d="M627.387,227.885c2.676-.374,5.295.838,7.972,1.205a1.873,1.873,0,0,0,1.408-.206,1.193,1.193,0,0,0,.424-1.027,1.842,1.842,0,0,0-.462-1.039,4.334,4.334,0,0,0-3.3-1.181,13.535,13.535,0,0,0-3.682.449,3.858,3.858,0,0,0-2.534,1.618"/></g><path class="d" d="M556.507,215.035a3.876,3.876,0,0,0,1.112,2.084,1.513,1.513,0,0,0,1.991.2c.342-.306.516-.826.953-.967.558-.18,1.12.392,1.7.31.89-.125,1.067-1.591,1.956-1.724.85-.127,1.5,1.114,2.332.885.8-.22.729-1.5,1.435-1.928.62-.377,1.4.121,1.91.633s1.143,1.114,1.848.943c1.175-.285,1.194-2.377,2.393-2.531.85-.109,1.673.931,2.434.535.359-.188.506-.625.8-.9.564-.524,1.456-.334,2.208-.165s1.713.2,2.1-.468a13.642,13.642,0,0,0-5.717-.958,3.1,3.1,0,0,1-1.982-.293c-.382-.271-.684-.758-1.151-.74-.418.015-.7.438-1.095.578-.63.225-1.271-.335-1.594-.92a4.334,4.334,0,0,0-1.091-1.657,1.973,1.973,0,0,0-2.56.7,5.736,5.736,0,0,0-.793,2.795c-1.043-.328-1.019-2.174-2.095-2.365-.676-.12-1.222.549-1.5,1.177s-.523,1.365-1.148,1.65l-1.482-2.434a3,3,0,0,1-2.956,2.544"/><path class="d" d="M599.1,201.047l.88-1.707a1.949,1.949,0,0,0,3.128-.585c.259-.709.1-1.6.627-2.141a1.51,1.51,0,0,1,1.824-.093,4.409,4.409,0,0,1,1.3,1.463,4.94,4.94,0,0,1,1.05-1.918,1.688,1.688,0,0,1,2.012-.348c.4.262.707.775,1.182.734.9-.078.567-1.749,1.377-2.139.746-.359,1.586.757,2.353.445.629-.257.634-1.261,1.246-1.555.914-.44,1.761,1.153,2.752.936.477-.1.758-.592,1.169-.855a1.864,1.864,0,0,1,2.111.281,5.456,5.456,0,0,1,1.28,1.861,3.945,3.945,0,0,1,.528,1.6,1.351,1.351,0,0,1-.818,1.354c-1.076.338-2.084-1.216-3.157-.867-.8.262-1.081,1.462-1.92,1.562-.863.1-1.4-1.058-2.262-1.166-1.041-.129-1.545,1.209-2.319,1.918a2.364,2.364,0,0,1-3.534-.641l-1.576.976a2,2,0,0,0-2.988,1.165c.1-.5-.536-.9-1.033-.77a2.309,2.309,0,0,0-1.155.968,2.311,2.311,0,0,1-1.157.967c-.783.2-1.611-.454-2.381-.21-.824.261-1.3,1.462-2.146,1.295-.717-.141-.811-1.247-.294-1.764a3.083,3.083,0,0,1,2.044-.644"/><path class="d" d="M596.052,223.464a1.341,1.341,0,0,0-2.417-.838c-.292.392-.405.973-.86,1.152-.776.306-1.538-.91-2.324-.629-.7.25-.659,1.445-1.365,1.689-.532.185-1.042-.326-1.322-.815s-.571-1.077-1.124-1.184c-.7-.136-1.249.6-1.513,1.264s-.536,1.455-1.217,1.672c-.917.291-1.706-.677-2.185-1.512s-1.269-1.8-2.185-1.509a2.151,2.151,0,0,0-1.068,1.116l-2.649,4.668.055,5.192c1.227.045,1.428-1.193,1.527-2.417a2.321,2.321,0,0,0,2.719.88,8.764,8.764,0,0,0,2.623-1.618,4.686,4.686,0,0,1,2.8-1.174c.739.018,1.527.337,2.182,0,.724-.378.869-1.34,1.361-1.992a3.613,3.613,0,0,1,2.655-1.149,9.4,9.4,0,0,0,2.934-.444A2.1,2.1,0,0,0,596.052,223.464Z"/><path class="d" d="M626.825,221.34a6.367,6.367,0,0,0-.159-1.793c-.052-.6.179-1.333.767-1.467a1.444,1.444,0,0,1,1.263.583,2.492,2.492,0,0,0,1.141.868c.442-.5.036-1.329.31-1.937a1.274,1.274,0,0,1,1.7-.438,3.684,3.684,0,0,1,1.331,1.4c.2-.664,1.168-.794,1.737-.4a3.334,3.334,0,0,1,1.054,1.75,1.131,1.131,0,0,1,.054.887.982.982,0,0,1-.635.415,3.734,3.734,0,0,1-2.443-.151,1.428,1.428,0,0,0-.874-.2c-.6.151-.671,1.091-1.251,1.312-.384.147-.832-.092-1.22.044s-.574.6-.94.792a1.078,1.078,0,0,1-1.226-.294,3.146,3.146,0,0,1-.613-1.195l.126-.085"/><path class="d" d="M627.132,242.89"/><path class="d" d="M626.854,242.3c-.1.533.6.875,1.139.792a6.094,6.094,0,0,1,1.586-.322,4.2,4.2,0,0,1,1.178.495,2.872,2.872,0,0,0,3.037-.479,3.1,3.1,0,0,0,.35,1.55,1.065,1.065,0,0,0,1.381.433,2.163,2.163,0,0,0,.594-.873c.169-.314.48-.624.829-.551.317.067.48.407.69.654.735.863,2.242.552,2.969-.318a5.919,5.919,0,0,0,1.018-3.193c.058-.5.068-1.1-.348-1.372a.934.934,0,0,0-1.146.239,2.707,2.707,0,0,0-.521,1.15,2.243,2.243,0,0,0-1.9-2.76,2.022,2.022,0,0,0-1.93,2.6,3.9,3.9,0,0,0-.493-1.339,1.321,1.321,0,0,0-1.209-.627c-.745.1-1.087.968-1.265,1.7s-.459,1.6-1.189,1.779c-.925.231-1.619-.815-2.469-1.248a2.1,2.1,0,0,0-2.177.2Z"/><path class="d" d="M576.4,264.171s-1.275,4.489-1.334,4.489c0,0,1.319-.783,1.878-.59s1.1.617,1.677.474c.914-.226,1.1-1.688,2.032-1.844a1.638,1.638,0,0,1,1.135.382,2.234,2.234,0,0,0,1.1.5c.409.018.858-.342.755-.739a2.132,2.132,0,0,0,2.435,1.571A7.894,7.894,0,0,0,589,267.129a4.362,4.362,0,0,1,3.048-.77,12.258,12.258,0,0,1,1.865.836,1.778,1.778,0,0,0,1.923-.162c.284-.288.406-.727.745-.947a1.375,1.375,0,0,1,1.427.183,3.479,3.479,0,0,0,1.342.686,1.916,1.916,0,0,0,1.773-1.221c.338-.687.461-1.465.808-2.149a1.882,1.882,0,0,1,1.8-1.176c.378.059.763.294,1.118.15.721-.292.291-1.6.947-2.021a1.406,1.406,0,0,1,1.142.044,6.684,6.684,0,0,0,4.943-.46,3.367,3.367,0,0,0-2.484-1.448,9.951,9.951,0,0,0-2.956.207,5.007,5.007,0,0,0-2.447.881c-.317.266-.618.633-1.031.634-.721,0-1.156-1.113-1.857-.946-.635.152-.6,1.148-1.143,1.515s-1.254-.105-1.75-.541-1.266-.857-1.754-.412c-.473.431-.36,1.463-1,1.535s-.717-.934-1.165-1.4a1.22,1.22,0,0,0-1.791.385,3.526,3.526,0,0,0-.32,2.054,4.992,4.992,0,0,0-1.791-2.03,1.722,1.722,0,0,0-2.357.621c-.1.25-.131.551-.34.723a.769.769,0,0,1-1.012-.236c-.247-.3-.371-.679-.62-.974a1.461,1.461,0,0,0-2.45,1.541,3.847,3.847,0,0,0-6.708,1.7Z"/><path class="d" d="M560.488,255.908c1.905.871,3.7,1.785,4.93.088a2.825,2.825,0,0,0,5.063-.078c.439-.921.453-2.167,1.337-2.676,1.049-.6,2.278.37,3.469.589,1.456.268,2.867-.649,3.919-1.692a14.26,14.26,0,0,1,3.291-2.951c1.179-.6,2.882-1.046,2.876-2.367-.006-1.195-1.631-1.754-2.743-1.318a13.1,13.1,0,0,0-2.84,2.157c-.953.721-2.4,1.125-3.282.319-.5-.459-.822-1.282-1.5-1.269-.744.015-.984.995-1.022,1.738s-.35,1.723-1.091,1.661c-.8-.066-.885-1.217-1.423-1.812-.8-.881-2.415-.143-2.766.993a5.136,5.136,0,0,0,.587,3.438l-3.926-5.124q-.552,1.912-1.1,3.826a7.6,7.6,0,0,0-2.887-2.551,2.333,2.333,0,0,0-3.158.929C557.947,250.148,559.352,255.388,560.488,255.908Z"/><path class="n" d="M572.648,254.129"/><path class="d" d="M630.939,254.756c-.284.306.031.743.1,1.154a3.455,3.455,0,0,1,.13,1.235c-.077.41-.469.8-.871.692-.219-.061-.379-.25-.587-.342-.522-.231-1.073.2-1.611.4-1.754.621-3.676-1.421-5.4-.72-.965.393-1.677,1.6-2.7,1.393a1.461,1.461,0,0,1-.977-1.726,3.271,3.271,0,0,1,1.229-1.776A10.649,10.649,0,0,0,621.9,253.6c.35-.446.706-1.047,1.273-1.014.753.044,1.222,1.229,1.933.977a.951.951,0,0,0,.477-1,3.273,3.273,0,0,1-.013-1.179,1.39,1.39,0,0,1,2.012-.519,4.049,4.049,0,0,1,1.626,1.72Z"/><path class="j" d="M543.277,92.164H115.161A13.363,13.363,0,0,0,101.8,105.527V407.916a13.364,13.364,0,0,0,13.364,13.364h164.31s10.452,32.32-21.948,49.043H411.161s-36.582-12.541-27.176-49.043H543.278a13.363,13.363,0,0,0,13.363-13.363V105.528A13.364,13.364,0,0,0,543.277,92.164Z" transform="translate(4 -1)"/><path class="f" d="M332.783,389.478c5.824,8.323-3.291,17.438-11.616,11.615a2.951,2.951,0,0,1-.715-.717c-5.808-8.322,3.3-17.424,11.615-11.614A2.9,2.9,0,0,1,332.783,389.478Z"/><path class="a" d="M9.7,0H430.4a9.7,9.7,0,0,1,9.7,9.7V268.256a0,0,0,0,1,0,0H0a0,0,0,0,1,0,0V9.7A9.7,9.7,0,0,1,9.7,0Z" transform="translate(115.169 96.704)"/><path class="f" d="M466.737,421.322c0,.142-60.921.257-136.054.257-75.159,0-136.068-.115-136.068-.257s60.909-.256,136.068-.256C405.816,421.066,466.737,421.181,466.737,421.322Z"/><rect class="d" width="340.371" height="250.927" transform="translate(157.116 106.368)"/><path class="f" d="M497.988,357.8H156.616V105.869H497.988Zm-340.372-1H496.988V106.869H157.616Z"/><path class="f" d="M173.163,117.741a2.391,2.391,0,1,1-2.391-2.391A2.391,2.391,0,0,1,173.163,117.741Z"/><circle class="f" cx="2.391" cy="2.391" r="2.391" transform="translate(175.509 115.35)"/><circle class="f" cx="2.391" cy="2.391" r="2.391" transform="translate(182.287 115.35)"/><path class="o" d="M347.835,133.982l-18.564-6.838-18.383,6.746c-2.347,1.137-4.406,1.818-4.406,4.06v11.165a43.019,43.019,0,0,0,6.056,22.222,38.041,38.041,0,0,0,16.914,15.322c7.514-2.5,13.123-9.178,16.552-14.887a43.015,43.015,0,0,0,6.056-22.221v-10.04C352.06,136.313,350.408,134.751,347.835,133.982Z"/><g class="p"><path class="d" d="M347.835,133.982l-18.564-6.838-18.383,6.746c-2.347,1.137-4.406,1.818-4.406,4.06v11.165a43.019,43.019,0,0,0,6.056,22.222,38.041,38.041,0,0,0,16.914,15.322c7.514-2.5,13.123-9.178,16.552-14.887a43.015,43.015,0,0,0,6.056-22.221v-10.04C352.06,136.313,350.408,134.751,347.835,133.982Z"/></g><path class="o" d="M342.989,163.094h-4.127V140.627a9.59,9.59,0,1,0-19.181,0v22.467h-4.128V140.627a13.718,13.718,0,1,1,27.436,0Z"/><g class="q"><path d="M342.989,163.094h-4.127V140.627a9.59,9.59,0,1,0-19.181,0v22.467h-4.128V140.627a13.718,13.718,0,1,1,27.436,0Z"/></g><rect class="o" width="36.975" height="23.722" rx="5.811" transform="translate(310.784 153.1)"/><g class="r"><path d="M332.362,161.87a3.091,3.091,0,1,0-3.934,2.96v4.62h1.686v-4.62A3.082,3.082,0,0,0,332.362,161.87Z"/></g><path class="c" d="M312.755,174.572c-.084,0-.153-3.956-.153-8.835s.069-8.836.153-8.836.154,3.956.154,8.836S312.84,174.572,312.755,174.572Z"/><path class="c" d="M326.851,165.832c-.01.015-.145-.048-.363-.206a3.77,3.77,0,0,1-.8-.811,4.331,4.331,0,0,1,1.539-6.5,3.785,3.785,0,0,1,1.076-.369.95.95,0,0,1,.416-.021,9.648,9.648,0,0,0-1.388.58,4.284,4.284,0,0,0-1.465,6.185A9.589,9.589,0,0,0,326.851,165.832Z"/><circle class="o" cx="1.424" cy="1.424" r="1.424" transform="translate(297.354 168.026)"/><path class="o" d="M362.979,132.147a1.424,1.424,0,1,1-1.424-1.424A1.423,1.423,0,0,1,362.979,132.147Z"/><path class="o" d="M307.227,182.744a.362.362,0,1,1-.362-.362A.363.363,0,0,1,307.227,182.744Z"/><path class="g" d="M307.227,142.477a.362.362,0,1,1-.362-.362A.363.363,0,0,1,307.227,142.477Z"/><path class="o" d="M363.7,161.874a.362.362,0,1,1-.362-.362A.362.362,0,0,1,363.7,161.874Z"/><path class="o" d="M368.733,145a.362.362,0,1,1-.362-.361A.362.362,0,0,1,368.733,145Z"/><path d="M242.774,202.028h-4.908L236.9,204.3h-1.88l4.418-9.816h1.795l4.431,9.816h-1.907Zm-.6-1.431-1.851-4.29-1.837,4.29Z"/><path d="M253.854,196.811V204.3h-1.669v-.954a3.059,3.059,0,0,1-2.412,1.052,2.962,2.962,0,0,1-3.225-3.31v-4.277H248.3v4.039c0,1.36.645,2,1.753,2A1.973,1.973,0,0,0,252.1,200.6v-3.786Z"/><path d="M260.657,203.893a2.755,2.755,0,0,1-1.683.5,2.3,2.3,0,0,1-2.58-2.524v-3.6H255.16v-1.4h1.234v-1.711h1.753v1.711h2.006v1.4h-2.006v3.562c0,.729.365,1.121,1.038,1.121a1.579,1.579,0,0,0,.982-.308Z"/><path d="M269.479,200.009V204.3h-1.753v-4.067c0-1.332-.659-1.977-1.781-1.977a1.989,1.989,0,0,0-2.089,2.258V204.3H262.1V193.9h1.753v3.786a3.336,3.336,0,0,1,2.5-.954A2.927,2.927,0,0,1,269.479,200.009Z"/><path d="M278.792,201.117h-5.876a2.267,2.267,0,0,0,2.427,1.794,2.683,2.683,0,0,0,2.033-.813l.939,1.08a4.205,4.205,0,0,1-7.152-2.622,3.725,3.725,0,0,1,3.871-3.829,3.652,3.652,0,0,1,3.786,3.87C278.82,200.738,278.806,200.948,278.792,201.117Zm-5.89-1.164h4.249a2.038,2.038,0,0,0-2.117-1.823A2.07,2.07,0,0,0,272.9,199.953Z"/><path d="M287.88,200.009V204.3h-1.753v-4.067c0-1.332-.659-1.977-1.781-1.977a1.989,1.989,0,0,0-2.089,2.258V204.3H280.5v-7.489h1.669v.968a3.256,3.256,0,0,1,2.58-1.052A2.927,2.927,0,0,1,287.88,200.009Z"/><path d="M294.613,203.893a2.76,2.76,0,0,1-1.683.5,2.3,2.3,0,0,1-2.58-2.524v-3.6h-1.234v-1.4h1.234v-1.711H292.1v1.711h2.005v1.4H292.1v3.562c0,.729.365,1.121,1.037,1.121a1.577,1.577,0,0,0,.982-.308Z"/><path d="M295.821,194.526a1.067,1.067,0,0,1,1.121-1.052,1.044,1.044,0,0,1,1.122,1.01,1.123,1.123,0,0,1-2.243.042Zm.238,2.285h1.753V204.3h-1.753Z"/><path d="M299.495,200.556a3.79,3.79,0,0,1,4.053-3.829,3.37,3.37,0,0,1,3.2,1.739l-1.346.785a2.12,2.12,0,0,0-1.866-1.037,2.343,2.343,0,0,0,0,4.683,2.12,2.12,0,0,0,1.866-1.037l1.346.785a3.4,3.4,0,0,1-3.2,1.753A3.8,3.8,0,0,1,299.495,200.556Z"/><path d="M314.529,199.91v4.39h-1.655v-.912a2.654,2.654,0,0,1-2.356,1.01c-1.711,0-2.79-.94-2.79-2.244,0-1.248.841-2.229,3.113-2.229h1.935v-.113c0-1.023-.617-1.626-1.865-1.626a3.707,3.707,0,0,0-2.272.743l-.687-1.276a5.264,5.264,0,0,1,3.169-.926C313.281,196.727,314.529,197.751,314.529,199.91Zm-1.753,2.048v-.87h-1.809c-1.192,0-1.515.449-1.515,1,0,.631.533,1.038,1.431,1.038A1.91,1.91,0,0,0,312.776,201.958Z"/><path d="M321.276,203.893a2.759,2.759,0,0,1-1.683.5,2.3,2.3,0,0,1-2.581-2.524v-3.6h-1.233v-1.4h1.233v-1.711h1.753v1.711h2.006v1.4h-2.006v3.562c0,.729.365,1.121,1.038,1.121a1.579,1.579,0,0,0,.982-.308Z"/><path d="M329.48,201.117H323.6a2.267,2.267,0,0,0,2.426,1.794,2.684,2.684,0,0,0,2.034-.813l.939,1.08a4.205,4.205,0,0,1-7.152-2.622,3.725,3.725,0,0,1,3.871-3.829,3.652,3.652,0,0,1,3.786,3.87C329.508,200.738,329.494,200.948,329.48,201.117Zm-5.89-1.164h4.249a2.038,2.038,0,0,0-2.117-1.823A2.07,2.07,0,0,0,323.59,199.953Z"/><path d="M339.467,200.836V204.3h-1.823v-3.436l-3.856-6.38h1.949l2.875,4.781,2.9-4.781h1.795Z"/><path d="M342.876,200.556a3.992,3.992,0,1,1,3.982,3.842A3.77,3.77,0,0,1,342.876,200.556Zm6.212,0a2.226,2.226,0,1,0-2.23,2.341A2.18,2.18,0,0,0,349.088,200.556Z"/><path d="M359.789,196.811V204.3H358.12v-.954a3.059,3.059,0,0,1-2.412,1.052,2.962,2.962,0,0,1-3.225-3.31v-4.277h1.753v4.039c0,1.36.645,2,1.753,2a1.973,1.973,0,0,0,2.047-2.258v-3.786Z"/><path d="M366.424,196.727V198.4a2.24,2.24,0,0,0-.407-.042,2.041,2.041,0,0,0-2.173,2.314V204.3h-1.753v-7.489h1.668V197.9A2.949,2.949,0,0,1,366.424,196.727Z"/><path d="M378.387,202.028h-4.908l-.968,2.272h-1.879l4.417-9.816h1.795l4.432,9.816h-1.908Zm-.6-1.431-1.85-4.29L374.1,200.6Z"/><path d="M381.67,200.556a3.79,3.79,0,0,1,4.053-3.829,3.369,3.369,0,0,1,3.2,1.739l-1.346.785a2.119,2.119,0,0,0-1.865-1.037,2.343,2.343,0,0,0,0,4.683,2.119,2.119,0,0,0,1.865-1.037l1.346.785a3.4,3.4,0,0,1-3.2,1.753A3.8,3.8,0,0,1,381.67,200.556Z"/><path d="M389.707,200.556a3.79,3.79,0,0,1,4.053-3.829,3.37,3.37,0,0,1,3.2,1.739l-1.346.785a2.12,2.12,0,0,0-1.866-1.037,2.343,2.343,0,0,0,0,4.683,2.12,2.12,0,0,0,1.866-1.037l1.346.785a3.4,3.4,0,0,1-3.2,1.753A3.8,3.8,0,0,1,389.707,200.556Z"/><path d="M397.743,200.556a3.993,3.993,0,1,1,3.983,3.842A3.77,3.77,0,0,1,397.743,200.556Zm6.213,0a2.226,2.226,0,1,0-2.23,2.341A2.181,2.181,0,0,0,403.956,200.556Z"/><path d="M414.656,196.811V204.3h-1.668v-.954a3.059,3.059,0,0,1-2.412,1.052,2.963,2.963,0,0,1-3.225-3.31v-4.277H409.1v4.039c0,1.36.645,2,1.753,2A1.973,1.973,0,0,0,412.9,200.6v-3.786Z"/><path d="M424.335,200.009V204.3h-1.753v-4.067c0-1.332-.659-1.977-1.781-1.977a1.989,1.989,0,0,0-2.09,2.258V204.3h-1.753v-7.489h1.669v.968a3.257,3.257,0,0,1,2.58-1.052A2.927,2.927,0,0,1,424.335,200.009Z"/><path d="M431.068,203.893a2.759,2.759,0,0,1-1.683.5,2.3,2.3,0,0,1-2.58-2.524v-3.6h-1.234v-1.4H426.8v-1.711h1.753v1.711h2v1.4h-2v3.562c0,.729.364,1.121,1.037,1.121a1.576,1.576,0,0,0,.981-.308Z"/><path class="f" d="M458.623,218.225c0,.144-58.8.261-131.322.261-72.545,0-131.334-.117-131.334-.261s58.789-.26,131.334-.26C399.821,217.965,458.623,218.081,458.623,218.225Z"/><path class="f" d="M401.534,231.738a2.1,2.1,0,0,1-.383.027l-1.125.026-4.326.049-15.911.082L327.3,232l-52.5-.077-15.909-.082-4.326-.049-1.125-.026a2.1,2.1,0,0,1-.383-.027,2.055,2.055,0,0,1,.383-.026l1.125-.026,4.326-.049,15.909-.083,52.5-.076,52.49.076,15.911.083,4.326.049,1.125.026A2.055,2.055,0,0,1,401.534,231.738Z"/><rect class="a" width="26.93" height="36.238" rx="6.336" transform="translate(241.354 243.587)"/><rect class="a" width="26.929" height="36.238" rx="6.336" transform="translate(277.592 243.587)"/><rect class="a" width="26.929" height="36.238" rx="6.336" transform="translate(313.83 243.587)"/><rect class="a" width="26.929" height="36.238" rx="6.336" transform="translate(350.069 243.587)"/><rect class="a" width="26.929" height="36.238" rx="6.336" transform="translate(386.307 243.587)"/><rect class="o" width="103.524" height="33.267" rx="16.152" transform="translate(274.859 299.259)"/><rect class="f" width="74.595" height="10.25" transform="translate(56.156 407.414)"/><path class="f" d="M130.878,417.791H56.028v-10.5h74.85Zm-74.6-.255h74.34v-10H56.283Z"/><path class="f" d="M63.072,414.252l10.737,52.971h39.728l10.38-49.559Z"/><path class="j" d="M63.072,462.213l5.727,7.874h48.29l6.829-7.874Z"/><path class="f" d="M90.652,415.8c-.147,0-.335-24.54-.42-54.8s-.035-54.811.111-54.812.335,24.535.42,54.81S90.8,415.8,90.652,415.8Z"/><path class="f" d="M107.268,354.388a2.569,2.569,0,0,1-.2.571c-.174.417-.4.942-.666,1.588-.148.35-.311.731-.486,1.144l-.5,1.393q-.271.753-.575,1.6c-.2.567-.356,1.184-.552,1.822a74.371,74.371,0,0,0-2.086,9.133,111.148,111.148,0,0,0-1.155,11.421,153.974,153.974,0,0,0,.59,20.863c.24,2.664.481,4.816.658,6.3.077.7.139,1.265.188,1.714a2.478,2.478,0,0,1,.03.6,2.568,2.568,0,0,1-.135-.587c-.076-.447-.171-1.01-.288-1.7-.24-1.478-.539-3.627-.827-6.291a137.246,137.246,0,0,1-.747-20.926,104.129,104.129,0,0,1,1.2-11.477,69.31,69.31,0,0,1,2.21-9.163c.208-.638.378-1.255.591-1.821s.423-1.093.617-1.593l.54-1.384c.184-.418.372-.791.532-1.131l.759-1.552A2.559,2.559,0,0,1,107.268,354.388Z"/><path class="f" d="M105.361,334.541a5.05,5.05,0,0,1-.237.809l-.777,2.281q-.258.748-.57,1.645-.277.918-.6,1.981c-.436,1.42-.942,3.034-1.392,4.85q-.357,1.357-.748,2.837-.336,1.494-.7,3.1c-.521,2.135-.9,4.456-1.378,6.88-.822,4.874-1.546,10.262-2.046,15.945-.471,5.688-.676,11.123-.748,16.068-.015,4.945.047,9.4.251,13.136.065,1.869.185,3.557.282,5.04s.178,2.761.273,3.8q.116,1.508.183,2.4a5.044,5.044,0,0,1,.028.842,4.9,4.9,0,0,1-.135-.831q-.1-.894-.282-2.4c-.126-1.04-.25-2.316-.364-3.8s-.271-3.172-.361-5.044c-.251-3.739-.353-8.2-.365-13.159.045-4.956.236-10.4.709-16.109.5-5.7,1.242-11.1,2.093-15.986.5-2.429.889-4.753,1.43-6.891q.378-1.609.731-3.106l.784-2.837c.474-1.814,1.007-3.425,1.471-4.84q.345-1.057.643-1.972l.616-1.633.871-2.251A4.993,4.993,0,0,1,105.361,334.541Z"/><path class="f" d="M85.934,420.141a1.116,1.116,0,0,1-.043-.287c-.018-.22-.041-.5-.07-.844-.053-.782-.126-1.87-.219-3.25-.179-2.863-.434-6.937-.748-11.954-.648-10.09-1.584-24.032-3.282-39.363C80.7,356.778,79.7,349.5,78.652,342.9c-.556-3.3-1.06-6.43-1.633-9.346-.524-2.925-1.09-5.635-1.61-8.108-.491-2.479-1.037-4.7-1.477-6.659s-.85-3.638-1.2-5.008c-.329-1.343-.588-2.4-.775-3.162-.077-.339-.139-.611-.189-.826a1.179,1.179,0,0,1-.046-.287,1.2,1.2,0,0,1,.1.272c.062.212.141.48.239.813.21.755.5,1.8.872,3.138.38,1.363.828,3.035,1.288,4.991s1.041,4.172,1.555,6.649c.544,2.471,1.132,5.179,1.676,8.105.592,2.916,1.113,6.052,1.683,9.349,1.074,6.6,2.1,13.892,2.965,21.565,1.7,15.347,2.577,29.3,3.129,39.4.274,5.05.465,9.139.579,11.965.051,1.383.091,2.472.12,3.255.007.347.013.626.018.847A1.2,1.2,0,0,1,85.934,420.141Z"/><path class="s" d="M90.043,317.98c-.324-3.476-3.837-6.1-7.329-6.135s-6.745,2.058-8.881,4.821a27.765,27.765,0,0,0-4.276,9.491c-2.351,8.191-3.637,16.8-2.632,25.258s4.439,16.793,10.511,22.771c.987.972,2.266,1.945,3.621,1.655a4.37,4.37,0,0,0,1.911-1.18,56.523,56.523,0,0,0,18.344-42.982c-.095-3.218-.517-6.566-2.3-9.247s-5.936-5.528-8.97-4.452"/><path class="s" d="M63.972,290.134l-4.918,8.906c-.115.208-.266.44-.5.46-.259.021-.452-.223-.593-.44q-6.5-9.977-13-19.953l2.995-1.7Z"/><g class="t"><path d="M63.972,290.134l-4.918,8.906c-.115.208-.266.44-.5.46-.259.021-.452-.223-.593-.44q-6.5-9.977-13-19.953l2.995-1.7Z"/></g><path class="s" d="M90.343,306.182,45.994,280.013a2.066,2.066,0,0,1-1.079-1.09c-.178-.656.315-1.289.788-1.777a30.568,30.568,0,0,1,23.7-9.311,27.079,27.079,0,0,1,21.427,13.326c4.279,7.648,4.421,17.762-.488,25.021"/><path class="f" d="M52.386,271.659a2.414,2.414,0,0,1,.581-.072c.382-.02.947-.089,1.676-.081a33.29,33.29,0,0,1,6.153.489A35.972,35.972,0,0,1,89.5,297.969a33.407,33.407,0,0,1,1.1,6.074,12.486,12.486,0,0,1,.068,1.293,2.194,2.194,0,0,1-.342.968,7.5,7.5,0,0,0,.068-2.239,37.758,37.758,0,0,0-1.255-5.993,36.227,36.227,0,0,0-28.41-25.707,37.772,37.772,0,0,0-6.088-.652C53.193,271.681,52.388,271.706,52.386,271.659Z"/><path class="f" d="M84.341,288.12a10.74,10.74,0,0,1-2.242,1.019c-1.413.557-3.388,1.268-5.6,1.97s-4.233,1.26-5.709,1.62a10.608,10.608,0,0,1-2.419.461,12.168,12.168,0,0,1,2.318-.823l5.649-1.764,5.63-1.818A11.955,11.955,0,0,1,84.341,288.12Z"/><path class="f" d="M77.357,269.36a30.97,30.97,0,0,1,.251,9.915,31.092,31.092,0,0,1-.258-4.954A31.081,31.081,0,0,1,77.357,269.36Z"/><path class="f" d="M45.607,279.516a20.014,20.014,0,0,1,3.222-1.133c2.015-.621,4.821-1.408,7.948-2.162s5.986-1.331,8.063-1.7a19.8,19.8,0,0,1,3.384-.457,24.043,24.043,0,0,1-3.31.826c-2.055.458-4.891,1.092-8.012,1.844s-5.934,1.479-7.971,2.006A23.655,23.655,0,0,1,45.607,279.516Z"/><path class="s" d="M71.636,310.437c-3.814-2.893-7.847-3.462-12.63-3.273a38.6,38.6,0,0,0-13.824,3.568c-7.478,3.275-14.508,8.1-18.976,14.935s-6.023,15.879-2.678,23.326a3.322,3.322,0,0,0,1.515,1.838,3.617,3.617,0,0,0,2.5-.192c8.5-2.775,17.071-5.575,24.892-9.92s14.939-10.386,19.135-18.287a15.7,15.7,0,0,0,2.014-6.068,7.542,7.542,0,0,0-1.951-5.927"/><path class="f" d="M71.712,309.54a3.194,3.194,0,0,1-.612.248l-1.783.613-1.29.431c-.468.168-.967.378-1.508.587-1.076.435-2.325.87-3.641,1.509l-2.085.949c-.724.334-1.445.745-2.21,1.134-1.542.758-3.1,1.725-4.763,2.706a75.237,75.237,0,0,0-18.763,16.508c-1.184,1.523-2.343,2.947-3.291,4.379-.483.709-.982,1.373-1.406,2.048L29.152,342.6c-.8,1.223-1.391,2.407-1.96,3.418-.276.511-.548.979-.774,1.421l-.591,1.225-.835,1.689a3.037,3.037,0,0,1-.325.576,3.078,3.078,0,0,1,.227-.619l.746-1.734.551-1.249c.214-.451.473-.928.738-1.446.546-1.03,1.117-2.232,1.9-3.474l1.185-1.977c.417-.684.91-1.358,1.389-2.076.938-1.453,2.09-2.9,3.272-4.437A72.893,72.893,0,0,1,53.563,317.3c1.68-.976,3.258-1.935,4.818-2.68.773-.383,1.5-.787,2.236-1.113l2.111-.924c1.332-.619,2.6-1.032,3.688-1.443.549-.2,1.054-.393,1.528-.548l1.31-.388,1.816-.518A3.012,3.012,0,0,1,71.712,309.54Z"/><path class="f" d="M41.913,325.675a89.682,89.682,0,0,1-9.278,2.989,89.506,89.506,0,0,1-9.428,2.48,89.59,89.59,0,0,1,9.279-2.99A89.374,89.374,0,0,1,41.913,325.675Z"/><path class="f" d="M41.531,346.149a14.847,14.847,0,0,1-.2-2.891c-.049-1.787-.057-4.257.019-6.984s.223-5.195.371-6.977a14.808,14.808,0,0,1,.366-2.875,16.7,16.7,0,0,1,.01,2.9c-.061,1.959-.134,4.338-.216,6.97-.065,2.632-.125,5.012-.174,6.97A16.473,16.473,0,0,1,41.531,346.149Z"/><path class="f" d="M59.07,337.214c-.146.01-.613-5.01-1.041-11.212s-.658-11.239-.512-11.25.613,5.01,1.042,11.214S59.216,337.2,59.07,337.214Z"/><path class="f" d="M37.238,314.265a16.562,16.562,0,0,1,2.974-.089c1.834.012,4.365.066,7.16.158s5.324.206,7.155.315a16.394,16.394,0,0,1,2.962.286,16.532,16.532,0,0,1-2.97.09c-1.834-.013-4.367-.067-7.165-.159s-5.328-.206-7.159-.315A16.491,16.491,0,0,1,37.238,314.265Z"/><path class="f" d="M79.338,375.353a2.589,2.589,0,0,1-.063-.594c-.021-.446-.047-1.011-.078-1.706-.067-1.481-.082-3.628-.025-6.28s.228-5.809.547-9.3c.345-3.492.845-7.321,1.561-11.31.735-3.986,1.616-7.75,2.524-11.144.933-3.388,1.877-6.411,2.767-8.916s1.653-4.518,2.239-5.886c.274-.641.5-1.162.675-1.574a2.563,2.563,0,0,1,.268-.536,2.5,2.5,0,0,1-.169.575L89,320.287c-.525,1.388-1.241,3.413-2.075,5.929s-1.746,5.538-2.65,8.922c-.879,3.389-1.742,7.142-2.475,11.114-.713,3.974-1.226,7.786-1.6,11.264-.344,3.481-.563,6.624-.659,9.268s-.147,4.786-.143,6.267c-.009.694-.016,1.259-.022,1.705A2.5,2.5,0,0,1,79.338,375.353Z"/><path class="f" d="M81.678,346.316a12.3,12.3,0,0,1-1.769,1.941c-1.148,1.144-2.777,2.68-4.636,4.31s-3.6,3.045-4.88,4.032a12.211,12.211,0,0,1-2.156,1.5,13.6,13.6,0,0,1,1.918-1.79l4.768-4.141c1.773-1.569,3.377-2.988,4.728-4.185A13.611,13.611,0,0,1,81.678,346.316Z"/><path class="f" d="M95.716,357.623a20.581,20.581,0,0,1-1.885-2.609c-1.212-1.769-2.718-3.966-4.382-6.4l-4.474-6.333a20.815,20.815,0,0,1-1.792-2.674,18,18,0,0,1,2.093,2.449c1.23,1.562,2.875,3.763,4.609,6.255s3.224,4.8,4.262,6.495A18.087,18.087,0,0,1,95.716,357.623Z"/><path class="f" d="M88.362,322.061c.079.124-4.584,3.263-10.414,7.011s-10.623,6.688-10.7,6.565,4.583-3.263,10.415-7.012S88.282,321.938,88.362,322.061Z"/><path class="f" d="M101.51,336.252a86.915,86.915,0,0,1-7.053-6.517,86.67,86.67,0,0,1-6.682-6.9,87.142,87.142,0,0,1,7.054,6.518A87.062,87.062,0,0,1,101.51,336.252Z"/><path class="s" d="M104.817,335.968l4-.331a19.823,19.823,0,0,0,8.083-2.475,32.047,32.047,0,0,1,3.768-1.892c4.949-1.987,10.471-1.632,15.8-1.9a65.417,65.417,0,0,0,25.131-6.426,2.443,2.443,0,0,0,1.1-.994c.822-1.5-.705-2.831-2.02-3.641-6.744-4.156-13.608-8.364-21.256-10.427s-16.33-1.714-22.855,2.777c-7.661,5.272-10.452,16.1-11.746,25.308"/><path class="f" d="M162.784,321.459a3.952,3.952,0,0,1-.679-.316l-1.9-.993c-1.646-.866-4.015-2.143-7.008-3.578a65.5,65.5,0,0,0-10.848-4.181,35.8,35.8,0,0,0-14.059-1.139,24.023,24.023,0,0,0-12.817,5.5,28.492,28.492,0,0,0-6.674,9.374,78.3,78.3,0,0,0-2.9,7.3c-.3.837-.532,1.508-.713,2.019a3.885,3.885,0,0,1-.28.694,4.06,4.06,0,0,1,.178-.727c.157-.519.362-1.2.619-2.052a66.511,66.511,0,0,1,2.759-7.391,28.36,28.36,0,0,1,6.69-9.583,24.305,24.305,0,0,1,13.073-5.664,35.784,35.784,0,0,1,14.259,1.194,62.933,62.933,0,0,1,10.881,4.315c2.984,1.484,5.328,2.813,6.944,3.734l1.849,1.082A3.967,3.967,0,0,1,162.784,321.459Z"/><path class="f" d="M153.17,326.624c-.082.122-5.317-3.265-11.692-7.563s-11.478-7.884-11.4-8.005,5.316,3.264,11.693,7.564S153.253,326.5,153.17,326.624Z"/><path class="f" d="M147.586,310.78a12.709,12.709,0,0,1-3.811.685,12.885,12.885,0,0,1-3.888-.05,25.127,25.127,0,0,1,3.842-.392A25.339,25.339,0,0,1,147.586,310.78Z"/><path class="f" d="M124.668,307.793a10.145,10.145,0,0,1-1.718,2.683,11.471,11.471,0,0,1-2.175,2.472,10.159,10.159,0,0,1,1.717-2.683A11.489,11.489,0,0,1,124.668,307.793Z"/><path class="f" d="M129.359,329.708a13.827,13.827,0,0,1-2.52-1.366c-1.512-.918-3.556-2.263-5.74-3.848s-4.11-3.086-5.493-4.184a15.608,15.608,0,0,1-2.174-1.863,15.014,15.014,0,0,1,2.4,1.563l5.579,4.054c2.177,1.58,4.176,2.967,5.632,3.963A17.175,17.175,0,0,1,129.359,329.708Z"/><path class="s" d="M110.711,352.975c-3.819-1.009-8.37,2.7-9.157,6.575s.665,7.828,2.364,11.393A58.114,58.114,0,0,0,119.707,391.6c6.837,5.448,15.4,8.932,24.142,8.888-1.614-7.5.428-15.33-.472-22.946a29.847,29.847,0,0,0-26.436-26.173c-2.437-.264-5.258-.646-6.23,1.605"/><path class="f" d="M143.849,400.489a2.544,2.544,0,0,1-.543-.253,9.832,9.832,0,0,1-1.428-.959,14.882,14.882,0,0,1-3.77-5.042c-.609-1.182-1.289-2.465-1.954-3.886l-2.054-4.541a44.274,44.274,0,0,0-2.524-4.853,38.135,38.135,0,0,0-3.474-4.724c-2.614-3.071-5.419-5.727-7.851-8.265a53.912,53.912,0,0,1-5.985-7.182,26.364,26.364,0,0,1-2.925-5.585,17.083,17.083,0,0,1-.51-1.638,2.5,2.5,0,0,1-.12-.586c.049-.014.266.779.823,2.148a28.869,28.869,0,0,0,3.042,5.449,56.9,56.9,0,0,0,6.027,7.053c2.442,2.51,5.262,5.16,7.9,8.262a37.754,37.754,0,0,1,3.513,4.8,43.312,43.312,0,0,1,2.526,4.923c.706,1.6,1.377,3.127,2.008,4.558.64,1.414,1.3,2.711,1.888,3.9a15.416,15.416,0,0,0,3.569,5.056C143.126,400.081,143.881,400.438,143.849,400.489Z"/><path class="f" d="M124.105,394.258a11.47,11.47,0,0,1,.351-2.57c.3-1.572.789-3.73,1.451-6.082s1.371-4.449,1.937-5.947a11.4,11.4,0,0,1,1.043-2.375,13.919,13.919,0,0,1-.688,2.5c-.473,1.524-1.121,3.628-1.781,5.969s-1.2,4.474-1.6,6.02A13.839,13.839,0,0,1,124.105,394.258Z"/><path class="f" d="M143.126,375.855a15.793,15.793,0,0,1-2.69-.618c-1.645-.43-3.917-1.018-6.444-1.588s-4.834-1.011-6.5-1.328a15.824,15.824,0,0,1-2.695-.594,12.943,12.943,0,0,1,2.754.223c1.691.223,4.019.609,6.561,1.181s4.81,1.221,6.433,1.745A13.068,13.068,0,0,1,143.126,375.855Z"/><path class="f" d="M109.937,381.2a15.48,15.48,0,0,1,.413-2.974c.335-1.822.87-4.329,1.584-7.066s1.474-5.186,2.072-6.94a15.55,15.55,0,0,1,1.093-2.8,18.19,18.19,0,0,1-.735,2.908c-.5,1.779-1.2,4.234-1.916,6.962s-1.3,5.211-1.731,7.01A18.2,18.2,0,0,1,109.937,381.2Z"/><path class="f" d="M134.366,359.818c-.015.145-4.782-.24-10.645-.862s-10.605-1.244-10.59-1.39,4.781.24,10.646.862S134.382,359.672,134.366,359.818Z"/><path class="j" d="M130.874,417.621c0,.146-16.755.266-37.419.266s-37.423-.12-37.423-.266,16.752-.266,37.423-.266S130.874,417.474,130.874,417.621Z"/><path class="j" d="M119.217,439.183c0,.146-11.289.266-25.212.266s-25.214-.12-25.214-.266,11.286-.266,25.214-.266S119.217,439.036,119.217,439.183Z"/><path class="j" d="M118.779,442.266c0,.146-11.093.265-24.773.265s-24.775-.119-24.775-.265S80.321,442,94.006,442,118.779,442.119,118.779,442.266Z"/><path class="j" d="M119.658,436.642c0,.146-11.678.266-26.079.266s-26.081-.12-26.081-.266,11.675-.266,26.081-.266S119.658,436.495,119.658,436.642Z"/><path class="d" d="M616.886,158.967l5.854-12.717a32.624,32.624,0,1,1,8.521,8l.012.014Z"/><path class="f" d="M616.886,158.967l14.347-4.826-.056.21-.012-.013-.681-.742.848.545a32.445,32.445,0,0,0,16.024,5.114,29.076,29.076,0,0,0,5.109-.2c.87-.127,1.759-.227,2.65-.381l2.676-.649a32.534,32.534,0,0,0,18.915-14.612,32.1,32.1,0,0,0,4.345-12.84,32.8,32.8,0,0,0-1.6-14.209,31.705,31.705,0,0,0-7.981-12.579,32.3,32.3,0,0,0-13.078-7.762,32.82,32.82,0,0,0-14.538-1A31.754,31.754,0,0,0,631,100.022a32.73,32.73,0,0,0-13.682,19.994,34.981,34.981,0,0,0-.549,10.566,32.37,32.37,0,0,0,6.073,15.594l.044.06-.031.067-5.967,12.664,5.741-12.769.013.127a32.462,32.462,0,0,1-6.231-15.7,35.213,35.213,0,0,1,.51-10.692,33.095,33.095,0,0,1,13.814-20.305,32.183,32.183,0,0,1,13.042-5.092,33.275,33.275,0,0,1,14.768,1,32.766,32.766,0,0,1,13.291,7.882,32.189,32.189,0,0,1,8.105,12.783,33.25,33.25,0,0,1,1.61,14.435,32.531,32.531,0,0,1-4.431,13.028A32.918,32.918,0,0,1,657.9,158.424l-2.712.647c-.9.153-1.8.251-2.684.375a29.31,29.31,0,0,1-5.168.174,32.553,32.553,0,0,1-16.149-5.261l.167-.2.012.013.136.15-.192.061Z"/><path class="f" d="M659.287,127.978a8.633,8.633,0,1,0-13.395-2.049l-1.757,1.639.42,2.916-2.726-.764-2.2,2.05.42,2.916-2.726-.764-1.889,1.762.256,1.777-1.661-.466-1.1,1.026-.165,2.7,4.028,1.014,13.068-12.192A8.635,8.635,0,0,0,659.287,127.978Zm-1.277-10.616a2.476,2.476,0,1,1-3.5-.121A2.476,2.476,0,0,1,658.01,117.362Z"/><path class="u" d="M659.287,127.978a8.633,8.633,0,1,0-13.395-2.049l-1.757,1.639.42,2.916-2.726-.764-2.2,2.05.42,2.916-2.726-.764-1.889,1.762.256,1.777-1.661-.466-1.1,1.026-.165,2.7,4.028,1.014,13.068-12.192A8.635,8.635,0,0,0,659.287,127.978Zm-1.277-10.616a2.476,2.476,0,1,1-3.5-.121A2.476,2.476,0,0,1,658.01,117.362Z"/><path class="f" d="M658.01,117.362c-.015.016-.161-.151-.492-.354a2.465,2.465,0,0,0-1.558-.342,2.383,2.383,0,1,0,2.6,2.79,2.471,2.471,0,0,0-.234-1.579c-.179-.343-.336-.5-.319-.515s.046.032.119.107a1.906,1.906,0,0,1,.274.368,2.463,2.463,0,0,1,.31,1.644,2.554,2.554,0,0,1-2.993,2.1,2.561,2.561,0,0,1-2.082-2.232,2.554,2.554,0,0,1,2.307-2.84,2.461,2.461,0,0,1,1.619.424,1.9,1.9,0,0,1,.348.3C657.982,117.314,658.016,117.357,658.01,117.362Z"/><path class="f" d="M659.287,127.978s-.04.042-.125.119l-.38.339a9,9,0,0,1-1.671,1.062,8.686,8.686,0,0,1-7.276.1l.071-.012L636.86,141.806l-.038.036-.052-.013-4.028-1.01-.081-.02.005-.084c.05-.842.106-1.765.162-2.7l0-.041.03-.028c.341-.319.718-.672,1.1-1.027l.042-.04.057.016,1.661.465-.132.116-.257-1.777-.008-.055.041-.037,1.888-1.763.044-.041.058.016,2.726.763-.135.119c-.134-.924-.276-1.916-.42-2.916l-.008-.055.041-.039.582-.543,1.616-1.507.044-.041.058.016,2.726.764-.135.119q-.211-1.473-.419-2.916l-.008-.055.041-.038,1.757-1.638-.02.129a8.8,8.8,0,0,1-1.122-3.93,8.38,8.38,0,0,1,.143-2,8.472,8.472,0,0,1,.575-1.877,8.7,8.7,0,0,1,16.651,4.17,8.54,8.54,0,0,1-.968,3.324l-.161.307-.177.274c-.118.174-.216.346-.328.49-.233.28-.412.533-.588.708l-.4.4c-.09.089-.139.131-.139.131s.04-.051.126-.144l.384-.41c.171-.179.344-.434.571-.716.109-.145.2-.317.318-.492l.172-.273.155-.307a8.559,8.559,0,1,0-15.434-7.38,8.243,8.243,0,0,0-.558,1.835,8.135,8.135,0,0,0-.137,1.951,8.611,8.611,0,0,0,1.1,3.835l.041.073-.06.056-1.756,1.64.033-.093q.207,1.442.42,2.915l.023.163-.158-.044-2.726-.764.1-.025q-.8.75-1.615,1.507c-.2.187-.4.372-.582.544l.033-.094c.144,1,.286,1.991.419,2.915l.024.164-.159-.045-2.726-.765.1-.024-1.89,1.761.033-.092c.088.613.175,1.222.255,1.777l.023.16-.156-.044L634,137.1l.1-.024L633,138.1l.033-.069c-.058.936-.115,1.859-.167,2.7l-.076-.1,4.027,1.018-.09.023L649.817,129.5l.032-.03.039.018a8.657,8.657,0,0,0,7.193-.049,9.541,9.541,0,0,0,1.679-1.027l.39-.324C659.238,128.011,659.287,127.978,659.287,127.978Z"/><path class="o" d="M659,127a8.633,8.633,0,1,0-13.4-2.048l0,0-1.754,1.636.42,2.916-2.726-.764-2.2,2.05.42,2.916-2.726-.764-1.889,1.762.256,1.777-1.662-.466-1.1,1.026-.165,2.7,4.028,1.014,13.067-12.192A8.633,8.633,0,0,0,659,127Zm-1.276-10.616a2.476,2.476,0,1,1-3.5-.121A2.476,2.476,0,0,1,657.721,116.382Z"/><path class="u" d="M659,127a8.633,8.633,0,1,0-13.4-2.048l0,0-1.754,1.636.42,2.916-2.726-.764-2.2,2.05.42,2.916-2.726-.764-1.889,1.762.256,1.777-1.662-.466-1.1,1.026-.165,2.7,4.028,1.014,13.067-12.192A8.633,8.633,0,0,0,659,127Zm-1.276-10.616a2.476,2.476,0,1,1-3.5-.121A2.476,2.476,0,0,1,657.721,116.382Z"/><path class="f" d="M657.721,116.382c-.016.016-.162-.151-.492-.354a2.467,2.467,0,0,0-1.558-.342,2.383,2.383,0,1,0,2.6,2.79,2.471,2.471,0,0,0-.234-1.579c-.18-.343-.336-.5-.319-.515s.046.032.119.107a1.95,1.95,0,0,1,.274.368,2.469,2.469,0,0,1,.31,1.644,2.554,2.554,0,0,1-2.993,2.105,2.558,2.558,0,0,1-2.082-2.232,2.552,2.552,0,0,1,2.306-2.84,2.462,2.462,0,0,1,1.62.424,1.9,1.9,0,0,1,.347.3C657.693,116.334,657.726,116.377,657.721,116.382Z"/><path class="f" d="M659,127s-.039.042-.124.119l-.38.339a8.977,8.977,0,0,1-1.671,1.062,8.687,8.687,0,0,1-7.276.1l.071-.012-13.046,12.215-.039.036-.051-.013-4.028-1.01-.082-.02.005-.084c.051-.842.107-1.765.163-2.7l0-.041.031-.028,1.1-1.027.043-.039.056.015,1.662.465-.132.116-.257-1.777-.008-.054.041-.038,1.888-1.763.044-.041.058.016,2.726.763-.136.119-.42-2.915-.008-.056.042-.039.582-.543,1.615-1.507.045-.041.058.016,2.725.765-.135.118q-.211-1.473-.418-2.915l-.008-.056.04-.038,1.757-1.637-.019.129a8.8,8.8,0,0,1-1.122-3.931,8.315,8.315,0,0,1,.143-2,8.513,8.513,0,0,1,.574-1.878,8.7,8.7,0,0,1,16.652,4.17,8.518,8.518,0,0,1-.969,3.324l-.16.307-.178.274c-.117.175-.215.346-.327.49-.233.281-.412.533-.588.708l-.4.4c-.09.088-.14.13-.14.13s.041-.051.127-.144l.384-.41c.171-.179.344-.434.571-.716.109-.145.2-.317.317-.491l.173-.274.155-.307a8.641,8.641,0,0,0,.063-7.761,8.553,8.553,0,0,0-15.5.381,8.3,8.3,0,0,0-.559,1.835,8.189,8.189,0,0,0-.137,1.951,8.6,8.6,0,0,0,1.1,3.835l.041.073-.061.057-1.755,1.639.032-.093q.209,1.443.421,2.916l.023.162-.158-.044-2.726-.764.1-.024L640,130.325c-.2.187-.4.373-.582.544l.033-.094c.143,1,.286,1.991.419,2.915l.023.164-.158-.045-2.726-.764.1-.025-1.89,1.762.033-.093c.088.613.175,1.222.254,1.777l.023.16-.155-.044-1.661-.466.1-.024-1.1,1.025.033-.069c-.058.935-.115,1.858-.167,2.7l-.076-.1,4.026,1.017-.09.023,13.09-12.168.032-.03.039.018a8.646,8.646,0,0,0,7.193-.049,9.523,9.523,0,0,0,1.678-1.027c.169-.139.3-.247.391-.324S659,127,659,127Z"/><path class="f" d="M658.205,126.325a11.95,11.95,0,0,0,1.159-1.463,7.251,7.251,0,0,0,.888-1.987,7.52,7.52,0,0,0-3.824-8.781,7.064,7.064,0,0,0-2.041-.689,6.87,6.87,0,0,0-2.245-.072,7.461,7.461,0,0,0-6.477,6.043,8.37,8.37,0,0,0-.135,1.13,8.582,8.582,0,0,0,.05,1.115,7.052,7.052,0,0,0,.547,2.084,7.539,7.539,0,0,0,8.495,4.423,7.3,7.3,0,0,0,2.044-.748,11.862,11.862,0,0,0,1.539-1.055.6.6,0,0,1-.087.087l-.27.242a3.692,3.692,0,0,1-.463.365,5.438,5.438,0,0,1-.679.434,7.186,7.186,0,0,1-2.059.792,7.659,7.659,0,0,1-6.181-1.287,7.7,7.7,0,0,1-2.522-3.175,7.227,7.227,0,0,1-.568-2.139,7.046,7.046,0,0,1,.081-2.307,7.655,7.655,0,0,1,6.661-6.214,8.808,8.808,0,0,1,1.168-.055,8.9,8.9,0,0,1,1.139.134,7.261,7.261,0,0,1,2.094.715,7.7,7.7,0,0,1,2.992,2.736,7.656,7.656,0,0,1,.856,6.255,7.183,7.183,0,0,1-.932,2,5.314,5.314,0,0,1-.481.646,3.543,3.543,0,0,1-.4.437l-.26.253A.612.612,0,0,1,658.205,126.325Z"/><path class="f" d="M657.854,120.2c-.017-.017.18-.186.421-.573a2.892,2.892,0,0,0,.408-1.833,2.817,2.817,0,0,0-1.536-2.212,2.775,2.775,0,0,0-1.6-.281,2.793,2.793,0,0,0-2.418,2.256,2.778,2.778,0,0,0,.169,1.618,2.822,2.822,0,0,0,2.1,1.685,2.887,2.887,0,0,0,1.856-.28c.4-.213.586-.4.6-.38s-.039.052-.128.136a2.292,2.292,0,0,1-.432.318,2.9,2.9,0,0,1-1.922.357,2.934,2.934,0,0,1-1.271-.525,2.987,2.987,0,0,1-.988-1.233,2.953,2.953,0,0,1-.193-1.735,2.982,2.982,0,0,1,2.6-2.426,2.959,2.959,0,0,1,1.717.313,2.993,2.993,0,0,1,1.162,1.07,2.952,2.952,0,0,1,.435,1.3,2.891,2.891,0,0,1-.49,1.894,2.356,2.356,0,0,1-.346.409C657.908,120.164,657.859,120.2,657.854,120.2Z"/><path class="f" d="M635.449,140.277c-.041-.044,2.9-2.855,6.572-6.279s6.679-6.165,6.719-6.121-2.9,2.854-6.572,6.279S635.49,140.32,635.449,140.277Z"/><path class="o" d="M637.072,123.166l.119-.266.16.244a1.224,1.224,0,0,0,.523.446l.267.119-.244.16a1.215,1.215,0,0,0-.446.524l-.119.266-.16-.244a1.227,1.227,0,0,0-.524-.446l-.266-.119.244-.16A1.228,1.228,0,0,0,637.072,123.166Z"/><path class="o" d="M629.069,121.172l.069-.155.093.142a.722.722,0,0,0,.3.259l.155.069-.142.093a.715.715,0,0,0-.259.3l-.069.155-.093-.142a.7.7,0,0,0-.3-.259l-.155-.069.142-.093A.707.707,0,0,0,629.069,121.172Z"/><path class="o" d="M654.267,134.81l.069-.155.093.142a.715.715,0,0,0,.3.259l.155.069-.142.093a.7.7,0,0,0-.259.3l-.069.155-.093-.142a.708.708,0,0,0-.3-.259l-.155-.069.142-.093A.722.722,0,0,0,654.267,134.81Z"/><path class="o" d="M666.6,127.817l.119-.266.16.244a1.228,1.228,0,0,0,.524.446l.266.119-.244.16a1.224,1.224,0,0,0-.446.523l-.119.267-.16-.244a1.22,1.22,0,0,0-.524-.446l-.266-.119.244-.16A1.227,1.227,0,0,0,666.6,127.817Z"/><path class="o" d="M665,118.021l.2-.448.269.411a2.066,2.066,0,0,0,.88.749l.447.2-.41.269a2.053,2.053,0,0,0-.749.88l-.2.447-.269-.41a2.052,2.052,0,0,0-.88-.749l-.448-.2.411-.269A2.066,2.066,0,0,0,665,118.021Z"/><path class="o" d="M634.585,115l.2-.448.269.41a2.052,2.052,0,0,0,.88.749l.448.2-.411.269a2.066,2.066,0,0,0-.749.88l-.2.448-.269-.41a2.061,2.061,0,0,0-.88-.75l-.448-.2.411-.269A2.069,2.069,0,0,0,634.585,115Z"/></g></svg>