<svg xmlns="http://www.w3.org/2000/svg" width="201" height="60" viewBox="0 0 201 60"><defs><style>.a,.b{fill:#0d212c;}.b{font-size:45px;font-family:Lato-Regular, Lato;}</style></defs><g transform="translate(-150 -50)"><g transform="translate(-59.722 -113.065)"><path class="a" d="M225.6,256.143H211.85a2.164,2.164,0,0,1-2.128-2.164V227.027Z" transform="translate(0 -43.078)"/><path class="a" d="M330.129,165.231v26.926l-15.868-29.09H328A2.164,2.164,0,0,1,330.129,165.231Z" transform="translate(-70.407 -0.001)"/><path class="a" d="M259.722,212.228h0a2.2,2.2,0,0,1-1.664.836H237.036L209.722,163.9a2.209,2.209,0,0,1,1.74-.836H232.42Z" transform="translate(0)"/><path class="a" d="M209.722,227.027,225.6,256.143H211.85a2.164,2.164,0,0,1-2.128-2.164Z" transform="translate(0 -43.078)"/><path class="a" d="M330.129,165.231v26.926l-15.868-29.09H328A2.164,2.164,0,0,1,330.129,165.231Z" transform="translate(-70.407 -0.001)"/></g><text class="b" transform="translate(205 100)"><tspan x="0" y="0">otesflix</tspan></text></g></svg>