<svg xmlns="http://www.w3.org/2000/svg" width="796.609" height="432.217" viewBox="0 0 796.609 432.217"><defs><style>.a{fill:#f0f0f0;}.b{fill:#e0e0e0;}.c{fill:#f5f5f5;}.d{fill:#fff;}.e{fill:none;stroke:#fbfbfb;stroke-miterlimit:10;stroke-width:0.25px;}.f{fill:#ebebeb;}.g{fill:#fafafa;}.h{fill:#263238;}.i{fill:#455a64;}.j{fill:#ffbe9d;}.k{fill:#eb996e;}.l{fill:#266ab4;}.m{fill:#ffcd05;}.n{opacity:0.2;}.o{fill:#aa6550;}.p{fill:#874030;}.q{opacity:0.5;}.r{fill:#00a0d1;}.s{opacity:0.3;}</style></defs><g transform="translate(-973 -314)"><path class="a" d="M-798.9,96.451c114.576-42.535,231.027-4.929,310.007,76.975s244.729-56.532,332.634,25.241c59.992,55.8,32.513,199.283-49.745,261.426-111.808,84.468-451.831,41.607-525.384,27.233-84.738-16.561-146.689-66.807-171.859-127.791C-963.895,212.593-849.534,115.249-798.9,96.451Z" transform="translate(1893.545 235.218)"/><g transform="translate(1004.512 275.954)"><rect class="b" width="75.585" height="109.557" transform="translate(565.566 121.679)"/><rect class="c" width="75.585" height="109.557" transform="translate(561.779 121.679)"/><rect class="d" width="56.803" height="85.826" transform="translate(571.17 133.545)"/><path class="b" d="M627.973,219.37s-.007-.145-.011-.419-.006-.688-.011-1.217c-.005-1.079-.013-2.658-.023-4.708-.012-4.113-.029-10.107-.051-17.679-.022-15.134-.055-36.565-.092-61.8l.188.189-56.8.017h-.007l.206-.206c-.016,32.377-.031,62.229-.042,85.825l-.164-.163,41.345.086,11.423.041,3,.019c.679.006,1.037.017,1.037.017s-.334.012-1,.018l-2.968.018-11.386.042-41.447.086h-.164v-.165c-.011-23.6-.026-53.448-.042-85.825v-.206h.213l56.8.017h.189v.189c-.038,25.288-.07,46.761-.093,61.925-.022,7.554-.039,13.534-.051,17.637-.01,2.034-.017,3.6-.023,4.67,0,.52-.008.917-.011,1.2S627.973,219.37,627.973,219.37Z"/><path class="e" d="M625.34,134.118"/><path class="b" d="M637.576,121.679a13.154,13.154,0,0,1-1.347,1.958c-.878,1.174-2.124,2.771-3.546,4.5s-2.752,3.256-3.736,4.343a13.116,13.116,0,0,1-1.663,1.7,14.025,14.025,0,0,1,1.442-1.886l3.639-4.415L636,123.457A14.231,14.231,0,0,1,637.576,121.679Z"/><path class="d" d="M628.262,219.094a70.376,70.376,0,0,0,9.908,12.391"/><path class="b" d="M638.17,231.484a11.248,11.248,0,0,1-1.727-1.571,55.3,55.3,0,0,1-7.028-8.789,11.3,11.3,0,0,1-1.152-2.03,15.711,15.711,0,0,1,1.393,1.868c.833,1.169,2,2.769,3.371,4.479s2.67,3.2,3.628,4.273A15.644,15.644,0,0,1,638.17,231.484Z"/><path class="d" d="M561.768,231.149l9.9-12.215"/><path class="b" d="M571.669,218.934a75.333,75.333,0,0,1-4.791,6.237,75.081,75.081,0,0,1-5.11,5.978,75.724,75.724,0,0,1,4.791-6.237A75.739,75.739,0,0,1,571.669,218.934Z"/><path class="b" d="M561.779,121.679a68.46,68.46,0,0,1,4.806,5.745,68.2,68.2,0,0,1,4.483,6,68.688,68.688,0,0,1-4.806-5.745A68.381,68.381,0,0,1,561.779,121.679Z"/><rect class="b" width="19.02" height="54.003" transform="translate(591.256 150.971)"/><rect class="b" width="89.932" height="148.863" transform="translate(112.697 62.996)"/><rect class="f" width="89.932" height="148.863" transform="translate(109.706 62.996)"/><rect class="g" width="82.273" height="142.826" transform="translate(113.535 66.015)"/><circle class="b" cx="30.112" cy="30.112" r="30.112" transform="matrix(0.232, -0.973, 0.973, 0.232, 118.3, 148.806)"/><circle class="f" cx="12.349" cy="12.349" r="12.349" transform="translate(142.236 114.168)"/><circle class="g" cx="9.205" cy="9.205" r="9.205" transform="matrix(0.23, -0.973, 0.973, 0.23, 143.599, 132.85)"/><rect class="b" width="32.231" height="4.677" transform="translate(138.689 177.656)"/><path class="d" d="M145.467,137.428a50.5,50.5,0,0,1-5.355,4.874,50.457,50.457,0,0,1-5.691,4.477,50.632,50.632,0,0,1,5.355-4.874A50.493,50.493,0,0,1,145.467,137.428Z"/><path class="d" d="M144.218,135.515a22.854,22.854,0,0,1-3.164,2.981,23.152,23.152,0,0,1-3.366,2.753,25.8,25.8,0,0,1,6.53-5.734Z"/><path class="d" d="M174.424,109.891c.08.129-1.962,1.514-4.33,3.409s-4.178,3.571-4.286,3.464a27.615,27.615,0,0,1,8.616-6.873Z"/><path class="d" d="M176,105.506a29.006,29.006,0,0,1-4.261,3.448,28.963,28.963,0,0,1-4.569,3.028,29.007,29.007,0,0,1,4.261-3.448A29.015,29.015,0,0,1,176,105.506Z"/><rect class="b" width="54.93" height="14.532" transform="translate(600.971 76.425)"/><path class="b" d="M672.169,76.425a1.661,1.661,0,0,1-.018-.264c0-.195-.01-.44-.017-.746l-.042-2.859c-.022-2.509-.054-6.116-.094-10.663l.17.17-54.927.11c.124-.125-.282.279.277-.28V65.61q0,1.847,0,3.667,0,3.638,0,7.148l-.274-.274,39.145.124,11.554.078,3.125.036.817.018a1.983,1.983,0,0,1,.29.018,1.229,1.229,0,0,1-.255.017l-.783.018-3.066.036-11.491.078-39.336.125h-.274v-.274q0-3.506,0-7.148,0-1.819,0-3.667V61.893c.56-.56.157-.155.283-.28l54.927.11h.172v.17c-.04,4.591-.072,8.231-.094,10.764q-.027,1.809-.042,2.822l-.017.715A1.169,1.169,0,0,1,672.169,76.425Z"/><rect class="b" width="54.93" height="14.532" transform="translate(145.451 253.788)"/><path class="b" d="M216.649,253.788a1.74,1.74,0,0,1-.017-.264c-.005-.194-.011-.439-.018-.745q-.015-1.026-.041-2.86c-.022-2.509-.054-6.115-.094-10.662l.17.17-54.927.109c.124-.124-.282.279.276-.279v3.716q0,1.848,0,3.667,0,3.639,0,7.148l-.273-.274,39.145.125,11.554.078,3.124.036.817.017a1.985,1.985,0,0,1,.29.018,1.226,1.226,0,0,1-.254.018l-.784.017-3.065.036-11.492.079-39.335.124h-.274v-.275q0-3.505-.005-7.148,0-1.818,0-3.667v-3.716c.56-.56.157-.155.283-.28l54.927.109h.172l0,.17c-.04,4.59-.072,8.231-.094,10.763q-.027,1.809-.041,2.822c-.008.293-.013.529-.018.715A1.061,1.061,0,0,1,216.649,253.788Z"/><path class="b" d="M92.7,183.947a1.941,1.941,0,0,1-.017-.264c0-.194-.01-.439-.018-.745q-.015-1.026-.041-2.86c-.022-2.509-.054-6.115-.094-10.663l.17.171-54.927.109c.124-.124-.282.279.277-.279v3.716q0,1.848,0,3.667,0,3.639-.005,7.148l-.273-.274,39.145.125,11.554.078,3.124.036.818.017a1.974,1.974,0,0,1,.289.018,1.228,1.228,0,0,1-.254.018l-.784.017-3.065.036L77.1,184.1l-39.336.125h-.274v-.275q0-3.506-.005-7.148,0-1.818,0-3.667v-3.716c.56-.56.157-.156.283-.281l54.927.11h.172l0,.17c-.04,4.591-.072,8.232-.094,10.764q-.025,1.809-.041,2.822c-.007.293-.013.529-.018.715A1.061,1.061,0,0,1,92.7,183.947Z"/><path class="b" d="M100.146,169.415a1.58,1.58,0,0,1-.021-.276c-.006-.209-.013-.462-.022-.77q-.018-1.072-.05-2.914c-.026-2.548-.063-6.146-.108-10.571l.2.2-33,.079c-.251.25.338-.342.278-.279v3.786c0,1.248,0,2.483,0,3.7,0,2.431-.007,4.788-.01,7.046l-.266-.266,23.609.127,6.878.073,1.854.034a5.763,5.763,0,0,1,.663.032,3.836,3.836,0,0,1-.6.033l-1.8.034-6.817.073-23.789.127h-.266v-.268c0-2.258-.006-4.615-.01-7.046,0-1.215,0-2.45,0-3.7v-3.786c-.062.059.531-.531.282-.281l33,.078h.2l0,.2c-.045,4.476-.082,8.116-.108,10.693q-.031,1.812-.05,2.869A8.432,8.432,0,0,1,100.146,169.415Z"/><path class="b" d="M619.662,287.318a1.61,1.61,0,0,1-.017-.264c-.005-.195-.011-.44-.018-.746q-.015-1.026-.041-2.86c-.023-2.508-.054-6.115-.095-10.662l.171.17-54.927.11c.123-.125-.283.279.276-.28V276.5q0,1.847,0,3.667,0,3.637-.005,7.147l-.274-.273,39.145.124,11.555.078,3.124.036.817.018a1.989,1.989,0,0,1,.29.018,1.3,1.3,0,0,1-.255.017l-.783.018-3.066.036-11.491.078-39.336.124h-.273v-.275q0-3.5,0-7.147,0-1.82,0-3.667,0-.924,0-1.854v-1.863c.56-.56.158-.155.284-.28l54.927.109h.171v.17c-.04,4.59-.072,8.231-.094,10.764l-.042,2.821c-.007.294-.013.529-.017.716A1.184,1.184,0,0,1,619.662,287.318Z"/><path class="b" d="M627.109,272.786a1.732,1.732,0,0,1-.021-.277c-.005-.208-.013-.461-.021-.77q-.02-1.073-.05-2.913c-.026-2.548-.063-6.147-.109-10.572l.2.2-33,.079c-.251.25.338-.341.278-.278v3.785q0,1.874,0,3.7c0,2.43-.007,4.788-.01,7.046l-.267-.267,23.61.127,6.877.074,1.855.033a5.552,5.552,0,0,1,.662.033,3.838,3.838,0,0,1-.6.033l-1.8.033-6.816.074-23.79.126-.266,0v-.268c0-2.258-.007-4.616-.01-7.046q0-1.824,0-3.7v-3.785c-.061.059.531-.532.282-.282l33,.079h.2l0,.2c-.046,4.476-.083,8.116-.109,10.694q-.031,1.812-.05,2.868A8.167,8.167,0,0,1,627.109,272.786Z"/><path class="c" d="M160.727,282.416l2.179,169.22H65.546V284.723Z"/><path class="b" d="M108.276,283.688l.861,167.949H65.546V284.723Z"/><path class="b" d="M157.667,285.462v34.611H111.549V287.1Z"/><path class="c" d="M141.768,294.983V300.1H127.659v-5.577Z"/><rect class="c" width="14.572" height="2.091" transform="translate(127.196 304.394)"/><path class="b" d="M157.667,406.748V441.36H111.549V408.384Z"/><path class="c" d="M141.768,416.27v5.113H127.659v-5.577Z"/><rect class="c" width="14.572" height="2.091" transform="translate(127.196 425.681)"/><path class="b" d="M157.667,324.479v34.612H111.549V326.115Z"/><path class="c" d="M141.768,334v5.113H127.659v-5.577Z"/><rect class="c" width="14.572" height="2.091" transform="translate(127.196 343.412)"/><rect class="b" width="46.117" height="34.611" transform="translate(112.15 365.921)"/><path class="c" d="M142.058,381.52v4.806H128.8v-5.242Z"/><rect class="c" width="13.698" height="1.966" transform="translate(128.36 390.366)"/><rect class="g" width="54.93" height="14.532" transform="translate(184.946 223.95)"/><path class="h" d="M692.653,453.683c0,.144-142.23.261-317.638.261-175.469,0-317.668-.117-317.668-.261s142.2-.26,317.668-.26C550.423,453.423,692.653,453.54,692.653,453.683Z"/><rect class="h" width="229.074" height="167.504" transform="translate(264.834 95.766)"/><rect class="c" width="215.439" height="150.362" transform="translate(271.651 104.337)"/><path class="d" d="M428.907,123.619c.1.1-23.529,23.9-52.775,53.145s-53.048,52.882-53.15,52.78,23.525-23.893,52.781-53.149S428.806,123.518,428.907,123.619Z"/><path class="d" d="M465.609,112.934c.1.1-16.665,17.034-37.445,37.814S390.449,188.3,390.347,188.2s16.662-17.03,37.449-37.818S465.508,112.832,465.609,112.934Z"/><path class="d" d="M371.232,150.1c.1.1-10.945,11.313-24.67,25.038s-24.939,24.774-25.041,24.672,10.943-11.311,24.673-25.04S371.13,150,371.232,150.1Z"/><path class="f" d="M271.651,189.067c11.546-4.341,30.4,2.1,34.679,13.672,1.943,5.251,2.063,11.294,5.378,15.806,2.071,2.819,5.23,4.776,6.951,7.822,2.493,4.409,1.454,10.146,3.866,14.6,3.6,6.643,12.673,7.373,20.226,7.264,6.79-.1,14.044-.34,19.587-4.262,2.937-2.078,5.355-5.162,8.852-6.011,3.161-.768,6.592.487,9.7-.474,4.835-1.494,7.476-7.873,12.534-8.046,4.613-.157,7.373,4.821,10.539,8.179a18.516,18.516,0,0,0,30.961-6.625c1.394-4.013,1.415-8.51,3.506-12.208,1.534-2.712,4.081-4.789,5.36-7.63,1.515-3.365,1.03-7.272,1.848-10.871,1.76-7.744,9.471-12.986,17.3-14.334s16.558.5,24.306,2.248l-.152,66.5-214.754-.051Z"/><path class="h" d="M517.813,196.956a1.692,1.692,0,0,1-.022-.28c-.006-.213-.013-.468-.022-.779q-.02-1.086-.052-2.931c-.026-2.56-.062-6.157-.107-10.542l.2.2-23.9.057c-.059.056.491-.493.258-.259v3.811q0,1.883,0,3.707c-.005,2.43-.01,4.775-.014,7.012l-.241-.241,17.135.118L516,196.9l1.335.029a3.364,3.364,0,0,1,.479.029,2.131,2.131,0,0,1-.423.029l-1.286.029-4.9.065-17.3.118-.241,0v-.243c-.005-2.237-.01-4.582-.015-7.012q0-1.824,0-3.707v-3.811c-.233.231.318-.319.263-.262l23.9.057h.206l0,.2c-.045,4.437-.082,8.077-.108,10.667q-.033,1.816-.051,2.886A7.92,7.92,0,0,1,517.813,196.956Z"/><path class="h" d="M265,144.3a1.577,1.577,0,0,1-.021-.276c-.006-.209-.013-.462-.022-.77q-.018-1.072-.05-2.914c-.026-2.548-.063-6.146-.108-10.571l.2.2-33,.079c-.251.25.338-.342.278-.279v1.9q0,.948,0,1.885,0,1.874,0,3.7c0,2.431-.006,4.788-.01,7.046l-.266-.266,23.609.127,6.878.073,1.854.034a5.737,5.737,0,0,1,.663.032,3.836,3.836,0,0,1-.6.033l-1.8.034-6.817.073-23.789.127h-.266V144.3c0-2.258-.007-4.615-.01-7.046q0-1.822,0-3.7,0-.937,0-1.885v-1.9c-.061.059.531-.531.282-.281l33,.078h.2l0,.2c-.045,4.476-.082,8.116-.108,10.693q-.031,1.812-.05,2.869A8.146,8.146,0,0,1,265,144.3Z"/><path class="h" d="M488.529,96.522a1.608,1.608,0,0,1-.017-.264c-.005-.195-.011-.44-.018-.746q-.015-1.024-.041-2.859c-.023-2.509-.054-6.116-.1-10.663l.171.17-54.927.11c.123-.125-.283.279.276-.28v3.717q0,1.848,0,3.667,0,3.639-.005,7.148l-.274-.274,39.145.125,11.555.078,3.124.036.817.017a1.983,1.983,0,0,1,.29.018,1.234,1.234,0,0,1-.255.018l-.783.017-3.066.036-11.491.078L433.6,96.8h-.273v-.275q0-3.506,0-7.148,0-1.819,0-3.667V81.99c.56-.56.158-.155.284-.28l54.927.11h.171v.17c-.04,4.591-.072,8.232-.094,10.764l-.042,2.821c-.007.294-.013.529-.017.716A1.154,1.154,0,0,1,488.529,96.522Z"/><path class="h" d="M495.976,81.99a1.655,1.655,0,0,1-.02-.276c-.006-.209-.013-.462-.022-.77q-.02-1.074-.05-2.914c-.026-2.548-.063-6.147-.109-10.571l.2.2-33,.078c-.252.25.338-.341.277-.278v3.785q0,1.874,0,3.7c0,2.431-.007,4.788-.01,7.046l-.267-.266,23.61.126,6.877.074,1.855.033a5.536,5.536,0,0,1,.662.033,3.836,3.836,0,0,1-.6.033l-1.8.033-6.816.074-23.79.127h-.266V81.99c0-2.258-.007-4.615-.01-7.046q0-1.824,0-3.7V67.46c-.061.059.531-.532.283-.282l33,.079h.2l0,.2c-.046,4.476-.083,8.116-.109,10.693q-.031,1.812-.05,2.869A8.146,8.146,0,0,1,495.976,81.99Z"/><path class="i" d="M460.212,374.935c-.177,1.844-11.153,78.221-11.153,78.221l4.209.018,14.1-76.833Z"/><path class="i" d="M503.764,376.335l1.321,7.769-20.214,9.255-20.912-11.665-.88,1.564,19.687,11.064-24.182,11.07.65,1.653,25.536-11.6,24.594,13.82,7.978,43.888,4.209.018s-10.314-76.179-10.476-78.025h0a22.232,22.232,0,0,0,4.3-1.695c7.676-4.044,8.7-12.45,8.544-22.8q.1-25.258.205-50.518c.017-4.175-.029-8.593-2.194-12.164-2.152-3.551-6.13-5.688-10.2-6.522s-8.273-.523-12.41-.167l-21.447,67.8c-6.746,1.982-12.995,4.891-17.706,9.753a15.018,15.018,0,0,0-4.395,7.841,8.121,8.121,0,0,0,3.213,8c2.367,1.582,5.479,1.657,8.385,1.673l28.659.158C498.586,376.513,501.194,376.513,503.764,376.335Zm1.656,9.736,3.522,20.715-22.052-12.3Z"/><path d="M456.418,295.372"/><path class="j" d="M373.494,260.283a9.785,9.785,0,0,1,3.355-.1c-2.3-.444-3.224-1.089-3.171-1.681.093-1.017,5.425-.523,7.913-.236a49.352,49.352,0,0,1-6.83-1.178c-1.167-.52.217-1.207,1.522-1.45,1.466-.274,10.206-.638,12.722-.876a1.49,1.49,0,0,0,1.511-1.688c-1.014-3.526.08-6.814.8-7.566s1.986-.02,1.822,1.115a13.718,13.718,0,0,0,.341,3.7,8.758,8.758,0,0,0,1.036,2.775c.584.995,1.116,1.815,1.588,2.5l34.793,27.945,5.018-4.391,10.979,13-8.553,8.175a9.514,9.514,0,0,1-13.007.13L391.21,269.128,378.3,264.641c-3.33-.928-4.638-1.544-4.424-2.156.285-.817.138-.515,6.43.309C380.307,262.794,371.337,261.538,373.494,260.283Z"/><path class="k" d="M383.135,263.084a32.8,32.8,0,0,1-8.582-1.343,32.779,32.779,0,0,1,8.582,1.343Z"/><path class="k" d="M383.782,260.649a37.416,37.416,0,0,1-9.229-.878,37.279,37.279,0,0,1,9.229.878Z"/><path class="k" d="M383.953,258.351a33.49,33.49,0,0,1-8.743-.715,33.489,33.489,0,0,1,8.743.715Z"/><path class="l" d="M389.443,405.617l3.2-8.027,15.074,5.895-4.555,11.793-.958-.306c-4.25-1.395-21.511-7.4-23.962-9.326C375.508,403.492,389.443,405.617,389.443,405.617Z"/><path class="h" d="M403.509,415.015a1.527,1.527,0,0,1-.271-.073l-.762-.246-2.786-.952c-2.347-.82-5.575-2-9.11-3.373s-6.709-2.7-8.993-3.678l-2.7-1.184-.727-.334a1.6,1.6,0,0,1-.249-.129,1.531,1.531,0,0,1,.264.092l.742.3,2.72,1.126c2.3.95,5.476,2.246,9.01,3.623s6.751,2.572,9.086,3.425l2.764,1.011.75.28A1.419,1.419,0,0,1,403.509,415.015Z"/><path class="h" d="M383.034,407.5a4.273,4.273,0,0,0-.526-2.922,2.614,2.614,0,0,1,.526,2.922Z"/><path class="h" d="M388.364,406.979c-.053.011-.165-.331-.25-.764a1.716,1.716,0,0,1-.057-.8c.053-.011.165.331.25.764A1.7,1.7,0,0,1,388.364,406.979Z"/><path class="h" d="M389.837,406.81c-.049.025-.225-.227-.393-.562s-.266-.626-.218-.65.224.227.393.562S389.885,406.786,389.837,406.81Z"/><path class="h" d="M391.164,405.689a1.92,1.92,0,0,1-.826-.207c-.437-.165-.775-.34-.756-.391a1.92,1.92,0,0,1,.826.207C390.844,405.463,391.183,405.638,391.164,405.689Z"/><path class="h" d="M391.821,404.789a2.385,2.385,0,0,1-1.837-.562,5.207,5.207,0,0,1,.917.287A5.1,5.1,0,0,1,391.821,404.789Z"/><path class="h" d="M388.366,405.465a3.014,3.014,0,0,1-.966-.385,6.054,6.054,0,0,1-.943-.63,2.993,2.993,0,0,1-.5-.474.56.56,0,0,1-.122-.394.409.409,0,0,1,.3-.33,1.907,1.907,0,0,1,1.994,1.377,1.857,1.857,0,0,1,.064.77.591.591,0,0,1-.077.272,2.947,2.947,0,0,0-.119-1,1.872,1.872,0,0,0-.617-.861,1.615,1.615,0,0,0-1.186-.372c-.2.054-.209.258-.078.427a3.185,3.185,0,0,0,.454.445,7.159,7.159,0,0,0,.9.649C388.009,405.29,388.378,405.435,388.366,405.465Z"/><path class="h" d="M388.1,405.415a1.028,1.028,0,0,1,.151-.717,1.706,1.706,0,0,1,.541-.6,1.04,1.04,0,0,1,1-.179.412.412,0,0,1,.124.564,1.151,1.151,0,0,1-.333.368,3.163,3.163,0,0,1-.687.408,1.483,1.483,0,0,1-.707.175c-.008-.03.261-.1.647-.3a3.684,3.684,0,0,0,.633-.423c.213-.153.448-.486.222-.624a.929.929,0,0,0-.8.162,1.708,1.708,0,0,0-.52.523A3.762,3.762,0,0,0,388.1,405.415Z"/><path class="h" d="M404.811,410.769c-.016.033-.416-.21-1.128-.4a5.071,5.071,0,0,0-5.178,1.606c-.483.556-.675.982-.707.964a.935.935,0,0,1,.118-.3,4.262,4.262,0,0,1,.482-.749,4.918,4.918,0,0,1,5.322-1.651,4.254,4.254,0,0,1,.821.345A.961.961,0,0,1,404.811,410.769Z"/><path class="h" d="M405.7,403.885a28.272,28.272,0,0,1-1.078,3.148,28.7,28.7,0,0,1-1.262,3.079,56.148,56.148,0,0,1,2.34-6.227Z"/><path class="h" d="M396.418,410.811A13.255,13.255,0,0,1,392,409.133c.025-.051.986.394,2.2.854S396.433,410.756,396.418,410.811Z"/><path class="h" d="M399.375,411.961c.022.051-.162.177-.351.363s-.322.366-.373.342.016-.268.236-.482S399.356,411.911,399.375,411.961Z"/><path class="h" d="M401.029,411.009c.023.05-.136.169-.354.266s-.412.136-.434.087.136-.169.354-.266S401.007,410.96,401.029,411.009Z"/><path class="h" d="M402.87,411c-.03.047-.23-.033-.482-.041s-.458.047-.484,0,.181-.208.493-.193S402.9,410.958,402.87,411Z"/><path class="h" d="M404.121,411.142c0,.054-.117.1-.261.1s-.261-.045-.26-.1.117-.1.261-.1S404.121,411.088,404.121,411.142Z"/><path class="l" d="M430.427,449.139l.157-8.639,16.184.189-.094,12.642-1.005.052c-4.468.2-22.736.681-25.711-.259C416.64,452.075,430.427,449.139,430.427,449.139Z"/><path class="h" d="M446.906,452.962a1.714,1.714,0,0,1-.278.027l-.8.039-2.943.094c-2.486.062-5.921.1-9.714.063s-7.229-.151-9.713-.264l-2.94-.155-.8-.056a1.635,1.635,0,0,1-.277-.032,1.453,1.453,0,0,1,.279-.007l.8.019,2.942.093c2.484.077,5.916.166,9.709.206s7.224.021,9.71-.006l2.943-.031.8,0A1.462,1.462,0,0,1,446.906,452.962Z"/><path class="h" d="M425.1,453.165a4.283,4.283,0,0,0-1.524-2.548,2.614,2.614,0,0,1,1.524,2.548Z"/><path class="h" d="M429.9,450.8c-.046.029-.271-.252-.5-.627s-.383-.7-.337-.729.272.252.5.626S429.945,450.766,429.9,450.8Z"/><path class="h" d="M431.217,450.117c-.036.039-.29-.134-.566-.387s-.47-.492-.433-.532.29.134.566.387S431.254,450.077,431.217,450.117Z"/><path class="h" d="M432.063,448.6a1.9,1.9,0,0,1-.846.1,1.882,1.882,0,0,1-.845-.1,3.7,3.7,0,0,1,1.691,0Z"/><path class="h" d="M432.359,447.524a2.374,2.374,0,0,1-1.917.123,5.273,5.273,0,0,1,.959-.055A5.189,5.189,0,0,1,432.359,447.524Z"/><path class="h" d="M429.366,449.377a3.011,3.011,0,0,1-1.04-.018,6.085,6.085,0,0,1-1.1-.256,3.017,3.017,0,0,1-.631-.269.559.559,0,0,1-.254-.326.408.408,0,0,1,.162-.413,1.907,1.907,0,0,1,2.352.583,1.856,1.856,0,0,1,.332.7.586.586,0,0,1,.024.282,2.944,2.944,0,0,0-.464-.893,1.876,1.876,0,0,0-.882-.587,1.617,1.617,0,0,0-1.241.07c-.166.121-.1.316.079.428a3.182,3.182,0,0,0,.581.256,7.176,7.176,0,0,0,1.068.29C428.97,449.34,429.367,449.345,429.366,449.377Z"/><path class="h" d="M429.1,449.426a1.031,1.031,0,0,1-.112-.724,1.7,1.7,0,0,1,.293-.756,1.041,1.041,0,0,1,.871-.521.413.413,0,0,1,.315.484,1.123,1.123,0,0,1-.182.462,3.1,3.1,0,0,1-.5.624,1.512,1.512,0,0,1-.6.415c-.018-.026.209-.185.5-.511a3.619,3.619,0,0,0,.443-.619c.145-.218.247-.612-.013-.662-.261-.028-.529.228-.69.434a1.7,1.7,0,0,0-.3.673A3.855,3.855,0,0,0,429.1,449.426Z"/><path class="h" d="M446.625,448.529c0,.037-.463-.049-1.2.029a5.074,5.074,0,0,0-4.276,3.332c-.255.691-.284,1.157-.321,1.152a.969.969,0,0,1,0-.326,4.234,4.234,0,0,1,.186-.871,4.919,4.919,0,0,1,4.395-3.425,4.242,4.242,0,0,1,.89.033A.975.975,0,0,1,446.625,448.529Z"/><path class="h" d="M445.022,441.776a56.777,56.777,0,0,1,.011,6.652,56.2,56.2,0,0,1-.011-6.652Z"/><path class="h" d="M438.788,451.534a9.152,9.152,0,0,1-2.365.209,9.25,9.25,0,0,1-2.365-.216c0-.057,1.062.019,2.365.02S438.782,451.478,438.788,451.534Z"/><path class="h" d="M441.96,451.565c.039.04-.089.223-.2.464s-.172.456-.227.452-.081-.257.049-.535S441.925,451.525,441.96,451.565Z"/><path class="h" d="M443.172,450.09c.038.039-.068.206-.238.374s-.337.273-.375.234.068-.2.237-.373S443.134,450.052,443.172,450.09Z"/><path class="h" d="M444.89,449.43c-.012.054-.227.05-.466.131s-.411.206-.453.169.1-.26.392-.355S444.907,449.38,444.89,449.43Z"/><path class="h" d="M446.111,449.122c.019.051-.075.133-.209.184s-.26.05-.279,0,.075-.132.21-.183S446.092,449.072,446.111,449.122Z"/><path class="i" d="M460.821,216.382a11.384,11.384,0,0,1-4.077-4.163,5.978,5.978,0,0,1-.07-5.647,4.1,4.1,0,0,1,5.061-1.775,4.974,4.974,0,0,1,3.3-5.183,7.97,7.97,0,0,1,5.225.528,28.826,28.826,0,0,0,5.029,1.814c2.5.457,5.052-.2,7.589-.154a6.08,6.08,0,0,1,3.115.747c1.759,1.089,2.358,3.363,2.455,5.428a2.445,2.445,0,0,1,2.233,1.4,5.264,5.264,0,0,1,.434,2.727,13.165,13.165,0,0,1-3.085,7.73"/><circle class="m" cx="7.208" cy="7.208" r="7.208" transform="translate(456.274 219.367)"/><path class="j" d="M474.679,204.786a13.711,13.711,0,0,0-13.706,13.452c-.131,6.8-.176,14.051.158,16.154,1.359,8.558,7.919,9.647,7.919,9.647s.11,5.361.125,10.453c.015,4.851,4.232,8.87,9.424,8.979h0c5.14.108,9.32-3.66,9.385-8.462l.4-36.364a13.708,13.708,0,0,0-13.706-13.859Z"/><path class="h" d="M462.782,222.312a1.1,1.1,0,0,0,1.058,1.107,1.051,1.051,0,0,0,1.132-.99,1.1,1.1,0,0,0-1.057-1.108A1.051,1.051,0,0,0,462.782,222.312Z"/><path class="h" d="M462.542,221.083c.136.143.968-.472,2.149-.469,1.18-.014,2.047.593,2.175.449.063-.064-.076-.323-.453-.6a3.01,3.01,0,0,0-1.741-.537,2.89,2.89,0,0,0-1.71.552C462.6,220.76,462.475,221.019,462.542,221.083Z"/><path class="h" d="M474.6,222.312a1.1,1.1,0,0,0,1.058,1.107,1.049,1.049,0,0,0,1.131-.99,1.1,1.1,0,0,0-1.057-1.108A1.05,1.05,0,0,0,474.6,222.312Z"/><path class="h" d="M474.152,221.3c.137.143.969-.472,2.149-.469,1.18-.014,2.047.594,2.175.449.063-.064-.074-.322-.453-.6a3.01,3.01,0,0,0-1.741-.537,2.886,2.886,0,0,0-1.71.553C474.209,220.98,474.086,221.239,474.152,221.3Z"/><path class="h" d="M469.866,230.062a7.9,7.9,0,0,0-1.919-.346c-.3-.031-.587-.091-.638-.3a1.54,1.54,0,0,1,.2-.894q.425-1.093.892-2.3a39.591,39.591,0,0,0,2-6.007,39.593,39.593,0,0,0-2.482,5.832c-.3.806-.583,1.574-.854,2.31a1.746,1.746,0,0,0-.157,1.184.758.758,0,0,0,.5.441,2.045,2.045,0,0,0,.512.071A7.639,7.639,0,0,0,469.866,230.062Z"/><path class="k" d="M469.05,244.039a21.777,21.777,0,0,0,11.462-3.057s-2.781,5.879-11.347,5.078Z"/><path class="h" d="M473.342,230.88c-.192-.012-.2,1.27-1.292,2.18s-2.462.769-2.472.948c-.018.081.3.25.881.265a3.185,3.185,0,0,0,2.063-.719,2.78,2.78,0,0,0,1-1.828C473.573,231.19,473.43,230.872,473.342,230.88Z"/><path class="i" d="M473.847,216.674c.117.322,1.3.169,2.682.336,1.389.14,2.506.545,2.69.257.082-.138-.112-.44-.564-.751a4.7,4.7,0,0,0-4.093-.451C474.053,216.27,473.8,216.522,473.847,216.674Z"/><path class="i" d="M462.977,217.664c.207.269,1.021-.01,2-.023.977-.047,1.806.18,2-.1.084-.136-.047-.4-.409-.659a2.9,2.9,0,0,0-3.221.1C463,217.257,462.885,217.533,462.977,217.664Z"/><path class="j" d="M487.294,221.647c.122-.059,4.948-1.694,5,3.3s-4.97,4.014-4.981,3.871S487.294,221.647,487.294,221.647Z"/><path class="k" d="M488.818,226.909c.022-.016.088.06.235.126a.866.866,0,0,0,.65.006,2.149,2.149,0,0,0,.976-1.94,2.88,2.88,0,0,0-.256-1.243,1,1,0,0,0-.661-.661.444.444,0,0,0-.511.244c-.065.14-.033.24-.059.248s-.108-.082-.07-.289a.554.554,0,0,1,.193-.314.657.657,0,0,1,.48-.133,1.224,1.224,0,0,1,.916.765,2.955,2.955,0,0,1,.316,1.388,2.259,2.259,0,0,1-1.246,2.169.934.934,0,0,1-.8-.124C488.828,227.03,488.8,226.918,488.818,226.909Z"/><path class="i" d="M459.934,213.254s4.419,2.139,10.169-.732c3.774-1.883,8.173-2.8,9.142-2.045s1.175,4.647,4.913,5.783c0,0-.257,7.418,2.7,7.154s2.935-13.276,2.935-13.276l-8.738-6.452-9.5-.752-7.678,3.118-4.239,3.207Z"/><path class="m" d="M480.537,225.866a7.208,7.208,0,1,0,7.208-7.208A7.208,7.208,0,0,0,480.537,225.866Z"/><path class="m" d="M484.995,220.748s.283-15.362-9.485-19.643h4.384s7.752,1.133,8.513,18.432"/><g class="n"><path d="M484.753,225.866a2.993,2.993,0,1,0,2.992-2.992A2.993,2.993,0,0,0,484.753,225.866Z"/></g><path class="h" d="M485.5,227.608a3.545,3.545,0,0,0,1.488.933,3.066,3.066,0,0,0,1.87-.036,2.953,2.953,0,0,0,1.675-3.809,3.067,3.067,0,0,0-1.237-1.4,3.543,3.543,0,0,0-1.693-.466,1.6,1.6,0,0,1,.487-.039,2.976,2.976,0,0,1,1.28.377,3.151,3.151,0,0,1,1.34,1.455,3.106,3.106,0,0,1-1.789,4.066,3.144,3.144,0,0,1-1.978-.005,2.975,2.975,0,0,1-1.143-.688A1.572,1.572,0,0,1,485.5,227.608Z"/><path class="h" d="M483.486,225.788a3.3,3.3,0,0,1,.094-1.05,4.235,4.235,0,0,1,1.544-2.394,4.327,4.327,0,0,1,4.105-.647,4.345,4.345,0,0,1,0,8.181,4.327,4.327,0,0,1-4.106-.646,4.239,4.239,0,0,1-1.543-2.395,3.293,3.293,0,0,1-.094-1.049,9.08,9.08,0,0,0,.173,1.03,4.243,4.243,0,0,0,1.554,2.3,4.167,4.167,0,1,0,0-6.654,4.24,4.24,0,0,0-1.554,2.3A9.041,9.041,0,0,0,483.486,225.788Z"/><path class="h" d="M457.057,206.651c.025.01-.192.394-.423,1.133a1.654,1.654,0,0,0,.094,1.336,3.8,3.8,0,0,0,1.352,1.24,6.872,6.872,0,0,0,4.711.576,16.453,16.453,0,0,0,5.44-2.387,31.547,31.547,0,0,1,5.283-2.887,5.4,5.4,0,0,1,2.614-.372,3.557,3.557,0,0,1,2.034,1.064,5.016,5.016,0,0,1,1.315,3.012,5.5,5.5,0,0,1,.008,1.216,2.068,2.068,0,0,1-.017-.313,8.6,8.6,0,0,0-.072-.893,5.02,5.02,0,0,0-1.339-2.918,3.416,3.416,0,0,0-1.953-1,5.27,5.27,0,0,0-2.524.381,32.349,32.349,0,0,0-5.241,2.885,16.393,16.393,0,0,1-5.512,2.4,6.959,6.959,0,0,1-4.821-.637,3.87,3.87,0,0,1-1.378-1.307,1.73,1.73,0,0,1-.072-1.419A5.432,5.432,0,0,1,457.057,206.651Z"/><path class="h" d="M480.112,212.475a2.473,2.473,0,0,1,.1-.337c.068-.219.166-.542.266-.964a7.3,7.3,0,0,0,.006-3.621,4.862,4.862,0,0,0-1.231-2.152,5.183,5.183,0,0,0-2.512-1.317,7.07,7.07,0,0,0-3.161.035,12.153,12.153,0,0,0-3.175,1.294c-2.059,1.166-3.835,2.607-5.683,3.556a9.946,9.946,0,0,1-2.758,1.025,3.31,3.31,0,0,1-2.495-.488,3.135,3.135,0,0,1-1.254-1.693,3.184,3.184,0,0,1-.037-1.6,2.963,2.963,0,0,1,.389-.931,1.548,1.548,0,0,1,.214-.279,3.647,3.647,0,0,0-.524,1.227,3.144,3.144,0,0,0,.07,1.544,3.027,3.027,0,0,0,1.224,1.6,3.163,3.163,0,0,0,2.384.44,9.9,9.9,0,0,0,2.7-1.025c1.822-.946,3.588-2.388,5.67-3.568a12.277,12.277,0,0,1,3.232-1.311,7.217,7.217,0,0,1,3.248-.023,5.327,5.327,0,0,1,2.592,1.382,4.984,4.984,0,0,1,1.251,2.235,7.2,7.2,0,0,1-.069,3.679A8.039,8.039,0,0,1,480.112,212.475Z"/><path class="l" d="M508.911,274.278l-7.288,36.412,1.3,27.289-51.986-1.687,4.917-30.357.037-19.773-6.706,8.5-14.2-16.575,16.668-17.735v0a28.9,28.9,0,0,1,11.2-7.254,18.644,18.644,0,0,1,6.3-1.346h0a36.335,36.335,0,0,0,19.324.187c.688.087,0,0,1.2.143l.221.026a21.661,21.661,0,0,1,18.906,20.369Z"/><path class="l" d="M489.686,252.088s20.13.152,22.623,21.413l1.251,15.8-18.249-.357Z"/><path class="g" d="M510.637,266.08s-.238.028-.7.061a9.065,9.065,0,0,1-2-.168,18.367,18.367,0,0,1-3.048-.891c-1.165-.418-2.46-.979-3.948-1.418a10.456,10.456,0,0,0-4.989-.375,15.341,15.341,0,0,0-5.334,2.209c-1.743,1.081-3.417,2.45-5.228,3.772a21.2,21.2,0,0,1-6.093,3.307,18.318,18.318,0,0,1-13.145-.683,37.27,37.27,0,0,1-5.044-2.966,41.2,41.2,0,0,0-4.346-2.627,12.653,12.653,0,0,0-7.084-1.476,8.393,8.393,0,0,0-1.93.49c-.418.182-.641.277-.641.277s.21-.12.625-.316a7.951,7.951,0,0,1,1.935-.531,12.606,12.606,0,0,1,7.16,1.424,40.635,40.635,0,0,1,4.376,2.614,37.549,37.549,0,0,0,5.028,2.937,18.183,18.183,0,0,0,13,.659,21.073,21.073,0,0,0,6.038-3.274c1.806-1.314,3.487-2.685,5.247-3.77a15.454,15.454,0,0,1,5.4-2.216,10.569,10.569,0,0,1,5.061.4c1.5.451,2.788,1.022,3.946,1.45a19.01,19.01,0,0,0,3.023.921,9.638,9.638,0,0,0,1.983.2C510.4,266.08,510.637,266.08,510.637,266.08Z"/><path class="g" d="M452.526,289.4a3.24,3.24,0,0,1-.788-.3,5.6,5.6,0,0,1-1.756-1.475,10.58,10.58,0,0,1-1.634-2.987c-.459-1.2-.826-2.557-1.4-3.9a8.38,8.38,0,0,0-5.324-4.879,9.8,9.8,0,0,0-3.067-.395,4.465,4.465,0,0,1,.838-.069,7.881,7.881,0,0,1,2.272.323,8.4,8.4,0,0,1,5.471,4.937c.589,1.364.949,2.727,1.394,3.917a10.808,10.808,0,0,0,1.57,2.962A5.758,5.758,0,0,0,452.526,289.4Z"/><path class="g" d="M493.552,284.73s-.129-.056-.365-.181a7.9,7.9,0,0,0-1.077-.44,9.392,9.392,0,0,0-4.231-.239,20.9,20.9,0,0,0-5.97,2.106,28.251,28.251,0,0,1-7.316,2.736,22.345,22.345,0,0,1-13.89-1.841,22.078,22.078,0,0,1-3.652-2.283c-.783-.65-1.19-1.037-1.19-1.037s.117.079.326.245c.258.205.558.445.914.727a23.419,23.419,0,0,0,3.666,2.215,22.13,22.13,0,0,0,6.051,1.874,21.754,21.754,0,0,0,7.735-.1,28.557,28.557,0,0,0,7.274-2.706,20.673,20.673,0,0,1,6.031-2.078,9.255,9.255,0,0,1,4.278.308A5.464,5.464,0,0,1,493.552,284.73Z"/><path class="g" d="M513.037,280.626a2.871,2.871,0,0,1-.677.445,5.218,5.218,0,0,1-2.15.5,10.05,10.05,0,0,1-3.233-.51,35.313,35.313,0,0,0-3.832-1.076,16.825,16.825,0,0,0-7.156.219,18.516,18.516,0,0,0-2.087.661,7.275,7.275,0,0,1-.754.287,12.568,12.568,0,0,1,2.8-1.091,16.3,16.3,0,0,1,7.231-.281,33.149,33.149,0,0,1,3.849,1.1,10.224,10.224,0,0,0,3.175.547,5.438,5.438,0,0,0,2.119-.423C512.8,280.787,513.025,280.609,513.037,280.626Z"/><path class="g" d="M498.776,303.98s-.152-.049-.432-.16-.694-.266-1.238-.441a17.155,17.155,0,0,0-4.763-.7,28.665,28.665,0,0,0-7.091.907c-2.625.634-5.435,1.619-8.424,2.531a35.912,35.912,0,0,1-8.637,1.724,18.237,18.237,0,0,1-7.1-1.021,12.273,12.273,0,0,1-4.141-2.5,9.333,9.333,0,0,1-.9-.97c-.19-.234-.281-.364-.281-.364.028-.025.389.505,1.233,1.274a12.525,12.525,0,0,0,4.137,2.422,18.312,18.312,0,0,0,7.043.968,36.306,36.306,0,0,0,8.586-1.733c2.983-.909,5.8-1.89,8.439-2.517a28.3,28.3,0,0,1,7.139-.869,16.562,16.562,0,0,1,4.784.774A10.273,10.273,0,0,1,498.776,303.98Z"/><path class="g" d="M499.479,322.927s-.163-.042-.464-.14a10.946,10.946,0,0,0-1.349-.316,13.313,13.313,0,0,0-5.056.271,38.662,38.662,0,0,0-7.075,2.667,39.661,39.661,0,0,1-4.181,1.636,20.339,20.339,0,0,1-4.742.882,27.993,27.993,0,0,1-9.228-1.029,49.125,49.125,0,0,1-7.127-2.626c-1.971-.89-3.532-1.68-4.61-2.225l-1.236-.638c-.282-.148-.425-.235-.425-.235s.156.062.443.2l1.254.6c1.089.523,2.659,1.292,4.634,2.163a50.451,50.451,0,0,0,7.117,2.576,28.127,28.127,0,0,0,9.163,1.006,20.264,20.264,0,0,0,4.7-.869,40.029,40.029,0,0,0,4.165-1.617,37.868,37.868,0,0,1,7.119-2.634,13.065,13.065,0,0,1,5.1-.208A7.586,7.586,0,0,1,499.479,322.927Z"/><path class="h" d="M500.272,257.118s-.184.061-.534.158a4.925,4.925,0,0,0-1.434.657,10.183,10.183,0,0,0-3.459,4.6,21.106,21.106,0,0,0-1.2,3.852,15.407,15.407,0,0,0-.309,2.222c-.028.759.043,1.567.067,2.384.134,3.285.28,6.882.435,10.661.1,2.668.207,5.246.3,7.636l-.1-.1,14.18.037,4.113.029c.959.011,1.479.034,1.479.034s-.52.023-1.479.034l-4.113.029-14.18.037h-.1l0-.1c-.1-2.39-.2-4.967-.309-7.634-.149-3.778-.29-7.375-.419-10.659-.02-.822-.089-1.611-.058-2.4a15.448,15.448,0,0,1,.323-2.249,20.988,20.988,0,0,1,1.234-3.874,10.124,10.124,0,0,1,3.55-4.615,4.7,4.7,0,0,1,1.467-.629C500.084,257.151,500.272,257.118,500.272,257.118Z"/><path class="h" d="M455.914,271.049c.058,0,.1,6.606.1,14.753s-.046,14.755-.1,14.755-.1-6.605-.1-14.755S455.857,271.049,455.914,271.049Z"/><g class="n"><path d="M455.876,294.734c7.53,10.13,15.479,21.2,25.38,29.027a20.846,20.846,0,0,0,6.862,3.953,8.717,8.717,0,0,0,7.615-1.023,1.183,1.183,0,0,0,.494-.615c.139-.578-.505-1.009-1.041-1.266-8.755-4.186-15-12.137-22.458-18.35-5.091-4.243-16.852-11.726-16.852-11.726"/></g><path class="j" d="M447.948,286.051c1.231-.9,6.135,5.8,5.9,3.73s-6.931-7.477-5.607-8.365c1.724-1.156,6.732,5.958,7.2,6.528.454.553,1.289-.108.84-.6-.645-.706-7.244-8.292-5.56-9.444.933-.639,1.887,1.181,1.887,1.181s5.662,7.567,6.438,7-2.389-5.138-3.566-6.6c-1.164-1.442-.966-2.6.087-2.6.718,0,4.429,4.379,5.56,5.85s4.166,5.562,4.276,2.288c0-.051.009-.1.011-.15.021-3.226,1.105-5.7,1.907-6.208a1.115,1.115,0,0,1,1.608,1.2,1.147,1.147,0,0,1-.109.456c-.031.063-.056.156-.085.229a16.253,16.253,0,0,0-.386,3.309,8.687,8.687,0,0,0,.4,2.922c.341,1.082.677,2,.98,2.77l.494.6,27.416,15.5,0,0-.749-15.863s0,.043-.005-.628l16.152.158.285,21.1a26.989,26.989,0,0,1-.622,6.248c-.7,3.118-1.818,5.995-4.5,7.786-6.137,4.1-16.036,2.85-21.5-2.112l-22.763-20.684-4.718-4.287h0a103.469,103.469,0,0,1-8.663-7.226C447.194,286.7,447.49,286.386,447.948,286.051Z"/><path class="h" d="M503.037,335.687s-77.379-15.924-84.073-12.771-30.792,78.926-30.792,78.926l19.448,7.727,25.251-61.724s52.687,20.513,61.14,18.773S503.037,335.687,503.037,335.687Z"/><path class="h" d="M468.524,339.192c-1.056.35-41.716,13.659-44.541,18.928s2.343,88.972,2.343,88.972h23.6l-.013-79.267,44.518-1.121Z"/><path class="i" d="M494.666,366.7a3.124,3.124,0,0,1-.655-.081l-1.859-.332c-1.612-.3-3.94-.76-6.807-1.373-5.735-1.219-13.63-3.059-22.232-5.535-4.3-1.25-8.361-2.553-12.028-3.818-3.653-1.3-6.928-2.524-9.625-3.681-1.359-.552-2.569-1.1-3.629-1.581s-1.973-.9-2.7-1.273l-1.686-.852a3.1,3.1,0,0,1-.571-.328,3.168,3.168,0,0,1,.617.234l1.726.762c.742.345,1.661.744,2.735,1.191s2.286.978,3.651,1.506c2.708,1.112,5.988,2.293,9.642,3.569,3.667,1.237,7.725,2.523,12.016,3.771,8.586,2.472,16.457,4.366,22.167,5.676l6.768,1.534,1.839.427A3.257,3.257,0,0,1,494.666,366.7Z"/><path class="i" d="M423.37,378.98a6.482,6.482,0,0,1-.208-1.311c-.1-.95-.225-2.154-.375-3.591-.142-1.553-.307-3.352-.488-5.331a24.321,24.321,0,0,1,0-6.6,10.285,10.285,0,0,1,3.327-5.7,17.426,17.426,0,0,1,4.551-2.913,35.9,35.9,0,0,1,3.376-1.322,6.307,6.307,0,0,1,1.278-.37c.038.093-1.759.714-4.495,2.024a18.018,18.018,0,0,0-4.384,2.932,9.974,9.974,0,0,0-3.141,5.448,25.055,25.055,0,0,0-.033,6.464c.139,1.982.267,3.784.377,5.34.083,1.442.153,2.65.209,3.6A6.458,6.458,0,0,1,423.37,378.98Z"/><path class="i" d="M480.105,372.949c-6.906-.456-3.659-10.366-3.488-21.4.106-6.92,4.7-13.708,9.72-18.477a23.649,23.649,0,0,1,8.8-4.917,54.72,54.72,0,0,1,26.7-1.714S534.915,376.564,480.105,372.949Z"/><path class="i" d="M256.881,372.872l30.2-.166c3.063-.017,6.343-.1,8.838-1.764a8.558,8.558,0,0,0,3.386-8.431,15.828,15.828,0,0,0-4.632-8.264c-4.965-5.124-11.552-8.191-18.661-10.279l-22.6-71.453c-4.36-.375-8.792-.7-13.079.176s-8.48,3.131-10.748,6.874c-2.281,3.763-2.331,8.419-2.313,12.821q.109,26.621.217,53.243c-.166,10.912.915,19.772,9.005,24.034a23.448,23.448,0,0,0,4.53,1.786h0c-.171,1.945-11.042,82.234-11.042,82.234l4.436-.018,8.409-46.256,25.92-14.566,26.914,12.222.685-1.741-25.487-11.668L291.609,380l-.928-1.649-22.039,12.294-21.3-9.753,1.392-8.188C251.438,372.887,254.186,372.887,256.881,372.872Zm9.632,18.957-23.241,12.964,3.712-21.833Z"/><path class="i" d="M294.63,371.223c.187,1.944,11.755,82.442,11.755,82.442l-4.436.018-14.863-80.977Z"/><path class="o" d="M353.029,300.6l11.4-3.962c2.94-.818,4.1-1.362,3.906-1.9-.252-.721-.122-.455-5.677.273,0,0,7.919-1.108,6.015-2.217a8.682,8.682,0,0,0-2.962-.084c2.026-.392,2.846-.961,2.8-1.483-.082-.9-4.789-.462-6.985-.209a43.455,43.455,0,0,0,6.029-1.04c1.03-.459-.191-1.065-1.344-1.28-1.294-.242-9.009-.564-11.231-.773a1.316,1.316,0,0,1-1.334-1.491c.895-3.113-.071-6.015-.7-6.679s-1.753-.018-1.609.984a12.092,12.092,0,0,1-.3,3.266,7.746,7.746,0,0,1-.915,2.45c-.516.878-.986,1.6-1.4,2.206l-7.512,2.112,3.066,12.22Z"/><path class="p" d="M360.158,295.259a28.951,28.951,0,0,0,7.577-1.186,29.064,29.064,0,0,0-7.577,1.186Z"/><path class="p" d="M359.587,293.109a33.014,33.014,0,0,0,8.148-.775,33.01,33.01,0,0,0-8.148.775Z"/><path class="p" d="M359.436,291.081a29.549,29.549,0,0,0,7.719-.632,29.549,29.549,0,0,0-7.719.632Z"/><path class="l" d="M291.439,252.563s7.877,20.168,7.857,27.926c-.013,5.1-1.328,46.313-1.328,46.313l-48.123,10.882,11.891-32.838-3.773-15.193.829-37.09Z"/><path class="l" d="M291.439,252.563a16.588,16.588,0,0,1,11.674,11.707c2.751,9.815,10.141,28.863,10.141,28.863l33.5-5.029,4.09,13.685-34.007,10.666a15.716,15.716,0,0,1-18.555-9.885l-10.317-28.4Z"/><path class="l" d="M258.792,252.563s-8.383,1.935-11.929,9.351-15.154,38.691-15.154,38.691l21.28,1.934,7.093-18.378Z"/><path class="l" d="M232.359,298.859c-.141.379-2.6,1.035-2.324,3.68s.415,8.6,4.983,8.874,21.827-7.189,21.827-7.189V300.85a3.547,3.547,0,0,0-3.812-3.538Z"/><path class="h" d="M298.9,306.418a8.123,8.123,0,0,1-.094-1.489c-.03-.96-.048-2.347-.045-4.062-.022-3.43.163-8.17.061-13.383a58.132,58.132,0,0,0-.614-7.311c-.359-2.227-.821-4.209-1.258-5.861s-.842-2.978-1.132-3.891a8.084,8.084,0,0,1-.386-1.441,8.242,8.242,0,0,1,.578,1.376c.35.9.8,2.211,1.294,3.856a52.6,52.6,0,0,1,1.378,5.885,53.681,53.681,0,0,1,.66,7.373c.1,5.247-.14,9.976-.212,13.4-.049,1.639-.09,3-.122,4.058A8.134,8.134,0,0,1,298.9,306.418Z"/><path class="h" d="M262.366,277.551A103.8,103.8,0,0,1,259,287.379a103.738,103.738,0,0,1-3.858,9.648c-.134-.05,1.374-4.45,3.37-9.829A103.762,103.762,0,0,1,262.366,277.551Z"/><path class="h" d="M255.864,298.566a9.74,9.74,0,0,0-3.243-1.315,15.735,15.735,0,0,0-3.81-.171c-1.443.089-3.041.277-4.712.451-3.346.364-6.368.757-8.555,1.047a27.789,27.789,0,0,1-3.555.393,3.46,3.46,0,0,1,.929-.261c.6-.131,1.481-.306,2.57-.5,2.177-.383,5.2-.836,8.554-1.2,1.678-.174,3.272-.347,4.745-.412a14.7,14.7,0,0,1,3.911.29,7.071,7.071,0,0,1,2.441,1.03A2.365,2.365,0,0,1,255.864,298.566Z"/><path class="h" d="M254.009,301.256a30.9,30.9,0,0,1-3.464.421c-2.138.234-5.083.628-8.3,1.26s-6.092,1.389-8.159,1.983a30.955,30.955,0,0,1-3.365.925,3.284,3.284,0,0,1,.852-.4c.558-.23,1.38-.531,2.4-.873a68.114,68.114,0,0,1,16.535-3.259c1.078-.071,1.952-.105,2.557-.1A3.277,3.277,0,0,1,254.009,301.256Z"/><g class="n"><path d="M257.74,289.772l3.507,12.367a34.262,34.262,0,0,0,.434-22.071q-1.833,4.824-3.665,9.649"/></g><g class="n"><path d="M233.187,304.716a.732.732,0,0,1-1.1-.364,1.179,1.179,0,0,1,.418-1.224,3.328,3.328,0,0,1,1.236-.578,62.6,62.6,0,0,1,18.474-2.507c.3,0,.733.169.624.454-.057.149-.239.2-.4.231l-19.618,3.82"/></g><path class="g" d="M258.635,253.015a1.227,1.227,0,0,1,.413.022,4.932,4.932,0,0,1,1.141.324,6.21,6.21,0,0,1,3.162,2.943,6.062,6.062,0,0,1-.614,6.267,6.359,6.359,0,0,1-3.115,2.267,10.686,10.686,0,0,0-3.54,1.687,5.625,5.625,0,0,0-1.356,3.544,12.347,12.347,0,0,1-.392,1.925,5.514,5.514,0,0,1-.89,1.7,5.592,5.592,0,0,1-9.343-.482,4.742,4.742,0,0,1-.481-1.085,1.251,1.251,0,0,1-.073-.407,11.308,11.308,0,0,0,.725,1.383,5.72,5.72,0,0,0,3.361,2.35,5.344,5.344,0,0,0,5.429-2.05A6.65,6.65,0,0,0,254.221,270a12.9,12.9,0,0,1,.39-2,4.083,4.083,0,0,1,1.115-1.853,10.857,10.857,0,0,1,3.714-1.785,5.9,5.9,0,0,0,2.91-2.074,5.7,5.7,0,0,0,.669-5.822,6.2,6.2,0,0,0-2.913-2.919A13.617,13.617,0,0,0,258.635,253.015Z"/><path class="g" d="M270.285,279.022a5.786,5.786,0,0,1-.2.869q-.234.912-.634,2.468a26.059,26.059,0,0,0-.9,9.224,13.333,13.333,0,0,0,2.212,5.917,9.489,9.489,0,0,0,2.5,2.452,9.262,9.262,0,0,0,3.454,1.345,24.463,24.463,0,0,0,8.082-.307,16.63,16.63,0,0,0,7.958-3.217,8.359,8.359,0,0,0,3.039-7.589,5.7,5.7,0,0,0-2-3.391,14.083,14.083,0,0,0-3.41-1.968,31.83,31.83,0,0,1-3.463-1.69,8.7,8.7,0,0,1-2.686-2.5,25.638,25.638,0,0,0-1.965-2.7,7.226,7.226,0,0,0-2.467-1.715,7.388,7.388,0,0,0-5.109-.293,7.684,7.684,0,0,0-3.292,2.135,8.725,8.725,0,0,0-1.707,2.926,3.755,3.755,0,0,1,.238-.861,7.34,7.34,0,0,1,1.317-2.2,7.793,7.793,0,0,1,3.353-2.277,7.8,7.8,0,0,1,7.96,2.009,25.5,25.5,0,0,1,2.022,2.724,8.293,8.293,0,0,0,2.574,2.361,31.9,31.9,0,0,0,3.42,1.643,14.42,14.42,0,0,1,3.537,2.027,6.2,6.2,0,0,1,2.18,3.678,8.85,8.85,0,0,1-3.208,8.082,17.052,17.052,0,0,1-8.2,3.319,24.744,24.744,0,0,1-8.257.276,9.7,9.7,0,0,1-3.617-1.435,9.887,9.887,0,0,1-2.6-2.586,13.61,13.61,0,0,1-2.224-6.12,20.151,20.151,0,0,1,.189-5.37,37.265,37.265,0,0,1,.884-3.95c.3-1.069.552-1.891.73-2.446l.21-.63A.739.739,0,0,1,270.285,279.022Z"/><path class="g" d="M304.809,270.557a1.846,1.846,0,0,1-.9-.2,4.324,4.324,0,0,1-1.943-1.6,4.193,4.193,0,0,1-.676-1.64c-.118-.635-.079-1.3-.213-1.931a1.6,1.6,0,0,0-1.214-1.314c-.666-.2-1.452-.159-2.277-.344a5.712,5.712,0,0,1-3.632-2.759,5.408,5.408,0,0,1,.551-5.962c.385-.456.664-.636.682-.615a6.9,6.9,0,0,0-1.4,2.952,5.077,5.077,0,0,0,.585,3.389,5.335,5.335,0,0,0,3.332,2.488c.727.17,1.525.131,2.305.362a2.239,2.239,0,0,1,1.047.641,2.294,2.294,0,0,1,.491,1.064c.135.726.076,1.385.169,1.959a3.958,3.958,0,0,0,.559,1.51,4.472,4.472,0,0,0,1.72,1.613C304.5,270.439,304.819,270.513,304.809,270.557Z"/><path class="g" d="M336.749,290a1.112,1.112,0,0,1,.486.393,2.149,2.149,0,0,1,.3,1.755,2.588,2.588,0,0,1-.594,1.181,4.061,4.061,0,0,1-1.262.923,35.349,35.349,0,0,1-3.539,1.138,4.163,4.163,0,0,0-1.723,1.1,3.925,3.925,0,0,0-.9,2c-.29,1.548,0,3.3-.4,5.151a6.167,6.167,0,0,1-3.642,4.406,5.3,5.3,0,0,1-3.118.2,4.914,4.914,0,0,1-2.678-1.76,4.043,4.043,0,0,0-2.281-1.721,6.284,6.284,0,0,0-2.8.574,6.106,6.106,0,0,1-2.974.37,6.657,6.657,0,0,1-2.69-1.019,7.007,7.007,0,0,1-2.993-4.257,9.212,9.212,0,0,1,.059-4.549,12.222,12.222,0,0,1,3.407-5.549,14.678,14.678,0,0,1,1.351-1.157,2.563,2.563,0,0,1,.516-.344c.031.039-.658.546-1.723,1.644a12.424,12.424,0,0,0-3.193,5.5,8.912,8.912,0,0,0,0,4.351,6.584,6.584,0,0,0,2.835,3.961,5.658,5.658,0,0,0,5.24.57,6.635,6.635,0,0,1,3.048-.6,2.944,2.944,0,0,1,1.5.725,11.241,11.241,0,0,1,1.1,1.166,4.519,4.519,0,0,0,5.224,1.43,5.7,5.7,0,0,0,3.355-4.039c.385-1.716.123-3.481.441-5.12a4.313,4.313,0,0,1,1.026-2.191,4.516,4.516,0,0,1,1.895-1.172c1.333-.45,2.572-.593,3.54-1.055a2.909,2.909,0,0,0,1.784-1.888,2.094,2.094,0,0,0-.192-1.648A4,4,0,0,0,336.749,290Z"/><path class="g" d="M258.372,290.249a23.582,23.582,0,0,0-2.584-1.014,9.279,9.279,0,0,0-11.03,5.086,23.74,23.74,0,0,0-.906,2.623,1.906,1.906,0,0,1,.018-.763,8,8,0,0,1,.552-2.01,9.207,9.207,0,0,1,11.471-5.289,8.056,8.056,0,0,1,1.886.885C258.19,290.039,258.39,290.224,258.372,290.249Z"/><path class="g" d="M290.608,317.628c.016-.007.073.094.169.3a4.428,4.428,0,0,1,.28.937,5.56,5.56,0,0,1-.589,3.528,5.124,5.124,0,0,1-1.7,1.863A5.364,5.364,0,0,1,286,325.1a5.7,5.7,0,0,1-3.1-.806c-1.015-.563-1.565-1.763-2.61-1.708a7.026,7.026,0,0,0-2.884,1.3,5.815,5.815,0,0,1-3.092.808,5.7,5.7,0,0,1-4.654-2.44,5.816,5.816,0,0,1-1.025-3.427,4.59,4.59,0,0,1,.126-.969c.06-.216.1-.325.117-.321.049.009-.074.464-.041,1.288a5.919,5.919,0,0,0,1.123,3.216,5.507,5.507,0,0,0,7.192,1.4c.456-.265.914-.57,1.418-.844a3.767,3.767,0,0,1,1.721-.531,2.369,2.369,0,0,1,1.671.764,6.64,6.64,0,0,0,1.206,1.03,5.272,5.272,0,0,0,2.821.76,4.97,4.97,0,0,0,2.549-.731,4.826,4.826,0,0,0,1.609-1.679,5.624,5.624,0,0,0,.71-3.319C290.759,318.074,290.561,317.646,290.608,317.628Z"/><path class="o" d="M360,421.848l3.545,24.593-16.009,2.2-3.267-24.053Z"/><path class="l" d="M363.093,446.913l-.244-1.416-15.556,2.062.992,5.845.963-.1c4.281-.5,21.734-2.857,24.419-4.21C376.661,447.581,363.093,446.913,363.093,446.913Z"/><g class="q"><path class="d" d="M353.835,452.314a5.41,5.41,0,0,0-2.531-2.935,5.253,5.253,0,0,0-3.786-.492l.744,4.3Z"/></g><g class="q"><path class="d" d="M369.762,447.467s4.806.524,4.366,1.377-17.986,3.9-25.843,4.56l-.035-.347,20.5-3.375S368.874,447.66,369.762,447.467Z"/></g><path class="h" d="M348.007,453.089a1.324,1.324,0,0,0,.269-.017l.767-.086,2.814-.364c2.373-.324,5.647-.816,9.25-1.437s6.853-1.258,9.2-1.748l2.773-.6.751-.177a1.534,1.534,0,0,0,.259-.073,1.356,1.356,0,0,0-.267.036l-.758.142-2.785.541c-2.351.457-5.6,1.07-9.2,1.692s-6.869,1.134-9.237,1.492l-2.805.423-.762.121A1.517,1.517,0,0,0,348.007,453.089Z"/><path class="h" d="M368.784,449.922a4.126,4.126,0,0,1,1.058-2.659,2.521,2.521,0,0,0-1.058,2.659Z"/><path class="h" d="M363.851,448.407c.048.02.219-.281.382-.673a1.652,1.652,0,0,0,.208-.747c-.048-.02-.219.282-.383.674A1.639,1.639,0,0,0,363.851,448.407Z"/><path class="h" d="M362.492,447.965c.041.032.256-.172.479-.455s.372-.54.331-.573-.256.172-.479.456S362.451,447.933,362.492,447.965Z"/><path class="h" d="M361.454,446.651a3.551,3.551,0,1,0,.789-.224A1.83,1.83,0,0,0,361.454,446.651Z"/><path class="h" d="M361.007,445.675a2.294,2.294,0,0,0,1.842-.178,71.523,71.523,0,0,1-1.842.178Z"/><path class="h" d="M364.14,446.976a2.886,2.886,0,0,0,.986-.177,5.941,5.941,0,0,0,1.011-.414,2.934,2.934,0,0,0,.559-.353.54.54,0,0,0,.191-.349.393.393,0,0,0-.218-.369,1.839,1.839,0,0,0-2.148.918,1.806,1.806,0,0,0-.207.715.55.55,0,0,0,.02.271,2.848,2.848,0,0,1,.3-.92,1.813,1.813,0,0,1,.748-.7,1.557,1.557,0,0,1,1.191-.123c.177.088.148.284-.008.418a3,3,0,0,1-.514.333,6.915,6.915,0,0,1-.971.441C364.511,446.879,364.134,446.946,364.14,446.976Z"/><path class="h" d="M364.4,446.981a.988.988,0,0,0-.005-.706A1.643,1.643,0,0,0,364,445.6a1,1,0,0,0-.909-.361.4.4,0,0,0-.226.508,1.1,1.1,0,0,0,.245.413,2.99,2.99,0,0,0,.57.516,1.449,1.449,0,0,0,.634.3c.013-.027-.227-.143-.554-.409a3.477,3.477,0,0,1-.516-.52c-.172-.186-.33-.544-.09-.632.243-.067.538.135.723.306a1.636,1.636,0,0,1,.391.594A3.678,3.678,0,0,1,364.4,446.981Z"/><path class="h" d="M347.591,448.83c.01.034.433-.118,1.142-.157a4.885,4.885,0,0,1,4.582,2.511c.348.618.448,1.056.482,1.046a.918.918,0,0,0-.054-.31,4.057,4.057,0,0,0-.311-.8,4.74,4.74,0,0,0-4.709-2.58,4.122,4.122,0,0,0-.842.168A.887.887,0,0,0,347.591,448.83Z"/><path class="h" d="M355.512,450.5a12.808,12.808,0,0,0,4.492-.771c-.014-.053-1.005.19-2.244.4S355.508,450.443,355.512,450.5Z"/><path class="h" d="M352.5,451c-.031.044.119.2.261.411s.234.407.286.395.037-.257-.129-.5S352.523,450.955,352.5,451Z"/><path class="h" d="M351.117,449.782c-.031.043.1.186.283.319s.363.208.394.165-.1-.185-.284-.319S351.147,449.74,351.117,449.782Z"/><path class="h" d="M349.38,449.418c.02.051.224.014.463.054s.424.132.458.09-.131-.231-.428-.277S349.356,449.374,349.38,449.418Z"/><path class="h" d="M348.171,449.314c-.01.052.092.115.228.143s.255.008.265-.043-.092-.115-.228-.143S348.181,449.263,348.171,449.314Z"/><path class="o" d="M311.367,423.709l-9.845,21.334-14.349-7.43,7.12-15.766Z"/><path class="l" d="M300.878,445.166l.617-1.3-13.9-7.28-2.558,5.349.848.47c3.788,2.056,19.407,10.19,22.381,10.632C311.581,453.531,300.878,445.166,300.878,445.166Z"/><g class="q"><path class="d" d="M290.2,444.245a5.41,5.41,0,0,0-.376-3.858,5.259,5.259,0,0,0-2.811-2.584l-1.867,3.939Z"/></g><g class="q"><path class="d" d="M306.009,449.462s3.626,3.2,2.775,3.641-16.945-7.181-23.749-11.166l.172-.305,18.7,9.055S305.172,449.108,306.009,449.462Z"/></g><path class="h" d="M284.989,441.519a1.488,1.488,0,0,0,.23.141l.676.372,2.51,1.324c2.127,1.1,5.086,2.588,8.388,4.156s6.325,2.922,8.525,3.873l2.612,1.108.715.288a1.357,1.357,0,0,0,.255.089,1.524,1.524,0,0,0-.24-.124l-.7-.321-2.587-1.162c-2.185-.982-5.2-2.354-8.5-3.921s-6.267-3.033-8.409-4.105l-2.536-1.27-.692-.341A1.375,1.375,0,0,0,284.989,441.519Z"/><path class="h" d="M303.8,450.9a6.4,6.4,0,0,1,1.058-1,6.472,6.472,0,0,1,1.338-.567,2.522,2.522,0,0,0-2.4,1.563Z"/><path class="h" d="M300.636,446.824c.028.044.342-.1.7-.331s.627-.446.6-.49-.341.1-.7.331S300.608,446.779,300.636,446.824Z"/><path class="h" d="M299.781,445.679c.015.05.307.007.654-.1s.614-.227.6-.277-.307-.007-.653.1S299.766,445.629,299.781,445.679Z"/><path class="h" d="M299.689,444.007c-.022.047.287.245.691.442a1.824,1.824,0,0,0,.774.272c.023-.046-.286-.244-.691-.442A1.837,1.837,0,0,0,299.689,444.007Z"/><path class="h" d="M299.886,442.951c-.035.035.246.367.708.628a1.586,1.586,0,0,0,.9.289,65.877,65.877,0,0,1-1.609-.917Z"/><path class="h" d="M301.7,445.82a2.879,2.879,0,0,0,.908.424,5.805,5.805,0,0,0,1.065.244,2.919,2.919,0,0,0,.66.034.542.542,0,0,0,.358-.175.4.4,0,0,0,.034-.427,1.839,1.839,0,0,0-2.285-.487,1.786,1.786,0,0,0-.581.464c-.11.138-.149.227-.14.234a2.82,2.82,0,0,1,.779-.578,1.813,1.813,0,0,1,1.012-.136,1.557,1.557,0,0,1,1.045.585c.093.175-.043.318-.248.337a2.933,2.933,0,0,1-.613-.024,6.864,6.864,0,0,1-1.047-.2C302.056,445.955,301.71,445.792,301.7,445.82Z"/><path class="h" d="M301.91,445.977a.988.988,0,0,0,.4-.58,1.658,1.658,0,0,0,.066-.779,1.008,1.008,0,0,0-.535-.819.4.4,0,0,0-.478.286,1.11,1.11,0,0,0-.038.478,3.07,3.07,0,0,0,.168.751,1.449,1.449,0,0,0,.345.612c.026-.015-.1-.248-.217-.653a3.478,3.478,0,0,1-.122-.724c-.034-.25.044-.634.291-.568.237.086.361.421.414.668a1.63,1.63,0,0,1-.023.71A3.672,3.672,0,0,1,301.91,445.977Z"/><path class="h" d="M287.1,437.8c-.012.033.422.153,1.024.529a4.887,4.887,0,0,1,2.3,4.693c-.071.706-.242,1.122-.209,1.133a.9.9,0,0,0,.135-.284,4.131,4.131,0,0,0,.207-.833,4.74,4.74,0,0,0-2.361-4.823,4.063,4.063,0,0,0-.785-.348A.89.89,0,0,0,287.1,437.8Z"/><path class="h" d="M292.616,443.726a12.839,12.839,0,0,0,4.116,1.96c.018-.052-.932-.425-2.065-.966S292.645,443.679,292.616,443.726Z"/><path class="h" d="M289.864,442.4c-.051.018-.017.23-.023.486s-.044.468.006.488.178-.189.183-.484S289.91,442.378,289.864,442.4Z"/><path class="h" d="M289.437,440.609c-.05.017-.028.207.048.424s.177.379.226.361.028-.207-.048-.424S289.486,440.592,289.437,440.609Z"/><path class="h" d="M288.227,439.311c-.012.052.176.139.348.31s.27.352.322.338.026-.265-.19-.473S288.234,439.261,288.227,439.311Z"/><path class="h" d="M287.3,438.529c-.038.036.009.147.1.247s.2.154.242.118-.009-.147-.1-.247S287.337,438.493,287.3,438.529Z"/><path class="h" d="M250.643,336.652S245.275,356,262.4,361.372l51.219,1.675-24.368,61.977,22,6.23L339.4,367.985a20.8,20.8,0,0,0,2.234-9.377h0a20.792,20.792,0,0,0-15.886-20.2l-39.952-9.7-34.347,8.185"/><path class="h" d="M270.961,333.337s-9.82,19.672,12.219,24.045l51.675,5.977,6.777,66.417,21.417-1.282-4.74-70.158a22.971,22.971,0,0,0-16.115-20.862L297.968,326.8l-27.007,6.535"/><path class="i" d="M330.3,388.441a10.833,10.833,0,0,1,.578-1.523c.44-1.057,1.056-2.533,1.83-4.392,1.624-3.811,3.913-9.179,6.649-15.6l0-.009.005-.009c3.155-5.743,2.412-14.636-2.7-21.1a20.342,20.342,0,0,0-7.276-5.472,47.581,47.581,0,0,0-8.128-2.82c-2.657-.718-5.227-1.261-7.621-1.8l-6.661-1.5-9.636-2.206-2.614-.625-.677-.175a.875.875,0,0,1-.226-.077.785.785,0,0,1,.239.025l.688.125,2.637.53,9.675,2.045,6.676,1.437c2.4.521,4.967,1.047,7.642,1.756a47.378,47.378,0,0,1,8.224,2.823,20.76,20.76,0,0,1,7.462,5.6c5.248,6.64,5.982,15.722,2.694,21.642l.009-.018-6.82,15.524c-.824,1.838-1.478,3.3-1.945,4.342A12.91,12.91,0,0,1,330.3,388.441Z"/><path class="i" d="M317.2,355.059a60.051,60.051,0,0,1-4.048,10.421,60.051,60.051,0,0,1,4.048-10.421Z"/><path class="o" d="M254.7,304.211l27.6,2.49s8.221-3.414,9.983-2.49,10.053,8.558,10.053,8.558H235.519l-.5-1.356Z"/><path class="h" d="M274.161,202.413c1.372-2.2,4.233-3,6.829-2.966a16.189,16.189,0,0,1,15.22,12.934c.519,2.915.214,5.976,1.133,8.791a24.473,24.473,0,0,0,3.1,5.6,14.917,14.917,0,0,1,2.6,5.815,5.83,5.83,0,0,1-2.136,5.7,7.133,7.133,0,0,1-6.3,12.026c-1.567-.27-3.247-1.044-4.652-.3a7.7,7.7,0,0,0-1.724,1.627c-2.156,2.207-5.739,2.568-8.616,1.453a15.066,15.066,0,0,1-6.813-6.041c-.447-.679-1.038-1.472-1.848-1.391a2.564,2.564,0,0,0-1.225.684,7.247,7.247,0,0,1-9.909-10.492,8.348,8.348,0,0,1-5.438-5.45,12.106,12.106,0,0,1,.3-7.859c1.345-3.727,4.037-6.784,6.669-9.744,2.41-2.709,3.122-6.895,5.532-9.6a7.729,7.729,0,0,1,4.491-3,8.887,8.887,0,0,1,5.158,1.155"/><circle class="m" cx="7.208" cy="7.208" r="7.208" transform="translate(286.563 217.202)"/><path class="o" d="M279.574,203.7a13.468,13.468,0,0,0-13.467,13.613l.4,36.817c.064,4.693,4.148,8.376,9.172,8.27h0c5.074-.107,9.195-4.035,9.21-8.776.015-4.976.122-10.215.122-10.215s6.411-1.064,7.739-9.429c.334-2.1.356-9.816.3-16.931A13.465,13.465,0,0,0,279.574,203.7Z"/><path class="h" d="M291.132,222.173a1.073,1.073,0,0,1-1.034,1.082,1.026,1.026,0,0,1-1.106-.967,1.073,1.073,0,0,1,1.033-1.083A1.027,1.027,0,0,1,291.132,222.173Z"/><path class="h" d="M291.366,220.972c-.133.139-.946-.462-2.1-.459-1.153-.013-2,.581-2.125.439-.062-.062.074-.315.443-.583a2.937,2.937,0,0,1,1.7-.525,2.823,2.823,0,0,1,1.671.54C291.312,220.656,291.432,220.909,291.366,220.972Z"/><path class="h" d="M279.579,222.173a1.074,1.074,0,0,1-1.035,1.082,1.025,1.025,0,0,1-1.105-.967,1.073,1.073,0,0,1,1.033-1.083A1.027,1.027,0,0,1,279.579,222.173Z"/><path class="h" d="M280.02,221.187c-.133.14-.947-.461-2.1-.458-1.152-.014-2,.58-2.125.439-.061-.063.073-.315.443-.584a2.952,2.952,0,0,1,1.7-.525,2.836,2.836,0,0,1,1.672.54C279.964,220.872,280.085,221.124,280.02,221.187Z"/><path class="h" d="M284.209,229.748a7.616,7.616,0,0,1,1.875-.339c.294-.03.574-.089.623-.29a1.492,1.492,0,0,0-.2-.873L285.639,226a38.541,38.541,0,0,1-1.958-5.871,38.749,38.749,0,0,1,2.426,5.7q.437,1.182.835,2.258a1.71,1.71,0,0,1,.153,1.156.74.74,0,0,1-.485.431,2,2,0,0,1-.5.07A7.553,7.553,0,0,1,284.209,229.748Z"/><path class="p" d="M285.006,243.407a21.278,21.278,0,0,1-11.2-2.988s2.718,5.746,11.089,4.963Z"/><path class="p" d="M283.721,232.53a2.08,2.08,0,0,0-1.865-.773,1.9,1.9,0,0,0-1.311.7,1.2,1.2,0,0,0-.092,1.376,1.4,1.4,0,0,0,1.514.383,4.362,4.362,0,0,0,1.475-.881,1.287,1.287,0,0,0,.33-.341.388.388,0,0,0,0-.43"/><path class="h" d="M280.812,230.546c.188-.011.19,1.242,1.262,2.131s2.407.752,2.416.927c.018.079-.3.243-.861.259a3.122,3.122,0,0,1-2.017-.7,2.718,2.718,0,0,1-.978-1.787C280.586,230.849,280.726,230.539,280.812,230.546Z"/><path class="h" d="M280.069,217.955c-.114.314-1.267.165-2.621.329-1.357.135-2.449.532-2.629.251-.08-.135.11-.43.552-.734a4.586,4.586,0,0,1,4-.442C279.868,217.56,280.118,217.806,280.069,217.955Z"/><path class="h" d="M290.942,217.631c-.2.262-1-.01-1.955-.023-.955-.046-1.766.176-1.952-.1-.082-.133.046-.4.4-.644a2.833,2.833,0,0,1,3.147.1C290.92,217.233,291.031,217.5,290.942,217.631Z"/><path class="h" d="M263.081,217.085c.589-5.067,2.982-10.17,7.329-12.838,3.813-2.341,7.709-2.873,11.5-.81a10.891,10.891,0,0,1,8.872,2.789,14.115,14.115,0,0,1,4.309,8.824c.379,3.324-.784,6.807-2.029,9.912-.215-2.825.091-5.744-.124-8.568-4.348-1.845-9.094-5.49-10.788-9.917a17.691,17.691,0,0,1-12.675,12.348,14.491,14.491,0,0,1-4.97,13.427C263.463,227.258,262.492,222.152,263.081,217.085Z"/><path class="h" d="M268.626,222.1c-.65,3.24.461,6.535,1.283,9.736s1.306,6.811-.412,9.633a5.05,5.05,0,0,0-1.16,2.565,9.477,9.477,0,0,0,.869,2.377,3.722,3.722,0,0,1-1.668,4.03,6.1,6.1,0,0,1-4.52.648,18.13,18.13,0,0,1-4.344-1.712l-4.076-2.029a7,7,0,0,1-1.713-1.071,5.757,5.757,0,0,1-1.483-3.036,18.4,18.4,0,0,1,2.175-12.835c2.179-3.865,1.21-10.288,4.958-12.664"/><path class="i" d="M256.681,248.021a8.164,8.164,0,0,1-2.184-.86,6.962,6.962,0,0,1-3.225-5.211,8.662,8.662,0,0,1,.729-4.268,10.226,10.226,0,0,1,1.247-2.089c.521-.662,1.129-1.292,1.759-1.945a17.984,17.984,0,0,0,1.841-2.142,6.175,6.175,0,0,0,1.114-2.791c.254-2.06-.524-4.094-.192-6.069a3.768,3.768,0,0,1,1.479-2.4,9.3,9.3,0,0,1,2.62-1.265,19.731,19.731,0,0,0,5.237-2.334,35.465,35.465,0,0,0,7.153-6.509c1.8-2.079,3.115-3.879,4.008-5.128.442-.628.78-1.119,1-1.459a2.545,2.545,0,0,0,.313-.533,2.514,2.514,0,0,0-.4.467l-1.082,1.4c-.945,1.206-2.3,2.965-4.13,5a36.441,36.441,0,0,1-7.134,6.336,19.477,19.477,0,0,1-5.137,2.25,9.748,9.748,0,0,0-2.779,1.341,4.331,4.331,0,0,0-1.693,2.746c-.345,2.2.445,4.214.2,6.1-.2,1.9-1.56,3.349-2.784,4.642a26.043,26.043,0,0,0-1.776,2,10.569,10.569,0,0,0-1.283,2.207,8.972,8.972,0,0,0-.7,4.493,7.047,7.047,0,0,0,1.388,3.484,6.806,6.806,0,0,0,2.12,1.873,5.529,5.529,0,0,0,1.675.617A2.085,2.085,0,0,0,256.681,248.021Z"/><path class="i" d="M259.261,215.07a2.878,2.878,0,0,0,.891-.182,23.978,23.978,0,0,0,2.343-.784,35.957,35.957,0,0,0,13.4-9.11,23.8,23.8,0,0,0,1.59-1.891c.349-.468.527-.737.5-.761-.07-.058-.9.921-2.372,2.378a43.139,43.139,0,0,1-13.263,9.018C260.451,214.567,259.233,214.983,259.261,215.07Z"/><path class="i" d="M288.665,202.151c.043-.054-.384-.519-1.224-1.1a7.031,7.031,0,0,0-3.786-1.311,4.83,4.83,0,0,0-2.215.464,4.053,4.053,0,0,0-1.435,1.168c-.645.863-.631,1.57-.572,1.566a10.868,10.868,0,0,1,.875-1.312,4.342,4.342,0,0,1,3.337-1.327,7.867,7.867,0,0,1,3.588,1.089A7.172,7.172,0,0,0,288.665,202.151Z"/><circle class="m" cx="7.208" cy="7.208" r="7.208" transform="translate(257.995 217.754)"/><path class="m" d="M267.953,219.844s-.283-15.362,9.485-19.643h-4.383s-7.753,1.133-8.514,18.432"/><g class="n"><circle cx="2.992" cy="2.992" r="2.992" transform="translate(262.211 221.97)"/></g><path class="h" d="M267.446,226.7a1.586,1.586,0,0,1-.3.386,2.975,2.975,0,0,1-1.143.688,3.144,3.144,0,0,1-1.978.005,3.107,3.107,0,0,1-1.789-4.066,3.148,3.148,0,0,1,1.341-1.455,2.968,2.968,0,0,1,1.279-.377,1.564,1.564,0,0,1,.487.039,3.533,3.533,0,0,0-1.693.465,3.077,3.077,0,0,0-1.237,1.4,2.954,2.954,0,0,0,1.675,3.81,3.074,3.074,0,0,0,1.87.036A3.52,3.52,0,0,0,267.446,226.7Z"/><path class="h" d="M269.462,224.883a9.122,9.122,0,0,0-.173-1.03,4.238,4.238,0,0,0-1.554-2.3,4.167,4.167,0,1,0,0,6.653,4.248,4.248,0,0,0,1.555-2.3,9.144,9.144,0,0,0,.172-1.03,3.3,3.3,0,0,1-.094,1.05,4.237,4.237,0,0,1-1.543,2.394,4.324,4.324,0,0,1-4.106.647,4.345,4.345,0,0,1,0-8.181,4.324,4.324,0,0,1,4.105.646,4.236,4.236,0,0,1,1.544,2.4A3.292,3.292,0,0,1,269.462,224.883Z"/><path class="i" d="M273.466,366.312c7.066-.466,3.744-10.608,3.57-21.9-.11-7.081-4.815-14.027-9.947-18.907a24.192,24.192,0,0,0-9.011-5.031,55.985,55.985,0,0,0-27.326-1.754S217.377,370.012,273.466,366.312Z"/><rect class="h" width="61.719" height="8.481" transform="translate(608.496 402.335)"/><path class="h" d="M670.32,410.921H608.39v-8.692h61.93ZM608.6,410.71h61.507v-8.27H608.6Z"/><path class="h" d="M614.218,407.993,623.1,451.82h32.87l8.588-41Z"/><path class="i" d="M614.218,447.674l4.738,6.515H658.91l5.65-6.515Z"/><path class="h" d="M637.037,409.273c-.121,0-.277-20.3-.347-45.344s-.029-45.35.092-45.351.277,20.3.348,45.349S637.159,409.273,637.037,409.273Z"/><path class="h" d="M650.786,358.462a2.192,2.192,0,0,1-.166.473c-.145.344-.327.779-.551,1.314l-.4.946-.411,1.152-.476,1.323c-.165.469-.3.979-.457,1.507a61.384,61.384,0,0,0-1.726,7.557,92.115,92.115,0,0,0-.956,9.449,127.465,127.465,0,0,0,.488,17.262c.2,2.2.4,3.984.545,5.214.064.576.115,1.046.156,1.417a.251.251,0,1,1-.088.013c-.062-.369-.141-.835-.237-1.407-.2-1.224-.446-3-.685-5.206a113.706,113.706,0,0,1-.618-17.313,86.058,86.058,0,0,1,1-9.5,57.226,57.226,0,0,1,1.828-7.581c.172-.528.313-1.039.489-1.507l.511-1.319.447-1.145c.152-.345.307-.654.439-.935.256-.522.464-.947.628-1.284A2.122,2.122,0,0,1,650.786,358.462Z"/><path class="h" d="M649.208,342.041a4.164,4.164,0,0,1-.2.669q-.238.705-.642,1.888l-.472,1.361q-.229.759-.5,1.639c-.36,1.175-.779,2.51-1.151,4.012q-.3,1.124-.619,2.348-.279,1.236-.578,2.567c-.432,1.767-.743,3.687-1.141,5.692-.68,4.033-1.279,8.491-1.692,13.193-.39,4.707-.56,9.2-.62,13.294-.012,4.092.04,7.778.208,10.869.055,1.547.154,2.943.233,4.17s.148,2.285.227,3.147q.094,1.246.151,1.989a4.1,4.1,0,0,1,.023.7,4.109,4.109,0,0,1-.111-.687q-.087-.74-.234-1.982c-.1-.861-.207-1.916-.3-3.144s-.224-2.624-.3-4.173c-.208-3.094-.293-6.787-.3-10.887.038-4.1.2-8.61.587-13.329.414-4.715,1.027-9.186,1.732-13.227.41-2.009.735-3.932,1.183-5.7l.605-2.57.648-2.347c.392-1.5.833-2.834,1.217-4q.285-.874.532-1.633.277-.735.51-1.35.451-1.168.721-1.862A4.059,4.059,0,0,1,649.208,342.041Z"/><path class="h" d="M633.134,412.865a.915.915,0,0,1-.035-.237l-.058-.7c-.044-.647-.105-1.547-.182-2.689-.148-2.369-.359-5.739-.619-9.89-.536-8.349-1.31-19.884-2.715-32.568-.718-6.342-1.551-12.366-2.416-17.826-.46-2.726-.877-5.32-1.351-7.733-.434-2.421-.9-4.662-1.333-6.708-.4-2.052-.857-3.889-1.221-5.51s-.7-3.01-.993-4.144c-.272-1.111-.486-1.986-.641-2.616l-.156-.684a1.019,1.019,0,0,1-.038-.236.978.978,0,0,1,.082.225c.052.175.117.4.2.672.174.625.415,1.493.721,2.6.315,1.127.685,2.51,1.066,4.129s.861,3.451,1.286,5.5c.451,2.044.937,4.285,1.387,6.706.49,2.413.921,5.008,1.393,7.735.888,5.465,1.734,11.494,2.453,17.843,1.406,12.7,2.132,24.243,2.589,32.6.226,4.178.384,7.561.479,9.9.042,1.144.075,2.045.1,2.693.006.288.011.518.015.7A1.007,1.007,0,0,1,633.134,412.865Z"/><path class="r" d="M636.534,328.339c-.268-2.876-3.175-5.046-6.064-5.076a9.547,9.547,0,0,0-7.348,3.988,22.98,22.98,0,0,0-3.538,7.853,53.356,53.356,0,0,0-2.177,20.9c.831,7,3.672,13.894,8.7,18.841.817.8,1.875,1.609,3,1.369a3.612,3.612,0,0,0,1.581-.976,46.767,46.767,0,0,0,15.177-35.563c-.078-2.662-.428-5.433-1.9-7.651s-4.911-4.573-7.421-3.683"/><path class="r" d="M614.963,305.3l-4.069,7.368c-.095.172-.22.365-.416.381-.214.018-.373-.185-.49-.364q-5.379-8.254-10.757-16.509l2.478-1.4Z"/><g class="n"><path d="M614.963,305.3l-4.069,7.368c-.095.172-.22.365-.416.381-.214.018-.373-.185-.49-.364q-5.379-8.254-10.757-16.509l2.478-1.4Z"/></g><path class="r" d="M636.782,318.578l-36.694-21.653a1.708,1.708,0,0,1-.893-.9c-.146-.543.262-1.066.653-1.47a25.284,25.284,0,0,1,19.609-7.7,22.4,22.4,0,0,1,17.728,11.026c3.541,6.327,3.659,14.7-.4,20.7"/><path class="h" d="M605.377,290.014a1.963,1.963,0,0,1,.481-.06c.316-.016.783-.073,1.386-.067a27.631,27.631,0,0,1,5.092.4,29.764,29.764,0,0,1,23.75,21.49,27.548,27.548,0,0,1,.909,5.026c.067.6.056,1.07.072,1.386a2.054,2.054,0,0,1-.011.484c-.039,0-.085-.663-.231-1.852a31.351,31.351,0,0,0-1.038-4.959A29.977,29.977,0,0,0,612.281,290.6a31.189,31.189,0,0,0-5.038-.539C606.045,290.032,605.379,290.053,605.377,290.014Z"/><path class="h" d="M631.816,303.633a8.855,8.855,0,0,1-1.855.843c-1.169.461-2.8,1.05-4.63,1.631s-3.5,1.042-4.723,1.34a8.816,8.816,0,0,1-2,.381,10.052,10.052,0,0,1,1.918-.681l4.674-1.459,4.658-1.5A10.016,10.016,0,0,1,631.816,303.633Z"/><path class="h" d="M626.038,288.112a25.63,25.63,0,0,1,.207,8.2,76.906,76.906,0,0,1-.207-8.2Z"/><path class="h" d="M599.768,296.515a16.5,16.5,0,0,1,2.666-.938c1.667-.514,3.988-1.165,6.576-1.789s4.953-1.1,6.671-1.4a16.357,16.357,0,0,1,2.8-.378,19.856,19.856,0,0,1-2.739.683c-1.7.379-4.046.9-6.629,1.526s-4.909,1.224-6.595,1.66A19.8,19.8,0,0,1,599.768,296.515Z"/><path class="r" d="M619.863,321.531c-3.156-2.393-6.493-2.865-10.45-2.708a31.939,31.939,0,0,0-11.438,2.952c-6.187,2.709-12,6.7-15.7,12.357s-4.984,13.138-2.216,19.3a2.755,2.755,0,0,0,1.253,1.52,2.992,2.992,0,0,0,2.071-.159c7.038-2.3,14.125-4.612,20.6-8.208s12.361-8.592,15.833-15.13a12.99,12.99,0,0,0,1.666-5.02,6.244,6.244,0,0,0-1.614-4.9"/><path class="h" d="M619.926,320.788a2.569,2.569,0,0,1-.507.206l-1.474.507-1.068.356c-.387.14-.8.313-1.248.486-.89.36-1.924.72-3.012,1.248l-1.726.786c-.6.277-1.2.616-1.828.939-1.276.626-2.566,1.427-3.94,2.238A62.283,62.283,0,0,0,589.6,341.212c-.98,1.261-1.938,2.439-2.722,3.624-.4.587-.814,1.136-1.164,1.694l-1,1.611c-.663,1.013-1.151,1.992-1.622,2.829-.229.422-.453.81-.641,1.176l-.489,1.013c-.283.574-.512,1.037-.691,1.4a.274.274,0,1,1-.081-.036c.16-.37.364-.846.617-1.435.139-.315.292-.66.456-1.033s.392-.768.611-1.2c.452-.851.924-1.846,1.573-2.874l.98-1.635c.345-.567.754-1.124,1.15-1.718.776-1.2,1.729-2.4,2.707-3.671a60.3,60.3,0,0,1,15.627-13.749c1.389-.807,2.7-1.6,3.986-2.217.64-.317,1.244-.651,1.85-.921l1.747-.764c1.1-.513,2.149-.855,3.051-1.194.454-.163.872-.326,1.265-.454l1.083-.321,1.5-.429A2.637,2.637,0,0,1,619.926,320.788Z"/><path class="h" d="M595.27,334.138a147.487,147.487,0,0,1-15.477,4.525,148.506,148.506,0,0,1,15.477-4.525Z"/><path class="h" d="M594.955,351.079a12.188,12.188,0,0,1-.169-2.392c-.041-1.479-.047-3.523.016-5.779s.184-4.3.307-5.773a12.319,12.319,0,0,1,.3-2.378,13.617,13.617,0,0,1,.008,2.4c-.05,1.62-.111,3.589-.178,5.767s-.1,4.146-.144,5.767A13.686,13.686,0,0,1,594.955,351.079Z"/><path class="h" d="M609.466,343.686c-.121.008-.507-4.146-.862-9.277s-.544-9.3-.423-9.308.507,4.145.862,9.278S609.587,343.677,609.466,343.686Z"/><path class="h" d="M591.4,324.7a13.81,13.81,0,0,1,2.46-.074c1.518.011,3.612.055,5.924.131s4.406.171,5.92.261a13.824,13.824,0,0,1,2.451.236,13.558,13.558,0,0,1-2.457.075c-1.518-.011-3.614-.055-5.929-.132s-4.408-.171-5.922-.26A13.526,13.526,0,0,1,591.4,324.7Z"/><path class="h" d="M627.677,376.819a2.169,2.169,0,0,1-.053-.5c-.017-.378-.038-.855-.064-1.442-.056-1.252-.068-3.066-.021-5.307s.189-4.909.453-7.862c.285-2.95.7-6.186,1.291-9.557.609-3.368,1.338-6.549,2.089-9.417.772-2.863,1.553-5.417,2.289-7.535s1.368-3.817,1.852-4.973c.228-.542.412-.982.559-1.331a2.163,2.163,0,0,1,.222-.452,2.231,2.231,0,0,1-.14.485l-.481,1.359c-.434,1.173-1.027,2.884-1.717,5.01s-1.445,4.681-2.193,7.54c-.726,2.864-1.441,6.035-2.047,9.392-.59,3.358-1.014,6.58-1.321,9.519-.285,2.941-.466,5.6-.545,7.831s-.122,4.045-.119,5.3c-.007.587-.013,1.064-.018,1.442A2.2,2.2,0,0,1,627.677,376.819Z"/><path class="h" d="M629.612,351.783a10.076,10.076,0,0,1-1.463,1.607c-.95.946-2.3,2.217-3.835,3.566s-2.976,2.519-4.038,3.336a10.133,10.133,0,0,1-1.785,1.241,11.408,11.408,0,0,1,1.588-1.482l3.945-3.426,3.912-3.462A11.38,11.38,0,0,1,629.612,351.783Z"/><path class="h" d="M641.227,361.139a17.235,17.235,0,0,1-1.559-2.159l-3.626-5.292-3.7-5.24a17.125,17.125,0,0,1-1.482-2.212,14.921,14.921,0,0,1,1.731,2.026c1.018,1.293,2.379,3.114,3.814,5.175s2.668,3.971,3.526,5.374A14.9,14.9,0,0,1,641.227,361.139Z"/><path class="h" d="M635.143,331.715c.065.1-3.793,2.7-8.617,5.8s-8.789,5.534-8.855,5.432,3.792-2.7,8.617-5.8S635.077,331.613,635.143,331.715Z"/><path class="h" d="M646.021,343.457a143.746,143.746,0,0,1-11.364-11.1,143.3,143.3,0,0,1,11.364,11.1Z"/><path class="r" d="M648.757,343.222l3.312-.274a16.391,16.391,0,0,0,6.688-2.048,26.64,26.64,0,0,1,3.118-1.566c4.095-1.643,8.663-1.349,13.07-1.57a54.121,54.121,0,0,0,20.793-5.317,2.021,2.021,0,0,0,.905-.822c.681-1.239-.583-2.343-1.67-3.013-5.58-3.438-11.26-6.92-17.588-8.627s-13.51-1.418-18.909,2.3c-6.338,4.362-8.648,13.321-9.719,20.94"/><path class="h" d="M696.718,331.218a3.391,3.391,0,0,1-.561-.262l-1.57-.822c-1.362-.716-3.322-1.773-5.8-2.96a54.211,54.211,0,0,0-8.976-3.459,29.63,29.63,0,0,0-11.632-.943,19.884,19.884,0,0,0-10.605,4.554,23.6,23.6,0,0,0-5.522,7.756,64.781,64.781,0,0,0-2.4,6.039l-.59,1.67a3.272,3.272,0,0,1-.232.575,3.312,3.312,0,0,1,.148-.6l.511-1.7a55.142,55.142,0,0,1,2.283-6.116,23.486,23.486,0,0,1,5.536-7.929,20.1,20.1,0,0,1,10.816-4.686,29.626,29.626,0,0,1,11.8.988,52.2,52.2,0,0,1,9,3.57c2.468,1.228,4.407,2.328,5.744,3.09l1.531.895A3.126,3.126,0,0,1,696.718,331.218Z"/><path class="h" d="M688.764,335.491c-.068.1-4.4-2.7-9.674-6.258s-9.5-6.522-9.429-6.623,4.4,2.7,9.675,6.259S688.832,335.39,688.764,335.491Z"/><path class="h" d="M684.6,322.2a16.245,16.245,0,0,1-6.829.629,79.71,79.71,0,0,1,6.829-.629Z"/><path class="h" d="M665.181,318.716a22.9,22.9,0,0,1-3.22,5.459,22.993,22.993,0,0,1,3.22-5.459Z"/><path class="h" d="M669.063,338.043a11.526,11.526,0,0,1-2.085-1.131c-1.251-.759-2.942-1.872-4.749-3.184s-3.4-2.553-4.545-3.461a12.853,12.853,0,0,1-1.8-1.542,12.444,12.444,0,0,1,1.986,1.294l4.616,3.353c1.8,1.308,3.455,2.455,4.66,3.279A14.074,14.074,0,0,1,669.063,338.043Z"/><path class="r" d="M653.634,357.293c-3.159-.835-6.925,2.238-7.576,5.44s.55,6.477,1.955,9.426a48.1,48.1,0,0,0,13.064,17.093,32.3,32.3,0,0,0,19.975,7.353c-1.336-6.2.354-12.683-.391-18.985a24.695,24.695,0,0,0-21.873-21.655c-2.016-.218-4.35-.534-5.154,1.328"/><path class="h" d="M681.052,396.605a2.027,2.027,0,0,1-.45-.209,8.131,8.131,0,0,1-1.181-.793,12.317,12.317,0,0,1-3.119-4.172c-.5-.978-1.067-2.04-1.617-3.215-.534-1.18-1.1-2.437-1.7-3.757a36.3,36.3,0,0,0-2.088-4.016,31.5,31.5,0,0,0-2.874-3.909c-2.163-2.54-4.484-4.738-6.495-6.838a44.6,44.6,0,0,1-4.953-5.941,21.792,21.792,0,0,1-2.419-4.622,13.984,13.984,0,0,1-.422-1.355,2.066,2.066,0,0,1-.1-.485c.041-.012.22.645.681,1.777a23.835,23.835,0,0,0,2.517,4.509,47.083,47.083,0,0,0,4.986,5.835c2.021,2.077,4.355,4.27,6.54,6.836a31.193,31.193,0,0,1,2.906,3.968,35.625,35.625,0,0,1,2.09,4.073l1.662,3.772c.53,1.17,1.078,2.243,1.562,3.226a12.747,12.747,0,0,0,2.953,4.183C680.454,396.268,681.078,396.563,681.052,396.605Z"/><path class="h" d="M664.716,391.45a9.487,9.487,0,0,1,.29-2.126c.247-1.3.653-3.087,1.2-5.033s1.135-3.681,1.6-4.92a9.472,9.472,0,0,1,.863-1.965,11.446,11.446,0,0,1-.568,2.066c-.392,1.261-.928,3-1.474,4.938s-1,3.7-1.321,4.981A11.4,11.4,0,0,1,664.716,391.45Z"/><path class="h" d="M680.453,376.224a13.019,13.019,0,0,1-2.225-.512c-1.361-.356-3.241-.842-5.332-1.313s-4-.837-5.381-1.1a13.009,13.009,0,0,1-2.23-.492,10.7,10.7,0,0,1,2.279.185c1.4.184,3.325.5,5.429.977s3.979,1.01,5.322,1.444A10.691,10.691,0,0,1,680.453,376.224Z"/><path class="h" d="M652.993,380.648a13.015,13.015,0,0,1,.342-2.461c.278-1.508.72-3.581,1.311-5.846s1.219-4.291,1.714-5.742a12.786,12.786,0,0,1,.905-2.314,15.187,15.187,0,0,1-.608,2.406c-.418,1.472-1,3.5-1.586,5.761s-1.077,4.311-1.432,5.8A14.925,14.925,0,0,1,652.993,380.648Z"/><path class="h" d="M673.206,362.955c-.013.12-3.957-.2-8.807-.713s-8.775-1.029-8.762-1.15,3.955.2,8.808.713S673.219,362.834,673.206,362.955Z"/><path class="i" d="M670.317,410.78c0,.121-13.863.22-30.96.22s-30.963-.1-30.963-.22,13.86-.22,30.963-.22S670.317,410.658,670.317,410.78Z"/><path class="i" d="M660.672,428.62c0,.121-9.341.22-20.86.22s-20.862-.1-20.862-.22,9.338-.22,20.862-.22S660.672,428.5,660.672,428.62Z"/><path class="i" d="M661.036,431.171c0,.121-9.341.219-20.86.219s-20.862-.1-20.862-.219,9.339-.22,20.862-.22S661.036,431.049,661.036,431.171Z"/><path class="i" d="M661.036,426.517c0,.122-9.661.22-21.577.22s-21.579-.1-21.579-.22,9.66-.219,21.579-.219S661.036,426.4,661.036,426.517Z"/><path class="r" d="M104.376,354.653a15.186,15.186,0,0,1,10.54,5.512,26.811,26.811,0,0,1,5.3,10.906c1.973,7.637.643,16.619-1.6,24.184-8.224-3.02-13.236-11.861-15.5-16.506-3.573-7.342-5.572-22.78,1.256-24.1"/><path class="r" d="M130.408,404.592a12.958,12.958,0,0,1-.5-13,17.209,17.209,0,0,1,10.436-8.242c2.018-.6,4.356-.841,6.1.344a5.543,5.543,0,0,1,2.089,5.215,11.24,11.24,0,0,1-2.418,5.311c-4.058,5.4-8.976,9.874-15.709,10.374"/><g class="s"><path class="d" d="M130.408,404.592a12.958,12.958,0,0,1-.5-13,17.209,17.209,0,0,1,10.436-8.242c2.018-.6,4.356-.841,6.1.344a5.543,5.543,0,0,1,2.089,5.215,11.24,11.24,0,0,1-2.418,5.311c-4.058,5.4-8.976,9.874-15.709,10.374"/></g><path class="r" d="M121.631,412.68a30.317,30.317,0,0,0-23.825-14.125c-2.442-.126-5.366.345-6.408,2.557s.467,4.782,2.165,6.546a25.9,25.9,0,0,0,28.172,5.676"/><g class="s"><path class="d" d="M121.631,412.68a30.317,30.317,0,0,0-23.825-14.125c-2.442-.126-5.366.345-6.408,2.557s.467,4.782,2.165,6.546a25.9,25.9,0,0,0,28.172,5.676"/></g><path class="h" d="M130.477,430.791a10.018,10.018,0,0,1-.336-1.618c-.181-1.047-.427-2.565-.68-4.449a57.174,57.174,0,0,1-.333-14.851,28.13,28.13,0,0,1,5.5-13.722,18.97,18.97,0,0,1,3.19-3.2,11.446,11.446,0,0,1,1-.714,1.368,1.368,0,0,1,.372-.213,28.263,28.263,0,0,0-4.271,4.352,28.935,28.935,0,0,0-5.28,13.566,62.341,62.341,0,0,0,.183,14.738c.209,1.817.383,3.321.515,4.464A10.069,10.069,0,0,1,130.477,430.791Z"/><path class="h" d="M106.938,366.274a3.79,3.79,0,0,1,.322.63c.211.47.486,1.083.83,1.846.712,1.606,1.714,3.943,2.929,6.841,2.432,5.794,5.683,13.845,9.074,22.813s6.277,17.162,8.286,23.116c1.005,2.977,1.8,5.392,2.327,7.068.248.8.446,1.441.6,1.933a3.556,3.556,0,0,1,.175.685,3.59,3.59,0,0,1-.274-.651c-.176-.484-.4-1.116-.691-1.9-.606-1.712-1.449-4.094-2.483-7.012-2.1-5.921-5.038-14.085-8.425-23.053s-6.584-17.03-8.927-22.858c-1.156-2.872-2.1-5.216-2.776-6.9l-.74-1.883A3.5,3.5,0,0,1,106.938,366.274Z"/><path class="h" d="M101.707,404.874a9.081,9.081,0,0,1,1.579.094,13.393,13.393,0,0,1,1.838.257,22.085,22.085,0,0,1,2.4.526l1.382.383c.479.138.958.337,1.466.514a32.545,32.545,0,0,1,3.159,1.333,34.429,34.429,0,0,1,12.1,9.836,32.6,32.6,0,0,1,1.951,2.821c.277.46.57.889.8,1.33s.447.866.657,1.274a22.307,22.307,0,0,1,1.007,2.245,13.455,13.455,0,0,1,.628,1.747,9.259,9.259,0,0,1,.414,1.526c-.117.04-.7-2.15-2.376-5.35l-.679-1.243c-.239-.43-.537-.849-.818-1.3-.545-.911-1.251-1.8-1.964-2.755a35.6,35.6,0,0,0-11.939-9.7c-1.081-.5-2.1-1.012-3.1-1.359-.5-.183-.968-.39-1.438-.536l-1.356-.41C103.954,405.117,101.692,405,101.707,404.874Z"/><path class="h" d="M0,0H29.631a0,0,0,0,1,0,0V17.342A12.288,12.288,0,0,1,17.342,29.631H12.288A12.288,12.288,0,0,1,0,17.342V0A0,0,0,0,1,0,0Z" transform="translate(114.82 423.408)"/><g class="s"><path d="M0,0H29.631a0,0,0,0,1,0,0V17.342A12.288,12.288,0,0,1,17.342,29.631H12.288A12.288,12.288,0,0,1,0,17.342V0A0,0,0,0,1,0,0Z" transform="translate(114.82 423.408)"/></g><path class="g" d="M134.838,423.487a2.97,2.97,0,0,1-.34.876,15.006,15.006,0,0,1-1.315,2.2A17.723,17.723,0,0,1,118.618,434a15.158,15.158,0,0,1-2.551-.225,2.938,2.938,0,0,1-.909-.238c.013-.094,1.327.164,3.455.1a18.665,18.665,0,0,0,14.275-7.288C134.193,424.659,134.755,423.443,134.838,423.487Z"/><path class="g" d="M144.17,443.433a3.074,3.074,0,0,1-.959-.2,11.23,11.23,0,0,1-2.439-1.1,12.578,12.578,0,0,1-5.35-15.466,11.168,11.168,0,0,1,1.24-2.37,3.05,3.05,0,0,1,.628-.752,25.612,25.612,0,0,0-1.521,3.248,12.717,12.717,0,0,0,5.2,15.027A25.415,25.415,0,0,0,144.17,443.433Z"/><path class="g" d="M136.577,452.22a17.614,17.614,0,0,0-.621-4.376,13.473,13.473,0,0,0-2.207-4.209,15.248,15.248,0,0,0-4.384-3.815,16.763,16.763,0,0,0-10.28-1.975,34.135,34.135,0,0,0-4.341.953,4.6,4.6,0,0,1,1.1-.505,15.984,15.984,0,0,1,3.194-.813,16.415,16.415,0,0,1,10.59,1.89,15.2,15.2,0,0,1,4.5,3.974,13.2,13.2,0,0,1,2.178,4.4,11.128,11.128,0,0,1,.41,3.278A4.277,4.277,0,0,1,136.577,452.22Z"/><path class="i" d="M312.453,266.79c-.012.051-.023.1-.034.157a5.262,5.262,0,0,0,3.858,6.211l8.564,2.126,2.979-9.144-8.42-3.132A5.245,5.245,0,0,0,312.453,266.79Z"/><path class="h" d="M315.3,272.723a6.188,6.188,0,0,1-.4-1.115c-.214-.7-.483-1.671-.737-2.756s-.445-2.077-.562-2.8a6.043,6.043,0,0,1-.139-1.175,7.324,7.324,0,0,1,.283,1.148c.221.988.414,1.854.621,2.778.224.919.435,1.78.676,2.764A7.209,7.209,0,0,1,315.3,272.723Z"/><path class="h" d="M317.721,273.569c-.057.01-.528-2.287-1.053-5.13s-.9-5.158-.848-5.169.528,2.286,1.053,5.131S317.777,273.558,317.721,273.569Z"/><path class="h" d="M320.7,274.1c-.056.012-.621-2.5-1.262-5.618s-1.114-5.648-1.057-5.66.621,2.5,1.261,5.618S320.753,274.091,320.7,274.1Z"/><path class="h" d="M322.914,271.893a7.505,7.505,0,0,1-.236-1.181c-.18-1.009-.338-1.9-.507-2.854-.19-.95-.367-1.839-.567-2.844a7.5,7.5,0,0,1-.21-1.186,6.431,6.431,0,0,1,.353,1.153c.187.72.418,1.722.628,2.838s.361,2.133.448,2.872A6.456,6.456,0,0,1,322.914,271.893Z"/><path class="h" d="M325.017,267.363a9.307,9.307,0,0,1-.641-2.7,9.307,9.307,0,0,1,.641,2.7Z"/><path class="h" d="M322.48,272.631a35.149,35.149,0,0,1-5.362.811,35.535,35.535,0,0,1,5.362-.811Z"/><path class="h" d="M324.138,269.626c.009.057-2.361.512-5.294,1.017s-5.32.868-5.33.812,2.36-.512,5.294-1.017S324.128,269.569,324.138,269.626Z"/><path class="h" d="M325.421,266.825c.009.057-2.947.528-6.6,1.052s-6.622.9-6.63.845,2.946-.527,6.6-1.051S325.413,266.768,325.421,266.825Z"/><path class="h" d="M322.753,264.3c.008.057-2.216.421-4.966.813s-4.988.665-5,.608,2.216-.421,4.967-.814S322.745,264.248,322.753,264.3Z"/><path class="i" d="M312.453,266.79c-.012.051-.023.1-.034.157a5.262,5.262,0,0,0,3.858,6.211l8.564,2.126,2.979-9.144-8.42-3.132A5.245,5.245,0,0,0,312.453,266.79Z"/><path class="h" d="M315.3,272.723a6.188,6.188,0,0,1-.4-1.115c-.214-.7-.483-1.671-.737-2.756s-.445-2.077-.562-2.8a6.043,6.043,0,0,1-.139-1.175,7.324,7.324,0,0,1,.283,1.148c.221.988.414,1.854.621,2.778.224.919.435,1.78.676,2.764A7.209,7.209,0,0,1,315.3,272.723Z"/><path class="h" d="M317.721,273.569c-.057.01-.528-2.287-1.053-5.13s-.9-5.158-.848-5.169.528,2.286,1.053,5.131S317.777,273.558,317.721,273.569Z"/><path class="h" d="M320.7,274.1c-.056.012-.621-2.5-1.262-5.618s-1.114-5.648-1.057-5.66.621,2.5,1.261,5.618S320.753,274.091,320.7,274.1Z"/><path class="h" d="M322.914,271.893a7.505,7.505,0,0,1-.236-1.181c-.18-1.009-.338-1.9-.507-2.854-.19-.95-.367-1.839-.567-2.844a7.5,7.5,0,0,1-.21-1.186,6.431,6.431,0,0,1,.353,1.153c.187.72.418,1.722.628,2.838s.361,2.133.448,2.872A6.456,6.456,0,0,1,322.914,271.893Z"/><path class="h" d="M325.017,267.363a9.307,9.307,0,0,1-.641-2.7,9.307,9.307,0,0,1,.641,2.7Z"/><path class="h" d="M322.48,272.631a35.149,35.149,0,0,1-5.362.811,35.535,35.535,0,0,1,5.362-.811Z"/><path class="h" d="M324.138,269.626c.009.057-2.361.512-5.294,1.017s-5.32.868-5.33.812,2.36-.512,5.294-1.017S324.128,269.569,324.138,269.626Z"/><path class="h" d="M325.421,266.825c.009.057-2.947.528-6.6,1.052s-6.622.9-6.63.845,2.946-.527,6.6-1.051S325.413,266.768,325.421,266.825Z"/><path class="h" d="M322.753,264.3c.008.057-2.216.421-4.966.813s-4.988.665-5,.608,2.216-.421,4.967-.814S322.745,264.248,322.753,264.3Z"/><path class="h" d="M325.535,264.891,322,275.252l16.728,5.276a3.134,3.134,0,0,0,3.7-2.076l1.06-3.243a3.134,3.134,0,0,0-1.71-3.839Z"/><path class="i" d="M2.4,0h.36a2.4,2.4,0,0,1,2.4,2.4V41.734a0,0,0,0,1,0,0H0a0,0,0,0,1,0,0V2.4A2.4,2.4,0,0,1,2.4,0Z" transform="translate(325.241 271.035)"/><path class="h" d="M329.477,274.174a1.657,1.657,0,1,1-1.657-1.657A1.657,1.657,0,0,1,329.477,274.174Z"/><path class="h" d="M341.2,276.98l4.818,1.426.357-1.426-5.175-1.52Z"/><path class="h" d="M365.574,313.121a6.375,6.375,0,0,1,.552,1.08,11.115,11.115,0,0,1,.818,3.382,13.233,13.233,0,0,1-.711,5.457,14.018,14.018,0,0,1-1.533,3.1,25.982,25.982,0,0,1-2.411,3.023c-1.772,2.014-4.027,4.038-5.3,6.906a9.406,9.406,0,0,0-.85,4.663,5.4,5.4,0,0,0,2.5,4.115,5.582,5.582,0,0,0,5.024.468,6.178,6.178,0,0,0,3.38-4.086,8.767,8.767,0,0,0-.285-5.638,17.017,17.017,0,0,0-3.167-5.057c-2.642-3.07-5.965-5.618-7.646-9.277a11.923,11.923,0,0,1-.971-5.69,29.27,29.27,0,0,1,1-5.421c.924-3.438,1.906-6.7,1.772-9.857a23.2,23.2,0,0,0-1.917-8.472,31.262,31.262,0,0,0-3.6-6.255,46.769,46.769,0,0,0-3.495-4.212c-1.022-1.1-1.854-1.926-2.417-2.485l-.639-.636a1.318,1.318,0,0,1-.207-.23,1.411,1.411,0,0,1,.243.191l.676.6c.587.535,1.443,1.335,2.491,2.422a44.08,44.08,0,0,1,3.582,4.178,30.986,30.986,0,0,1,3.707,6.283,23.459,23.459,0,0,1,2.011,8.606c.154,3.233-.835,6.57-1.74,9.989a29.03,29.03,0,0,0-.969,5.329,11.452,11.452,0,0,0,.94,5.45c1.606,3.5,4.877,6.027,7.576,9.149a17.478,17.478,0,0,1,3.257,5.215,9.272,9.272,0,0,1,.289,5.962,6.672,6.672,0,0,1-3.677,4.4,6.064,6.064,0,0,1-5.47-.519,5.866,5.866,0,0,1-2.7-4.475,9.827,9.827,0,0,1,.91-4.887,15.724,15.724,0,0,1,2.557-3.858c.967-1.121,1.958-2.129,2.865-3.12a25.722,25.722,0,0,0,2.408-2.959,13.788,13.788,0,0,0,1.534-3.013,13.211,13.211,0,0,0,.784-5.344,11.7,11.7,0,0,0-.714-3.358C365.753,313.5,365.546,313.135,365.574,313.121Z"/><path class="i" d="M419.1,266.79c.011.051.023.1.034.157a5.262,5.262,0,0,1-3.859,6.211l-8.564,2.126-2.979-9.144,8.42-3.132A5.246,5.246,0,0,1,419.1,266.79Z"/><path class="h" d="M416.244,272.723a7.3,7.3,0,0,1,.255-1.154c.24-.984.451-1.845.676-2.764.206-.924.4-1.79.62-2.778a7.105,7.105,0,0,1,.284-1.148,6.248,6.248,0,0,1-.139,1.175c-.118.721-.309,1.712-.562,2.8s-.523,2.058-.737,2.756A6.133,6.133,0,0,1,416.244,272.723Z"/><path class="h" d="M413.827,273.569c-.057-.011.323-2.325.847-5.168s1-5.141,1.053-5.131-.323,2.324-.848,5.169S413.883,273.579,413.827,273.569Z"/><path class="h" d="M410.851,274.1c-.057-.012.417-2.546,1.057-5.66s1.205-5.629,1.262-5.618-.417,2.546-1.058,5.66S410.907,274.115,410.851,274.1Z"/><path class="h" d="M408.634,271.893a6.284,6.284,0,0,1,.09-1.2c.088-.739.238-1.756.448-2.872s.441-2.118.628-2.838a6.426,6.426,0,0,1,.353-1.153,7.562,7.562,0,0,1-.209,1.186c-.2,1.005-.378,1.894-.567,2.844-.17.953-.328,1.845-.507,2.854A7.652,7.652,0,0,1,408.634,271.893Z"/><path class="h" d="M406.53,267.363a9.352,9.352,0,0,1,.642-2.7,9.352,9.352,0,0,1-.642,2.7Z"/><path class="h" d="M409.067,272.631a35.483,35.483,0,0,1,5.362.811,35.149,35.149,0,0,1-5.362-.811Z"/><path class="h" d="M407.41,269.626c.01-.057,2.4.307,5.329.812s5.3.96,5.294,1.017-2.395-.307-5.329-.812S407.4,269.683,407.41,269.626Z"/><path class="h" d="M406.126,266.825c.008-.057,2.977.322,6.63.846s6.609.994,6.6,1.051-2.977-.321-6.631-.845S406.118,266.882,406.126,266.825Z"/><path class="h" d="M408.794,264.3c.008-.057,2.245.215,5,.607s4.975.757,4.967.814-2.245-.215-5-.608S408.786,264.362,408.794,264.3Z"/><path class="h" d="M406.012,264.891l3.534,10.361-16.728,5.276a3.133,3.133,0,0,1-3.7-2.076l-1.06-3.243a3.134,3.134,0,0,1,1.709-3.839Z"/><path class="i" d="M0,0H5.159a0,0,0,0,1,0,0V39.335a2.4,2.4,0,0,1-2.4,2.4H2.4a2.4,2.4,0,0,1-2.4-2.4V0A0,0,0,0,1,0,0Z" transform="translate(406.307 312.769) rotate(180)"/><path class="h" d="M402.07,274.174a1.658,1.658,0,1,0,1.657-1.657A1.657,1.657,0,0,0,402.07,274.174Z"/><path class="h" d="M390.345,276.98l-4.818,1.426-.357-1.426,5.175-1.52Z"/><path class="h" d="M376.421,316.481a.868.868,0,0,1,.034.249c.013.195.029.436.049.732q.062,1.029.17,2.814c.162,2.443.44,5.976,1.027,10.311.3,2.167.664,4.535,1.138,7.062a11.786,11.786,0,0,0,1.089,3.735,2.719,2.719,0,0,0,1.416,1.247,2.516,2.516,0,0,0,1.908-.124,3.877,3.877,0,0,0,1.567-1.309,5.1,5.1,0,0,0,.766-1.984,21.091,21.091,0,0,0,.028-4.569c-.163-3.148-.332-6.4-.505-9.742-.653-13.335-1.245-25.405-1.676-34.192-.086-2.187-.234-4.166-.182-5.919a14.254,14.254,0,0,1,.722-4.423,6.959,6.959,0,0,1,1.44-2.436,4.009,4.009,0,0,1,.739-.655c.022.024-.249.234-.66.724a7.222,7.222,0,0,0-1.327,2.433,14.449,14.449,0,0,0-.623,4.364c-.024,1.728.149,3.7.259,5.893.47,8.785,1.115,20.852,1.829,34.184.169,3.337.334,6.6.494,9.743a21.389,21.389,0,0,1-.049,4.685,5.581,5.581,0,0,1-.854,2.176,4.363,4.363,0,0,1-1.774,1.466,3,3,0,0,1-2.263.127,3.186,3.186,0,0,1-1.649-1.456,12.038,12.038,0,0,1-1.119-3.89c-.458-2.539-.806-4.917-1.08-7.092-.541-4.354-.763-7.9-.863-10.348-.05-1.224-.069-2.176-.073-2.821,0-.3,0-.539,0-.735A.915.915,0,0,1,376.421,316.481Z"/><path class="h" d="M556.9,453.683,539.288,317.808h6.188v-5.039H201.012v5.039h10.033c0,1.423-29.092,135.875-29.092,135.875H187l30.3-135.875H532.6l17.935,135.875Z"/><rect class="g" width="66.306" height="31.065" transform="translate(349.982 54.364)"/><path class="h" d="M416.288,85.43s-.013-.2-.02-.568l-.021-1.626c-.011-1.442-.027-3.528-.047-6.2-.025-5.377-.059-13.118-.1-22.668l.191.191-66.3.07c-.236.232.311-.318.255-.257v8.1q0,4.01,0,7.911c0,5.2-.007,10.232-.01,15.046l-.247-.247,47.558.118,13.766.068,3.688.031.959.015a3.068,3.068,0,0,1,.335.015,2.181,2.181,0,0,1-.3.015l-.93.015-3.638.031-13.709.068-47.724.117h-.246V85.43c0-4.814-.006-9.848-.01-15.046q0-3.9,0-7.911,0-2.005,0-4.034V54.368c-.058.053.494-.5.265-.264l66.3.07h.191v.19c-.043,9.6-.078,17.379-.1,22.784-.021,2.658-.037,4.73-.048,6.162-.009.682-.015,1.211-.02,1.591C416.3,85.257,416.288,85.43,416.288,85.43Z"/><rect class="m" width="61.842" height="27.744" transform="translate(352.214 56.025)"/><path class="d" d="M359.006,69.849a4.946,4.946,0,1,1,4.938,4.667A4.67,4.67,0,0,1,359.006,69.849Zm7.762,0a2.824,2.824,0,1,0-2.824,2.888A2.754,2.754,0,0,0,366.768,69.849Z"/><path class="d" d="M378.74,65.336v9.025h-1.716l-4.5-5.48v5.48h-2.063V65.336h1.727l4.487,5.479V65.336Z"/><path class="d" d="M390.479,72.427h-4.19l-.8,1.934h-2.141l4.023-9.025h2.063l4.035,9.025h-2.191Zm-.657-1.586-1.432-3.455-1.43,3.455Z"/><path class="d" d="M394.417,65.336h2.088v9.025h-2.088Z"/><path class="d" d="M404.4,74.361l-1.74-2.514h-1.921v2.514h-2.089V65.336h3.906c2.411,0,3.92,1.25,3.92,3.275a2.934,2.934,0,0,1-1.856,2.849l2.024,2.9Zm-1.959-7.324h-1.7v3.146h1.7c1.276,0,1.921-.592,1.921-1.572S403.714,67.037,402.438,67.037Z"/></g></g></svg>