<svg xmlns="http://www.w3.org/2000/svg" xmlns:xlink="http://www.w3.org/1999/xlink" width="100" height="100" viewBox="0 0 100 100"><defs><style>.a{fill:#266ab4;}.b{clip-path:url(#a);}</style><clipPath id="a"><rect class="a" width="100" height="100" transform="translate(810 5659)"/></clipPath></defs><g class="b" transform="translate(-810 -5659)"><g transform="translate(809.922 5659)"><path class="a" d="M99.815,29.4A36.54,36.54,0,0,0,97.49,17.269,25.616,25.616,0,0,0,82.858,2.637,36.634,36.634,0,0,0,70.727.313C65.374.059,63.675,0,50.1,0S34.821.059,29.488.293A36.55,36.55,0,0,0,17.357,2.617,24.4,24.4,0,0,0,8.488,8.4a24.621,24.621,0,0,0-5.763,8.85A36.638,36.638,0,0,0,.4,29.381C.147,34.734.088,36.433.088,50.01s.059,15.276.293,20.61A36.538,36.538,0,0,0,2.706,82.751,25.612,25.612,0,0,0,17.337,97.383a36.639,36.639,0,0,0,12.132,2.324c5.332.235,7.033.293,20.61.293s15.276-.058,20.61-.293a36.531,36.531,0,0,0,12.131-2.324A25.578,25.578,0,0,0,97.451,82.751a36.663,36.663,0,0,0,2.324-12.132c.234-5.333.293-7.033.293-20.61S100.049,34.734,99.815,29.4ZM90.809,70.229a27.409,27.409,0,0,1-1.719,9.279A16.588,16.588,0,0,1,79.6,89a27.506,27.506,0,0,1-9.279,1.718c-5.274.235-6.856.293-20.2.293s-14.944-.058-20.2-.293A27.4,27.4,0,0,1,20.639,89,15.388,15.388,0,0,1,14.9,85.271a15.547,15.547,0,0,1-3.732-5.743,27.511,27.511,0,0,1-1.718-9.279c-.235-5.274-.293-6.857-.293-20.2s.058-14.944.293-20.2a27.4,27.4,0,0,1,1.718-9.279,15.2,15.2,0,0,1,3.751-5.744A15.523,15.523,0,0,1,20.658,11.1a27.525,27.525,0,0,1,9.279-1.719c5.274-.234,6.857-.293,20.2-.293,13.362,0,14.944.059,20.2.293A27.409,27.409,0,0,1,79.616,11.1a15.377,15.377,0,0,1,5.743,3.731,15.544,15.544,0,0,1,3.732,5.744,27.521,27.521,0,0,1,1.719,9.279c.234,5.274.293,6.856.293,20.2S91.044,64.954,90.809,70.229Zm0,0"/><path class="a" d="M50.1,24.321A25.689,25.689,0,1,0,75.786,50.01,25.7,25.7,0,0,0,50.1,24.321Zm0,42.352A16.664,16.664,0,1,1,66.761,50.01,16.666,16.666,0,0,1,50.1,66.674Zm0,0"/><path class="a" d="M82.8,23.306a6,6,0,1,1-6-6A6,6,0,0,1,82.8,23.306Zm0,0"/></g></g></svg>