<svg xmlns="http://www.w3.org/2000/svg" xmlns:xlink="http://www.w3.org/1999/xlink" width="100" height="100" viewBox="0 0 100 100"><defs><style>.a{fill:#fff;}.b{clip-path:url(#a);}.c{fill:#266ab4;}</style><clipPath id="a"><rect class="a" width="100" height="100" transform="translate(628 5659)"/></clipPath></defs><g class="b" transform="translate(-628 -5659)"><g transform="translate(628 5659)"><path class="c" d="M99.975,100v0H100V63.321c0-17.942-3.863-31.762-24.838-31.762-10.083,0-16.85,5.533-19.613,10.779h-.292v-9.1H35.371V100H56.079V66.938c0-8.7,1.65-17.121,12.429-17.121,10.621,0,10.779,9.933,10.779,17.679V100Z"/><path class="c" d="M1.65,33.237H22.383V100H1.65Z"/><path class="c" d="M12.008,0A12.065,12.065,0,1,0,24.017,12.008,12.012,12.012,0,0,0,12.008,0Z"/></g></g></svg>