<svg xmlns="http://www.w3.org/2000/svg" width="1920" height="741" viewBox="0 0 1920 741"><defs><style>.a{fill:#fff;}.b,.c{fill:none;}.c{stroke:#d8d7e1;stroke-linecap:round;stroke-width:5px;}.d,.e,.f,.g{stroke:none;}.e{fill:#ffcd05;}.f{fill:#00a0d1;}.g{fill:#266ab4;}</style></defs><g transform="translate(0 -1821)"><rect class="a" width="1920" height="741" transform="translate(0 1821)"/><g class="b" transform="translate(1792 1890.475) rotate(-45)"><path class="d" d="M21.174,7.464a5,5,0,0,1,8.652,0L46.649,36.493A5,5,0,0,1,42.323,44H8.677a5,5,0,0,1-4.326-7.507Z"/><path class="e" d="M 25.50000190734863 9.971607208251953 C 25.50000190734863 9.971607208251953 25.5 9.971611022949219 25.5 9.971611022949219 L 8.676723480224609 38.9999885559082 C 8.676719665527344 38.99999237060547 8.676719665527344 38.99999618530273 8.676715850830078 39 C 8.676719665527344 39 8.676719665527344 39 8.676723480224609 39 L 42.32326507568359 39 C 42.32326889038086 39 42.32327270507812 39 42.32327651977539 39 L 25.5000114440918 9.971622467041016 C 25.50000762939453 9.97161865234375 25.5000057220459 9.971611022949219 25.50000190734863 9.971607208251953 M 25.5 4.971607208251953 C 27.18142509460449 4.971607208251953 28.86285018920898 5.802566528320312 29.82601165771484 7.464488983154297 L 46.64928817749023 36.49287796020508 C 48.58110046386719 39.82621002197266 46.17593383789062 44 42.32326507568359 44 L 8.676723480224609 44 C 4.824066162109375 44 2.418899536132812 39.82621002197266 4.350711822509766 36.49287796020508 L 21.17398834228516 7.464488983154297 C 22.13714981079102 5.802566528320312 23.81857490539551 4.971607208251953 25.5 4.971607208251953 Z"/></g><g class="b" transform="translate(1145.962 2458.916) rotate(60)"><path class="d" d="M16.681,7.4a5,5,0,0,1,8.638,0L37.614,28.481A5,5,0,0,1,33.295,36H8.705a5,5,0,0,1-4.319-7.519Z"/><path class="f" d="M 20.99999618530273 9.92317008972168 L 21 9.923164367675781 L 8.705181121826172 30.99999618530273 L 33.2948112487793 30.99999618530273 C 33.2948112487793 30.99999618530273 33.29481506347656 30.99999618530273 33.29481887817383 31.0000057220459 L 21 9.923175811767578 C 20.99999809265137 9.923173904418945 20.99999809265137 9.923171997070312 20.99999618530273 9.92317008972168 M 20.99999809265137 4.923168182373047 C 22.67709732055664 4.923168182373047 24.35419464111328 5.750049591064453 25.31888961791992 7.403816223144531 L 37.61370849609375 28.48064422607422 C 39.55812072753906 31.81392669677734 37.15377044677734 35.99999618530273 33.2948112487793 35.99999618530273 L 8.705181121826172 35.99999618530273 C 4.846229553222656 35.99999618530273 2.441871643066406 31.81392669677734 4.38629150390625 28.48064422607422 L 16.68110084533691 7.403816223144531 C 17.64579963684082 5.750049591064453 19.32290077209473 4.923168182373047 20.99999809265137 4.923168182373047 Z"/></g><g class="b" transform="translate(57 2412.014) rotate(30)"><path class="d" d="M16.681,7.4a5,5,0,0,1,8.638,0L37.614,28.481A5,5,0,0,1,33.295,36H8.705a5,5,0,0,1-4.319-7.519Z"/><path class="g" d="M 20.99999618530273 9.92317008972168 L 21 9.923164367675781 L 8.705181121826172 30.99999618530273 L 33.2948112487793 30.99999618530273 C 33.2948112487793 30.99999618530273 33.29481506347656 30.99999618530273 33.29481887817383 31.0000057220459 L 21 9.923175811767578 C 20.99999809265137 9.923173904418945 20.99999809265137 9.923171997070312 20.99999618530273 9.92317008972168 M 20.99999809265137 4.923168182373047 C 22.67709732055664 4.923168182373047 24.35419464111328 5.750049591064453 25.31888961791992 7.403816223144531 L 37.61370849609375 28.48064422607422 C 39.55812072753906 31.81392669677734 37.15377044677734 35.99999618530273 33.2948112487793 35.99999618530273 L 8.705181121826172 35.99999618530273 C 4.846229553222656 35.99999618530273 2.441871643066406 31.81392669677734 4.38629150390625 28.48064422607422 L 16.68110084533691 7.403816223144531 C 17.64579963684082 5.750049591064453 19.32290077209473 4.923168182373047 20.99999809265137 4.923168182373047 Z"/></g><g transform="translate(519.261 1364.68) rotate(60)"><line class="c" x2="40" transform="translate(494.5 242.5)"/><line class="c" x2="40" transform="translate(514.5 222.5) rotate(90)"/></g></g></svg>