<svg xmlns="http://www.w3.org/2000/svg" width="321.578" height="321.578" viewBox="0 0 321.578 321.578">
  <g id="Group_5922" data-name="Group 5922" transform="translate(-209.722 -163.065)">
    <path id="Path_1" data-name="Path 1" d="M311.864,414.29H223.407a13.919,13.919,0,0,1-13.685-13.916V227.027Z" transform="translate(0 70.353)" fill="#0d212c"/>
    <path id="Path_2" data-name="Path 2" d="M416.315,176.985V350.16L314.261,163.067h88.371A13.921,13.921,0,0,1,416.315,176.985Z" transform="translate(114.985 0.002)" fill="#0d212c"/>
    <path id="Path_3" data-name="Path 3" d="M531.3,479.257v.006a14.182,14.182,0,0,1-10.7,5.374H385.393L209.722,168.443a14.208,14.208,0,0,1,11.188-5.378h134.8Z" transform="translate(0 0)" fill="#0d212c"/>
    <path id="Path_4" data-name="Path 4" d="M209.722,227.027,311.864,414.29H223.407a13.919,13.919,0,0,1-13.685-13.916Z" transform="translate(0 70.353)" fill="#0d212c"/>
    <path id="Path_5" data-name="Path 5" d="M416.315,176.985V350.16L314.261,163.067h88.371A13.921,13.921,0,0,1,416.315,176.985Z" transform="translate(114.985 0.002)" fill="#0d212c"/>
  </g>
</svg>
