<svg xmlns="http://www.w3.org/2000/svg" width="54.373" height="52.177" viewBox="0 0 54.373 52.177"><defs><style>.a{fill:none;}.b,.c{stroke:none;}.c{fill:#266ab4;}</style></defs><g class="a" transform="translate(18) rotate(30)"><path class="b" d="M16.681,7.4a5,5,0,0,1,8.638,0L37.614,28.481A5,5,0,0,1,33.295,36H8.705a5,5,0,0,1-4.319-7.519Z"/><path class="c" d="M 20.99999618530273 9.92317008972168 L 21 9.923164367675781 L 8.705181121826172 30.99999618530273 L 33.2948112487793 30.99999618530273 C 33.2948112487793 30.99999618530273 33.29481506347656 30.99999618530273 33.29481887817383 31.0000057220459 L 21 9.923175811767578 C 20.99999809265137 9.923173904418945 20.99999809265137 9.923171997070312 20.99999618530273 9.92317008972168 M 20.99999809265137 4.923168182373047 C 22.67709732055664 4.923168182373047 24.35419464111328 5.750049591064453 25.31888961791992 7.403816223144531 L 37.61370849609375 28.48064422607422 C 39.55812072753906 31.81392669677734 37.15377044677734 35.99999618530273 33.2948112487793 35.99999618530273 L 8.705181121826172 35.99999618530273 C 4.846229553222656 35.99999618530273 2.441871643066406 31.81392669677734 4.38629150390625 28.48064422607422 L 16.68110084533691 7.403816223144531 C 17.64579963684082 5.750049591064453 19.32290077209473 4.923168182373047 20.99999809265137 4.923168182373047 Z"/></g></svg>