<svg xmlns="http://www.w3.org/2000/svg" width="67.175" height="67.175" viewBox="0 0 67.175 67.175"><defs><style>.a{fill:none;}.b,.c{stroke:none;}.c{fill:#ffcd05;}</style></defs><g class="a" transform="translate(0 36.062) rotate(-45)"><path class="b" d="M21.174,7.464a5,5,0,0,1,8.652,0L46.649,36.493A5,5,0,0,1,42.323,44H8.677a5,5,0,0,1-4.326-7.507Z"/><path class="c" d="M 25.50000190734863 9.971607208251953 C 25.50000190734863 9.971607208251953 25.5 9.971611022949219 25.5 9.971611022949219 L 8.676723480224609 38.9999885559082 C 8.676719665527344 38.99999237060547 8.676719665527344 38.99999618530273 8.676715850830078 39 C 8.676719665527344 39 8.676719665527344 39 8.676723480224609 39 L 42.32326507568359 39 C 42.32326889038086 39 42.32327270507812 39 42.32327651977539 39 L 25.5000114440918 9.971622467041016 C 25.50000762939453 9.97161865234375 25.5000057220459 9.971611022949219 25.50000190734863 9.971607208251953 M 25.5 4.971607208251953 C 27.18142509460449 4.971607208251953 28.86285018920898 5.802566528320312 29.82601165771484 7.464488983154297 L 46.64928817749023 36.49287796020508 C 48.58110046386719 39.82621002197266 46.17593383789062 44 42.32326507568359 44 L 8.676723480224609 44 C 4.824066162109375 44 2.418899536132812 39.82621002197266 4.350711822509766 36.49287796020508 L 21.17398834228516 7.464488983154297 C 22.13714981079102 5.802566528320312 23.81857490539551 4.971607208251953 25.5 4.971607208251953 Z"/></g></svg>