<svg xmlns="http://www.w3.org/2000/svg" width="1256.762" height="281.393" viewBox="0 0 1256.762 281.393"><defs><style>.a{fill:#ffc100;}.b{fill:#062a4f;}.c{fill:#0059a7;}</style></defs><path class="a" d="M.125,1849.4,0,2124.213H1256.762c-29.435-14.439-64.139-21.526-96.872-22.479-49.974-1.462-102.3,1.922-147.309-22.012-41.047-21.831-74.856-65.706-120.426-67.286-56.2-1.922-104.753,62.947-159.576,49.23-40.465-10.119-66.959-60.647-108.366-63.817-44.317-3.4-80.065,49.855-124.367,45.978-40.689-3.565-66.915-53.4-106.962-62.06-40.376-8.705-78.035,27.005-119.113,29.42-39.689,2.333-75.244-26.677-102.351-58.676-27.106-32.015-50.5-69.156-84.364-92.055C61.368,1843.1,26.679,1836.9.125,1849.4Z" transform="translate(0 -1842.821)"/><g transform="translate(0 92.09)"><path class="b" d="M1214,2241.623v189.3h976.431c-1.784-43.143-29.377-66.514-58.164-71.756-29.3-5.334-59.17,3.488-87.446,12.8-28.294,9.308-57.5,19.324-87.127,16.433-57.081-5.577-106.2-58.027-162.7-48.272-23.148,3.992-43.03,18.093-63.565,29.507-20.519,11.4-44.7,20.537-67.15,13.615-27.577-8.524-43.919-38.591-71.148-48.16-40.529-14.231-85.869,22.327-126.54,8.524-19.229-6.528-33.1-23.148-44.464-39.935-11.359-16.806-21.634-34.973-37.565-47.526s-39.716-18.055-56.475-6.621c-18.7,12.721-26.334,43.516-48.959,43.833-15.835.242-26.382-15.5-35.064-28.743C1236.939,2253.765,1225.931,2242.387,1214,2241.623Z" transform="translate(-1213.998 -2241.623)"/></g><g transform="translate(0 145.777)"><path class="c" d="M3412.766,2474.122v135.615h468.7c-26.526-47.3-82.513-76.895-136.6-71.075-20.924,2.251-41.064,9.2-61.854,12.471s-43.532,2.351-60.822-9.637c-16.138-11.187-26.209-31.078-44.733-37.63-22.108-7.836-45.182,6.569-68.024,11.937C3472.838,2524.407,3432.306,2505.783,3412.766,2474.122Z" transform="translate(-3412.766 -2474.122)"/></g></svg>